<svg id="Icon_Set" enable-background="new 0 0 64 64" height="512" viewBox="0 0 64 64" width="512" xmlns="http://www.w3.org/2000/svg"><path d="m50 40h-4c-.552 0-1-.448-1-1v-2c0-.552.448-1 1-1h4c.552 0 1 .448 1 1v2c0 .552-.448 1-1 1z" fill="#f9ac2f"/><path d="m50 40.5h-4c-.827 0-1.5-.673-1.5-1.5v-2c0-.827.673-1.5 1.5-1.5h4c.827 0 1.5.673 1.5 1.5v2c0 .827-.673 1.5-1.5 1.5zm-4-4c-.275 0-.5.225-.5.5v2c0 .275.225.5.5.5h4c.275 0 .5-.225.5-.5v-2c0-.275-.225-.5-.5-.5z" fill="#212a41"/><path d="m52 44h-5v16h5c2.209 0 4-3.582 4-8s-1.791-8-4-8z" fill="#6c696f"/><path d="m52 60.5h-5c-.276 0-.5-.224-.5-.5v-16c0-.276.224-.5.5-.5h5c2.523 0 4.5 3.733 4.5 8.5s-1.977 8.5-4.5 8.5zm-4.5-1h4.5c1.897 0 3.5-3.435 3.5-7.5s-1.603-7.5-3.5-7.5h-4.5z" fill="#212a41"/><ellipse cx="47" cy="52" fill="#4e4b51" rx="4" ry="8"/><path d="m47 60.5c-2.523 0-4.5-3.733-4.5-8.5s1.977-8.5 4.5-8.5 4.5 3.733 4.5 8.5-1.977 8.5-4.5 8.5zm0-16c-1.897 0-3.5 3.435-3.5 7.5s1.603 7.5 3.5 7.5 3.5-3.435 3.5-7.5-1.603-7.5-3.5-7.5z" fill="#212a41"/><ellipse cx="47" cy="52" fill="#c2c2c2" rx="1.5" ry="4"/><path d="m47 56.5c-1.313 0-2-2.264-2-4.5s.687-4.5 2-4.5 2 2.264 2 4.5-.687 4.5-2 4.5zm0-8c-.29 0-1 1.227-1 3.5s.71 3.5 1 3.5 1-1.227 1-3.5-.71-3.5-1-3.5z" fill="#212a41"/><path d="m18 44h-5v16h5c2.209 0 4-3.582 4-8s-1.791-8-4-8z" fill="#6c696f"/><path d="m18 60.5h-5c-.276 0-.5-.224-.5-.5v-16c0-.276.224-.5.5-.5h5c2.523 0 4.5 3.733 4.5 8.5s-1.977 8.5-4.5 8.5zm-4.5-1h4.5c1.897 0 3.5-3.435 3.5-7.5s-1.603-7.5-3.5-7.5h-4.5z" fill="#212a41"/><path d="m13 38 11.051 3.684c.597.199 1.066.668 1.265 1.265l1.684 5.051h32l-1.684-5.051c-.199-.597-.668-1.066-1.265-1.265l-11.051-3.684z" fill="#f9ac2f"/><path d="m59 48.5h-32c-.215 0-.406-.138-.474-.342l-1.684-5.052c-.149-.445-.503-.8-.949-.948l-11.051-3.684c-.232-.078-.375-.312-.335-.555.04-.242.249-.42.494-.42h32c.054 0 .107.009.158.025l11.052 3.684c.742.248 1.333.839 1.581 1.581l1.684 5.052c.051.152.025.32-.069.45-.095.132-.246.209-.407.209zm-31.64-1h30.946l-1.465-4.394c-.148-.445-.503-.8-.948-.948l-10.974-3.658h-28.838l8.128 2.709c.742.248 1.333.839 1.581 1.581z" fill="#212a41"/><path d="m4 28h27.552c.936 0 1.842.328 2.561.927l10.887 9.073h-32z" fill="#6c696f"/><path d="m45 38.5h-32c-.142 0-.277-.061-.372-.165l-9-10c-.132-.147-.166-.358-.085-.538.081-.181.26-.297.457-.297h27.552c1.05 0 2.073.37 2.881 1.043l10.888 9.073c.161.135.222.356.149.554-.072.198-.259.33-.47.33zm-31.777-1h30.396l-9.827-8.189c-.628-.522-1.423-.811-2.24-.811h-26.429z" fill="#212a41"/><path d="m13.891 36.5c-.137 0-.273-.056-.372-.165l-5.4-6c-.185-.206-.168-.521.037-.707s.521-.168.706.037l5.4 6c.185.206.168.521-.037.707-.096.086-.215.128-.334.128z" fill="#8a878d"/><path d="m39.476 36.5c-.113 0-.227-.038-.32-.116l-6.644-5.536c-.212-.177-.241-.492-.064-.704.176-.211.491-.241.705-.063l6.644 5.536c.212.177.24.492.063.704-.099.117-.242.179-.384.179z" fill="#4e4b51"/><path d="m4 48h31v9h-31z" fill="#db8e11"/><path d="m35 57.5h-31c-.276 0-.5-.224-.5-.5v-9c0-.276.224-.5.5-.5h31c.276 0 .5.224.5.5v9c0 .276-.224.5-.5.5zm-30.5-1h30v-8h-30z" fill="#212a41"/><path d="m4 38v10h23l-1.684-5.051c-.199-.597-.668-1.066-1.265-1.265l-11.051-3.684z" fill="#db8e11"/><path d="m27 48.5h-23c-.276 0-.5-.224-.5-.5v-10c0-.276.224-.5.5-.5h9c.054 0 .107.009.158.025l11.051 3.684c.742.248 1.333.839 1.581 1.581l1.684 5.052c.051.152.025.32-.068.45-.094.131-.245.208-.406.208zm-22.5-1h21.806l-1.464-4.394c-.149-.445-.503-.8-.949-.948l-10.974-3.658h-8.419z" fill="#212a41"/><path d="m35 44s-7.703-.002-9.334-.002l1.334 4.002h10z" fill="#e0e0e0"/><path d="m37 48.5h-10c-.215 0-.406-.138-.474-.342l-1.334-4.002c-.051-.152-.025-.32.068-.45.094-.131.245-.208.406-.208l9.334.002c.189 0 .362.107.447.276l2 4c.077.155.069.339-.021.486-.092.148-.253.238-.426.238zm-9.64-1h8.831l-1.5-3-8.332-.002z" fill="#212a41"/><path d="m51 44-2 4h10l-1.334-4.002c-.91 0-6.666.002-6.666.002z" fill="#e0e0e0"/><path d="m59 48.5h-10c-.173 0-.334-.09-.426-.237-.091-.147-.099-.331-.021-.486l2-4c.085-.17.258-.277.447-.277l6.666-.002c.215 0 .406.138.475.342l1.334 4.002c.051.152.025.32-.069.45-.094.131-.245.208-.406.208zm-9.191-1h8.498l-1.001-3.002-5.997.002z" fill="#212a41"/><path d="m59 48h-32c-.552 0-1 .448-1 1v7c0 .552.448 1 1 1h32c.552 0 1-.448 1-1v-7c0-.552-.448-1-1-1z" fill="#f9ac2f"/><path d="m59 57.5h-32c-.827 0-1.5-.673-1.5-1.5v-7c0-.827.673-1.5 1.5-1.5h32c.827 0 1.5.673 1.5 1.5v7c0 .827-.673 1.5-1.5 1.5zm-32-9c-.276 0-.5.225-.5.5v7c0 .275.224.5.5.5h32c.275 0 .5-.225.5-.5v-7c0-.275-.225-.5-.5-.5z" fill="#212a41"/><path d="m4 28 9 10h-9z" fill="#4e4b51"/><path d="m13 38.5h-9c-.276 0-.5-.224-.5-.5v-10c0-.207.127-.393.321-.467s.413-.021.551.132l9 10c.132.147.166.358.085.538-.081.181-.26.297-.457.297zm-8.5-1h7.377l-7.377-8.197z" fill="#212a41"/><path d="m28 55.5c-.276 0-.5-.224-.5-.5v-5c0-.276.224-.5.5-.5s.5.224.5.5v5c0 .276-.224.5-.5.5z" fill="#ffca4d"/><path d="m58 55.5c-.276 0-.5-.224-.5-.5v-5c0-.276.224-.5.5-.5s.5.224.5.5v5c0 .276-.224.5-.5.5z" fill="#db8e11"/><path d="m49 48h-12l-2-4h16z" fill="#6c696f"/><path d="m49 48.5h-12c-.189 0-.362-.107-.447-.276l-2-4c-.077-.155-.069-.339.021-.486.092-.148.253-.238.426-.238h16c.173 0 .334.09.426.237.091.147.099.331.021.486l-2 4c-.085.17-.258.277-.447.277zm-11.691-1h11.383l1.5-3h-14.383z" fill="#212a41"/><path d="m36.339 51h14v3h-14z" fill="#6c696f"/><path d="m50.339 54.5h-14c-.276 0-.5-.224-.5-.5v-3c0-.276.224-.5.5-.5h14c.276 0 .5.224.5.5v3c0 .276-.224.5-.5.5zm-13.5-1h13v-2h-13z" fill="#212a41"/><path d="m36.6 31-2.487-2.073c-.719-.599-1.625-.927-2.561-.927h-27.552l2.7 3z" fill="#f9ac2f"/><path d="m36.6 31.5h-29.9c-.142 0-.277-.061-.372-.165l-2.7-3c-.132-.147-.166-.358-.085-.538.081-.181.26-.297.457-.297h27.552c1.05 0 2.073.37 2.881 1.043l2.487 2.073c.161.135.222.356.149.554-.071.198-.258.33-.469.33zm-29.677-1h28.296l-1.427-1.189c-.628-.522-1.423-.811-2.24-.811h-26.429z" fill="#212a41"/><path d="m9 40h-4c-.552 0-1-.448-1-1v-2c0-.552.448-1 1-1h4c.552 0 1 .448 1 1v2c0 .552-.448 1-1 1z" fill="#f9ac2f"/><path d="m9 40.5h-4c-.827 0-1.5-.673-1.5-1.5v-2c0-.827.673-1.5 1.5-1.5h4c.827 0 1.5.673 1.5 1.5v2c0 .827-.673 1.5-1.5 1.5zm-4-4c-.276 0-.5.225-.5.5v2c0 .275.224.5.5.5h4c.276 0 .5-.225.5-.5v-2c0-.275-.224-.5-.5-.5z" fill="#212a41"/><path d="m26 54.5h-22c-.276 0-.5-.224-.5-.5s.224-.5.5-.5h22c.276 0 .5.224.5.5s-.224.5-.5.5z" fill="#212a41"/><ellipse cx="13" cy="52" fill="#4e4b51" rx="4" ry="8"/><path d="m13 60.5c-2.523 0-4.5-3.733-4.5-8.5s1.977-8.5 4.5-8.5 4.5 3.733 4.5 8.5-1.977 8.5-4.5 8.5zm0-16c-1.897 0-3.5 3.435-3.5 7.5s1.603 7.5 3.5 7.5 3.5-3.435 3.5-7.5-1.603-7.5-3.5-7.5z" fill="#212a41"/><ellipse cx="13" cy="52" fill="#c2c2c2" rx="1.5" ry="4"/><path d="m13 56.5c-1.313 0-2-2.264-2-4.5s.687-4.5 2-4.5 2 2.264 2 4.5-.687 4.5-2 4.5zm0-8c-.29 0-1 1.227-1 3.5s.71 3.5 1 3.5 1-1.227 1-3.5-.71-3.5-1-3.5z" fill="#212a41"/><path d="m55 26h-18c-1.105 0-2-.895-2-2v-18c0-1.105.895-2 2-2h18c1.105 0 2 .895 2 2v18c0 1.105-.895 2-2 2z" fill="#c2c2c2"/><path d="m55 26.5h-18c-1.379 0-2.5-1.121-2.5-2.5v-18c0-1.379 1.121-2.5 2.5-2.5h18c1.379 0 2.5 1.121 2.5 2.5v18c0 1.379-1.121 2.5-2.5 2.5zm-18-22c-.827 0-1.5.673-1.5 1.5v18c0 .827.673 1.5 1.5 1.5h18c.827 0 1.5-.673 1.5-1.5v-18c0-.827-.673-1.5-1.5-1.5z" fill="#212a41"/><path d="m58 26h-18c-1.105 0-2-.895-2-2v-18c0-1.105.895-2 2-2h18c1.105 0 2 .895 2 2v18c0 1.105-.895 2-2 2z" fill="#e0e0e0"/><path d="m58 26.5h-18c-1.379 0-2.5-1.121-2.5-2.5v-18c0-1.379 1.121-2.5 2.5-2.5h18c1.379 0 2.5 1.121 2.5 2.5v18c0 1.379-1.121 2.5-2.5 2.5zm-18-22c-.827 0-1.5.673-1.5 1.5v18c0 .827.673 1.5 1.5 1.5h18c.827 0 1.5-.673 1.5-1.5v-18c0-.827-.673-1.5-1.5-1.5z" fill="#212a41"/><path d="m58 24.5c-.276 0-.5-.224-.5-.5v-18c0-.276.224-.5.5-.5s.5.224.5.5v18c0 .276-.224.5-.5.5z" fill="#c2c2c2"/><path d="m40 24.5c-.276 0-.5-.224-.5-.5v-18c0-.276.224-.5.5-.5s.5.224.5.5v18c0 .276-.224.5-.5.5z" fill="#fefefe"/><path d="m41 17.318h16l-8 6v-3h-8z" fill="#d32e5e"/><path d="m49 23.818c-.076 0-.153-.018-.224-.053-.169-.085-.276-.258-.276-.447v-2.5h-7.5c-.276 0-.5-.224-.5-.5v-3c0-.276.224-.5.5-.5h16c.215 0 .406.138.475.342.067.204-.002.429-.175.559l-8 6c-.088.065-.194.099-.3.099zm-7.5-4h7.5c.276 0 .5.224.5.5v2l6-4.5h-14z" fill="#212a41"/><path d="m57 13.318h-16l8-6v3h8z" fill="#0079a8"/><path d="m57 13.818h-16c-.215 0-.406-.138-.475-.342-.067-.204.002-.429.175-.559l8-6c.15-.112.354-.132.523-.047s.277.259.277.448v2.5h7.5c.276 0 .5.224.5.5v3c0 .277-.224.5-.5.5zm-14.5-1h14v-2h-7.5c-.276 0-.5-.224-.5-.5v-2z" fill="#212a41"/></svg>