<svg id="Icon_Set" enable-background="new 0 0 64 64" height="512" viewBox="0 0 64 64" width="512" xmlns="http://www.w3.org/2000/svg"><path d="m46 42h-15.764c-.758 0-1.45-.428-1.789-1.106l-.894-1.789c-.339-.677-1.032-1.105-1.789-1.105h-18.764c-1.105 0-2-.895-2-2v-24c0-1.105.895-2 2-2h18.764c.758 0 1.45.428 1.789 1.106l.894 1.789c.339.677 1.032 1.105 1.789 1.105h15.764c1.105 0 2 .895 2 2v24c0 1.105-.895 2-2 2z" fill="#4e4b51"/><path d="m46 42.5h-15.764c-.953 0-1.81-.529-2.236-1.382l-.895-1.789c-.256-.512-.77-.829-1.341-.829h-18.764c-1.378 0-2.5-1.121-2.5-2.5v-24c0-1.379 1.122-2.5 2.5-2.5h18.764c.953 0 1.81.529 2.236 1.382l.895 1.789c.256.512.77.829 1.341.829h15.764c1.378 0 2.5 1.121 2.5 2.5v24c0 1.379-1.122 2.5-2.5 2.5zm-39-32c-.827 0-1.5.673-1.5 1.5v24c0 .827.673 1.5 1.5 1.5h18.764c.953 0 1.81.529 2.236 1.382l.895 1.789c.256.512.77.829 1.341.829h15.764c.827 0 1.5-.673 1.5-1.5v-24c0-.827-.673-1.5-1.5-1.5h-15.764c-.953 0-1.81-.529-2.236-1.382l-.895-1.789c-.256-.512-.77-.829-1.341-.829z" fill="#212a41"/><path d="m7 38h4v22h-4z" fill="#e0e0e0"/><path d="m11 60.5h-4c-.276 0-.5-.224-.5-.5v-22c0-.276.224-.5.5-.5h4c.276 0 .5.224.5.5v22c0 .276-.224.5-.5.5zm-3.5-1h3v-21h-3z" fill="#212a41"/><path d="m49 42h-15.764c-.758 0-1.45-.428-1.789-1.106l-.894-1.789c-.339-.677-1.032-1.105-1.789-1.105h-18.764c-1.105 0-2-.895-2-2v-24c0-1.105.895-2 2-2h18.764c.758 0 1.45.428 1.789 1.106l.894 1.789c.339.677 1.032 1.105 1.789 1.105h15.764c1.105 0 2 .895 2 2v24c0 1.105-.895 2-2 2z" fill="#6c696f"/><path d="m49 42.5h-15.764c-.953 0-1.81-.529-2.236-1.382l-.895-1.789c-.256-.512-.77-.829-1.341-.829h-18.764c-1.378 0-2.5-1.121-2.5-2.5v-24c0-1.379 1.122-2.5 2.5-2.5h18.764c.953 0 1.81.529 2.236 1.382l.895 1.789c.256.512.77.829 1.341.829h15.764c1.378 0 2.5 1.121 2.5 2.5v24c0 1.379-1.122 2.5-2.5 2.5zm-39-32c-.827 0-1.5.673-1.5 1.5v24c0 .827.673 1.5 1.5 1.5h18.764c.953 0 1.81.529 2.236 1.382l.895 1.789c.256.512.77.829 1.341.829h15.764c.827 0 1.5-.673 1.5-1.5v-24c0-.827-.673-1.5-1.5-1.5h-15.764c-.953 0-1.81-.529-2.236-1.382l-.895-1.789c-.256-.512-.77-.829-1.341-.829z" fill="#212a41"/><path d="m10 36.5c-.276 0-.5-.224-.5-.5v-24c0-.276.224-.5.5-.5s.5.224.5.5v24c0 .276-.224.5-.5.5z" fill="#8a878d"/><path d="m49 40.5c-.276 0-.5-.224-.5-.5v-24c0-.276.224-.5.5-.5s.5.224.5.5v24c0 .276-.224.5-.5.5z" fill="#4e4b51"/><circle cx="47" cy="13" fill="#db8e11" r="9"/><path d="m47 22.5c-5.238 0-9.5-4.262-9.5-9.5s4.262-9.5 9.5-9.5 9.5 4.262 9.5 9.5-4.262 9.5-9.5 9.5zm0-18c-4.687 0-8.5 3.813-8.5 8.5s3.813 8.5 8.5 8.5 8.5-3.813 8.5-8.5-3.813-8.5-8.5-8.5z" fill="#212a41"/><circle cx="50" cy="13" fill="#f9ac2f" r="9"/><path d="m50 22.5c-5.238 0-9.5-4.262-9.5-9.5s4.262-9.5 9.5-9.5 9.5 4.262 9.5 9.5-4.262 9.5-9.5 9.5zm0-18c-4.687 0-8.5 3.813-8.5 8.5s3.813 8.5 8.5 8.5 8.5-3.813 8.5-8.5-3.813-8.5-8.5-8.5z" fill="#212a41"/><path d="m50 20.5c-.276 0-.5-.224-.5-.5s.224-.5.5-.5c3.584 0 6.5-2.916 6.5-6.5 0-.276.224-.5.5-.5s.5.224.5.5c0 4.136-3.364 7.5-7.5 7.5z" fill="#db8e11"/><path d="m43 13.5c-.276 0-.5-.224-.5-.5 0-4.136 3.364-7.5 7.5-7.5.276 0 .5.224.5.5s-.224.5-.5.5c-3.584 0-6.5 2.916-6.5 6.5 0 .276-.224.5-.5.5z" fill="#ffca4d"/><path d="m50.483 15h-1c-.552 0-1-.448-1-1v-6c0-.552.448-1 1-1h1c.552 0 1 .448 1 1v6c0 .552-.448 1-1 1z" fill="#e0e0e0"/><path d="m50.483 15.5h-1c-.827 0-1.5-.673-1.5-1.5v-6c0-.827.673-1.5 1.5-1.5h1c.827 0 1.5.673 1.5 1.5v6c0 .827-.673 1.5-1.5 1.5zm-1-8c-.276 0-.5.225-.5.5v6c0 .275.224.5.5.5h1c.276 0 .5-.225.5-.5v-6c0-.275-.224-.5-.5-.5z" fill="#212a41"/><circle cx="49.983" cy="18.5" fill="#e0e0e0" r="1.5"/><path d="m49.983 20.5c-1.103 0-2-.897-2-2s.897-2 2-2 2 .897 2 2-.897 2-2 2zm0-3c-.551 0-1 .448-1 1s.449 1 1 1 1-.448 1-1-.449-1-1-1z" fill="#212a41"/></svg>