<svg id="Icon_Set" enable-background="new 0 0 64 64" height="512" viewBox="0 0 64 64" width="512" xmlns="http://www.w3.org/2000/svg"><path d="m49.353 48.036-3.151-2.486c-.817-.645-.99-1.801-.422-2.672 2.112-3.237 3.22-6.962 3.22-10.878s-1.108-7.641-3.22-10.877c-.569-.872-.396-2.028.422-2.672l3.151-2.486c.911-.718 2.251-.52 2.899.442 3.113 4.614 4.748 9.962 4.748 15.593s-1.635 10.979-4.747 15.594c-.649.962-1.989 1.16-2.9.442z" fill="#b51040"/><path d="m50.603 48.968c-.562 0-1.113-.188-1.559-.539l-3.151-2.486c-1.02-.804-1.248-2.239-.531-3.338 2.053-3.147 3.138-6.813 3.138-10.605s-1.085-7.458-3.139-10.604c-.717-1.1-.488-2.535.531-3.338l3.151-2.486c.548-.431 1.256-.62 1.945-.509.683.106 1.294.494 1.679 1.064 3.162 4.687 4.833 10.176 4.833 15.873s-1.671 11.186-4.833 15.874c-.384.569-.995.957-1.678 1.063-.129.021-.258.031-.386.031zm-.94-1.324c.329.26.757.371 1.172.306s.771-.291 1.003-.635c3.05-4.523 4.662-9.818 4.662-15.315s-1.612-10.792-4.662-15.314c-.231-.345-.588-.57-1.003-.635-.415-.064-.843.046-1.172.306l-3.151 2.486c-.61.481-.745 1.344-.312 2.007 2.158 3.308 3.3 7.164 3.3 11.15s-1.142 7.842-3.301 11.151c-.433.662-.298 1.525.312 2.006z" fill="#212a41"/><path d="m28 8c-13.255 0-24 10.745-24 24s10.745 24 24 24 24-10.745 24-24-10.745-24-24-24zm0 30c-3.314 0-6-2.686-6-6s2.686-6 6-6 6 2.686 6 6-2.686 6-6 6z" fill="#99a2b9"/><path d="m28 56.5c-13.51 0-24.5-10.991-24.5-24.5s10.99-24.5 24.5-24.5 24.5 10.991 24.5 24.5-10.99 24.5-24.5 24.5zm0-48c-12.958 0-23.5 10.542-23.5 23.5s10.542 23.5 23.5 23.5 23.5-10.542 23.5-23.5-10.542-23.5-23.5-23.5zm0 30c-3.584 0-6.5-2.916-6.5-6.5s2.916-6.5 6.5-6.5 6.5 2.916 6.5 6.5-2.916 6.5-6.5 6.5zm0-12c-3.032 0-5.5 2.467-5.5 5.5s2.468 5.5 5.5 5.5 5.5-2.467 5.5-5.5-2.468-5.5-5.5-5.5z" fill="#212a41"/><path d="m32 8c-13.255 0-24 10.745-24 24s10.745 24 24 24 24-10.745 24-24-10.745-24-24-24zm0 30c-3.314 0-6-2.686-6-6s2.686-6 6-6 6 2.686 6 6-2.686 6-6 6z" fill="#b7c0d7"/><path d="m32 56.5c-13.51 0-24.5-10.991-24.5-24.5s10.99-24.5 24.5-24.5 24.5 10.991 24.5 24.5-10.99 24.5-24.5 24.5zm0-48c-12.958 0-23.5 10.542-23.5 23.5s10.542 23.5 23.5 23.5 23.5-10.542 23.5-23.5-10.542-23.5-23.5-23.5zm0 30c-3.584 0-6.5-2.916-6.5-6.5s2.916-6.5 6.5-6.5 6.5 2.916 6.5 6.5-2.916 6.5-6.5 6.5zm0-12c-3.032 0-5.5 2.467-5.5 5.5s2.468 5.5 5.5 5.5 5.5-2.467 5.5-5.5-2.468-5.5-5.5-5.5z" fill="#212a41"/><path d="m10 32.5c-.276 0-.5-.224-.5-.5 0-12.407 10.094-22.5 22.5-22.5.276 0 .5.224.5.5s-.224.5-.5.5c-11.855 0-21.5 9.645-21.5 21.5 0 .276-.224.5-.5.5z" fill="#d5def5"/><path d="m32 54.5c-.276 0-.5-.224-.5-.5s.224-.5.5-.5c11.855 0 21.5-9.645 21.5-21.5 0-.276.224-.5.5-.5s.5.224.5.5c0 12.407-10.094 22.5-22.5 22.5z" fill="#99a2b9"/><path d="m32 16c-8.837 0-16 7.163-16 16s7.163 16 16 16 16-7.163 16-16-7.163-16-16-16zm0 29c-7.18 0-13-5.82-13-13s5.82-13 13-13 13 5.82 13 13-5.82 13-13 13z" fill="#e0e0e0"/><path d="m32 48.5c-9.098 0-16.5-7.402-16.5-16.5s7.402-16.5 16.5-16.5 16.5 7.402 16.5 16.5-7.402 16.5-16.5 16.5zm0-32c-8.547 0-15.5 6.953-15.5 15.5s6.953 15.5 15.5 15.5 15.5-6.953 15.5-15.5-6.953-15.5-15.5-15.5zm0 29c-7.444 0-13.5-6.056-13.5-13.5s6.056-13.5 13.5-13.5 13.5 6.056 13.5 13.5-6.056 13.5-13.5 13.5zm0-26c-6.893 0-12.5 5.607-12.5 12.5s5.607 12.5 12.5 12.5 12.5-5.607 12.5-12.5-5.607-12.5-12.5-12.5z" fill="#212a41"/><circle cx="32" cy="22.5" fill="#e0e0e0" r="1.5"/><path d="m32 24.5c-1.103 0-2-.897-2-2s.897-2 2-2 2 .897 2 2-.897 2-2 2zm0-3c-.552 0-1 .449-1 1s.448 1 1 1 1-.449 1-1-.448-1-1-1z" fill="#212a41"/><circle cx="32" cy="41.5" fill="#e0e0e0" r="1.5"/><path d="m32 43.5c-1.103 0-2-.897-2-2s.897-2 2-2 2 .897 2 2-.897 2-2 2zm0-3c-.552 0-1 .449-1 1s.448 1 1 1 1-.449 1-1-.448-1-1-1z" fill="#212a41"/><circle cx="41.5" cy="32" fill="#e0e0e0" r="1.5"/><path d="m41.5 34c-1.103 0-2-.897-2-2s.897-2 2-2 2 .897 2 2-.897 2-2 2zm0-3c-.552 0-1 .449-1 1s.448 1 1 1 1-.449 1-1-.448-1-1-1z" fill="#212a41"/><circle cx="22.5" cy="32" fill="#e0e0e0" r="1.5"/><path d="m22.5 34c-1.103 0-2-.897-2-2s.897-2 2-2 2 .897 2 2-.897 2-2 2zm0-3c-.552 0-1 .449-1 1s.448 1 1 1 1-.449 1-1-.448-1-1-1z" fill="#212a41"/><path d="m52.353 48.036-3.151-2.486c-.817-.645-.99-1.801-.422-2.672 2.112-3.237 3.22-6.962 3.22-10.878s-1.108-7.641-3.22-10.877c-.569-.872-.396-2.028.422-2.672l3.151-2.486c.911-.718 2.251-.52 2.899.442 3.113 4.614 4.748 9.962 4.748 15.593s-1.635 10.979-4.747 15.594c-.649.962-1.989 1.16-2.9.442z" fill="#d32e5e"/><path d="m53.603 48.968c-.562 0-1.113-.188-1.559-.539l-3.151-2.486c-1.02-.804-1.248-2.239-.531-3.338 2.053-3.147 3.138-6.813 3.138-10.605s-1.085-7.458-3.139-10.604c-.717-1.1-.488-2.535.531-3.338l3.151-2.486c.548-.431 1.256-.62 1.945-.509.683.106 1.294.494 1.679 1.064 3.162 4.687 4.833 10.176 4.833 15.873s-1.671 11.186-4.833 15.874c-.384.569-.995.957-1.678 1.063-.129.021-.258.031-.386.031zm-.94-1.324c.329.26.758.371 1.172.306.415-.065.771-.291 1.003-.635 3.05-4.523 4.662-9.818 4.662-15.315s-1.612-10.792-4.662-15.314c-.231-.345-.588-.57-1.003-.635-.414-.064-.843.046-1.172.306l-3.151 2.486c-.61.481-.745 1.344-.312 2.007 2.158 3.308 3.3 7.164 3.3 11.15s-1.142 7.842-3.301 11.151c-.433.662-.298 1.525.312 2.006z" fill="#212a41"/><path d="m53.595 46.968c-.116 0-.229-.041-.32-.116-.21-.175-.241-.488-.069-.7 2.809-4.175 4.294-9.068 4.294-14.152 0-5.096-1.494-10.005-4.32-14.197-.154-.229-.094-.54.136-.694.229-.153.539-.095.694.135 2.937 4.358 4.49 9.46 4.49 14.756 0 5.299-1.553 10.399-4.491 14.748-.079.117-.204.195-.344.215-.023.003-.047.005-.07.005z" fill="#b51040"/></svg>