<svg id="Icon_Set" enable-background="new 0 0 64 64" height="512" viewBox="0 0 64 64" width="512" xmlns="http://www.w3.org/2000/svg"><path d="m22 47h38v10h-38z" fill="#6c696f"/><path d="m60 57.5h-38c-.276 0-.5-.224-.5-.5v-10c0-.276.224-.5.5-.5h38c.276 0 .5.224.5.5v10c0 .276-.224.5-.5.5zm-37.5-1h37v-9h-37z" fill="#212a41"/><path d="m58 55.5c-.276 0-.5-.224-.5-.5v-6c0-.276.224-.5.5-.5s.5.224.5.5v6c0 .276-.224.5-.5.5z" fill="#4e4b51"/><path d="m44 55.5c-.276 0-.5-.224-.5-.5v-6c0-.276.224-.5.5-.5s.5.224.5.5v6c0 .276-.224.5-.5.5z" fill="#8a878d"/><path d="m4 47h38v10h-38z" fill="#4e4b51"/><path d="m42 57.5h-38c-.276 0-.5-.224-.5-.5v-10c0-.276.224-.5.5-.5h38c.276 0 .5.224.5.5v10c0 .276-.224.5-.5.5zm-37.5-1h37v-9h-37z" fill="#212a41"/><path d="m40 55.5c-.276 0-.5-.224-.5-.5v-6c0-.276.224-.5.5-.5s.5.224.5.5v6c0 .276-.224.5-.5.5z" fill="#302d33"/><path d="m6 55.5c-.276 0-.5-.224-.5-.5v-6c0-.276.224-.5.5-.5s.5.224.5.5v6c0 .276-.224.5-.5.5z" fill="#6c696f"/><path d="m25 35 2.391 5.739-12.391-11.739 3.034 6.828-11.034-8.828 8.894 17.789c.678 1.355 2.063 2.211 3.578 2.211h17.528z" fill="#b7c0d7"/><path d="m37 47.5h-17.528c-1.715 0-3.258-.953-4.025-2.487l-8.894-17.789c-.105-.21-.05-.465.133-.612.184-.148.444-.149.627-.002l9.432 7.545-2.201-4.951c-.097-.218-.026-.474.168-.611.194-.138.46-.119.632.045l10.678 10.117-1.483-3.562c-.092-.221-.015-.475.183-.607.198-.135.462-.107.632.062l12 12c.143.143.186.358.108.545s-.26.307-.462.307zm-28.535-18.688 7.876 15.753c.597 1.193 1.796 1.935 3.13 1.935h16.321l-9.359-9.359 1.419 3.406c.091.218.017.47-.178.604-.194.133-.456.115-.627-.049l-10.573-10.017 2.018 4.539c.094.211.031.458-.151.599-.183.143-.437.141-.618-.005z" fill="#212a41"/><path d="m14 27c0 11.046 8.954 20 20 20s20-8.954 20-20-8.954-20-20-20-20 8.954-20 20zm6.667 0c0-7.364 5.97-13.333 13.333-13.333s13.333 5.969 13.333 13.333-5.969 13.333-13.333 13.333-13.333-5.969-13.333-13.333z" fill="#4e4b51"/><path d="m34 47.5c-11.304 0-20.5-9.196-20.5-20.5s9.196-20.5 20.5-20.5 20.5 9.196 20.5 20.5-9.196 20.5-20.5 20.5zm0-40c-10.752 0-19.5 8.748-19.5 19.5s8.748 19.5 19.5 19.5 19.5-8.748 19.5-19.5-8.748-19.5-19.5-19.5zm0 33.333c-7.628 0-13.833-6.205-13.833-13.833s6.205-13.833 13.833-13.833 13.833 6.205 13.833 13.833-6.205 13.833-13.833 13.833zm0-26.666c-7.076 0-12.833 5.757-12.833 12.833s5.757 12.833 12.833 12.833 12.833-5.757 12.833-12.833-5.757-12.833-12.833-12.833z" fill="#212a41"/><path d="m40 7c-1.535 0-6 0-6 0 11.046 0 20 8.954 20 20s-8.954 20-20 20h6c11.046 0 20-8.954 20-20s-8.954-20-20-20z" fill="#6c696f"/><path d="m40 47.5h-6c-.276 0-.5-.224-.5-.5s.224-.5.5-.5c10.752 0 19.5-8.748 19.5-19.5s-8.748-19.5-19.5-19.5c-.276 0-.5-.224-.5-.5s.224-.5.5-.5h6c11.304 0 20.5 9.196 20.5 20.5s-9.196 20.5-20.5 20.5zm.34-39.997c8.211 2.676 14.16 10.404 14.16 19.497s-5.949 16.821-14.16 19.497c10.596-.182 19.16-8.858 19.16-19.497s-8.564-19.315-19.16-19.497z" fill="#212a41"/><path d="m37 14.018c-.966-.222-1.967-.351-3-.351-7.364 0-13.333 5.97-13.333 13.333 0 7.364 5.97 13.333 13.333 13.333 1.033 0 2.034-.129 3-.351-5.917-1.363-10.333-6.651-10.333-12.982s4.416-11.619 10.333-12.982z" fill="#6c696f"/><path d="m34 40.833c-7.628 0-13.833-6.205-13.833-13.833s6.205-13.833 13.833-13.833c1.015 0 2.062.122 3.112.363.227.052.388.254.388.487 0 .232-.161.435-.388.487-5.856 1.35-9.946 6.487-9.946 12.495s4.09 11.146 9.946 12.495c.227.053.388.255.388.487 0 .233-.161.436-.388.487-1.05.243-2.097.365-3.112.365zm0-26.666c-7.076 0-12.833 5.757-12.833 12.833s5.757 12.833 12.833 12.833c.258 0 .519-.009.781-.025-5.165-2.084-8.615-7.079-8.615-12.808s3.45-10.724 8.615-12.808c-.262-.016-.523-.025-.781-.025z" fill="#212a41"/><path d="m34 45.5c-.276 0-.5-.224-.5-.5s.224-.5.5-.5c9.649 0 17.5-7.851 17.5-17.5 0-.276.224-.5.5-.5s.5.224.5.5c0 10.201-8.299 18.5-18.5 18.5z" fill="#302d33"/><path d="m16 27.5c-.276 0-.5-.224-.5-.5 0-10.201 8.299-18.5 18.5-18.5.276 0 .5.224.5.5s-.224.5-.5.5c-9.649 0-17.5 7.851-17.5 17.5 0 .276-.224.5-.5.5z" fill="#6c696f"/><path d="m47.333 27c0-.508-.034-1.007-.09-1.5h-9.622l6.802-6.802c-.626-.784-1.337-1.495-2.121-2.121l-6.802 6.802v-9.623c-.493-.055-.992-.09-1.5-.09s-1.007.034-1.5.09v9.623l-6.802-6.802c-.784.626-1.495 1.337-2.121 2.121l6.802 6.802h-9.622c-.055.493-.09.992-.09 1.5s.034 1.007.09 1.5h9.622l-6.802 6.802c.626.784 1.337 1.495 2.121 2.121l6.802-6.802v9.622c.493.055.992.09 1.5.09s1.007-.034 1.5-.09v-9.622l6.802 6.802c.784-.626 1.495-1.337 2.121-2.121l-6.802-6.802h9.622c.056-.493.09-.992.09-1.5z" fill="#e0e0e0"/><path d="m34 40.833c-.492 0-1.001-.03-1.556-.093-.253-.028-.444-.242-.444-.497v-8.415l-5.948 5.948c-.18.18-.466.195-.666.037-.812-.647-1.552-1.388-2.2-2.2-.159-.198-.143-.485.038-.665l5.948-5.948h-8.416c-.254 0-.469-.191-.497-.444-.062-.559-.093-1.068-.093-1.556s.03-.997.093-1.556c.029-.253.243-.444.497-.444h8.416l-5.948-5.948c-.18-.18-.196-.467-.038-.665.648-.812 1.388-1.553 2.2-2.2.2-.158.485-.142.666.037l5.948 5.948v-8.415c0-.255.191-.469.444-.497 1.109-.125 2.004-.125 3.112 0 .253.028.444.242.444.497v8.415l5.948-5.948c.18-.179.469-.195.665-.037.812.647 1.553 1.388 2.2 2.2.159.198.143.485-.037.665l-5.948 5.948h8.415c.255 0 .469.191.497.444.062.554.093 1.063.093 1.556s-.03 1.002-.093 1.556c-.028.253-.242.444-.497.444h-8.415l5.948 5.948c.18.18.196.467.037.665-.647.812-1.388 1.553-2.2 2.2-.196.158-.486.142-.665-.037l-5.948-5.948v8.415c0 .255-.191.469-.444.497-.554.063-1.064.093-1.556.093zm-1-1.043c.697.057 1.303.057 2 0v-9.169c0-.202.122-.385.309-.462.187-.076.402-.034.545.108l6.48 6.48c.507-.435.979-.907 1.414-1.414l-6.48-6.48c-.143-.143-.186-.358-.108-.545s.259-.308.461-.308h9.169c.028-.349.043-.679.043-1s-.015-.651-.043-1h-9.169c-.202 0-.385-.122-.462-.309s-.034-.402.108-.545l6.48-6.48c-.435-.507-.907-.979-1.414-1.414l-6.48 6.48c-.143.144-.359.186-.545.108-.186-.076-.308-.259-.308-.461v-9.169c-.697-.057-1.303-.057-2 0v9.169c0 .202-.122.385-.309.462-.187.078-.401.035-.545-.108l-6.48-6.48c-.507.435-.98.907-1.414 1.414l6.48 6.48c.143.143.186.358.108.545-.076.186-.259.308-.461.308h-9.169c-.029.351-.043.681-.043 1s.014.649.043 1h9.169c.202 0 .385.122.462.309.078.187.035.402-.108.545l-6.48 6.48c.434.507.907.979 1.414 1.414l6.48-6.48c.143-.144.357-.186.545-.108.186.076.308.259.308.461z" fill="#212a41"/><circle cx="34" cy="27" fill="#e0e0e0" r="4"/><path d="m34 31.5c-2.481 0-4.5-2.019-4.5-4.5s2.019-4.5 4.5-4.5 4.5 2.019 4.5 4.5-2.019 4.5-4.5 4.5zm0-8c-1.93 0-3.5 1.57-3.5 3.5s1.57 3.5 3.5 3.5 3.5-1.57 3.5-3.5-1.57-3.5-3.5-3.5z" fill="#212a41"/><circle cx="34" cy="27" fill="#b7c0d7" r="2"/><path d="m34 29.5c-1.378 0-2.5-1.121-2.5-2.5s1.122-2.5 2.5-2.5c1.379 0 2.5 1.121 2.5 2.5s-1.121 2.5-2.5 2.5zm0-4c-.827 0-1.5.673-1.5 1.5s.673 1.5 1.5 1.5 1.5-.673 1.5-1.5-.673-1.5-1.5-1.5z" fill="#212a41"/><path d="m22 35 2.391 5.739-12.391-11.739 3.034 6.828-11.034-8.828 8.894 17.789c.678 1.355 2.063 2.211 3.578 2.211h17.528z" fill="#99a2b9"/><path d="m34 47.5h-17.528c-1.715 0-3.258-.953-4.025-2.487l-8.894-17.789c-.105-.21-.05-.465.133-.612.183-.148.443-.149.627-.002l9.432 7.545-2.201-4.951c-.097-.218-.026-.474.168-.611s.458-.119.632.045l10.678 10.117-1.483-3.562c-.092-.221-.015-.475.183-.607.198-.135.462-.107.632.062l12 12c.143.143.186.358.108.545s-.26.307-.462.307zm-28.535-18.688 7.876 15.753c.597 1.193 1.796 1.935 3.13 1.935h16.321l-9.359-9.359 1.419 3.406c.091.218.017.47-.178.604-.193.133-.456.115-.627-.049l-10.573-10.017 2.018 4.539c.094.211.031.458-.151.599-.182.143-.437.141-.618-.005z" fill="#212a41"/><path d="m29.171 45.5c-.128 0-.256-.049-.354-.146l-2.755-2.755c-.08.071-.164.138-.252.198-.963.668-2.283.567-3.139-.242l-6.076-5.756c-.201-.19-.209-.507-.019-.707.189-.2.506-.207.707-.02l6.076 5.756c.513.485 1.303.548 1.882.146.153-.105.283-.235.387-.388.084-.122.219-.201.367-.215.149-.009.294.039.399.145l3.13 3.13c.195.195.195.512 0 .707-.097.098-.225.147-.353.147z" fill="#7b849b"/></svg>