<svg id="Icon_Set" enable-background="new 0 0 64 64" height="512" viewBox="0 0 64 64" width="512" xmlns="http://www.w3.org/2000/svg"><path d="m36 35v-13l-2-2 2-2v-2l-2-2 2-2v-2l-6-6-6 6v25z" fill="#c2c2c2"/><path d="m36 35.5h-12c-.276 0-.5-.224-.5-.5v-25c0-.133.053-.26.146-.354l6-6c.195-.195.512-.195.707 0l6 6c.094.094.147.221.147.354v2c0 .133-.053.26-.146.354l-1.647 1.646 1.646 1.646c.094.094.147.221.147.354v2c0 .133-.053.26-.146.354l-1.647 1.646 1.646 1.646c.094.094.147.221.147.354v13c0 .276-.224.5-.5.5zm-11.5-1h11v-12.293l-1.854-1.854c-.195-.195-.195-.512 0-.707l1.854-1.854v-1.586l-1.854-1.854c-.195-.195-.195-.512 0-.707l1.854-1.854v-1.586l-5.5-5.5-5.5 5.5z" fill="#212a41"/><path d="m40 35v-13l-2-2 2-2v-2l-2-2 2-2v-2l-6-6-6 6v25z" fill="#e0e0e0"/><path d="m40 35.5h-12c-.276 0-.5-.224-.5-.5v-25c0-.133.053-.26.146-.354l6-6c.195-.195.512-.195.707 0l6 6c.094.094.147.221.147.354v2c0 .133-.053.26-.146.354l-1.647 1.646 1.646 1.646c.094.094.147.221.147.354v2c0 .133-.053.26-.146.354l-1.647 1.646 1.646 1.646c.094.094.147.221.147.354v13c0 .276-.224.5-.5.5zm-11.5-1h11v-12.293l-1.854-1.854c-.195-.195-.195-.512 0-.707l1.854-1.854v-1.586l-1.854-1.854c-.195-.195-.195-.512 0-.707l1.854-1.854v-1.586l-5.5-5.5-5.5 5.5z" fill="#212a41"/><path d="m38 33.5c-.276 0-.5-.224-.5-.5v-9.964l-1.268-1.268c-.975-.975-.975-2.561 0-3.535l1.232-1.233-1.231-1.232c-.975-.975-.975-2.561 0-3.535l1.268-1.268v-.136c0-.276.224-.5.5-.5s.5.224.5.5v.343c0 .133-.053.26-.146.354l-1.414 1.415c-.585.585-.585 1.536 0 2.121l1.414 1.415c.094.094.146.221.146.354v.343c0 .133-.053.26-.146.354l-1.414 1.415c-.585.585-.585 1.536 0 2.121l1.414 1.415c.094.094.146.221.146.354v10.167c-.001.276-.225.5-.501.5z" fill="#c2c2c2"/><path d="m30 33.5c-.276 0-.5-.224-.5-.5v-22.171c0-.276.224-.5.5-.5s.5.224.5.5v22.171c0 .276-.224.5-.5.5z" fill="#fefefe"/><path d="m34 35.5c-.276 0-.5-.224-.5-.5v-31c0-.276.224-.5.5-.5s.5.224.5.5v31c0 .276-.224.5-.5.5z" fill="#212a41"/><path d="m40 35h-20c-2.209 0-4 1.791-4 4v13c0 4.418 3.582 8 8 8h12c4.418 0 8-3.582 8-8v-13c0-2.209-1.791-4-4-4z" fill="#4e4b51"/><path d="m36 60.5h-12c-4.687 0-8.5-3.813-8.5-8.5v-13c0-2.481 2.019-4.5 4.5-4.5h20c2.481 0 4.5 2.019 4.5 4.5v13c0 4.687-3.813 8.5-8.5 8.5zm-16-25c-1.93 0-3.5 1.57-3.5 3.5v13c0 4.136 3.364 7.5 7.5 7.5h12c4.136 0 7.5-3.364 7.5-7.5v-13c0-1.93-1.57-3.5-3.5-3.5z" fill="#212a41"/><path d="m44 35h-20c-2.209 0-4 1.791-4 4v13c0 4.418 3.582 8 8 8h12c4.418 0 8-3.582 8-8v-13c0-2.209-1.791-4-4-4z" fill="#6c696f"/><path d="m40 60.5h-12c-4.687 0-8.5-3.813-8.5-8.5v-13c0-2.481 2.019-4.5 4.5-4.5h20c2.481 0 4.5 2.019 4.5 4.5v13c0 4.687-3.813 8.5-8.5 8.5zm-16-25c-1.93 0-3.5 1.57-3.5 3.5v13c0 4.136 3.364 7.5 7.5 7.5h12c4.136 0 7.5-3.364 7.5-7.5v-13c0-1.93-1.57-3.5-3.5-3.5z" fill="#212a41"/><path d="m28 58.5c-3.584 0-6.5-2.916-6.5-6.5v-13c0-.276.224-.5.5-.5s.5.224.5.5v13c0 3.033 2.468 5.5 5.5 5.5.276 0 .5.224.5.5s-.224.5-.5.5z" fill="#8a878d"/><path d="m40 58.5c-.276 0-.5-.224-.5-.5s.224-.5.5-.5c3.032 0 5.5-2.467 5.5-5.5v-13c0-.276.224-.5.5-.5s.5.224.5.5v13c0 3.584-2.916 6.5-6.5 6.5z" fill="#4e4b51"/><path d="m39 49.5h-10c-.552 0-1-.448-1-1v-2c0-.552.448-1 1-1h10c.552 0 1 .448 1 1v2c0 .552-.448 1-1 1z" fill="#d32e5e"/><path d="m39 50h-10c-.827 0-1.5-.673-1.5-1.5v-2c0-.827.673-1.5 1.5-1.5h10c.827 0 1.5.673 1.5 1.5v2c0 .827-.673 1.5-1.5 1.5zm-10-4c-.275 0-.5.224-.5.5v2c0 .276.225.5.5.5h10c.275 0 .5-.224.5-.5v-2c0-.276-.225-.5-.5-.5z" fill="#212a41"/></svg>