<svg id="Icon_Set" enable-background="new 0 0 64 64" height="512" viewBox="0 0 64 64" width="512" xmlns="http://www.w3.org/2000/svg"><path d="m50 18h-4c-.552 0-1-.448-1-1v-2c0-.552.448-1 1-1h4c.552 0 1 .448 1 1v2c0 .552-.448 1-1 1z" fill="#0079a8"/><path d="m50 18.5h-4c-.827 0-1.5-.673-1.5-1.5v-2c0-.827.673-1.5 1.5-1.5h4c.827 0 1.5.673 1.5 1.5v2c0 .827-.673 1.5-1.5 1.5zm-4-4c-.276 0-.5.224-.5.5v2c0 .276.224.5.5.5h4c.276 0 .5-.224.5-.5v-2c0-.276-.224-.5-.5-.5z" fill="#212a41"/><path d="m52 22h-5v16h5c2.209 0 4-3.582 4-8s-1.791-8-4-8z" fill="#6c696f"/><path d="m52 38.5h-5c-.276 0-.5-.224-.5-.5v-16c0-.276.224-.5.5-.5h5c2.523 0 4.5 3.733 4.5 8.5s-1.977 8.5-4.5 8.5zm-4.5-1h4.5c1.897 0 3.5-3.435 3.5-7.5s-1.603-7.5-3.5-7.5h-4.5z" fill="#212a41"/><ellipse cx="47" cy="30" fill="#4e4b51" rx="4" ry="8"/><path d="m47 38.5c-2.523 0-4.5-3.733-4.5-8.5s1.977-8.5 4.5-8.5 4.5 3.733 4.5 8.5-1.977 8.5-4.5 8.5zm0-16c-1.897 0-3.5 3.435-3.5 7.5s1.603 7.5 3.5 7.5 3.5-3.435 3.5-7.5-1.603-7.5-3.5-7.5z" fill="#212a41"/><ellipse cx="47" cy="30" fill="#c2c2c2" rx="1.5" ry="4"/><path d="m47 34.5c-1.313 0-2-2.264-2-4.5s.687-4.5 2-4.5 2 2.264 2 4.5-.687 4.5-2 4.5zm0-8c-.29 0-1 1.227-1 3.5s.71 3.5 1 3.5 1-1.227 1-3.5-.71-3.5-1-3.5z" fill="#212a41"/><path d="m18 22h-5v16h5c2.209 0 4-3.582 4-8s-1.791-8-4-8z" fill="#6c696f"/><path d="m18 38.5h-5c-.276 0-.5-.224-.5-.5v-16c0-.276.224-.5.5-.5h5c2.523 0 4.5 3.733 4.5 8.5s-1.977 8.5-4.5 8.5zm-4.5-1h4.5c1.897 0 3.5-3.435 3.5-7.5s-1.603-7.5-3.5-7.5h-4.5z" fill="#212a41"/><path d="m13 16 11.051 3.684c.597.199 1.066.668 1.265 1.265l1.684 5.051h32l-1.684-5.051c-.199-.597-.668-1.066-1.265-1.265l-11.051-3.684z" fill="#4e4b51"/><path d="m59 26.5h-32c-.215 0-.406-.138-.474-.342l-1.684-5.051c-.149-.446-.503-.8-.949-.949l-11.051-3.684c-.232-.077-.375-.312-.335-.554s.249-.42.494-.42h32c.054 0 .107.009.158.026l11.051 3.684c.743.248 1.333.838 1.581 1.581l1.684 5.051c.051.152.025.32-.068.451-.095.13-.246.207-.407.207zm-31.64-1h30.946l-1.464-4.393c-.149-.446-.503-.8-.949-.949l-10.974-3.658h-28.838l8.128 2.709c.743.248 1.333.838 1.581 1.581z" fill="#212a41"/><path d="m4 6h27.552c.936 0 1.842.328 2.561.927l10.887 9.073h-32z" fill="#b7c0d7"/><path d="m45 16.5h-32c-.142 0-.277-.06-.372-.166l-9-10c-.132-.146-.165-.357-.085-.538.081-.18.26-.296.457-.296h27.552c1.05 0 2.074.371 2.881 1.043l10.888 9.073c.162.135.222.356.15.555-.073.197-.261.329-.471.329zm-31.777-1h30.396l-9.827-8.188c-.627-.524-1.423-.812-2.24-.812h-26.429z" fill="#212a41"/><path d="m13.891 14.5c-.137 0-.273-.056-.372-.166l-5.4-6c-.184-.205-.168-.521.037-.706s.521-.169.706.037l5.4 6c.185.205.168.521-.037.706-.096.087-.215.129-.334.129z" fill="#d5def5"/><path d="m4 26h31v9h-31z" fill="#005b8a"/><path d="m35 35.5h-31c-.276 0-.5-.224-.5-.5v-9c0-.276.224-.5.5-.5h31c.276 0 .5.224.5.5v9c0 .276-.224.5-.5.5zm-30.5-1h30v-8h-30z" fill="#212a41"/><path d="m4 16v10h23l-1.684-5.051c-.199-.597-.668-1.066-1.265-1.265l-11.051-3.684z" fill="#005b8a"/><path d="m27 26.5h-23c-.276 0-.5-.224-.5-.5v-10c0-.276.224-.5.5-.5h9c.054 0 .107.009.158.026l11.051 3.684c.743.248 1.333.838 1.581 1.581l1.684 5.051c.051.152.025.32-.068.451-.094.13-.245.207-.406.207zm-22.5-1h21.806l-1.464-4.393c-.149-.446-.503-.8-.949-.949l-10.974-3.658h-8.419z" fill="#212a41"/><path d="m35 22s-7.703-.002-9.334-.002l1.334 4.002h10z" fill="#e0e0e0"/><path d="m37 26.5h-10c-.215 0-.406-.138-.474-.342l-1.334-4.002c-.051-.152-.025-.32.068-.451.094-.13.245-.208.406-.208l9.334.003c.189 0 .362.107.447.276l2 4c.078.155.069.339-.022.486s-.252.238-.425.238zm-9.64-1h8.831l-1.5-3-8.331-.002z" fill="#212a41"/><path d="m51 22-2 4h10l-1.334-4.002c-.91 0-6.666.002-6.666.002z" fill="#e0e0e0"/><path d="m59 26.5h-10c-.173 0-.334-.09-.425-.237s-.1-.332-.022-.486l2-4c.085-.17.258-.277.447-.277l6.666-.002c.215 0 .406.138.474.342l1.334 4.002c.051.152.025.32-.068.451-.094.13-.245.207-.406.207zm-9.191-1h8.497l-1-3.002-5.997.002z" fill="#212a41"/><path d="m59 26h-32c-.552 0-1 .448-1 1v7c0 .552.448 1 1 1h32c.552 0 1-.448 1-1v-7c0-.552-.448-1-1-1z" fill="#0079a8"/><path d="m59 35.5h-32c-.827 0-1.5-.673-1.5-1.5v-7c0-.827.673-1.5 1.5-1.5h32c.827 0 1.5.673 1.5 1.5v7c0 .827-.673 1.5-1.5 1.5zm-32-9c-.276 0-.5.224-.5.5v7c0 .276.224.5.5.5h32c.276 0 .5-.224.5-.5v-7c0-.276-.224-.5-.5-.5z" fill="#212a41"/><path d="m4 6 9 10h-9z" fill="#99a2b9"/><path d="m13 16.5h-9c-.276 0-.5-.224-.5-.5v-10c0-.207.127-.393.321-.467.195-.075.412-.021.551.132l9 10c.132.147.166.357.085.538s-.26.297-.457.297zm-8.5-1h7.377l-7.377-8.197z" fill="#212a41"/><path d="m28 33.5c-.276 0-.5-.224-.5-.5v-5c0-.276.224-.5.5-.5s.5.224.5.5v5c0 .276-.224.5-.5.5z" fill="#1e97c6"/><path d="m58 33.5c-.276 0-.5-.224-.5-.5v-5c0-.276.224-.5.5-.5s.5.224.5.5v5c0 .276-.224.5-.5.5z" fill="#005b8a"/><path d="m49 26h-12l-2-4h16z" fill="#6c696f"/><path d="m49 26.5h-12c-.189 0-.362-.107-.447-.276l-2-4c-.078-.155-.069-.339.022-.486s.252-.238.425-.238h16c.173 0 .334.09.425.237s.1.332.022.486l-2 4c-.085.17-.258.277-.447.277zm-11.691-1h11.382l1.5-3h-14.382z" fill="#212a41"/><path d="m52.339 32h-18l2-6h14z" fill="#6c696f"/><path d="m52.339 32.5h-18c-.161 0-.312-.077-.406-.208-.094-.13-.12-.298-.068-.451l2-6c.068-.204.259-.342.474-.342h14c.215 0 .406.138.474.342l2 6c.051.152.025.32-.068.451-.095.131-.245.208-.406.208zm-17.306-1h16.612l-1.667-5h-13.279z" fill="#212a41"/><path d="m36.6 9-2.487-2.073c-.719-.599-1.625-.927-2.561-.927h-27.552l2.7 3z" fill="#b7c0d7"/><path d="m36.6 9.5h-29.9c-.142 0-.277-.06-.372-.166l-2.7-3c-.132-.146-.165-.357-.085-.538.081-.18.26-.296.457-.296h27.552c1.05 0 2.074.371 2.881 1.043l2.488 2.073c.162.135.222.356.15.555-.072.197-.26.329-.471.329zm-29.677-1h28.296l-1.427-1.188c-.627-.524-1.423-.812-2.24-.812h-26.429z" fill="#212a41"/><path d="m9 18h-4c-.552 0-1-.448-1-1v-2c0-.552.448-1 1-1h4c.552 0 1 .448 1 1v2c0 .552-.448 1-1 1z" fill="#0079a8"/><path d="m9 18.5h-4c-.827 0-1.5-.673-1.5-1.5v-2c0-.827.673-1.5 1.5-1.5h4c.827 0 1.5.673 1.5 1.5v2c0 .827-.673 1.5-1.5 1.5zm-4-4c-.276 0-.5.224-.5.5v2c0 .276.224.5.5.5h4c.276 0 .5-.224.5-.5v-2c0-.276-.224-.5-.5-.5z" fill="#212a41"/><path d="m51.131 4h-27.99c-1.337 0-2.586.668-3.328 1.781l-6.813 10.219h32l6.964-10.445c.443-.665-.034-1.555-.833-1.555z" fill="#6c696f"/><path d="m45 16.5h-32c-.185 0-.354-.102-.441-.264s-.078-.36.025-.513l6.812-10.219c.837-1.255 2.236-2.004 3.745-2.004h27.991c.555 0 1.062.304 1.323.792.262.489.233 1.079-.075 1.54l-6.963 10.445c-.094.14-.25.223-.417.223zm-31.066-1h30.798l6.815-10.223c.15-.225.067-.434.025-.513s-.17-.264-.441-.264h-27.99c-1.173 0-2.262.583-2.912 1.559z" fill="#212a41"/><path d="m28 35h8v25h-8z" fill="#c2c2c2"/><path d="m36 60.5h-8c-.276 0-.5-.224-.5-.5v-25c0-.276.224-.5.5-.5h8c.276 0 .5.224.5.5v25c0 .276-.224.5-.5.5zm-7.5-1h7v-24h-7z" fill="#212a41"/><circle cx="26" cy="45" fill="#e0c8a4" r="5"/><path d="m26 50.5c-3.033 0-5.5-2.467-5.5-5.5s2.467-5.5 5.5-5.5 5.5 2.467 5.5 5.5-2.467 5.5-5.5 5.5zm0-10c-2.481 0-4.5 2.019-4.5 4.5s2.019 4.5 4.5 4.5 4.5-2.019 4.5-4.5-2.019-4.5-4.5-4.5z" fill="#212a41"/><path d="m34 60h-16v-6c0-2.209 1.791-4 4-4h8c2.209 0 4 1.791 4 4z" fill="#db8e11"/><path d="m34 60.5h-16c-.276 0-.5-.224-.5-.5v-6c0-2.481 2.019-4.5 4.5-4.5h8c2.481 0 4.5 2.019 4.5 4.5v6c0 .276-.224.5-.5.5zm-15.5-1h15v-5.5c0-1.93-1.57-3.5-3.5-3.5h-8c-1.93 0-3.5 1.57-3.5 3.5z" fill="#212a41"/><path d="m32 58.5c-.276 0-.5-.224-.5-.5v-4c0-.276.224-.5.5-.5s.5.224.5.5v4c0 .276-.224.5-.5.5z" fill="#bd7000"/><path d="m20 58.5c-.276 0-.5-.224-.5-.5v-4c0-.276.224-.5.5-.5s.5.224.5.5v4c0 .276-.224.5-.5.5z" fill="#f9ac2f"/><path d="m31 45h-10v-2c0-1.657 1.343-3 3-3h4c1.657 0 3 1.343 3 3z" fill="#b51040"/><g fill="#212a41"><path d="m31 45.5h-10c-.276 0-.5-.224-.5-.5v-2c0-1.93 1.57-3.5 3.5-3.5h4c1.93 0 3.5 1.57 3.5 3.5v2c0 .276-.224.5-.5.5zm-9.5-1h9v-1.5c0-1.378-1.122-2.5-2.5-2.5h-4c-1.378 0-2.5 1.122-2.5 2.5z"/><path d="m34 45.5h-3c-.276 0-.5-.224-.5-.5s.224-.5.5-.5h3c.276 0 .5.224.5.5s-.224.5-.5.5z"/><path d="m54.051 22.184c-.209 0-.404-.132-.474-.342l-5-15c-.087-.262.054-.545.316-.632.263-.088.545.054.632.316l5 15c.087.262-.054.545-.316.632-.052.017-.105.026-.158.026z"/></g><path d="m40.5 50h3v10h-3z" fill="#e0e0e0"/><path d="m43.5 60.5h-3c-.276 0-.5-.224-.5-.5v-10c0-.276.224-.5.5-.5h3c.276 0 .5.224.5.5v10c0 .276-.224.5-.5.5zm-2.5-1h2v-9h-2z" fill="#212a41"/><path d="m43 46v2.816h-2v-2.816c-1.163.413-2 1.512-2 2.816 0 1.657 1.343 3 3 3s3-1.343 3-3c0-1.304-.837-2.403-2-2.816z" fill="#e0e0e0"/><path d="m42 52.316c-1.93 0-3.5-1.57-3.5-3.5 0-1.47.938-2.791 2.333-3.288.153-.053.323-.031.456.062.132.095.211.247.211.41v2.316h1v-2.316c0-.163.079-.315.212-.409.133-.093.304-.115.456-.062 1.395.497 2.333 1.817 2.333 3.288-.001 1.929-1.571 3.499-3.501 3.499zm-1.5-5.487c-.617.463-1 1.195-1 1.987 0 1.378 1.122 2.5 2.5 2.5s2.5-1.122 2.5-2.5c0-.792-.383-1.523-1-1.987v1.987c0 .276-.224.5-.5.5h-2c-.276 0-.5-.224-.5-.5z" fill="#212a41"/><path d="m34 57h6.5v3h-6.5z" fill="#db8e11"/><path d="m40.5 60.5h-6.5c-.276 0-.5-.224-.5-.5v-3c0-.276.224-.5.5-.5h6.5c.276 0 .5.224.5.5v3c0 .276-.224.5-.5.5zm-6-1h5.5v-2h-5.5z" fill="#212a41"/><path d="m40.5 57h3v3h-3z" fill="#e0c8a4"/><path d="m43.5 60.5h-3c-.276 0-.5-.224-.5-.5v-3c0-.276.224-.5.5-.5h3c.276 0 .5.224.5.5v3c0 .276-.224.5-.5.5zm-2.5-1h2v-2h-2z" fill="#212a41"/><path d="m37.367 21.998h-4v-3z" fill="#6c696f"/><path d="m37.367 22.498h-4c-.276 0-.5-.224-.5-.5v-3c0-.189.107-.362.276-.447.17-.084.373-.067.523.047l4 3c.172.129.243.354.174.558-.067.204-.257.342-.473.342zm-3.5-1h2l-2-1.5z" fill="#212a41"/><path d="m47.367 21.998h-10l-4-3h10z" fill="#6c696f"/><path d="m47.367 22.498h-10c-.108 0-.213-.035-.3-.1l-4-3c-.172-.129-.243-.354-.174-.558.068-.204.259-.342.474-.342h10c.108 0 .213.035.3.1l4 3c.172.129.243.354.174.558-.068.204-.258.342-.474.342zm-9.833-1h8.333l-2.667-2h-8.333z" fill="#212a41"/><path d="m53.316 19.5h-31c-.276 0-.5-.224-.5-.5s.224-.5.5-.5h31c.276 0 .5.224.5.5s-.223.5-.5.5z" fill="#212a41"/><path d="m26 32.5h-22c-.276 0-.5-.224-.5-.5s.224-.5.5-.5h22c.276 0 .5.224.5.5s-.224.5-.5.5z" fill="#212a41"/><ellipse cx="13" cy="30" fill="#4e4b51" rx="4" ry="8"/><path d="m13 38.5c-2.523 0-4.5-3.733-4.5-8.5s1.977-8.5 4.5-8.5 4.5 3.733 4.5 8.5-1.977 8.5-4.5 8.5zm0-16c-1.897 0-3.5 3.435-3.5 7.5s1.603 7.5 3.5 7.5 3.5-3.435 3.5-7.5-1.603-7.5-3.5-7.5z" fill="#212a41"/><ellipse cx="13" cy="30" fill="#c2c2c2" rx="1.5" ry="4"/><path d="m13 34.5c-1.313 0-2-2.264-2-4.5s.687-4.5 2-4.5 2 2.264 2 4.5-.687 4.5-2 4.5zm0-8c-.29 0-1 1.227-1 3.5s.71 3.5 1 3.5 1-1.227 1-3.5-.71-3.5-1-3.5z" fill="#212a41"/></svg>