<svg id="Icon_Set" enable-background="new 0 0 64 64" height="512" viewBox="0 0 64 64" width="512" xmlns="http://www.w3.org/2000/svg"><path d="m34.079 8.799h24v18h-24z" fill="#6c696f" transform="matrix(.966 .259 -.259 .966 6.177 -11.32)"/><path d="m55.341 30.099c-.043 0-.086-.005-.13-.017l-23.181-6.212c-.267-.071-.425-.346-.354-.612l4.658-17.387c.035-.128.118-.237.233-.304.115-.065.249-.083.38-.05l23.183 6.212c.128.034.237.118.303.233s.085.251.051.379l-4.659 17.387c-.061.224-.263.371-.484.371zm-22.57-7.066 22.216 5.953 4.4-16.421-22.216-5.953z" fill="#212a41"/><path d="m35.939 6.674h6v6h-6z" fill="#e0e0e0" transform="matrix(.966 .259 -.259 .966 3.831 -9.749)"/><path d="m41.061 13.849c-.043 0-.086-.005-.129-.017l-5.796-1.553c-.268-.071-.426-.346-.354-.612l1.553-5.796c.035-.128.118-.237.233-.304.115-.065.249-.083.38-.05l5.796 1.553c.267.071.425.346.354.612l-1.553 5.795c-.062.224-.264.372-.484.372zm-5.184-2.407 4.83 1.294 1.294-4.83-4.83-1.294z" fill="#212a41"/><path d="m47.53 9.78h6v6h-6z" fill="#e0e0e0" transform="matrix(.966 .259 -.259 .966 5.03 -12.643)"/><path d="m52.651 16.955c-.043 0-.087-.006-.13-.017l-5.796-1.553c-.128-.034-.237-.118-.303-.233s-.085-.251-.051-.379l1.554-5.795c.072-.267.345-.423.613-.354l5.795 1.553c.267.071.425.346.354.612l-1.553 5.795c-.035.128-.118.237-.233.304-.077.044-.163.067-.25.067zm-5.183-2.407 4.83 1.294 1.294-4.83-4.829-1.294z" fill="#212a41"/><path d="m32.833 18.266h6v6h-6z" fill="#e0e0e0" transform="matrix(.966 .259 -.259 .966 6.725 -8.55)"/><path d="m37.954 25.44c-.043 0-.086-.005-.13-.017l-5.794-1.553c-.267-.071-.425-.346-.354-.612l1.552-5.795c.072-.266.352-.423.612-.354l5.796 1.553c.129.034.238.118.304.233s.085.251.051.379l-1.554 5.796c-.06.223-.262.37-.483.37zm-5.183-2.407 4.829 1.294 1.295-4.83-4.83-1.294z" fill="#212a41"/><path d="m44.424 21.371h6v6h-6z" fill="#e0e0e0" transform="matrix(.966 .259 -.259 .966 7.924 -11.444)"/><path d="m49.546 28.545c-.043 0-.086-.005-.129-.017l-5.796-1.553c-.129-.034-.237-.118-.304-.233s-.085-.251-.051-.379l1.553-5.795c.072-.267.35-.424.612-.354l5.796 1.553c.129.034.237.118.304.233s.085.251.051.379l-1.553 5.795c-.06.224-.262.371-.483.371zm-5.184-2.406 4.83 1.294 1.294-4.83-4.83-1.294z" fill="#212a41"/><path d="m40.182 14.023h6v6h-6z" fill="#e0e0e0" transform="matrix(.966 .259 -.259 .966 5.877 -10.596)"/><path d="m45.303 21.197c-.043 0-.087-.006-.13-.017l-5.795-1.553c-.267-.071-.425-.346-.354-.612l1.553-5.795c.035-.128.118-.237.233-.304.115-.066.25-.083.38-.05l5.795 1.553c.267.071.425.346.354.612l-1.553 5.796c-.035.128-.118.237-.233.304-.077.043-.163.066-.25.066zm-5.183-2.406 4.829 1.294 1.294-4.83-4.829-1.294z" fill="#212a41"/><path d="m51.773 17.129h6v6h-6z" fill="#e0e0e0" transform="matrix(.966 .259 -.259 .966 7.076 -13.49)"/><path d="m56.895 24.303c-.043 0-.087-.006-.13-.017l-5.796-1.553c-.267-.071-.425-.346-.354-.612l1.553-5.795c.072-.267.352-.424.612-.354l5.796 1.553c.268.071.426.346.354.612l-1.553 5.796c-.035.128-.118.237-.233.304-.077.043-.163.066-.249.066zm-5.184-2.407 4.83 1.294 1.294-4.83-4.83-1.294z" fill="#212a41"/><path d="m28.914 43.223-.966-.259c-.533-.143-.85-.691-.707-1.225l4.918-18.353 2.898.776-4.918 18.353c-.143.534-.691.851-1.225.708z" fill="#e0e0e0"/><path d="m29.176 43.758c-.13 0-.262-.017-.391-.052l-.966-.259c-.799-.214-1.274-1.038-1.061-1.837l4.918-18.353c.034-.128.118-.237.233-.304.115-.066.251-.083.379-.05l2.898.777c.267.071.425.346.354.612l-4.918 18.353c-.104.387-.352.71-.699.911-.231.134-.487.202-.747.202zm3.337-19.759-4.789 17.87c-.071.266.088.542.354.613l.966.259c.269.075.541-.087.612-.354l4.788-17.87z" fill="#212a41"/><path d="m5.921 8.799h24v18h-24z" fill="#6c696f" transform="matrix(-.966 .259 -.259 -.966 39.837 30.354)"/><path d="m8.659 30.099c-.087 0-.173-.023-.25-.067-.115-.066-.199-.176-.233-.304l-4.659-17.387c-.071-.267.087-.541.354-.612l23.182-6.212c.127-.035.265-.017.379.05s.199.176.233.304l4.659 17.387c.071.267-.087.541-.354.612l-23.182 6.212c-.042.011-.086.017-.129.017zm-4.047-17.534 4.4 16.421 22.216-5.953-4.4-16.421z" fill="#212a41"/><path d="m22.061 6.674h6v6h-6z" fill="#e0e0e0" transform="matrix(-.966 .259 -.259 -.966 51.772 12.533)"/><path d="m22.939 13.849c-.221 0-.423-.147-.482-.371l-1.553-5.795c-.071-.267.087-.541.354-.612l5.795-1.553c.127-.035.265-.017.379.05s.199.176.233.304l1.553 5.796c.034.128.017.265-.05.379s-.176.199-.304.233l-5.796 1.553c-.043.01-.086.016-.129.016zm-.94-5.942 1.294 4.83 4.83-1.294-1.294-4.83z" fill="#212a41"/><path d="m10.47 9.78h6v6h-6z" fill="#e0e0e0" transform="matrix(-.966 .259 -.259 -.966 29.789 21.639)"/><path d="m11.348 16.955c-.221 0-.422-.147-.482-.371l-1.553-5.795c-.034-.128-.017-.265.05-.379s.176-.199.304-.233l5.796-1.553c.126-.034.264-.016.379.05s.199.176.233.304l1.553 5.795c.071.267-.087.541-.354.612l-5.795 1.553c-.044.011-.088.017-.131.017zm-.94-5.942 1.294 4.83 4.83-1.294-1.294-4.83z" fill="#212a41"/><path d="m25.167 18.266h6v6h-6z" fill="#e0e0e0" transform="matrix(-.966 .259 -.259 -.966 60.878 34.516)"/><path d="m26.045 25.44c-.087 0-.173-.023-.25-.067-.115-.066-.199-.176-.233-.304l-1.553-5.796c-.071-.267.087-.541.354-.612l5.795-1.553c.268-.07.541.086.612.354l1.553 5.795c.071.267-.087.541-.354.612l-5.795 1.553c-.042.012-.085.018-.129.018zm-.94-5.942 1.294 4.83 4.83-1.294-1.294-4.83z" fill="#212a41"/><path d="m13.576 21.371h6v6h-6z" fill="#e0e0e0" transform="matrix(-.966 .259 -.259 -.966 38.894 43.622)"/><path d="m14.454 28.545c-.221 0-.422-.147-.482-.371l-1.553-5.795c-.034-.128-.017-.265.05-.379s.176-.199.304-.233l5.795-1.553c.267-.072.541.086.612.354l1.553 5.795c.034.128.017.265-.05.379s-.176.199-.304.233l-5.795 1.553c-.043.012-.087.017-.13.017zm-.94-5.941 1.294 4.83 4.83-1.294-1.294-4.83z" fill="#212a41"/><path d="m17.818 14.023h6v6h-6z" fill="#e0e0e0" transform="matrix(-.966 .259 -.259 -.966 45.333 28.078)"/><path d="m18.697 21.197c-.087 0-.173-.023-.25-.067-.115-.066-.199-.176-.233-.304l-1.553-5.796c-.071-.267.087-.541.354-.612l5.795-1.553c.267-.07.541.086.612.354l1.553 5.795c.034.128.017.265-.05.379s-.176.199-.304.233l-5.796 1.553c-.041.012-.085.018-.128.018zm-.941-5.942 1.294 4.83 4.83-1.294-1.294-4.83z" fill="#212a41"/><path d="m6.227 17.129h6v6h-6z" fill="#e0e0e0" transform="matrix(-.966 .259 -.259 -.966 23.35 37.183)"/><path d="m7.106 24.303c-.087 0-.173-.023-.25-.067-.115-.066-.199-.176-.233-.304l-1.553-5.795c-.071-.267.087-.541.354-.612l5.795-1.553c.268-.072.541.086.612.354l1.553 5.795c.071.267-.087.541-.354.612l-5.795 1.553c-.042.011-.086.017-.129.017zm-.94-5.942 1.294 4.83 4.83-1.294-1.294-4.83z" fill="#212a41"/><path d="m35.086 43.223.966-.259c.533-.143.85-.691.707-1.225l-4.918-18.353-2.898.776 4.918 18.353c.143.534.691.851 1.225.708z" fill="#e0e0e0"/><path d="m34.828 43.757c-.662 0-1.271-.442-1.45-1.111l-4.918-18.353c-.071-.267.087-.541.354-.612l2.897-.777c.126-.034.264-.016.379.05s.199.176.233.304l4.918 18.353c.213.799-.263 1.623-1.061 1.837l-.966.259c-.001 0-.001 0-.001 0-.127.034-.257.05-.385.05zm.258-.534h.01zm-5.53-18.706 4.788 17.87c.071.266.345.426.613.354l.965-.259c.267-.071.425-.347.354-.613l-4.788-17.869z" fill="#212a41"/><path d="m42 58h-32c-1.105 0-2-.895-2-2v-12c0-1.105.895-2 2-2h32c1.105 0 2 .895 2 2v12c0 1.104-.895 2-2 2z" fill="#db8e11"/><path d="m42 58.5h-32c-1.378 0-2.5-1.122-2.5-2.5v-12c0-1.378 1.122-2.5 2.5-2.5h32c1.379 0 2.5 1.122 2.5 2.5v12c0 1.378-1.121 2.5-2.5 2.5zm-32-16c-.827 0-1.5.673-1.5 1.5v12c0 .827.673 1.5 1.5 1.5h32c.827 0 1.5-.673 1.5-1.5v-12c0-.827-.673-1.5-1.5-1.5z" fill="#212a41"/><path d="m54 58h-32c-1.105 0-2-.895-2-2v-12c0-1.105.895-2 2-2h32c1.105 0 2 .895 2 2v12c0 1.104-.895 2-2 2z" fill="#f9ac2f"/><path d="m54 58.5h-32c-1.378 0-2.5-1.122-2.5-2.5v-12c0-1.378 1.122-2.5 2.5-2.5h32c1.379 0 2.5 1.122 2.5 2.5v12c0 1.378-1.121 2.5-2.5 2.5zm-32-16c-.827 0-1.5.673-1.5 1.5v12c0 .827.673 1.5 1.5 1.5h32c.827 0 1.5-.673 1.5-1.5v-12c0-.827-.673-1.5-1.5-1.5z" fill="#212a41"/><path d="m22 56.5c-.276 0-.5-.224-.5-.5v-12c0-.276.224-.5.5-.5s.5.224.5.5v12c0 .276-.224.5-.5.5z" fill="#ffca4d"/><path d="m10 56.5c-.276 0-.5-.224-.5-.5v-12c0-.276.224-.5.5-.5s.5.224.5.5v12c0 .276-.224.5-.5.5z" fill="#f9ac2f"/><path d="m18 56.5c-.276 0-.5-.224-.5-.5v-12c0-.276.224-.5.5-.5s.5.224.5.5v12c0 .276-.224.5-.5.5z" fill="#bd7000"/><path d="m54 56.5c-.276 0-.5-.224-.5-.5v-12c0-.276.224-.5.5-.5s.5.224.5.5v12c0 .276-.224.5-.5.5z" fill="#db8e11"/><path d="m44.5 45 1.545 3.292 3.455.527-2.5 2.563.59 3.618-3.09-1.708-3.09 1.708.59-3.618-2.5-2.563 3.455-.527z" fill="#e0e0e0"/><path d="m47.59 55.5c-.083 0-.166-.021-.242-.062l-2.848-1.575-2.848 1.575c-.169.094-.374.082-.53-.029-.156-.11-.236-.3-.205-.489l.549-3.369-2.323-2.382c-.131-.134-.176-.33-.117-.508.06-.178.214-.307.399-.335l3.191-.488 1.432-3.05c.164-.352.74-.352.904 0l1.432 3.05 3.191.488c.186.028.34.158.399.335.059.178.014.374-.117.508l-2.323 2.382.549 3.369c.031.189-.049.379-.205.489-.086.06-.187.091-.288.091zm-3.09-2.708c.083 0 .167.021.242.062l2.188 1.21-.424-2.602c-.025-.157.024-.316.136-.43l1.82-1.866-2.493-.381c-.165-.025-.307-.131-.377-.282l-1.092-2.326-1.093 2.327c-.07.151-.212.257-.377.282l-2.493.381 1.82 1.866c.111.114.161.273.136.43l-.424 2.602 2.188-1.21c.076-.043.16-.063.243-.063z" fill="#212a41"/><path d="m31.5 45 1.545 3.292 3.455.527-2.5 2.563.59 3.618-3.09-1.708-3.09 1.708.59-3.618-2.5-2.563 3.455-.527z" fill="#e0e0e0"/><path d="m28.41 55.5c-.101 0-.202-.031-.288-.091-.156-.11-.236-.3-.206-.489l.55-3.369-2.324-2.382c-.131-.134-.176-.33-.116-.508s.213-.307.398-.335l3.191-.488 1.432-3.05c.165-.352.74-.352.905 0l1.431 3.05 3.191.488c.186.028.34.158.399.335.059.178.014.374-.117.508l-2.323 2.382.549 3.369c.031.189-.049.379-.205.489-.155.111-.36.123-.53.029l-2.847-1.575-2.849 1.575c-.075.041-.158.062-.241.062zm-.872-6.333 1.82 1.866c.111.114.161.273.136.43l-.425 2.602 2.189-1.21c.15-.083.333-.083.484 0l2.188 1.21-.424-2.602c-.025-.157.024-.316.136-.43l1.82-1.866-2.494-.381c-.165-.025-.306-.131-.377-.282l-1.091-2.327-1.092 2.327c-.071.151-.212.257-.377.282z" fill="#212a41"/></svg>