<svg id="Icon_Set" enable-background="new 0 0 64 64" height="512" viewBox="0 0 64 64" width="512" xmlns="http://www.w3.org/2000/svg"><path d="m28 14h8v36h-8z" fill="#e0e0e0" transform="matrix(0 1 -1 0 64 0)"/><path d="m50 36.5h-36c-.276 0-.5-.224-.5-.5v-8c0-.276.224-.5.5-.5h36c.276 0 .5.224.5.5v8c0 .276-.224.5-.5.5zm-35.5-1h35v-7h-35z" fill="#212a41"/><path d="m60 26h-7l-3 2v8l3 2h7z" fill="#e0e0e0"/><path d="m60 38.5h-7c-.099 0-.195-.029-.277-.084l-3-2c-.139-.093-.223-.249-.223-.416v-8c0-.167.084-.323.223-.416l3-2c.082-.055.178-.084.277-.084h7c.276 0 .5.224.5.5v12c0 .276-.224.5-.5.5zm-6.849-1h6.349v-11h-6.349l-2.651 1.768v7.465z" fill="#212a41"/><path d="m50 31 3-2h7v-3h-7l-3 2z" fill="#c2c2c2"/><path d="m50 31.5c-.081 0-.162-.02-.236-.059-.162-.087-.264-.256-.264-.441v-3c0-.167.084-.323.223-.416l3-2c.082-.055.178-.084.277-.084h7c.276 0 .5.224.5.5v3c0 .276-.224.5-.5.5h-6.849l-2.874 1.916c-.084.056-.18.084-.277.084zm.5-3.232v1.798l2.223-1.482c.082-.055.178-.084.277-.084h6.5v-2h-6.349z" fill="#212a41"/><path d="m53 38.5c-.097 0-.193-.028-.277-.084l-3-2c-.139-.093-.223-.249-.223-.416v-8c0-.167.084-.323.223-.416l3-2c.155-.102.351-.112.514-.025.161.087.263.256.263.441v12c0 .185-.102.354-.264.441-.074.039-.155.059-.236.059zm-2.5-2.768 2 1.333v-10.131l-2 1.333z" fill="#212a41"/><path d="m58 36.5c-.276 0-.5-.224-.5-.5v-5c0-.276.224-.5.5-.5s.5.224.5.5v5c0 .276-.224.5-.5.5z" fill="#c2c2c2"/><path d="m4 26h7l3 2v8l-3 2h-7z" fill="#e0e0e0"/><path d="m11 38.5h-7c-.276 0-.5-.224-.5-.5v-12c0-.276.224-.5.5-.5h7c.099 0 .195.029.277.084l3 2c.139.093.223.249.223.416v8c0 .167-.084.323-.223.416l-3 2c-.082.055-.178.084-.277.084zm-6.5-1h6.349l2.651-1.768v-7.465l-2.651-1.767h-6.349z" fill="#212a41"/><path d="m14 31-3-2h-7v-3h7l3 2z" fill="#c2c2c2"/><path d="m14 31.5c-.097 0-.193-.028-.277-.084l-2.874-1.916h-6.849c-.276 0-.5-.224-.5-.5v-3c0-.276.224-.5.5-.5h7c.099 0 .195.029.277.084l3 2c.139.093.223.249.223.416v3c0 .185-.102.354-.264.441-.074.039-.155.059-.236.059zm-9.5-3h6.5c.099 0 .195.029.277.084l2.223 1.482v-1.798l-2.651-1.768h-6.349z" fill="#212a41"/><path d="m11 38.5c-.081 0-.162-.02-.236-.059-.162-.087-.264-.256-.264-.441v-12c0-.185.102-.354.264-.441.163-.087.359-.077.514.025l3 2c.138.093.222.249.222.416v8c0 .167-.084.323-.223.416l-3 2c-.084.056-.18.084-.277.084zm.5-11.566v10.132l2-1.333v-7.465z" fill="#212a41"/><path d="m6 36.5c-.276 0-.5-.224-.5-.5v-5c0-.276.224-.5.5-.5s.5.224.5.5v5c0 .276-.224.5-.5.5z" fill="#fefefe"/><path d="m28 14h8v36h-8z" fill="#e0e0e0"/><path d="m36 50.5h-8c-.276 0-.5-.224-.5-.5v-36c0-.276.224-.5.5-.5h8c.276 0 .5.224.5.5v36c0 .276-.224.5-.5.5zm-7.5-1h7v-35h-7z" fill="#212a41"/><path d="m26 4v7l2 3h8l2-3v-7z" fill="#e0e0e0"/><path d="m36 14.5h-8c-.167 0-.323-.083-.416-.223l-2-3c-.055-.082-.084-.178-.084-.277v-7c0-.276.224-.5.5-.5h12c.276 0 .5.224.5.5v7c0 .099-.029.195-.084.277l-2 3c-.093.14-.249.223-.416.223zm-7.732-1h7.465l1.768-2.651v-6.349h-11v6.349z" fill="#212a41"/><path d="m31 14-2-3v-7h-3v7l2 3z" fill="#c2c2c2"/><path d="m31 14.5h-3c-.167 0-.323-.083-.416-.223l-2-3c-.055-.082-.084-.178-.084-.277v-7c0-.276.224-.5.5-.5h3c.276 0 .5.224.5.5v6.849l1.916 2.874c.103.153.112.351.024.513-.086.162-.255.264-.44.264zm-2.732-1h1.798l-1.481-2.223c-.056-.082-.085-.178-.085-.277v-6.5h-2v6.349z" fill="#212a41"/><path d="m36 14.5h-8c-.167 0-.323-.083-.416-.223l-2-3c-.103-.153-.112-.351-.024-.513.086-.162.255-.264.44-.264h12c.185 0 .354.102.44.264.088.163.078.36-.024.513l-2 3c-.093.14-.249.223-.416.223zm-7.732-1h7.465l1.333-2h-10.131z" fill="#212a41"/><path d="m31 9.5c-.276 0-.5-.224-.5-.5v-3c0-.276.224-.5.5-.5s.5.224.5.5v3c0 .276-.224.5-.5.5z" fill="#fefefe"/><path d="m26 60v-7l2-3h8l2 3v7z" fill="#e0e0e0"/><path d="m38 60.5h-12c-.276 0-.5-.224-.5-.5v-7c0-.099.029-.195.084-.277l2-3c.093-.14.249-.223.416-.223h8c.167 0 .323.083.416.223l2 3c.055.082.084.178.084.277v7c0 .276-.224.5-.5.5zm-11.5-1h11v-6.349l-1.768-2.651h-7.465l-1.767 2.651z" fill="#212a41"/><path d="m31 50-2 3v7h-3v-7l2-3z" fill="#c2c2c2"/><path d="m29 60.5h-3c-.276 0-.5-.224-.5-.5v-7c0-.099.029-.195.084-.277l2-3c.093-.14.249-.223.416-.223h3c.185 0 .354.102.44.264.088.163.078.36-.024.513l-1.916 2.874v6.849c0 .276-.224.5-.5.5zm-2.5-1h2v-6.5c0-.099.029-.195.084-.277l1.481-2.223h-1.798l-1.767 2.651z" fill="#212a41"/><path d="m38 53.5h-12c-.185 0-.354-.102-.44-.264-.088-.163-.078-.36.024-.513l2-3c.093-.14.249-.223.416-.223h8c.167 0 .323.083.416.223l2 3c.103.153.112.351.024.513-.086.162-.255.264-.44.264zm-11.065-1h10.131l-1.333-2h-7.465z" fill="#212a41"/><g fill="#fefefe"><path d="m31 58.5c-.276 0-.5-.224-.5-.5v-3c0-.276.224-.5.5-.5s.5.224.5.5v3c0 .276-.224.5-.5.5z"/><path d="m30 48.5c-.276 0-.5-.224-.5-.5v-32c0-.276.224-.5.5-.5s.5.224.5.5v32c0 .276-.224.5-.5.5z"/></g></svg>