<svg id="Icon_Set" enable-background="new 0 0 64 64" height="512" viewBox="0 0 64 64" width="512" xmlns="http://www.w3.org/2000/svg"><path d="m19 37h4v3h-4z" fill="#d32e5e"/><path d="m23 40.5h-4c-.276 0-.5-.224-.5-.5v-3c0-.276.224-.5.5-.5h4c.276 0 .5.224.5.5v3c0 .276-.224.5-.5.5zm-3.5-1h3v-2h-3z" fill="#212a41"/><path d="m26 58h-22v-12c0-3.314 2.686-6 6-6h10c3.314 0 6 2.686 6 6z" fill="#b51040"/><path d="m26 58.5h-22c-.276 0-.5-.224-.5-.5v-12c0-3.584 2.916-6.5 6.5-6.5h10c3.584 0 6.5 2.916 6.5 6.5v12c0 .276-.224.5-.5.5zm-21.5-1h21v-11.5c0-3.032-2.468-5.5-5.5-5.5h-10c-3.032 0-5.5 2.468-5.5 5.5z" fill="#212a41"/><path d="m24 40h-10c-3.314 0-6 2.686-6 6v12h22v-12c0-3.314-2.686-6-6-6z" fill="#d32e5e"/><path d="m30 58.5h-22c-.276 0-.5-.224-.5-.5v-12c0-3.584 2.916-6.5 6.5-6.5h10c3.584 0 6.5 2.916 6.5 6.5v12c0 .276-.224.5-.5.5zm-21.5-1h21v-11.5c0-3.032-2.468-5.5-5.5-5.5h-10c-3.032 0-5.5 2.468-5.5 5.5z" fill="#212a41"/><path d="m19 37h-4c-2.209 0-4-1.791-4-4v-6c0-2.209 1.791-4 4-4h4c2.209 0 4 1.791 4 4v6c0 2.209-1.791 4-4 4z" fill="#e0c8a4"/><path d="m19 37.5h-4c-2.481 0-4.5-2.019-4.5-4.5v-6c0-2.481 2.019-4.5 4.5-4.5h4c2.481 0 4.5 2.019 4.5 4.5v6c0 2.481-2.019 4.5-4.5 4.5zm-4-14c-1.93 0-3.5 1.57-3.5 3.5v6c0 1.93 1.57 3.5 3.5 3.5h4c1.93 0 3.5-1.57 3.5-3.5v-6c0-1.93-1.57-3.5-3.5-3.5z" fill="#212a41"/><path d="m15 23v6c0 1.105-.895 2-2 2h-2v-6c0-1.105.895-2 2-2z" fill="#db8e11"/><path d="m13 31.5h-2c-.276 0-.5-.224-.5-.5v-6c0-1.379 1.121-2.5 2.5-2.5h2c.276 0 .5.224.5.5v6c0 1.379-1.121 2.5-2.5 2.5zm-1.5-1h1.5c.827 0 1.5-.673 1.5-1.5v-5.5h-1.5c-.827 0-1.5.673-1.5 1.5z" fill="#212a41"/><path d="m25 21v2c0 2.209-1.791 4-4 4h-7v-4c0-1.105.895-2 2-2z" fill="#f9ac2f"/><path d="m21 27.5h-7c-.276 0-.5-.224-.5-.5v-4c0-1.379 1.121-2.5 2.5-2.5h9c.276 0 .5.224.5.5v2c0 2.481-2.019 4.5-4.5 4.5zm-6.5-1h6.5c1.93 0 3.5-1.57 3.5-3.5v-1.5h-8.5c-.827 0-1.5.673-1.5 1.5z" fill="#212a41"/><path d="m28 56.5c-.276 0-.5-.224-.5-.5v-10c0-.276.224-.5.5-.5s.5.224.5.5v10c0 .276-.224.5-.5.5z" fill="#b51040"/><path d="m19 58.5c-.276 0-.5-.224-.5-.5v-18c0-.276.224-.5.5-.5s.5.224.5.5v18c0 .276-.224.5-.5.5z" fill="#212a41"/><path d="m15 37h4v3h-4z" fill="#e0c8a4"/><path d="m19 40.5h-4c-.276 0-.5-.224-.5-.5v-3c0-.276.224-.5.5-.5h4c.276 0 .5.224.5.5v3c0 .276-.224.5-.5.5zm-3.5-1h3v-2h-3z" fill="#212a41"/><path d="m12 37h4v3h-4z" fill="#d32e5e"/><path d="m16 40.5h-4c-.276 0-.5-.224-.5-.5v-3c0-.276.224-.5.5-.5h4c.276 0 .5.224.5.5v3c0 .276-.224.5-.5.5zm-3.5-1h3v-2h-3z" fill="#212a41"/><path d="m6.721 60h10.559c1.664-1.466 2.72-3.608 2.72-6 0-4.418-3.582-8-8-8s-8 3.582-8 8c0 2.392 1.056 4.534 2.721 6z" fill="#d32e5e"/><path d="m17.279 60.5h-10.558c-.122 0-.239-.044-.33-.125-1.837-1.617-2.891-3.94-2.891-6.375 0-4.687 3.813-8.5 8.5-8.5s8.5 3.813 8.5 8.5c0 2.435-1.054 4.758-2.891 6.375-.09.081-.208.125-.33.125zm-10.366-1h10.174c1.536-1.421 2.413-3.414 2.413-5.5 0-4.136-3.364-7.5-7.5-7.5s-7.5 3.364-7.5 7.5c0 2.086.877 4.079 2.413 5.5z" fill="#212a41"/><path d="m7.538 58.5c-.137 0-.273-.056-.372-.166-1.074-1.197-1.666-2.736-1.666-4.334 0-.276.224-.5.5-.5s.5.224.5.5c0 1.351.501 2.653 1.41 3.666.185.205.167.521-.038.706-.096.086-.215.128-.334.128z" fill="#f14c7c"/><path d="m11 51v3l2 2h6.736c.166-.64.264-1.308.264-2 0-1.062-.211-2.073-.587-3z" fill="#b7c0d7"/><path d="m19.736 56.5h-6.736c-.133 0-.26-.053-.354-.146l-2-2c-.093-.094-.146-.221-.146-.354v-3c0-.276.224-.5.5-.5h8.413c.203 0 .387.123.463.312.414 1.02.624 2.092.624 3.188 0 .694-.094 1.409-.279 2.125-.058.221-.257.375-.485.375zm-6.529-1h6.133c.106-.508.16-1.011.16-1.5 0-.854-.146-1.694-.432-2.5h-7.568v2.293z" fill="#212a41"/><path d="m9 54h2v-3h-3z" fill="#4e4b51"/><path d="m11 54.5h-2c-.215 0-.406-.138-.475-.342l-1-3c-.051-.152-.025-.32.069-.45.094-.131.245-.208.406-.208h3c.276 0 .5.224.5.5v3c0 .276-.224.5-.5.5zm-1.64-1h1.14v-2h-1.807z" fill="#212a41"/><path d="m41 37h4v3h-4z" fill="#f9ac2f" transform="matrix(-1 0 0 -1 86 77)"/><path d="m45 40.5h-4c-.276 0-.5-.224-.5-.5v-3c0-.276.224-.5.5-.5h4c.276 0 .5.224.5.5v3c0 .276-.224.5-.5.5zm-3.5-1h3v-2h-3z" fill="#212a41"/><path d="m38 58h22v-12c0-3.314-2.686-6-6-6h-10c-3.314 0-6 2.686-6 6z" fill="#f9ac2f"/><path d="m60 58.5h-22c-.276 0-.5-.224-.5-.5v-12c0-3.584 2.916-6.5 6.5-6.5h10c3.584 0 6.5 2.916 6.5 6.5v12c0 .276-.224.5-.5.5zm-21.5-1h21v-11.5c0-3.032-2.468-5.5-5.5-5.5h-10c-3.032 0-5.5 2.468-5.5 5.5z" fill="#212a41"/><path d="m40 40h10c3.314 0 6 2.686 6 6v12h-22v-12c0-3.314 2.686-6 6-6z" fill="#db8e11"/><path d="m56 58.5h-22c-.276 0-.5-.224-.5-.5v-12c0-3.584 2.916-6.5 6.5-6.5h10c3.584 0 6.5 2.916 6.5 6.5v12c0 .276-.224.5-.5.5zm-21.5-1h21v-11.5c0-3.032-2.468-5.5-5.5-5.5h-10c-3.032 0-5.5 2.468-5.5 5.5z" fill="#212a41"/><path d="m45 37h4c2.209 0 4-1.791 4-4v-6c0-2.209-1.791-4-4-4h-4c-2.209 0-4 1.791-4 4v6c0 2.209 1.791 4 4 4z" fill="#e0c8a4"/><path d="m49 37.5h-4c-2.481 0-4.5-2.019-4.5-4.5v-6c0-2.481 2.019-4.5 4.5-4.5h4c2.481 0 4.5 2.019 4.5 4.5v6c0 2.481-2.019 4.5-4.5 4.5zm-4-14c-1.93 0-3.5 1.57-3.5 3.5v6c0 1.93 1.57 3.5 3.5 3.5h4c1.93 0 3.5-1.57 3.5-3.5v-6c0-1.93-1.57-3.5-3.5-3.5z" fill="#212a41"/><path d="m49 23v6c0 1.105.895 2 2 2h2v-6c0-1.105-.895-2-2-2z" fill="#6c696f"/><path d="m53 31.5h-2c-1.379 0-2.5-1.121-2.5-2.5v-6c0-.276.224-.5.5-.5h2c1.379 0 2.5 1.121 2.5 2.5v6c0 .276-.224.5-.5.5zm-3.5-8v5.5c0 .827.673 1.5 1.5 1.5h1.5v-5.5c0-.827-.673-1.5-1.5-1.5z" fill="#212a41"/><path d="m39 25v2h14v-4c0-1.105-.895-2-2-2h-8c-2.209 0-4 1.791-4 4z" fill="#4e4b51"/><path d="m53 27.5h-14c-.276 0-.5-.224-.5-.5v-2c0-2.481 2.019-4.5 4.5-4.5h8c1.379 0 2.5 1.121 2.5 2.5v4c0 .276-.224.5-.5.5zm-13.5-1h13v-3.5c0-.827-.673-1.5-1.5-1.5h-8c-1.93 0-3.5 1.57-3.5 3.5z" fill="#212a41"/><path d="m36 56.5c-.276 0-.5-.224-.5-.5v-10c0-.276.224-.5.5-.5s.5.224.5.5v10c0 .276-.224.5-.5.5z" fill="#f9ac2f"/><path d="m45 58.5c-.276 0-.5-.224-.5-.5v-18c0-.276.224-.5.5-.5s.5.224.5.5v18c0 .276-.224.5-.5.5z" fill="#212a41"/><path d="m45 37h4v3h-4z" fill="#e0c8a4" transform="matrix(-1 0 0 -1 94 77)"/><path d="m49 40.5h-4c-.276 0-.5-.224-.5-.5v-3c0-.276.224-.5.5-.5h4c.276 0 .5.224.5.5v3c0 .276-.224.5-.5.5zm-3.5-1h3v-2h-3z" fill="#212a41"/><path d="m48 37h4v3h-4z" fill="#f9ac2f" transform="matrix(-1 0 0 -1 100 77)"/><path d="m52 40.5h-4c-.276 0-.5-.224-.5-.5v-3c0-.276.224-.5.5-.5h4c.276 0 .5.224.5.5v3c0 .276-.224.5-.5.5zm-3.5-1h3v-2h-3z" fill="#212a41"/><path d="m57.279 60h-10.558c-1.665-1.466-2.721-3.608-2.721-6 0-4.418 3.582-8 8-8s8 3.582 8 8c0 2.392-1.056 4.534-2.721 6z" fill="#f9ac2f"/><path d="m57.279 60.5h-10.558c-.122 0-.239-.044-.33-.125-1.837-1.617-2.891-3.94-2.891-6.375 0-4.687 3.813-8.5 8.5-8.5s8.5 3.813 8.5 8.5c0 2.435-1.054 4.758-2.891 6.375-.09.081-.208.125-.33.125zm-10.366-1h10.174c1.536-1.421 2.413-3.414 2.413-5.5 0-4.136-3.364-7.5-7.5-7.5s-7.5 3.364-7.5 7.5c0 2.086.877 4.079 2.413 5.5z" fill="#212a41"/><path d="m56.462 58.5c-.119 0-.238-.042-.334-.128-.205-.185-.223-.501-.038-.706.909-1.013 1.41-2.315 1.41-3.666 0-.276.224-.5.5-.5s.5.224.5.5c0 1.598-.592 3.137-1.666 4.334-.099.11-.235.166-.372.166z" fill="#db8e11"/><path d="m53 51v3l-2 2h-6.736c-.166-.64-.264-1.308-.264-2 0-1.062.211-2.073.587-3z" fill="#b7c0d7"/><path d="m51 56.5h-6.736c-.228 0-.427-.154-.484-.375-.186-.716-.28-1.431-.28-2.125 0-1.096.21-2.168.624-3.188.076-.189.26-.312.463-.312h8.413c.276 0 .5.224.5.5v3c0 .133-.053.26-.146.354l-2 2c-.094.093-.221.146-.354.146zm-6.34-1h6.133l1.707-1.707v-2.293h-7.568c-.286.806-.432 1.646-.432 2.5 0 .489.054.992.16 1.5z" fill="#212a41"/><path d="m55 54h-2v-3h3z" fill="#4e4b51"/><path d="m55 54.5h-2c-.276 0-.5-.224-.5-.5v-3c0-.276.224-.5.5-.5h3c.161 0 .312.077.405.208.095.13.12.298.069.45l-1 3c-.068.204-.259.342-.474.342zm-1.5-1h1.14l.667-2h-1.807z" fill="#212a41"/><path d="m22 46h4v3h-4z" fill="#0079a8"/><path d="m26 49.5h-4c-.276 0-.5-.224-.5-.5v-3c0-.276.224-.5.5-.5h4c.276 0 .5.224.5.5v3c0 .276-.224.5-.5.5zm-3.5-1h3v-2h-3z" fill="#212a41"/><path d="m38 46h4v3h-4z" fill="#0079a8"/><path d="m42 49.5h-4c-.276 0-.5-.224-.5-.5v-3c0-.276.224-.5.5-.5h4c.276 0 .5.224.5.5v3c0 .276-.224.5-.5.5zm-3.5-1h3v-2h-3z" fill="#212a41"/><path d="m42.5 4h-16c-1.105 0-2 .895-2 2v10c0 1.105.895 2 2 2h6v4l4-4h6c1.105 0 2-.895 2-2v-10c0-1.104-.895-2-2-2z" fill="#e0e0e0"/><path d="m32.5 22.5c-.064 0-.13-.013-.191-.038-.187-.077-.309-.26-.309-.462v-3.5h-5.5c-1.379 0-2.5-1.121-2.5-2.5v-10c0-1.379 1.121-2.5 2.5-2.5h16c1.379 0 2.5 1.121 2.5 2.5v10c0 1.379-1.121 2.5-2.5 2.5h-5.793l-3.854 3.854c-.095.095-.223.146-.353.146zm-6-18c-.827 0-1.5.673-1.5 1.5v10c0 .827.673 1.5 1.5 1.5h6c.276 0 .5.224.5.5v2.793l3.146-3.146c.094-.094.221-.147.354-.147h6c.827 0 1.5-.673 1.5-1.5v-10c0-.827-.673-1.5-1.5-1.5z" fill="#212a41"/><path d="m26.5 18c-1.105 0-2-.895-2-2v-10c0-1.105.895-2 2-2h-3c-1.105 0-2 .895-2 2v10c0 1.105.895 2 2 2h6v4h3v-4z" fill="#c2c2c2"/><g fill="#212a41"><path d="m32.5 22.5h-3c-.276 0-.5-.224-.5-.5v-3.5h-5.5c-1.379 0-2.5-1.121-2.5-2.5v-10c0-1.379 1.121-2.5 2.5-2.5h3c.276 0 .5.224.5.5s-.224.5-.5.5c-.827 0-1.5.673-1.5 1.5v10c0 .827.673 1.5 1.5 1.5h6c.276 0 .5.224.5.5v4c0 .276-.224.5-.5.5zm-2.5-1h2v-3h-2zm-6.5-17c-.827 0-1.5.673-1.5 1.5v10c0 .827.673 1.5 1.5 1.5h1.001c-.314-.418-.501-.938-.501-1.5v-10c0-.562.187-1.082.501-1.5z"/><path d="m34.5 16.5c-3.032 0-5.5-2.468-5.5-5.5s2.468-5.5 5.5-5.5 5.5 2.468 5.5 5.5-2.468 5.5-5.5 5.5zm0-10c-2.481 0-4.5 2.019-4.5 4.5s2.019 4.5 4.5 4.5 4.5-2.019 4.5-4.5-2.019-4.5-4.5-4.5z"/><path d="m39.5 11.5h-3c-.276 0-.5-.224-.5-.5s.224-.5.5-.5h3c.276 0 .5.224.5.5s-.224.5-.5.5z"/><path d="m34.5 13.5c-1.379 0-2.5-1.121-2.5-2.5s1.121-2.5 2.5-2.5 2.5 1.121 2.5 2.5-1.121 2.5-2.5 2.5zm0-4c-.827 0-1.5.673-1.5 1.5s.673 1.5 1.5 1.5 1.5-.673 1.5-1.5-.673-1.5-1.5-1.5z"/><path d="m34.5 16.5c-.276 0-.5-.224-.5-.5v-3c0-.276.224-.5.5-.5s.5.224.5.5v3c0 .276-.224.5-.5.5z"/><path d="m32.5 11.5h-3c-.276 0-.5-.224-.5-.5s.224-.5.5-.5h3c.276 0 .5.224.5.5s-.224.5-.5.5z"/></g><path d="m26.5 16.5c-.276 0-.5-.224-.5-.5v-10c0-.276.224-.5.5-.5s.5.224.5.5v10c0 .276-.224.5-.5.5z" fill="#fefefe"/><path d="m42.5 16.5c-.276 0-.5-.224-.5-.5v-10c0-.276.224-.5.5-.5s.5.224.5.5v10c0 .276-.224.5-.5.5z" fill="#c2c2c2"/></svg>