<svg id="Icon_Set" enable-background="new 0 0 64 64" height="512" viewBox="0 0 64 64" width="512" xmlns="http://www.w3.org/2000/svg"><path d="m25 57h-10c-1.105 0-2-.895-2-2v-8h12z" fill="#c2c2c2"/><path d="m25 57.5h-10c-1.378 0-2.5-1.122-2.5-2.5v-8c0-.276.224-.5.5-.5h12c.276 0 .5.224.5.5v10c0 .276-.224.5-.5.5zm-11.5-10v7.5c0 .827.673 1.5 1.5 1.5h9.5v-9z" fill="#212a41"/><path d="m25 47h12v10h-12z" fill="#e0e0e0"/><path d="m37 57.5h-12c-.276 0-.5-.224-.5-.5v-10c0-.276.224-.5.5-.5h12c.276 0 .5.224.5.5v10c0 .276-.224.5-.5.5zm-11.5-1h11v-9h-11z" fill="#212a41"/><path d="m52 57h-26c-.552 0-1-.448-1-1v-4c0-.552.448-1 1-1h26c.552 0 1 .448 1 1v4c0 .552-.448 1-1 1z" fill="#c2c2c2"/><path d="m52 57.5h-26c-.827 0-1.5-.673-1.5-1.5v-4c0-.827.673-1.5 1.5-1.5h26c.827 0 1.5.673 1.5 1.5v4c0 .827-.673 1.5-1.5 1.5zm-26-6c-.276 0-.5.224-.5.5v4c0 .276.224.5.5.5h26c.276 0 .5-.224.5-.5v-4c0-.276-.224-.5-.5-.5z" fill="#212a41"/><path d="m59 57h-26c-.552 0-1-.448-1-1v-4c0-.552.448-1 1-1h26c.552 0 1 .448 1 1v4c0 .552-.448 1-1 1z" fill="#e0e0e0"/><path d="m59 57.5h-26c-.827 0-1.5-.673-1.5-1.5v-4c0-.827.673-1.5 1.5-1.5h26c.827 0 1.5.673 1.5 1.5v4c0 .827-.673 1.5-1.5 1.5zm-26-6c-.276 0-.5.224-.5.5v4c0 .276.224.5.5.5h26c.276 0 .5-.224.5-.5v-4c0-.276-.224-.5-.5-.5z" fill="#212a41"/><path d="m21 47h37c1.105 0 2-.895 2-2v-21c0-.63-.296-1.222-.8-1.6l-6.667-5c-.346-.26-.767-.4-1.2-.4h-30.333c-1.105 0-2 .895-2 2v26c0 1.105.895 2 2 2z" fill="#e0e0e0"/><path d="m58 47.5h-37c-1.378 0-2.5-1.122-2.5-2.5v-26c0-1.378 1.122-2.5 2.5-2.5h30.333c.538 0 1.07.178 1.5.5l6.667 5c.626.47 1 1.218 1 2v21c0 1.378-1.122 2.5-2.5 2.5zm-37-30c-.827 0-1.5.673-1.5 1.5v26c0 .827.673 1.5 1.5 1.5h37c.827 0 1.5-.673 1.5-1.5v-21c0-.47-.224-.918-.6-1.2l-6.667-5c-.258-.193-.578-.3-.9-.3z" fill="#212a41"/><path d="m9 47h16c1.105 0 2-.895 2-2v-21c0-.63-.296-1.222-.8-1.6l-6.667-5c-.346-.26-.767-.4-1.2-.4h-9.333c-1.105 0-2 .895-2 2v26c0 1.105.895 2 2 2z" fill="#c2c2c2"/><path d="m25 47.5h-16c-1.378 0-2.5-1.122-2.5-2.5v-26c0-1.378 1.122-2.5 2.5-2.5h9.333c.538 0 1.07.178 1.5.5l6.667 5c.626.47 1 1.218 1 2v21c0 1.378-1.122 2.5-2.5 2.5zm-16-30c-.827 0-1.5.673-1.5 1.5v26c0 .827.673 1.5 1.5 1.5h16c.827 0 1.5-.673 1.5-1.5v-21c0-.47-.224-.918-.6-1.2l-6.667-5c-.258-.193-.578-.3-.9-.3z" fill="#212a41"/><path d="m16 13h16v4h-16z" fill="#c2c2c2"/><path d="m32 17.5h-16c-.276 0-.5-.224-.5-.5v-4c0-.276.224-.5.5-.5h16c.276 0 .5.224.5.5v4c0 .276-.224.5-.5.5zm-15.5-1h15v-3h-15z" fill="#212a41"/><path d="m24 13h16v4h-16z" fill="#e0e0e0"/><path d="m40 17.5h-16c-.276 0-.5-.224-.5-.5v-4c0-.276.224-.5.5-.5h16c.276 0 .5.224.5.5v4c0 .276-.224.5-.5.5zm-15.5-1h15v-3h-15z" fill="#212a41"/><path d="m55 54c-1.104 0-2-.896-2-2v-15c0-1.103-.897-2-2-2h-3c-1.104 0-2-.896-2-2s.896-2 2-2h3c3.309 0 6 2.691 6 6v15c0 1.104-.896 2-2 2z" fill="#6c696f"/><path d="m55 54.5c-1.378 0-2.5-1.122-2.5-2.5v-15c0-.827-.673-1.5-1.5-1.5h-3c-1.378 0-2.5-1.122-2.5-2.5s1.122-2.5 2.5-2.5h3c3.584 0 6.5 2.916 6.5 6.5v15c0 1.378-1.122 2.5-2.5 2.5zm-7-23c-.827 0-1.5.673-1.5 1.5s.673 1.5 1.5 1.5h3c1.378 0 2.5 1.122 2.5 2.5v15c0 .827.673 1.5 1.5 1.5s1.5-.673 1.5-1.5v-15c0-3.033-2.467-5.5-5.5-5.5z" fill="#212a41"/><path d="m47 54c-1.104 0-2-.896-2-2v-15c0-1.103-.897-2-2-2h-3c-1.104 0-2-.896-2-2s.896-2 2-2h3c3.309 0 6 2.691 6 6v15c0 1.104-.896 2-2 2z" fill="#6c696f"/><path d="m47 54.5c-1.378 0-2.5-1.122-2.5-2.5v-15c0-.827-.673-1.5-1.5-1.5h-3c-1.378 0-2.5-1.122-2.5-2.5s1.122-2.5 2.5-2.5h3c3.584 0 6.5 2.916 6.5 6.5v15c0 1.378-1.122 2.5-2.5 2.5zm-7-23c-.827 0-1.5.673-1.5 1.5s.673 1.5 1.5 1.5h3c1.378 0 2.5 1.122 2.5 2.5v15c0 .827.673 1.5 1.5 1.5s1.5-.673 1.5-1.5v-15c0-3.033-2.467-5.5-5.5-5.5z" fill="#212a41"/><path d="m39 54c-1.104 0-2-.896-2-2v-15c0-1.103-.897-2-2-2h-3c-1.104 0-2-.896-2-2s.896-2 2-2h3c3.309 0 6 2.691 6 6v15c0 1.104-.896 2-2 2z" fill="#6c696f"/><path d="m39 54.5c-1.378 0-2.5-1.122-2.5-2.5v-15c0-.827-.673-1.5-1.5-1.5h-3c-1.378 0-2.5-1.122-2.5-2.5s1.122-2.5 2.5-2.5h3c3.584 0 6.5 2.916 6.5 6.5v15c0 1.378-1.122 2.5-2.5 2.5zm-7-23c-.827 0-1.5.673-1.5 1.5s.673 1.5 1.5 1.5h3c1.378 0 2.5 1.122 2.5 2.5v15c0 .827.673 1.5 1.5 1.5s1.5-.673 1.5-1.5v-15c0-3.033-2.467-5.5-5.5-5.5z" fill="#212a41"/><path d="m22 25h-12c-1.105 0-2 .895-2 2v14c0 1.105.895 2 2 2h12c1.105 0 2-.895 2-2v-14c0-1.105-.895-2-2-2z" fill="#b7c0d7"/><path d="m22 43.5h-12c-1.378 0-2.5-1.122-2.5-2.5v-14c0-1.378 1.122-2.5 2.5-2.5h12c1.378 0 2.5 1.122 2.5 2.5v14c0 1.378-1.122 2.5-2.5 2.5zm-12-18c-.827 0-1.5.673-1.5 1.5v14c0 .827.673 1.5 1.5 1.5h12c.827 0 1.5-.673 1.5-1.5v-14c0-.827-.673-1.5-1.5-1.5z" fill="#212a41"/><path d="m18 25h-12c-1.105 0-2 .895-2 2v14c0 1.105.895 2 2 2h12c1.105 0 2-.895 2-2v-14c0-1.105-.895-2-2-2z" fill="#99a2b9"/><path d="m18 43.5h-12c-1.378 0-2.5-1.122-2.5-2.5v-14c0-1.378 1.122-2.5 2.5-2.5h12c1.378 0 2.5 1.122 2.5 2.5v14c0 1.378-1.122 2.5-2.5 2.5zm-12-18c-.827 0-1.5.673-1.5 1.5v14c0 .827.673 1.5 1.5 1.5h12c.827 0 1.5-.673 1.5-1.5v-14c0-.827-.673-1.5-1.5-1.5z" fill="#212a41"/><circle cx="12" cy="34" fill="#c2c2c2" r="5"/><path d="m12 39.5c-3.033 0-5.5-2.467-5.5-5.5s2.467-5.5 5.5-5.5 5.5 2.467 5.5 5.5-2.467 5.5-5.5 5.5zm0-10c-2.481 0-4.5 2.019-4.5 4.5s2.019 4.5 4.5 4.5 4.5-2.019 4.5-4.5-2.019-4.5-4.5-4.5z" fill="#212a41"/><path d="m44 13h-18v-4c0-1.105.895-2 2-2h14c1.105 0 2 .895 2 2z" fill="#b7c0d7"/><path d="m44 13.5h-18c-.276 0-.5-.224-.5-.5v-4c0-1.378 1.122-2.5 2.5-2.5h14c1.378 0 2.5 1.122 2.5 2.5v4c0 .276-.224.5-.5.5zm-17.5-1h17v-3.5c0-.827-.673-1.5-1.5-1.5h-14c-.827 0-1.5.673-1.5 1.5z" fill="#212a41"/><path d="m30 13h-18v-4c0-1.105.895-2 2-2h14c1.105 0 2 .895 2 2z" fill="#99a2b9"/><path d="m30 13.5h-18c-.276 0-.5-.224-.5-.5v-4c0-1.378 1.122-2.5 2.5-2.5h14c1.378 0 2.5 1.122 2.5 2.5v4c0 .276-.224.5-.5.5zm-17.5-1h17v-3.5c0-.827-.673-1.5-1.5-1.5h-14c-.827 0-1.5.673-1.5 1.5z" fill="#212a41"/><path d="m55 24h-4l-6-4h4z" fill="#c2c2c2"/><path d="m55 24.5h-4c-.099 0-.195-.029-.277-.084l-6-4c-.183-.122-.265-.35-.201-.561s.258-.355.478-.355h4c.099 0 .195.029.277.084l6 4c.183.122.265.35.201.561s-.258.355-.478.355zm-3.849-1h2.197l-4.5-3h-2.197z" fill="#212a41"/><path d="m47 24h-4l-6-4h4z" fill="#c2c2c2"/><path d="m47 24.5h-4c-.099 0-.195-.029-.277-.084l-6-4c-.183-.122-.265-.35-.201-.561s.258-.355.478-.355h4c.099 0 .195.029.277.084l6 4c.183.122.265.35.201.561s-.258.355-.478.355zm-3.849-1h2.197l-4.5-3h-2.197z" fill="#212a41"/><path d="m39 24h-4l-6-4h4z" fill="#c2c2c2"/><g fill="#212a41"><path d="m39 24.5h-4c-.099 0-.195-.029-.277-.084l-6-4c-.183-.122-.265-.35-.201-.561s.258-.355.478-.355h4c.099 0 .195.029.277.084l6 4c.183.122.265.35.201.561s-.258.355-.478.355zm-3.849-1h2.197l-4.5-3h-2.197z"/><path d="m17 22.5h-10c-.276 0-.5-.224-.5-.5s.224-.5.5-.5h10c.276 0 .5.224.5.5s-.224.5-.5.5z"/><path d="m56 27.5h-25c-.276 0-.5-.224-.5-.5s.224-.5.5-.5h25c.276 0 .5.224.5.5s-.224.5-.5.5z"/></g><path d="m29 45.5c-.276 0-.5-.224-.5-.5v-21c0-.276.224-.5.5-.5s.5.224.5.5v21c0 .276-.224.5-.5.5z" fill="#fefefe"/><path d="m58 45.5c-.276 0-.5-.224-.5-.5v-21c0-.276.224-.5.5-.5s.5.224.5.5v21c0 .276-.224.5-.5.5z" fill="#c2c2c2"/><path d="m18 41.5c-.276 0-.5-.224-.5-.5v-14c0-.276.224-.5.5-.5s.5.224.5.5v14c0 .276-.224.5-.5.5z" fill="#7b849b"/><path d="m6 41.5c-.276 0-.5-.224-.5-.5v-14c0-.276.224-.5.5-.5s.5.224.5.5v14c0 .276-.224.5-.5.5z" fill="#b7c0d7"/><path d="m15 55.5c-.276 0-.5-.224-.5-.5v-6c0-.276.224-.5.5-.5s.5.224.5.5v6c0 .276-.224.5-.5.5z" fill="#e0e0e0"/><path d="m23 55.5c-.276 0-.5-.224-.5-.5v-6c0-.276.224-.5.5-.5s.5.224.5.5v6c0 .276-.224.5-.5.5z" fill="#a4a4a4"/></svg>