<svg id="Icon_Set" enable-background="new 0 0 64 64" height="512" viewBox="0 0 64 64" width="512" xmlns="http://www.w3.org/2000/svg"><path d="m45 60h-20c-1.105 0-2-.895-2-2v-26c0-4.418 3.582-8 8-8h8c4.418 0 8 3.582 8 8v26c0 1.105-.895 2-2 2z" fill="#b51040"/><path d="m45 60.5h-20c-1.379 0-2.5-1.122-2.5-2.5v-26c0-4.687 3.813-8.5 8.5-8.5h8c4.687 0 8.5 3.813 8.5 8.5v26c0 1.378-1.121 2.5-2.5 2.5zm-14-36c-4.136 0-7.5 3.364-7.5 7.5v26c0 .827.673 1.5 1.5 1.5h20c.827 0 1.5-.673 1.5-1.5v-26c0-4.136-3.364-7.5-7.5-7.5z" fill="#212a41"/><path d="m30 20h10v4h-10z" fill="#b51040"/><path d="m40 24.5h-10c-.276 0-.5-.224-.5-.5v-4c0-.276.224-.5.5-.5h10c.276 0 .5.224.5.5v4c0 .276-.224.5-.5.5zm-9.5-1h9v-3h-9z" fill="#212a41"/><path d="m32 16h6v4h-6z" fill="#f9ac2f"/><path d="m38 20.5h-6c-.276 0-.5-.224-.5-.5v-4c0-.276.224-.5.5-.5h6c.276 0 .5.224.5.5v4c0 .276-.224.5-.5.5zm-5.5-1h5v-3h-5z" fill="#212a41"/><path d="m31 9h4v4h-4z" fill="#b51040"/><path d="m35 13.5h-4c-.276 0-.5-.224-.5-.5v-4c0-.276.224-.5.5-.5h4c.276 0 .5.224.5.5v4c0 .276-.224.5-.5.5zm-3.5-1h3v-3h-3z" fill="#212a41"/><path d="m31 13h16v3h-16z" fill="#b51040"/><path d="m47 16.5h-16c-.276 0-.5-.224-.5-.5v-3c0-.276.224-.5.5-.5h16c.276 0 .5.224.5.5v3c0 .276-.224.5-.5.5zm-15.5-1h15v-2h-15z" fill="#212a41"/><path d="m24.5 16h6v4h-6z" fill="#db8e11"/><path d="m30.5 20.5h-6c-.276 0-.5-.224-.5-.5v-4c0-.276.224-.5.5-.5h6c.276 0 .5.224.5.5v4c0 .276-.224.5-.5.5zm-5.5-1h5v-3h-5z" fill="#212a41"/><path d="m49 60h-20c-1.105 0-2-.895-2-2v-26c0-4.418 3.582-8 8-8h8c4.418 0 8 3.582 8 8v26c0 1.105-.895 2-2 2z" fill="#d32e5e"/><path d="m49 60.5h-20c-1.379 0-2.5-1.122-2.5-2.5v-26c0-4.687 3.813-8.5 8.5-8.5h8c4.687 0 8.5 3.813 8.5 8.5v26c0 1.378-1.121 2.5-2.5 2.5zm-14-36c-4.136 0-7.5 3.364-7.5 7.5v26c0 .827.673 1.5 1.5 1.5h20c.827 0 1.5-.673 1.5-1.5v-26c0-4.136-3.364-7.5-7.5-7.5z" fill="#212a41"/><path d="m34 20h10v4h-10z" fill="#d32e5e"/><path d="m44 24.5h-10c-.276 0-.5-.224-.5-.5v-4c0-.276.224-.5.5-.5h10c.276 0 .5.224.5.5v4c0 .276-.224.5-.5.5zm-9.5-1h9v-3h-9z" fill="#212a41"/><path d="m23 50.5h4v7h-4z" fill="#d32e5e"/><path d="m27 58h-4c-.276 0-.5-.224-.5-.5v-7c0-.276.224-.5.5-.5h4c.276 0 .5.224.5.5v7c0 .276-.224.5-.5.5zm-3.5-1h3v-6h-3z" fill="#212a41"/><path d="m19 50.5h4v7h-4z" fill="#b51040"/><path d="m23 58h-4c-.276 0-.5-.224-.5-.5v-7c0-.276.224-.5.5-.5h4c.276 0 .5.224.5.5v7c0 .276-.224.5-.5.5zm-3.5-1h3v-6h-3z" fill="#212a41"/><path d="m35.5 16h7v4h-7z" fill="#f9ac2f"/><path d="m42.5 20.5h-7c-.276 0-.5-.224-.5-.5v-4c0-.276.224-.5.5-.5h7c.276 0 .5.224.5.5v4c0 .276-.224.5-.5.5zm-6.5-1h6v-3h-6z" fill="#212a41"/><path d="m45 52h-12c-1.105 0-2-.895-2-2v-16c0-1.105.895-2 2-2h12c1.105 0 2 .895 2 2v16c0 1.105-.895 2-2 2z" fill="#e0e0e0"/><path d="m45 52.5h-12c-1.379 0-2.5-1.122-2.5-2.5v-16c0-1.378 1.121-2.5 2.5-2.5h12c1.379 0 2.5 1.122 2.5 2.5v16c0 1.378-1.121 2.5-2.5 2.5zm-12-20c-.827 0-1.5.673-1.5 1.5v16c0 .827.673 1.5 1.5 1.5h12c.827 0 1.5-.673 1.5-1.5v-16c0-.827-.673-1.5-1.5-1.5z" fill="#212a41"/><path d="m47 9-12 4v-4l12-5z" fill="#d32e5e"/><path d="m35 13.5c-.104 0-.206-.032-.292-.094-.131-.094-.208-.245-.208-.406v-4c0-.202.121-.384.308-.461l12-5c.154-.063.332-.047.47.045.138.093.222.249.222.416v5c0 .215-.138.406-.342.474l-12 4c-.052.018-.105.026-.158.026zm.5-4.167v2.973l11-3.667v-3.889zm11.5-.333h.01z" fill="#212a41"/><path d="m47 4-12 5h-4l12-5z" fill="#d32e5e"/><path d="m35 9.5h-4c-.238 0-.443-.168-.49-.402s.078-.468.298-.56l12-5c.06-.025.126-.038.192-.038h4c.238 0 .443.168.49.402s-.078.468-.298.56l-12 5c-.06.025-.126.038-.192.038zm-1.5-1h1.4l9.6-4h-1.4z" fill="#212a41"/><path d="m35 13h16v3h-16z" fill="#d32e5e"/><path d="m51 16.5h-16c-.276 0-.5-.224-.5-.5v-3c0-.276.224-.5.5-.5h16c.276 0 .5.224.5.5v3c0 .276-.224.5-.5.5zm-15.5-1h15v-2h-15z" fill="#212a41"/><path d="m29.5 16h6v4h-6z" fill="#f9ac2f"/><path d="m35.5 20.5h-6c-.276 0-.5-.224-.5-.5v-4c0-.276.224-.5.5-.5h6c.276 0 .5.224.5.5v4c0 .276-.224.5-.5.5zm-5.5-1h5v-3h-5z" fill="#212a41"/><path d="m21 55.5c-4.418 0-8-3.582-8-8v-23c0-4.418 3.582-8 8-8h5.5v3h-5.5c-2.761 0-5 2.239-5 5v23c0 2.761 2.239 5 5 5z" fill="#4e4b51"/><path d="m21 56c-4.687 0-8.5-3.813-8.5-8.5v-23c0-4.687 3.813-8.5 8.5-8.5h5.5c.276 0 .5.224.5.5v3c0 .276-.224.5-.5.5h-5.5c-2.481 0-4.5 2.019-4.5 4.5v23c0 2.481 2.019 4.5 4.5 4.5.276 0 .5.224.5.5v3c0 .276-.224.5-.5.5zm0-39c-4.136 0-7.5 3.364-7.5 7.5v23c0 3.967 3.097 7.225 7 7.483v-2.006c-2.8-.253-5-2.613-5-5.478v-23c0-3.033 2.468-5.5 5.5-5.5h5v-2h-5z" fill="#212a41"/><path d="m29 58.5c-.276 0-.5-.224-.5-.5v-26c0-.276.224-.5.5-.5s.5.224.5.5v26c0 .276-.224.5-.5.5z" fill="#f14c7c"/><path d="m49 58.5c-.276 0-.5-.224-.5-.5v-26c0-.276.224-.5.5-.5s.5.224.5.5v26c0 .276-.224.5-.5.5z" fill="#b51040"/><path d="m41.16 44.721-.779.779c-.781.781-2.047.781-2.828 0l-.712-.712c-.536-.536-.723-1.328-.483-2.047l1.609-4.827 1 4 2.102-1.497.614 2.392c.175.685-.023 1.412-.523 1.912z" fill="#f9ac2f"/><g fill="#212a41"><path d="m38.966 46.585c-.64 0-1.28-.244-1.768-.731l-.711-.712c-.675-.674-.906-1.654-.604-2.559l1.609-4.827c.07-.21.229-.364.494-.341.222.008.412.163.466.378l.822 3.289 1.504-1.071c.135-.095.309-.118.462-.062.154.057.271.186.312.345l.614 2.392c.219.852-.032 1.768-.654 2.39l-.778.779c-.487.486-1.128.73-1.768.73zm-1.068-6.884-1.066 3.199c-.182.542-.043 1.13.362 1.535l.711.712c.586.585 1.536.584 2.122 0l.778-.779c.373-.374.523-.923.393-1.434l-.433-1.687-1.509 1.074c-.135.096-.31.118-.463.062-.155-.058-.272-.188-.312-.348z"/><path d="m34 47.5c-.128 0-.256-.049-.354-.146-.195-.195-.195-.512 0-.707l10-10c.195-.195.512-.195.707 0s.195.512 0 .707l-10 10c-.097.097-.225.146-.353.146z"/></g></svg>