<svg id="Icon_Set" enable-background="new 0 0 64 64" height="512" viewBox="0 0 64 64" width="512" xmlns="http://www.w3.org/2000/svg"><path d="m24 29h-20v-5h18z" fill="#6c696f"/><path d="m24 29.5h-20c-.276 0-.5-.224-.5-.5v-5c0-.276.224-.5.5-.5h18c.204 0 .389.125.464.314l2 5c.062.154.043.329-.05.466s-.248.22-.414.22zm-19.5-1h18.762l-1.601-4h-17.161z" fill="#212a41"/><path d="m60 46h-5l-2-4h5z" fill="#b51040"/><path d="m60 46.5h-5c-.189 0-.362-.107-.447-.276l-2-4c-.077-.155-.069-.339.021-.486.092-.148.253-.238.426-.238h5c.189 0 .362.107.447.276l2 4c.077.155.069.339-.021.486-.092.148-.253.238-.426.238zm-4.691-1h3.883l-1.5-3h-3.883z" fill="#212a41"/><path d="m12 27h10v7h-10z" fill="#d32e5e"/><path d="m22 34.5h-10c-.276 0-.5-.224-.5-.5v-7c0-.276.224-.5.5-.5h10c.276 0 .5.224.5.5v7c0 .276-.224.5-.5.5zm-9.5-1h9v-6h-9z" fill="#212a41"/><path d="m50 34h-5v16h5c2.209 0 4-3.582 4-8s-1.791-8-4-8z" fill="#6c696f"/><path d="m50 50.5h-5c-.276 0-.5-.224-.5-.5v-16c0-.276.224-.5.5-.5h5c2.523 0 4.5 3.733 4.5 8.5s-1.977 8.5-4.5 8.5zm-4.5-1h4.5c1.897 0 3.5-3.435 3.5-7.5s-1.603-7.5-3.5-7.5h-4.5z" fill="#212a41"/><ellipse cx="45" cy="42" fill="#4e4b51" rx="4" ry="8"/><path d="m45 50.5c-2.523 0-4.5-3.733-4.5-8.5s1.977-8.5 4.5-8.5 4.5 3.733 4.5 8.5-1.977 8.5-4.5 8.5zm0-16c-1.897 0-3.5 3.435-3.5 7.5s1.603 7.5 3.5 7.5 3.5-3.435 3.5-7.5-1.603-7.5-3.5-7.5z" fill="#212a41"/><ellipse cx="45" cy="42" fill="#b51040" rx="1.5" ry="4"/><path d="m45 46.5c-1.313 0-2-2.264-2-4.5s.687-4.5 2-4.5 2 2.264 2 4.5-.687 4.5-2 4.5zm0-8c-.29 0-1 1.227-1 3.5s.71 3.5 1 3.5 1-1.227 1-3.5-.71-3.5-1-3.5z" fill="#212a41"/><path d="m57 46h-10v-3h8.5z" fill="#d32e5e"/><path d="m57 46.5h-10c-.276 0-.5-.224-.5-.5v-3c0-.276.224-.5.5-.5h8.5c.189 0 .362.107.447.276l1.5 3c.077.155.069.339-.021.486-.092.148-.253.238-.426.238zm-9.5-1h8.691l-1-2h-7.691z" fill="#212a41"/><path d="m36 34h-12l11.576 4.961c1.47.63 2.424 2.076 2.424 3.677v3.362h12v-3.362c0-1.6-.954-3.046-2.424-3.677z" fill="#d32e5e"/><path d="m50 46.5h-12c-.276 0-.5-.224-.5-.5v-3.362c0-1.402-.833-2.665-2.122-3.217l-11.575-4.961c-.218-.093-.34-.328-.293-.56.048-.233.253-.4.49-.4h12c.067 0 .135.014.197.041l11.575 4.961c1.657.709 2.728 2.333 2.728 4.136v3.362c0 .276-.224.5-.5.5zm-11.5-1h11v-2.862c0-1.402-.833-2.665-2.122-3.217l-11.48-4.92h-9.462l9.337 4.001c1.657.709 2.728 2.333 2.728 4.136v2.862z" fill="#212a41"/><path d="m48 44.5c-.276 0-.5-.224-.5-.5v-1.362c0-.601-.356-1.142-.909-1.379l-11.198-4.799c-.254-.109-.371-.403-.263-.656.109-.255.403-.373.657-.263l11.198 4.799c.92.394 1.515 1.296 1.515 2.298v1.362c0 .276-.224.5-.5.5z" fill="#b51040"/><path d="m41 34h-3c-.552 0-1-.448-1-1v-1c0-.552.448-1 1-1h3c.552 0 1 .448 1 1v1c0 .552-.448 1-1 1z" fill="#d32e5e"/><path d="m41 34.5h-3c-.827 0-1.5-.673-1.5-1.5v-1c0-.827.673-1.5 1.5-1.5h3c.827 0 1.5.673 1.5 1.5v1c0 .827-.673 1.5-1.5 1.5zm-3-3c-.275 0-.5.224-.5.5v1c0 .276.225.5.5.5h3c.275 0 .5-.224.5-.5v-1c0-.276-.225-.5-.5-.5z" fill="#212a41"/><path d="m4 50h46v10h-46z" fill="#4e4b51"/><path d="m50 60.5h-46c-.276 0-.5-.224-.5-.5v-10c0-.276.224-.5.5-.5h46c.276 0 .5.224.5.5v10c0 .276-.224.5-.5.5zm-45.5-1h45v-9h-45z" fill="#212a41"/><path d="m14 50h46v10h-46z" fill="#6c696f"/><path d="m60 60.5h-46c-.276 0-.5-.224-.5-.5v-10c0-.276.224-.5.5-.5h46c.276 0 .5.224.5.5v10c0 .276-.224.5-.5.5zm-45.5-1h45v-9h-45z" fill="#212a41"/><path d="m43 9c0 1.105.895 2 2 2h8c1.105 0 2-.895 2-2 0-1.105-.895-2-2-2h-1.042c0-1.657-1.343-3-3-3s-3 1.343-3 3h-.958c-1.105 0-2 .895-2 2z" fill="#99a2b9"/><path d="m53 11.5h-8c-1.379 0-2.5-1.122-2.5-2.5s1.121-2.5 2.5-2.5h.493c.244-1.694 1.705-3 3.465-3s3.221 1.306 3.465 3h.577c1.379 0 2.5 1.122 2.5 2.5s-1.121 2.5-2.5 2.5zm-8-4c-.827 0-1.5.673-1.5 1.5s.673 1.5 1.5 1.5h8c.827 0 1.5-.673 1.5-1.5s-.673-1.5-1.5-1.5h-1.042c-.276 0-.5-.224-.5-.5 0-1.378-1.121-2.5-2.5-2.5s-2.5 1.122-2.5 2.5c0 .276-.224.5-.5.5z" fill="#212a41"/><path d="m56.958 7c0-1.657-1.343-3-3-3s-3 1.343-3 3h-.958c-1.105 0-2 .895-2 2 0 1.105.895 2 2 2h8c1.105 0 2-.895 2-2 0-1.105-.895-2-2-2z" fill="#b7c0d7"/><path d="m58 11.5h-8c-1.379 0-2.5-1.122-2.5-2.5s1.121-2.5 2.5-2.5h.493c.244-1.694 1.705-3 3.465-3s3.221 1.306 3.465 3h.577c1.379 0 2.5 1.122 2.5 2.5s-1.121 2.5-2.5 2.5zm-8-4c-.827 0-1.5.673-1.5 1.5s.673 1.5 1.5 1.5h8c.827 0 1.5-.673 1.5-1.5s-.673-1.5-1.5-1.5h-1.042c-.276 0-.5-.224-.5-.5 0-1.378-1.121-2.5-2.5-2.5s-2.5 1.122-2.5 2.5c0 .276-.224.5-.5.5zm7.458-.5h.01z" fill="#212a41"/><path d="m58 58.5c-.276 0-.5-.224-.5-.5v-6c0-.276.224-.5.5-.5s.5.224.5.5v6c0 .276-.224.5-.5.5z" fill="#4e4b51"/><path d="m16 58.5c-.276 0-.5-.224-.5-.5v-6c0-.276.224-.5.5-.5s.5.224.5.5v6c0 .276-.224.5-.5.5z" fill="#8a878d"/><path d="m6 58.5c-.276 0-.5-.224-.5-.5v-6c0-.276.224-.5.5-.5s.5.224.5.5v6c0 .276-.224.5-.5.5z" fill="#6c696f"/><path d="m35.576 38.961-11.576-4.961h-12v-7h-4l-4 5v14h34v-3.362c0-1.601-.954-3.047-2.424-3.677z" fill="#b51040"/><path d="m38 46.5h-34c-.276 0-.5-.224-.5-.5v-14c0-.114.039-.224.109-.312l4-5c.095-.119.239-.188.391-.188h4c.276 0 .5.224.5.5v6.5h11.5c.067 0 .135.014.197.041l11.575 4.961c1.657.71 2.728 2.334 2.728 4.136v3.362c0 .276-.224.5-.5.5zm-33.5-1h33v-2.862c0-1.402-.833-2.665-2.122-3.217l-11.48-4.92h-11.898c-.276 0-.5-.224-.5-.5v-6.5h-3.26l-3.74 4.674z" fill="#212a41"/><path d="m20.027 34h5.945c1.224-.911 2.028-2.357 2.028-4 0-2.761-2.239-5-5-5s-5 2.239-5 5c0 1.643.804 3.089 2.027 4z" fill="#e0e0e0"/><path d="m25.973 34.5h-5.945c-.107 0-.213-.035-.299-.099-1.417-1.055-2.229-2.659-2.229-4.401 0-3.033 2.468-5.5 5.5-5.5s5.5 2.467 5.5 5.5c0 1.742-.812 3.346-2.229 4.401-.085.064-.191.099-.298.099zm-5.776-1h5.605c1.081-.864 1.697-2.131 1.697-3.5 0-2.481-2.019-4.5-4.5-4.5s-4.5 2.019-4.5 4.5c.001 1.369.617 2.636 1.698 3.5z" fill="#212a41"/><path d="m22 31h5.89c.067-.323.11-.656.11-1 0-.712-.154-1.387-.422-2h-6.578z" fill="#b7c0d7"/><path d="m27.891 31.5h-5.891c-.215 0-.406-.138-.475-.342l-1-3c-.051-.152-.025-.32.069-.451.094-.13.245-.207.406-.207h6.578c.198 0 .378.118.458.299.308.703.464 1.444.464 2.201 0 .349-.039.709-.119 1.101-.048.232-.253.399-.49.399zm-5.531-1h5.107c.021-.173.032-.339.032-.5 0-.512-.088-1.015-.261-1.5h-5.546z" fill="#212a41"/><path d="m23 34h-3c-.552 0-1-.448-1-1v-1c0-.552.448-1 1-1h3c.552 0 1 .448 1 1v1c0 .552-.448 1-1 1z" fill="#d32e5e"/><path d="m23 34.5h-3c-.827 0-1.5-.673-1.5-1.5v-1c0-.827.673-1.5 1.5-1.5h3c.827 0 1.5.673 1.5 1.5v1c0 .827-.673 1.5-1.5 1.5zm-3-3c-.275 0-.5.224-.5.5v1c0 .276.225.5.5.5h3c.275 0 .5-.224.5-.5v-1c0-.276-.225-.5-.5-.5z" fill="#212a41"/><path d="m20 34h-5v16h5c2.209 0 4-3.582 4-8s-1.791-8-4-8z" fill="#6c696f"/><path d="m20 50.5h-5c-.276 0-.5-.224-.5-.5v-16c0-.276.224-.5.5-.5h5c2.523 0 4.5 3.733 4.5 8.5s-1.977 8.5-4.5 8.5zm-4.5-1h4.5c1.897 0 3.5-3.435 3.5-7.5s-1.603-7.5-3.5-7.5h-4.5z" fill="#212a41"/><ellipse cx="15" cy="42" fill="#4e4b51" rx="4" ry="8"/><path d="m15 50.5c-2.523 0-4.5-3.733-4.5-8.5s1.977-8.5 4.5-8.5 4.5 3.733 4.5 8.5-1.977 8.5-4.5 8.5zm0-16c-1.897 0-3.5 3.435-3.5 7.5s1.603 7.5 3.5 7.5 3.5-3.435 3.5-7.5-1.603-7.5-3.5-7.5z" fill="#212a41"/><ellipse cx="15" cy="42" fill="#b51040" rx="1.5" ry="4"/><path d="m15 46.5c-1.313 0-2-2.264-2-4.5s.687-4.5 2-4.5 2 2.264 2 4.5-.687 4.5-2 4.5zm0-8c-.29 0-1 1.227-1 3.5s.71 3.5 1 3.5 1-1.227 1-3.5-.71-3.5-1-3.5z" fill="#212a41"/><path d="m26 46h-5l-2-4h5z" fill="#b51040"/><path d="m26 46.5h-5c-.189 0-.362-.107-.447-.276l-2-4c-.077-.155-.069-.339.021-.486.092-.148.253-.238.426-.238h5c.189 0 .362.107.447.276l2 4c.077.155.069.339-.021.486-.092.148-.253.238-.426.238zm-4.691-1h3.883l-1.5-3h-3.883z" fill="#212a41"/><path d="m36 46h-10l-1.5-3h9.5z" fill="#d32e5e"/><path d="m36 46.5h-10c-.189 0-.362-.107-.447-.276l-1.5-3c-.077-.155-.069-.339.021-.486.092-.148.253-.238.426-.238h9.5c.167 0 .323.083.416.223l2 3c.103.153.112.351.024.513-.086.162-.255.264-.44.264zm-9.691-1h8.757l-1.333-2h-8.424z" fill="#212a41"/><path d="m4 43c1.657 0 3-1.791 3-4s-1.343-4-3-4z" fill="#e0e0e0"/><path d="m4 43.5c-.276 0-.5-.224-.5-.5v-8c0-.276.224-.5.5-.5 1.93 0 3.5 2.019 3.5 4.5s-1.57 4.5-3.5 4.5zm.5-7.93v6.859c1.14-.325 2-1.739 2-3.43s-.86-3.103-2-3.429z" fill="#212a41"/><g fill="#970022"><path d="m36 44.5c-.276 0-.5-.224-.5-.5v-1.362c0-.601-.356-1.142-.909-1.379l-11.198-4.799c-.254-.109-.371-.403-.263-.656.11-.255.404-.373.657-.263l11.198 4.799c.92.394 1.515 1.296 1.515 2.298v1.362c0 .276-.224.5-.5.5z"/><path d="m10 34.5c-.276 0-.5-.224-.5-.5v-5c0-.276.224-.5.5-.5s.5.224.5.5v5c0 .276-.224.5-.5.5z"/></g></svg>