<svg id="Icon_Set" enable-background="new 0 0 64 64" height="512" viewBox="0 0 64 64" width="512" xmlns="http://www.w3.org/2000/svg"><path d="m28.261 40.809-3.508-2.806c-2.372-1.898-3.753-4.771-3.753-7.809v-5.194h38l-2.971-7.428c-3.037-7.593-10.392-12.572-18.57-12.572h-12.459c-11.046 0-20 8.954-20 20v14c0 5.036 2.371 9.778 6.4 12.8l6.933 5.2c1.731 1.298 3.836 2 6 2h26.402c1.405 0 2.707-.737 3.43-1.942l4.265-7.108c.373-.622.57-1.333.57-2.058v-4.892h-24.492c-2.271 0-4.474-.773-6.247-2.191z" fill="#b51040"/><path d="m50.735 59.5h-26.402c-2.257 0-4.495-.746-6.3-2.1l-6.933-5.2c-4.133-3.099-6.6-8.034-6.6-13.2v-14c0-11.304 9.196-20.5 20.5-20.5h12.459c8.431 0 15.902 5.058 19.034 12.887l2.971 7.428c.062.154.042.329-.05.466-.093.136-.248.219-.414.219h-37.5v4.694c0 2.901 1.299 5.605 3.565 7.418l3.508 2.806c1.678 1.343 3.786 2.082 5.935 2.082h24.492c.276 0 .5.224.5.5v4.892c0 .815-.222 1.616-.641 2.315l-4.265 7.108c-.809 1.348-2.287 2.185-3.859 2.185zm-25.735-54c-10.752 0-19.5 8.748-19.5 19.5v14c0 4.853 2.318 9.488 6.2 12.4l6.934 5.2c1.634 1.225 3.658 1.9 5.7 1.9h26.402c1.222 0 2.372-.651 3.001-1.699l4.265-7.108c.326-.544.499-1.167.499-1.801v-4.392h-23.993c-2.375 0-4.704-.817-6.56-2.301l-3.508-2.806c-2.504-2.004-3.94-4.992-3.94-8.199v-5.194c0-.276.224-.5.5-.5h37.261l-2.697-6.742c-2.978-7.446-10.085-12.258-18.105-12.258z" fill="#212a41"/><path d="m31.029 17.572 2.971 7.428h25l-2.971-7.428c-3.037-7.593-10.392-12.572-18.57-12.572h-12.459c-2.193 0-4.297.366-6.271 1.018 5.505 1.819 10.069 5.977 12.3 11.554z" fill="#d32e5e"/><path d="m59 25.5h-25c-.205 0-.388-.125-.464-.314l-2.971-7.428c-2.139-5.348-6.51-9.454-11.993-11.266-.205-.067-.343-.259-.343-.475s.138-.407.343-.475c2.096-.691 4.259-1.042 6.428-1.042h12.459c8.431 0 15.902 5.058 19.034 12.887l2.971 7.428c.062.154.042.329-.05.466-.093.136-.248.219-.414.219zm-24.662-1h23.923l-2.697-6.742c-2.978-7.446-10.085-12.258-18.105-12.258h-12.459c-1.571 0-3.139.194-4.679.577 5.088 2.109 9.113 6.163 11.172 11.31z" fill="#212a41"/><path d="m24.333 57.5c-1.827 0-3.638-.604-5.1-1.7l-6.933-5.2c-3.632-2.724-5.8-7.06-5.8-11.6v-14c0-7.69 4.85-14.654 12.068-17.327.261-.097.547.036.643.295s-.036.547-.295.643c-6.828 2.528-11.416 9.115-11.416 16.389v14c0 4.227 2.019 8.264 5.4 10.8l6.934 5.2c1.29.967 2.888 1.5 4.5 1.5.276 0 .5.224.5.5s-.224.5-.501.5z" fill="#d32e5e"/><path d="m12.368 31.456 10.632 3.544v-10h-12v4.558c0 .861.551 1.626 1.368 1.898z" fill="#4e4b51"/><path d="m23 35.5c-.053 0-.106-.008-.158-.026l-10.633-3.544c-1.022-.341-1.709-1.294-1.709-2.372v-4.558c0-.276.224-.5.5-.5h12c.276 0 .5.224.5.5v10c0 .161-.077.312-.208.406-.086.062-.188.094-.292.094zm-10.474-4.518 9.974 3.324v-8.806h-11v4.059c0 .646.412 1.218 1.026 1.423z" fill="#212a41"/><path d="m50.735 59h-10.735l-5.43-9.05c-.373-.622-.57-1.333-.57-2.058v-4.892h25v4.892c0 .725-.197 1.436-.57 2.058l-4.265 7.108c-.723 1.205-2.025 1.942-3.43 1.942z" fill="#d32e5e"/><path d="m50.735 59.5h-10.735c-.176 0-.338-.092-.429-.243l-5.43-9.05c-.419-.7-.641-1.5-.641-2.315v-4.892c0-.276.224-.5.5-.5h25c.276 0 .5.224.5.5v4.892c0 .815-.222 1.616-.641 2.315l-4.265 7.108c-.809 1.348-2.287 2.185-3.859 2.185zm-10.452-1h10.452c1.222 0 2.372-.651 3.001-1.699l4.265-7.108c.326-.544.499-1.167.499-1.801v-4.392h-24v4.392c0 .634.172 1.257.499 1.801z" fill="#212a41"/><path d="m56.046 23.5c-.198 0-.386-.119-.464-.314l-1.874-4.686c-2.673-6.683-9.051-11-16.248-11-.276 0-.5-.224-.5-.5s.224-.5.5-.5c7.608 0 14.351 4.565 17.177 11.629l1.874 4.685c.103.256-.022.547-.279.65-.061.025-.124.036-.186.036z" fill="#b51040"/><path d="m50.735 57.5c-.276 0-.5-.224-.5-.5s.224-.5.5-.5c.524 0 1.017-.279 1.286-.728l4.265-7.108c.14-.232.213-.5.213-.771v-2.893c0-.276.224-.5.5-.5s.5.224.5.5v2.892c0 .453-.123.898-.356 1.286l-4.265 7.108c-.448.749-1.27 1.214-2.143 1.214z" fill="#b51040"/><path d="m43 47h10v3h-10z" fill="#6c696f"/><path d="m53 50.5h-10c-.276 0-.5-.224-.5-.5v-3c0-.276.224-.5.5-.5h10c.276 0 .5.224.5.5v3c0 .276-.224.5-.5.5zm-9.5-1h9v-2h-9z" fill="#212a41"/><path d="m44 50h8v3h-8z" fill="#6c696f"/><path d="m52 53.5h-8c-.276 0-.5-.224-.5-.5v-3c0-.276.224-.5.5-.5h8c.276 0 .5.224.5.5v3c0 .276-.224.5-.5.5zm-7.5-1h7v-2h-7z" fill="#212a41"/><path d="m34.508 43h24.492v-18h-38v5.194c0 3.038 1.381 5.911 3.753 7.809l3.508 2.806c1.773 1.418 3.976 2.191 6.247 2.191z" fill="#b7c0d7"/><path d="m59 43.5h-24.492c-2.375 0-4.704-.817-6.56-2.301l-3.508-2.806c-2.504-2.004-3.94-4.992-3.94-8.199v-5.194c0-.276.224-.5.5-.5h38c.276 0 .5.224.5.5v18c0 .276-.224.5-.5.5zm-37.5-18v4.694c0 2.901 1.299 5.605 3.565 7.418l3.508 2.806c1.678 1.343 3.786 2.082 5.935 2.082h23.992v-17z" fill="#212a41"/><path d="m34.508 41.5c-1.923 0-3.809-.662-5.31-1.862l-3.508-2.806c-2.027-1.623-3.19-4.042-3.19-6.638v-3.194c0-.276.224-.5.5-.5s.5.224.5.5v3.194c0 2.291 1.026 4.425 2.815 5.856l3.508 2.806c1.325 1.06 2.989 1.644 4.685 1.644.276 0 .5.224.5.5s-.224.5-.5.5z" fill="#d5def5"/><path d="m51 21h-6c-.552 0-1-.448-1-1v-1c0-.552.448-1 1-1h6c.552 0 1 .448 1 1v1c0 .552-.448 1-1 1z" fill="#f9ac2f"/><path d="m51 21.5h-6c-.827 0-1.5-.673-1.5-1.5v-1c0-.827.673-1.5 1.5-1.5h6c.827 0 1.5.673 1.5 1.5v1c0 .827-.673 1.5-1.5 1.5zm-6-3c-.276 0-.5.224-.5.5v1c0 .276.224.5.5.5h6c.276 0 .5-.224.5-.5v-1c0-.276-.224-.5-.5-.5z" fill="#212a41"/><circle cx="15.5" cy="28.5" fill="#c2c2c2" r="2"/><path d="m15.5 31c-1.378 0-2.5-1.122-2.5-2.5s1.122-2.5 2.5-2.5 2.5 1.122 2.5 2.5-1.122 2.5-2.5 2.5zm0-4c-.827 0-1.5.673-1.5 1.5s.673 1.5 1.5 1.5 1.5-.673 1.5-1.5-.673-1.5-1.5-1.5z" fill="#212a41"/><path d="m57 41.5c-.276 0-.5-.224-.5-.5v-14c0-.276.224-.5.5-.5s.5.224.5.5v14c0 .276-.224.5-.5.5z" fill="#99a2b9"/></svg>