<svg id="Icon_Set" enable-background="new 0 0 64 64" height="512" viewBox="0 0 64 64" width="512" xmlns="http://www.w3.org/2000/svg"><path d="m47 8h-8l-8 24h8l-8 24h8l8-24h-8z" fill="#db8e11"/><path d="m39 56.5h-8c-.161 0-.312-.077-.405-.208-.095-.13-.12-.298-.069-.451l7.781-23.341h-7.307c-.161 0-.312-.077-.405-.208-.095-.13-.12-.298-.069-.451l8-24c.068-.203.259-.341.474-.341h8c.161 0 .312.077.405.208.095.13.12.298.069.451l-7.781 23.341h7.307c.161 0 .312.077.405.208.095.13.12.298.069.451l-8 24c-.068.203-.259.341-.474.341zm-7.307-1h6.946l7.667-23h-6.946zm0-24h6.946l7.667-23h-6.946z" fill="#212a41"/><path d="m60 8h-13l-8 24h8l-8 24 20-24h-8z" fill="#f9ac2f"/><path d="m39 56.5c-.083 0-.167-.021-.243-.063-.21-.117-.308-.367-.231-.595l7.781-23.342h-7.307c-.161 0-.312-.077-.405-.208-.095-.13-.12-.298-.069-.451l8-24c.068-.203.259-.341.474-.341h13c.164 0 .317.081.411.215.093.135.114.307.057.46l-8.746 23.325h7.278c.194 0 .37.112.453.288.082.175.056.383-.069.532l-20 24c-.098.118-.239.18-.384.18zm.693-25h7.307c.161 0 .312.077.405.208.095.13.12.298.069.451l-7.162 21.486 17.621-21.145h-6.933c-.164 0-.317-.081-.411-.215-.093-.135-.114-.307-.057-.46l8.746-23.325h-11.918z" fill="#212a41"/><path d="m41.774 30.5c-.053 0-.105-.008-.158-.026-.262-.087-.403-.37-.316-.632l6.667-20c.088-.262.371-.402.633-.316.262.087.403.37.316.632l-6.667 20c-.07.21-.266.342-.475.342z" fill="#ffca4d"/><path d="m44.249 47.077c-.113 0-.227-.038-.32-.116-.212-.177-.24-.492-.063-.705l10.48-12.577c.178-.212.492-.239.704-.064.212.177.24.492.063.705l-10.48 12.577c-.099.119-.241.18-.384.18z" fill="#db8e11"/><path d="m49.127 31.798c-.059 0-.118-.01-.176-.032-.259-.097-.39-.385-.292-.644l7.987-21.298c.097-.259.387-.389.644-.292.259.097.39.385.292.644l-7.987 21.298c-.075.2-.266.324-.468.324z" fill="#db8e11"/><path d="m17 18h-12c-.552 0-1-.448-1-1v-2c0-.552.448-1 1-1h12c.552 0 1 .448 1 1v2c0 .552-.448 1-1 1z" fill="#005b8a"/><path d="m17 18.5h-12c-.827 0-1.5-.673-1.5-1.5v-2c0-.827.673-1.5 1.5-1.5h12c.827 0 1.5.673 1.5 1.5v2c0 .827-.673 1.5-1.5 1.5zm-12-4c-.275 0-.5.224-.5.5v2c0 .276.225.5.5.5h12c.275 0 .5-.224.5-.5v-2c0-.276-.225-.5-.5-.5z" fill="#212a41"/><path d="m20 18h-12c-.552 0-1-.448-1-1v-2c0-.552.448-1 1-1h12c.552 0 1 .448 1 1v2c0 .552-.448 1-1 1z" fill="#0079a8"/><path d="m20 18.5h-12c-.827 0-1.5-.673-1.5-1.5v-2c0-.827.673-1.5 1.5-1.5h12c.827 0 1.5.673 1.5 1.5v2c0 .827-.673 1.5-1.5 1.5zm-12-4c-.275 0-.5.224-.5.5v2c0 .276.225.5.5.5h12c.275 0 .5-.224.5-.5v-2c0-.276-.225-.5-.5-.5z" fill="#212a41"/><path d="m23 32h-10c-.552 0-1-.448-1-1v-2c0-.552.448-1 1-1h10c.552 0 1 .448 1 1v2c0 .552-.448 1-1 1z" fill="#005b8a"/><path d="m23 32.5h-10c-.827 0-1.5-.673-1.5-1.5v-2c0-.827.673-1.5 1.5-1.5h10c.827 0 1.5.673 1.5 1.5v2c0 .827-.673 1.5-1.5 1.5zm-10-4c-.275 0-.5.224-.5.5v2c0 .276.225.5.5.5h10c.275 0 .5-.224.5-.5v-2c0-.276-.225-.5-.5-.5z" fill="#212a41"/><path d="m26 32h-10c-.552 0-1-.448-1-1v-2c0-.552.448-1 1-1h10c.552 0 1 .448 1 1v2c0 .552-.448 1-1 1z" fill="#0079a8"/><path d="m26 32.5h-10c-.827 0-1.5-.673-1.5-1.5v-2c0-.827.673-1.5 1.5-1.5h10c.827 0 1.5.673 1.5 1.5v2c0 .827-.673 1.5-1.5 1.5zm-10-4c-.275 0-.5.224-.5.5v2c0 .276.225.5.5.5h10c.275 0 .5-.224.5-.5v-2c0-.276-.225-.5-.5-.5z" fill="#212a41"/><path d="m17 50h-12c-.552 0-1-.448-1-1v-2c0-.552.448-1 1-1h12c.552 0 1 .448 1 1v2c0 .552-.448 1-1 1z" fill="#005b8a"/><path d="m17 50.5h-12c-.827 0-1.5-.673-1.5-1.5v-2c0-.827.673-1.5 1.5-1.5h12c.827 0 1.5.673 1.5 1.5v2c0 .827-.673 1.5-1.5 1.5zm-12-4c-.275 0-.5.224-.5.5v2c0 .276.225.5.5.5h12c.275 0 .5-.224.5-.5v-2c0-.276-.225-.5-.5-.5z" fill="#212a41"/><path d="m20 50h-12c-.552 0-1-.448-1-1v-2c0-.552.448-1 1-1h12c.552 0 1 .448 1 1v2c0 .552-.448 1-1 1z" fill="#0079a8"/><path d="m20 50.5h-12c-.827 0-1.5-.673-1.5-1.5v-2c0-.827.673-1.5 1.5-1.5h12c.827 0 1.5.673 1.5 1.5v2c0 .827-.673 1.5-1.5 1.5zm-12-4c-.275 0-.5.224-.5.5v2c0 .276.225.5.5.5h12c.275 0 .5-.224.5-.5v-2c0-.276-.225-.5-.5-.5z" fill="#212a41"/></svg>