<svg id="Icon_Set" enable-background="new 0 0 64 64" height="512" viewBox="0 0 64 64" width="512" xmlns="http://www.w3.org/2000/svg"><path d="m18 34h-2c-1.105 0-2 .895-2 2v2c0 1.105.895 2 2 2h2c1.105 0 2-.895 2-2v-2c0-1.105-.895-2-2-2z" fill="#c2c2c2"/><path d="m18 40.5h-2c-1.379 0-2.5-1.122-2.5-2.5v-2c0-1.378 1.121-2.5 2.5-2.5h2c1.379 0 2.5 1.122 2.5 2.5v2c0 1.378-1.121 2.5-2.5 2.5zm-2-6c-.827 0-1.5.673-1.5 1.5v2c0 .827.673 1.5 1.5 1.5h2c.827 0 1.5-.673 1.5-1.5v-2c0-.827-.673-1.5-1.5-1.5z" fill="#212a41"/><path d="m13 38h4v3h-4z" fill="#c2c2c2"/><path d="m17 41.5h-4c-.276 0-.5-.224-.5-.5v-3c0-.276.224-.5.5-.5h4c.276 0 .5.224.5.5v3c0 .276-.224.5-.5.5zm-3.5-1h3v-2h-3z" fill="#212a41"/><path d="m16 38h4v3h-4z" fill="#e0e0e0"/><path d="m20 41.5h-4c-.276 0-.5-.224-.5-.5v-3c0-.276.224-.5.5-.5h4c.276 0 .5.224.5.5v3c0 .276-.224.5-.5.5zm-3.5-1h3v-2h-3z" fill="#212a41"/><path d="m30 41h-11l-1.612-9.671c-.203-1.219.737-2.329 1.973-2.329h6.945c.978 0 1.812.707 1.973 1.671z" fill="#b7c0d7"/><path d="m30 41.5h-11c-.244 0-.453-.177-.493-.418l-1.612-9.671c-.121-.726.082-1.464.559-2.026.476-.562 1.172-.884 1.908-.884h6.944c1.228 0 2.265.879 2.466 2.089l1.722 10.329c.024.145-.017.293-.111.405-.097.112-.236.176-.383.176zm-10.576-1h9.986l-1.625-9.747c-.121-.727-.743-1.253-1.479-1.253h-6.944c-.442 0-.859.193-1.146.531-.285.337-.407.78-.335 1.216z" fill="#212a41"/><path d="m30 42h-4c-2.209 0-4-1.791-4-4v-7c0-1.105.895-2 2-2h6c2.209 0 4 1.791 4 4v5c0 2.209-1.791 4-4 4z" fill="#0079a8"/><path d="m30 42.5h-4c-2.481 0-4.5-2.019-4.5-4.5v-7c0-1.378 1.121-2.5 2.5-2.5h6c2.481 0 4.5 2.019 4.5 4.5v5c0 2.481-2.019 4.5-4.5 4.5zm-6-13c-.827 0-1.5.673-1.5 1.5v7c0 1.93 1.57 3.5 3.5 3.5h4c1.93 0 3.5-1.57 3.5-3.5v-5c0-1.93-1.57-3.5-3.5-3.5z" fill="#212a41"/><path d="m37 39.5c-2.481 0-4.5-2.019-4.5-4.5s2.019-4.5 4.5-4.5 4.5 2.019 4.5 4.5-2.019 4.5-4.5 4.5zm0-8c-1.93 0-3.5 1.57-3.5 3.5s1.57 3.5 3.5 3.5 3.5-1.57 3.5-3.5-1.57-3.5-3.5-3.5z" fill="#212a41"/><path d="m24.027 27h5.945c1.224-.911 2.028-2.357 2.028-4 0-2.761-2.239-5-5-5s-5 2.239-5 5c0 1.643.803 3.089 2.027 4z" fill="#0079a8"/><path d="m29.973 27.5h-5.945c-.107 0-.213-.035-.299-.099-1.417-1.055-2.229-2.659-2.229-4.401 0-3.033 2.468-5.5 5.5-5.5s5.5 2.467 5.5 5.5c0 1.742-.812 3.346-2.229 4.401-.085.064-.191.099-.298.099zm-5.776-1h5.605c1.081-.864 1.697-2.131 1.697-3.5 0-2.481-2.019-4.5-4.5-4.5s-4.5 2.019-4.5 4.5c.001 1.369.617 2.636 1.698 3.5z" fill="#212a41"/><path d="m26 24h5.89c.067-.323.11-.656.11-1 0-.712-.154-1.387-.422-2h-6.578z" fill="#b7c0d7"/><path d="m31.891 24.5h-5.891c-.215 0-.406-.138-.475-.342l-1-3c-.051-.152-.025-.32.069-.451.094-.13.245-.207.406-.207h6.578c.198 0 .378.118.458.299.308.703.464 1.444.464 2.201 0 .349-.039.709-.119 1.101-.048.232-.253.399-.49.399zm-5.531-1h5.107c.021-.173.032-.339.032-.5 0-.512-.088-1.015-.261-1.5h-5.546z" fill="#212a41"/><path d="m55 38h-4v12h4c1.657 0 3-2.686 3-6s-1.343-6-3-6z" fill="#6c696f"/><path d="m55 50.5h-4c-.276 0-.5-.224-.5-.5v-12c0-.276.224-.5.5-.5h4c1.963 0 3.5 2.855 3.5 6.5s-1.537 6.5-3.5 6.5zm-3.5-1h3.5c1.183 0 2.5-2.259 2.5-5.5s-1.317-5.5-2.5-5.5h-3.5z" fill="#212a41"/><ellipse cx="51" cy="44" fill="#4e4b51" rx="3" ry="6"/><path d="m51 50.5c-1.963 0-3.5-2.855-3.5-6.5s1.537-6.5 3.5-6.5 3.5 2.855 3.5 6.5-1.537 6.5-3.5 6.5zm0-12c-1.183 0-2.5 2.259-2.5 5.5s1.317 5.5 2.5 5.5 2.5-2.259 2.5-5.5-1.317-5.5-2.5-5.5z" fill="#212a41"/><ellipse cx="51" cy="44" fill="#212a41" rx="1" ry="3"/><path d="m4 50h46v10h-46z" fill="#4e4b51"/><path d="m50 60.5h-46c-.276 0-.5-.224-.5-.5v-10c0-.276.224-.5.5-.5h46c.276 0 .5.224.5.5v10c0 .276-.224.5-.5.5zm-45.5-1h45v-9h-45z" fill="#212a41"/><path d="m14 50h46v10h-46z" fill="#6c696f"/><path d="m60 60.5h-46c-.276 0-.5-.224-.5-.5v-10c0-.276.224-.5.5-.5h46c.276 0 .5.224.5.5v10c0 .276-.224.5-.5.5zm-45.5-1h45v-9h-45z" fill="#212a41"/><path d="m43 9c0 1.105.895 2 2 2h8c1.105 0 2-.895 2-2 0-1.105-.895-2-2-2h-1.042c0-1.657-1.343-3-3-3s-3 1.343-3 3h-.958c-1.105 0-2 .895-2 2z" fill="#99a2b9"/><path d="m53 11.5h-8c-1.379 0-2.5-1.122-2.5-2.5s1.121-2.5 2.5-2.5h.493c.244-1.694 1.705-3 3.465-3s3.221 1.306 3.465 3h.577c1.379 0 2.5 1.122 2.5 2.5s-1.121 2.5-2.5 2.5zm-8-4c-.827 0-1.5.673-1.5 1.5s.673 1.5 1.5 1.5h8c.827 0 1.5-.673 1.5-1.5s-.673-1.5-1.5-1.5h-1.042c-.276 0-.5-.224-.5-.5 0-1.378-1.121-2.5-2.5-2.5s-2.5 1.122-2.5 2.5c0 .276-.224.5-.5.5z" fill="#212a41"/><path d="m56.958 7c0-1.657-1.343-3-3-3s-3 1.343-3 3h-.958c-1.105 0-2 .895-2 2 0 1.105.895 2 2 2h8c1.105 0 2-.895 2-2 0-1.105-.895-2-2-2z" fill="#b7c0d7"/><path d="m58 11.5h-8c-1.379 0-2.5-1.122-2.5-2.5s1.121-2.5 2.5-2.5h.493c.244-1.694 1.705-3 3.465-3s3.221 1.306 3.465 3h.577c1.379 0 2.5 1.122 2.5 2.5s-1.121 2.5-2.5 2.5zm-8-4c-.827 0-1.5.673-1.5 1.5s.673 1.5 1.5 1.5h8c.827 0 1.5-.673 1.5-1.5s-.673-1.5-1.5-1.5h-1.042c-.276 0-.5-.224-.5-.5 0-1.378-1.121-2.5-2.5-2.5s-2.5 1.122-2.5 2.5c0 .276-.224.5-.5.5zm7.458-.5h.01z" fill="#212a41"/><path d="m58 58.5c-.276 0-.5-.224-.5-.5v-6c0-.276.224-.5.5-.5s.5.224.5.5v6c0 .276-.224.5-.5.5z" fill="#4e4b51"/><path d="m16 58.5c-.276 0-.5-.224-.5-.5v-6c0-.276.224-.5.5-.5s.5.224.5.5v6c0 .276-.224.5-.5.5z" fill="#8a878d"/><path d="m6 58.5c-.276 0-.5-.224-.5-.5v-6c0-.276.224-.5.5-.5s.5.224.5.5v6c0 .276-.224.5-.5.5z" fill="#6c696f"/><path d="m31 38h-4v12h4c1.657 0 3-2.686 3-6s-1.343-6-3-6z" fill="#6c696f"/><path d="m31 50.5h-4c-.276 0-.5-.224-.5-.5v-12c0-.276.224-.5.5-.5h4c1.963 0 3.5 2.855 3.5 6.5s-1.537 6.5-3.5 6.5zm-3.5-1h3.5c1.183 0 2.5-2.259 2.5-5.5s-1.317-5.5-2.5-5.5h-3.5z" fill="#212a41"/><ellipse cx="27" cy="44" fill="#4e4b51" rx="3" ry="6"/><path d="m27 50.5c-1.963 0-3.5-2.855-3.5-6.5s1.537-6.5 3.5-6.5 3.5 2.855 3.5 6.5-1.537 6.5-3.5 6.5zm0-12c-1.183 0-2.5 2.259-2.5 5.5s1.317 5.5 2.5 5.5 2.5-2.259 2.5-5.5-1.317-5.5-2.5-5.5z" fill="#212a41"/><ellipse cx="27" cy="44" fill="#212a41" rx="1" ry="3"/><path d="m11 38h-4v12h4c1.657 0 3-2.686 3-6s-1.343-6-3-6z" fill="#6c696f"/><path d="m11 50.5h-4c-.276 0-.5-.224-.5-.5v-12c0-.276.224-.5.5-.5h4c1.963 0 3.5 2.855 3.5 6.5s-1.537 6.5-3.5 6.5zm-3.5-1h3.5c1.183 0 2.5-2.259 2.5-5.5s-1.317-5.5-2.5-5.5h-3.5z" fill="#212a41"/><ellipse cx="7" cy="44" fill="#4e4b51" rx="3" ry="6"/><path d="m7 50.5c-1.963 0-3.5-2.855-3.5-6.5s1.537-6.5 3.5-6.5 3.5 2.855 3.5 6.5-1.537 6.5-3.5 6.5zm0-12c-1.183 0-2.5 2.259-2.5 5.5s1.317 5.5 2.5 5.5 2.5-2.259 2.5-5.5-1.317-5.5-2.5-5.5z" fill="#212a41"/><ellipse cx="7" cy="44" fill="#212a41" rx="1" ry="3"/><path d="m33 47h-6c-.552 0-1-.448-1-1v-3h5z" fill="#db8e11"/><path d="m33 47.5h-6c-.827 0-1.5-.673-1.5-1.5v-3c0-.276.224-.5.5-.5h5c.189 0 .362.107.447.276l2 4c.077.155.069.339-.021.486-.092.148-.253.238-.426.238zm-6.5-4v2.5c0 .276.225.5.5.5h5.191l-1.5-3z" fill="#212a41"/><path d="m13 41h10c.552 0 1 .448 1 1v4c0 .552-.448 1-1 1h-10c-.552 0-1-.448-1-1v-4c0-.552.448-1 1-1z" fill="#db8e11"/><path d="m23 47.5h-10c-.827 0-1.5-.673-1.5-1.5v-4c0-.827.673-1.5 1.5-1.5h10c.827 0 1.5.673 1.5 1.5v4c0 .827-.673 1.5-1.5 1.5zm-10-6c-.275 0-.5.224-.5.5v4c0 .276.225.5.5.5h10c.275 0 .5-.224.5-.5v-4c0-.276-.225-.5-.5-.5z" fill="#212a41"/><path d="m24 34h7c.552 0 1 .448 1 1v2c0 .552-.448 1-1 1h-9c-1.105 0-2-.895-2-2v-3c0-2.209 1.791-4 4-4z" fill="#0079a8"/><path d="m42 35h-8l6 6 2 6h8l-2-6z" fill="#f9ac2f"/><path d="m50 47.5h-8c-.215 0-.406-.138-.475-.342l-1.963-5.888-5.916-5.917c-.143-.143-.186-.358-.108-.545s.26-.308.462-.308h8c.133 0 .26.053.354.146l6 6c.055.055.097.122.121.195l2 6c.051.152.025.32-.069.451s-.245.208-.406.208zm-7.64-1h6.946l-1.744-5.23-5.77-5.77h-6.586l5.146 5.146c.055.055.097.122.121.195z" fill="#212a41"/><path d="m40 41-6-6h-2v3l8 9h2z" fill="#db8e11"/><path d="m42 47.5h-2c-.143 0-.279-.061-.374-.168l-8-9c-.081-.091-.126-.209-.126-.332v-3c0-.276.224-.5.5-.5h2c.133 0 .26.053.354.146l6 6c.055.055.097.122.121.195l2 6c.051.152.025.32-.069.451s-.245.208-.406.208zm-1.775-1h1.082l-1.744-5.23-5.77-5.77h-1.293v2.31z" fill="#212a41"/><path d="m60 47h-27l-2-4h7.5l3 2h8l3-2h5.5z" fill="#f9ac2f"/><path d="m60 47.5h-27c-.189 0-.362-.107-.447-.276l-2-4c-.077-.155-.069-.339.021-.486.092-.148.253-.238.426-.238h7.5c.099 0 .195.029.277.084l2.874 1.916h7.697l2.874-1.916c.082-.055.179-.084.277-.084h5.501c.189 0 .362.107.447.276l2 4c.077.155.069.339-.021.486-.092.148-.253.238-.426.238zm-26.691-1h25.883l-1.5-3h-5.04l-2.874 1.916c-.083.055-.179.084-.278.084h-8c-.099 0-.195-.029-.277-.084l-2.874-1.916h-6.54z" fill="#212a41"/><path d="m31 38.5h-9c-1.379 0-2.5-1.122-2.5-2.5v-3c0-2.481 2.019-4.5 4.5-4.5h2c.276 0 .5.224.5.5s-.224.5-.5.5h-2c-1.93 0-3.5 1.57-3.5 3.5v3c0 .827.673 1.5 1.5 1.5h9c.275 0 .5-.224.5-.5v-2c0-.276-.225-.5-.5-.5h-7c-.276 0-.5-.224-.5-.5s.224-.5.5-.5h7c.827 0 1.5.673 1.5 1.5v2c0 .827-.673 1.5-1.5 1.5z" fill="#212a41"/><path d="m22 36.5c-.276 0-.5-.224-.5-.5v-3c0-1.378 1.121-2.5 2.5-2.5.276 0 .5.224.5.5s-.224.5-.5.5c-.827 0-1.5.673-1.5 1.5v3c0 .276-.224.5-.5.5z" fill="#1e97c6"/><g fill="#212a41"><path d="m42.5 39.5c-.128 0-.256-.049-.354-.146l-1.853-1.854h-.793c-.276 0-.5-.224-.5-.5s.224-.5.5-.5h1c.133 0 .26.053.354.146l2 2c.195.195.195.512 0 .707-.098.098-.226.147-.354.147z"/><path d="m48 41.5h-8c-.276 0-.5-.224-.5-.5s.224-.5.5-.5h8c.276 0 .5.224.5.5s-.224.5-.5.5z"/><path d="m46 43.5h-3c-.276 0-.5-.224-.5-.5s.224-.5.5-.5h3c.276 0 .5.224.5.5s-.224.5-.5.5z"/></g><path d="m24 27h6v2h-6z" fill="#c2c2c2"/><path d="m30 29.5h-6c-.276 0-.5-.224-.5-.5v-2c0-.276.224-.5.5-.5h6c.276 0 .5.224.5.5v2c0 .276-.224.5-.5.5zm-5.5-1h5v-1h-5z" fill="#212a41"/></svg>