<svg id="Icon_Set" enable-background="new 0 0 64 64" height="512" viewBox="0 0 64 64" width="512" xmlns="http://www.w3.org/2000/svg"><path d="m50 40h-4c-.552 0-1-.448-1-1v-2c0-.552.448-1 1-1h4c.552 0 1 .448 1 1v2c0 .552-.448 1-1 1z" fill="#0079a8"/><path d="m50 40.5h-4c-.827 0-1.5-.673-1.5-1.5v-2c0-.827.673-1.5 1.5-1.5h4c.827 0 1.5.673 1.5 1.5v2c0 .827-.673 1.5-1.5 1.5zm-4-4c-.276 0-.5.224-.5.5v2c0 .276.224.5.5.5h4c.276 0 .5-.224.5-.5v-2c0-.276-.224-.5-.5-.5z" fill="#212a41"/><path d="m52 44h-5v16h5c2.209 0 4-3.582 4-8s-1.791-8-4-8z" fill="#6c696f"/><path d="m52 60.5h-5c-.276 0-.5-.224-.5-.5v-16c0-.276.224-.5.5-.5h5c2.523 0 4.5 3.733 4.5 8.5s-1.977 8.5-4.5 8.5zm-4.5-1h4.5c1.897 0 3.5-3.435 3.5-7.5s-1.603-7.5-3.5-7.5h-4.5z" fill="#212a41"/><ellipse cx="47" cy="52" fill="#4e4b51" rx="4" ry="8"/><path d="m47 60.5c-2.523 0-4.5-3.733-4.5-8.5s1.977-8.5 4.5-8.5 4.5 3.733 4.5 8.5-1.977 8.5-4.5 8.5zm0-16c-1.897 0-3.5 3.435-3.5 7.5s1.603 7.5 3.5 7.5 3.5-3.435 3.5-7.5-1.603-7.5-3.5-7.5z" fill="#212a41"/><ellipse cx="47" cy="52" fill="#c2c2c2" rx="1.5" ry="4"/><path d="m47 56.5c-1.313 0-2-2.264-2-4.5s.687-4.5 2-4.5 2 2.264 2 4.5-.687 4.5-2 4.5zm0-8c-.29 0-1 1.227-1 3.5s.71 3.5 1 3.5 1-1.227 1-3.5-.71-3.5-1-3.5z" fill="#212a41"/><path d="m18 44h-5v16h5c2.209 0 4-3.582 4-8s-1.791-8-4-8z" fill="#6c696f"/><path d="m18 60.5h-5c-.276 0-.5-.224-.5-.5v-16c0-.276.224-.5.5-.5h5c2.523 0 4.5 3.733 4.5 8.5s-1.977 8.5-4.5 8.5zm-4.5-1h4.5c1.897 0 3.5-3.435 3.5-7.5s-1.603-7.5-3.5-7.5h-4.5z" fill="#212a41"/><path d="m13 38 11.051 3.684c.597.199 1.066.668 1.265 1.265l1.684 5.051h32l-1.684-5.051c-.199-.597-.668-1.066-1.265-1.265l-11.051-3.684z" fill="#0079a8"/><path d="m59 48.5h-32c-.215 0-.406-.138-.474-.342l-1.684-5.051c-.149-.446-.503-.8-.949-.949l-11.051-3.684c-.232-.077-.375-.312-.335-.554s.249-.42.494-.42h32c.054 0 .107.009.158.026l11.051 3.684c.743.248 1.333.838 1.581 1.581l1.684 5.051c.051.152.025.32-.068.451-.095.13-.246.207-.407.207zm-31.64-1h30.946l-1.464-4.393c-.149-.446-.503-.8-.949-.949l-10.974-3.658h-28.838l8.128 2.709c.743.248 1.333.838 1.581 1.581z" fill="#212a41"/><path d="m4 28h27.552c.936 0 1.842.328 2.561.927l10.887 9.073h-32z" fill="#b7c0d7"/><path d="m45 38.5h-32c-.142 0-.277-.06-.372-.166l-9-10c-.132-.147-.166-.357-.085-.538.081-.18.26-.296.457-.296h27.552c1.05 0 2.074.371 2.881 1.043l10.888 9.073c.162.135.222.356.15.555-.073.197-.261.329-.471.329zm-31.777-1h30.396l-9.827-8.188c-.628-.523-1.424-.812-2.241-.812h-26.428z" fill="#212a41"/><path d="m13.891 36.5c-.137 0-.273-.056-.372-.166l-5.4-6c-.185-.205-.168-.521.037-.706.205-.186.521-.168.706.037l5.4 6c.185.205.168.521-.037.706-.096.087-.215.129-.334.129z" fill="#d5def5"/><path d="m39.475 36.5c-.113 0-.226-.038-.32-.116l-6.644-5.536c-.212-.177-.241-.492-.064-.705.177-.212.491-.241.705-.064l6.644 5.536c.212.177.241.492.064.705-.099.119-.241.18-.385.18z" fill="#99a2b9"/><path d="m4 48h31v9h-31z" fill="#005b8a"/><path d="m35 57.5h-31c-.276 0-.5-.224-.5-.5v-9c0-.276.224-.5.5-.5h31c.276 0 .5.224.5.5v9c0 .276-.224.5-.5.5zm-30.5-1h30v-8h-30z" fill="#212a41"/><path d="m4 38v10h23l-1.684-5.051c-.199-.597-.668-1.066-1.265-1.265l-11.051-3.684z" fill="#005b8a"/><path d="m27 48.5h-23c-.276 0-.5-.224-.5-.5v-10c0-.276.224-.5.5-.5h9c.054 0 .107.009.158.026l11.051 3.684c.743.248 1.333.838 1.581 1.581l1.684 5.051c.051.152.025.32-.068.451-.094.13-.245.207-.406.207zm-22.5-1h21.806l-1.464-4.393c-.149-.446-.503-.8-.949-.949l-10.974-3.658h-8.419z" fill="#212a41"/><path d="m35 44s-7.703-.002-9.334-.002l1.334 4.002h10z" fill="#e0e0e0"/><path d="m37 48.5h-10c-.215 0-.406-.138-.474-.342l-1.334-4.002c-.051-.152-.025-.32.068-.451.094-.13.245-.208.406-.208l9.334.003c.189 0 .362.107.447.276l2 4c.078.155.069.339-.022.486s-.252.238-.425.238zm-9.64-1h8.831l-1.5-3-8.331-.002z" fill="#212a41"/><path d="m51 44-2 4h10l-1.334-4.002c-.91 0-6.666.002-6.666.002z" fill="#e0e0e0"/><path d="m59 48.5h-10c-.173 0-.334-.09-.425-.237s-.1-.332-.022-.486l2-4c.085-.17.258-.277.447-.277l6.666-.002c.215 0 .406.138.474.342l1.334 4.002c.051.152.025.32-.068.451-.094.13-.245.207-.406.207zm-9.191-1h8.497l-1-3.002-5.997.002z" fill="#212a41"/><path d="m59 48h-32c-.552 0-1 .448-1 1v7c0 .552.448 1 1 1h32c.552 0 1-.448 1-1v-7c0-.552-.448-1-1-1z" fill="#0079a8"/><path d="m59 57.5h-32c-.827 0-1.5-.673-1.5-1.5v-7c0-.827.673-1.5 1.5-1.5h32c.827 0 1.5.673 1.5 1.5v7c0 .827-.673 1.5-1.5 1.5zm-32-9c-.276 0-.5.224-.5.5v7c0 .276.224.5.5.5h32c.276 0 .5-.224.5-.5v-7c0-.276-.224-.5-.5-.5z" fill="#212a41"/><path d="m4 28 9 10h-9z" fill="#99a2b9"/><path d="m13 38.5h-9c-.276 0-.5-.224-.5-.5v-10c0-.207.127-.393.321-.467.194-.075.412-.021.551.132l9 10c.132.147.166.357.085.538s-.26.297-.457.297zm-8.5-1h7.377l-7.377-8.197z" fill="#212a41"/><path d="m28 55.5c-.276 0-.5-.224-.5-.5v-5c0-.276.224-.5.5-.5s.5.224.5.5v5c0 .276-.224.5-.5.5z" fill="#1e97c6"/><path d="m58 55.5c-.276 0-.5-.224-.5-.5v-5c0-.276.224-.5.5-.5s.5.224.5.5v5c0 .276-.224.5-.5.5z" fill="#005b8a"/><path d="m49 48h-12l-2-4h16z" fill="#6c696f"/><path d="m49 48.5h-12c-.189 0-.362-.107-.447-.276l-2-4c-.078-.155-.069-.339.022-.486s.252-.238.425-.238h16c.173 0 .334.09.425.237s.1.332.022.486l-2 4c-.085.17-.258.277-.447.277zm-11.691-1h11.382l1.5-3h-14.382z" fill="#212a41"/><path d="m52.339 54h-18l2-6h14z" fill="#6c696f"/><path d="m52.339 54.5h-18c-.161 0-.312-.077-.406-.208-.094-.13-.12-.298-.068-.451l2-6c.068-.204.259-.342.474-.342h14c.215 0 .406.138.474.342l2 6c.051.152.025.32-.068.451-.095.131-.245.208-.406.208zm-17.306-1h16.612l-1.667-5h-13.279z" fill="#212a41"/><path d="m36.6 31-2.487-2.073c-.719-.599-1.625-.927-2.561-.927h-27.552l2.7 3z" fill="#b7c0d7"/><path d="m36.6 31.5h-29.9c-.142 0-.277-.06-.372-.166l-2.7-3c-.132-.147-.166-.357-.085-.538.081-.18.26-.296.457-.296h27.552c1.05 0 2.074.371 2.881 1.043l2.488 2.073c.162.135.222.356.15.555-.072.197-.26.329-.471.329zm-29.677-1h28.296l-1.427-1.188c-.628-.523-1.424-.812-2.241-.812h-26.428z" fill="#212a41"/><path d="m9 40h-4c-.552 0-1-.448-1-1v-2c0-.552.448-1 1-1h4c.552 0 1 .448 1 1v2c0 .552-.448 1-1 1z" fill="#0079a8"/><path d="m9 40.5h-4c-.827 0-1.5-.673-1.5-1.5v-2c0-.827.673-1.5 1.5-1.5h4c.827 0 1.5.673 1.5 1.5v2c0 .827-.673 1.5-1.5 1.5zm-4-4c-.276 0-.5.224-.5.5v2c0 .276.224.5.5.5h4c.276 0 .5-.224.5-.5v-2c0-.276-.224-.5-.5-.5z" fill="#212a41"/><path d="m26 54.5h-22c-.276 0-.5-.224-.5-.5s.224-.5.5-.5h22c.276 0 .5.224.5.5s-.224.5-.5.5z" fill="#212a41"/><ellipse cx="13" cy="52" fill="#4e4b51" rx="4" ry="8"/><path d="m13 60.5c-2.523 0-4.5-3.733-4.5-8.5s1.977-8.5 4.5-8.5 4.5 3.733 4.5 8.5-1.977 8.5-4.5 8.5zm0-16c-1.897 0-3.5 3.435-3.5 7.5s1.603 7.5 3.5 7.5 3.5-3.435 3.5-7.5-1.603-7.5-3.5-7.5z" fill="#212a41"/><ellipse cx="13" cy="52" fill="#c2c2c2" rx="1.5" ry="4"/><path d="m13 56.5c-1.313 0-2-2.264-2-4.5s.687-4.5 2-4.5 2 2.264 2 4.5-.687 4.5-2 4.5zm0-8c-.29 0-1 1.227-1 3.5s.71 3.5 1 3.5 1-1.227 1-3.5-.71-3.5-1-3.5z" fill="#212a41"/><path d="m55 22h-14c-1.105 0-2-.895-2-2v-14c0-1.105.895-2 2-2h14c1.105 0 2 .895 2 2v14c0 1.105-.895 2-2 2z" fill="#a0b570"/><path d="m55 22.5h-14c-1.378 0-2.5-1.122-2.5-2.5v-14c0-1.378 1.122-2.5 2.5-2.5h14c1.378 0 2.5 1.122 2.5 2.5v14c0 1.378-1.122 2.5-2.5 2.5zm-14-18c-.827 0-1.5.673-1.5 1.5v14c0 .827.673 1.5 1.5 1.5h14c.827 0 1.5-.673 1.5-1.5v-14c0-.827-.673-1.5-1.5-1.5z" fill="#212a41"/><path d="m58 22h-14c-1.105 0-2-.895-2-2v-14c0-1.105.895-2 2-2h14c1.105 0 2 .895 2 2v14c0 1.105-.895 2-2 2z" fill="#bed38e"/><path d="m58 22.5h-14c-1.378 0-2.5-1.122-2.5-2.5v-14c0-1.378 1.122-2.5 2.5-2.5h14c1.378 0 2.5 1.122 2.5 2.5v14c0 1.378-1.122 2.5-2.5 2.5zm-14-18c-.827 0-1.5.673-1.5 1.5v14c0 .827.673 1.5 1.5 1.5h14c.827 0 1.5-.673 1.5-1.5v-14c0-.827-.673-1.5-1.5-1.5z" fill="#212a41"/><path d="m58 20.5c-.276 0-.5-.224-.5-.5v-14c0-.276.224-.5.5-.5s.5.224.5.5v14c0 .276-.224.5-.5.5z" fill="#a0b570"/><path d="m44 20.5c-.276 0-.5-.224-.5-.5v-14c0-.276.224-.5.5-.5s.5.224.5.5v14c0 .276-.224.5-.5.5z" fill="#dcf1ac"/><path d="m57.01 9.075c-.586-.586-1.536-.586-2.121 0l-5.303 5.303-2.475-2.475c-.586-.586-1.536-.586-2.121 0-.586.586-.586 1.535 0 2.121l3.536 3.536c.586.586 1.536.586 2.121 0l6.364-6.364c.585-.585.585-1.535-.001-2.121z" fill="#e0e0e0"/><path d="m49.586 18.5c-.534 0-1.037-.208-1.414-.586l-3.536-3.535c-.378-.378-.586-.88-.586-1.415s.208-1.037.586-1.414c.756-.755 2.074-.755 2.828 0l2.122 2.122 4.95-4.95c.779-.779 2.047-.779 2.828 0 .378.378.586.88.586 1.415s-.208 1.037-.586 1.414l-6.364 6.363c-.377.378-.88.586-1.414.586zm-3.536-6.535c-.256 0-.512.098-.707.292-.189.189-.293.44-.293.707s.104.519.293.708l3.536 3.535c.378.378 1.036.378 1.414 0l6.364-6.364c.189-.189.293-.44.293-.707s-.104-.519-.293-.708c-.39-.39-1.025-.389-1.414 0l-5.303 5.304c-.188.188-.52.188-.707 0l-2.475-2.475c-.196-.195-.452-.292-.708-.292z" fill="#212a41"/></svg>