<svg id="Icon_Set" enable-background="new 0 0 64 64" height="512" viewBox="0 0 64 64" width="512" xmlns="http://www.w3.org/2000/svg"><path d="m34 38h-18c-6.627 0-12 5.373-12 12v10h42v-10c0-6.627-5.373-12-12-12z" fill="#db8e11"/><path d="m46 60.5h-42c-.276 0-.5-.224-.5-.5v-10c0-6.893 5.607-12.5 12.5-12.5h18c6.893 0 12.5 5.607 12.5 12.5v10c0 .276-.224.5-.5.5zm-41.5-1h41v-9.5c0-6.341-5.159-11.5-11.5-11.5h-18c-6.341 0-11.5 5.159-11.5 11.5z" fill="#212a41"/><path d="m12 50v10h42v-10c0-6.627-5.373-12-12-12h-18c-6.627 0-12 5.373-12 12z" fill="#e0e0e0"/><path d="m54 60.5h-42c-.276 0-.5-.224-.5-.5v-10c0-6.893 5.607-12.5 12.5-12.5h18c6.893 0 12.5 5.607 12.5 12.5v10c0 .276-.224.5-.5.5zm-41.5-1h41v-9.5c0-6.341-5.159-11.5-11.5-11.5h-18c-6.341 0-11.5 5.159-11.5 11.5z" fill="#212a41"/><circle cx="41" cy="19" fill="#e8d2a8" r="3"/><path d="m41 22.5c-1.93 0-3.5-1.57-3.5-3.5s1.57-3.5 3.5-3.5 3.5 1.57 3.5 3.5-1.57 3.5-3.5 3.5zm0-6c-1.379 0-2.5 1.122-2.5 2.5s1.121 2.5 2.5 2.5 2.5-1.122 2.5-2.5-1.121-2.5-2.5-2.5z" fill="#212a41"/><path d="m17 10v6c-1.657 0-3 1.343-3 3s1.343 3 3 3v2c0 4.418 3.582 8 8 8h8c4.418 0 8-3.582 8-8v-14c0-3.314-2.686-6-6-6h-12c-3.314 0-6 2.686-6 6z" fill="#e0c8a4"/><path d="m33 32.5h-8c-4.687 0-8.5-3.813-8.5-8.5v-1.536c-1.694-.243-3-1.704-3-3.464s1.306-3.221 3-3.464v-5.536c0-3.584 2.916-6.5 6.5-6.5h12c3.584 0 6.5 2.916 6.5 6.5v14c0 4.687-3.813 8.5-8.5 8.5zm-10-28c-3.032 0-5.5 2.467-5.5 5.5v6c0 .276-.224.5-.5.5-1.379 0-2.5 1.122-2.5 2.5s1.121 2.5 2.5 2.5c.276 0 .5.224.5.5v2c0 4.136 3.364 7.5 7.5 7.5h8c4.136 0 7.5-3.364 7.5-7.5v-14c0-3.033-2.468-5.5-5.5-5.5z" fill="#212a41"/><path d="m33 30.5c-.276 0-.5-.224-.5-.5s.224-.5.5-.5c3.032 0 5.5-2.467 5.5-5.5v-12c0-.276.224-.5.5-.5s.5.224.5.5v12c0 3.584-2.916 6.5-6.5 6.5z" fill="#c2aa86"/><path d="m25 30.5c-3.584 0-6.5-2.916-6.5-6.5v-2c0-.276.224-.5.5-.5s.5.224.5.5v2c0 3.033 2.468 5.5 5.5 5.5.276 0 .5.224.5.5s-.224.5-.5.5z" fill="#fee6c2"/><path d="m42 38h-4l2-6z" fill="#f9ac2f"/><path d="m42 38.5h-4c-.161 0-.312-.077-.405-.208-.095-.13-.12-.298-.069-.451l2-6c.137-.408.812-.408.949 0l2 6c.051.152.025.32-.069.451s-.245.208-.406.208zm-3.307-1h2.613l-1.306-3.919z" fill="#212a41"/><path d="m38 38h-4v-6h6z" fill="#db8e11"/><path d="m38 38.5h-4c-.276 0-.5-.224-.5-.5v-6c0-.276.224-.5.5-.5h6c.161 0 .312.077.405.208.095.13.12.298.069.451l-2 6c-.068.203-.259.341-.474.341zm-3.5-1h3.14l1.667-5h-4.807z" fill="#212a41"/><path d="m24 32h10v6h-10z" fill="#e8d2a8"/><path d="m34 38.5h-10c-.276 0-.5-.224-.5-.5v-6c0-.276.224-.5.5-.5h10c.276 0 .5.224.5.5v6c0 .276-.224.5-.5.5zm-9.5-1h9v-5h-9z" fill="#212a41"/><path d="m28 38h-6l-4-6h6z" fill="#f9ac2f"/><path d="m28 38.5h-6c-.167 0-.323-.083-.416-.223l-4-6c-.103-.153-.112-.351-.024-.513.086-.162.255-.264.44-.264h6c.167 0 .323.083.416.223l4 6c.103.153.112.351.024.513-.086.162-.255.264-.44.264zm-5.732-1h4.798l-3.333-5h-4.798z" fill="#212a41"/><path d="m22 38h-6l2-6h6z" fill="#db8e11"/><path d="m22 38.5h-6c-.161 0-.312-.077-.405-.208-.095-.13-.12-.298-.069-.451l2-6c.068-.203.259-.341.474-.341h6c.161 0 .312.077.405.208.095.13.12.298.069.451l-2 6c-.068.203-.259.341-.474.341zm-5.307-1h4.946l1.667-5h-4.946z" fill="#212a41"/><path d="m17 22.5c-.936 0-1.814-.364-2.475-1.025s-1.025-1.54-1.025-2.475.364-1.814 1.025-2.475c1.32-1.322 3.629-1.322 4.949 0 .195.195.195.512 0 .707s-.512.195-.707 0c-.943-.944-2.592-.944-3.535 0-.472.473-.732 1.101-.732 1.768s.26 1.295.732 1.768c.943.944 2.592.944 3.535 0 .195-.195.512-.195.707 0s.195.512 0 .707c-.66.661-1.538 1.025-2.474 1.025z" fill="#212a41"/><path d="m33 49v11h-21v-10c0-6.627 5.373-12 12-12h4z" fill="#f9ac2f"/><path d="m33 60.5h-21c-.276 0-.5-.224-.5-.5v-10c0-6.893 5.607-12.5 12.5-12.5h4c.196 0 .374.115.455.293l5 11c.029.065.045.136.045.207v11c0 .276-.224.5-.5.5zm-20.5-1h20v-10.392l-4.822-10.608h-3.678c-6.341 0-11.5 5.159-11.5 11.5z" fill="#212a41"/><path d="m6 58.5c-.276 0-.5-.224-.5-.5v-8c0-4.977 3.538-9.305 8.413-10.292.274-.056.535.12.59.391s-.12.534-.391.589c-4.411.893-7.612 4.81-7.612 9.312v8c0 .276-.224.5-.5.5z" fill="#f9ac2f"/><path d="m14 58.5c-.276 0-.5-.224-.5-.5v-8c0-5.79 4.71-10.5 10.5-10.5h.599c.276 0 .5.224.5.5s-.224.5-.5.5h-.599c-5.238 0-9.5 4.262-9.5 9.5v8c0 .276-.224.5-.5.5z" fill="#ffca4d"/><path d="m41 16h-24v-6c0-3.314 2.686-6 6-6h12c3.314 0 6 2.686 6 6z" fill="#0079a8"/><path d="m41 16.5h-24c-.276 0-.5-.224-.5-.5v-6c0-3.584 2.916-6.5 6.5-6.5h12c3.584 0 6.5 2.916 6.5 6.5v6c0 .276-.224.5-.5.5zm-23.5-1h23v-5.5c0-3.033-2.468-5.5-5.5-5.5h-12c-3.032 0-5.5 2.467-5.5 5.5z" fill="#212a41"/><path d="m39 11.5c-.276 0-.5-.224-.5-.5v-1c0-1.93-1.57-3.5-3.5-3.5-.276 0-.5-.224-.5-.5s.224-.5.5-.5c2.481 0 4.5 2.019 4.5 4.5v1c0 .276-.224.5-.5.5z" fill="#005b8a"/><path d="m19 11.5c-.276 0-.5-.224-.5-.5v-1c0-2.481 2.019-4.5 4.5-4.5.276 0 .5.224.5.5s-.224.5-.5.5c-1.93 0-3.5 1.57-3.5 3.5v1c0 .276-.224.5-.5.5z" fill="#1e97c6"/><path d="m33 49v11h21v-10c0-6.627-5.373-12-12-12h-4z" fill="#f9ac2f"/><path d="m54 60.5h-21c-.276 0-.5-.224-.5-.5v-11c0-.071.016-.142.045-.207l5-11c.081-.178.259-.293.455-.293h4c6.893 0 12.5 5.607 12.5 12.5v10c0 .276-.224.5-.5.5zm-20.5-1h20v-9.5c0-6.341-5.159-11.5-11.5-11.5h-3.678l-4.822 10.608z" fill="#212a41"/><path d="m52 58.5c-.276 0-.5-.224-.5-.5v-8c0-5.238-4.262-9.5-9.5-9.5h-.6c-.276 0-.5-.224-.5-.5s.224-.5.5-.5h.6c5.79 0 10.5 4.71 10.5 10.5v8c0 .276-.224.5-.5.5z" fill="#db8e11"/><path d="m32 36.5c-.276 0-.5-.224-.5-.5v-2c0-.276.224-.5.5-.5s.5.224.5.5v2c0 .276-.224.5-.5.5z" fill="#c2aa86"/><path d="m48 13h-31v3h31c.552 0 1-.448 1-1v-1c0-.552-.448-1-1-1z" fill="#0079a8"/><path d="m48 16.5h-31c-.276 0-.5-.224-.5-.5v-3c0-.276.224-.5.5-.5h31c.827 0 1.5.673 1.5 1.5v1c0 .827-.673 1.5-1.5 1.5zm-30.5-1h30.5c.275 0 .5-.224.5-.5v-1c0-.276-.225-.5-.5-.5h-30.5z" fill="#212a41"/><path d="m55 60h-2c-1.105 0-2-.895-2-2v-18h6v18c0 1.105-.895 2-2 2z" fill="#e0e0e0"/><path d="m55 60.5h-2c-1.379 0-2.5-1.122-2.5-2.5v-18c0-.276.224-.5.5-.5h6c.276 0 .5.224.5.5v18c0 1.378-1.121 2.5-2.5 2.5zm-3.5-20v17.5c0 .827.673 1.5 1.5 1.5h2c.827 0 1.5-.673 1.5-1.5v-17.5z" fill="#212a41"/><path d="m56 30.349v5.651h-4v-5.651c-2.329.825-4 3.04-4 5.651 0 3.314 2.686 6 6 6s6-2.686 6-6c0-2.611-1.671-4.827-4-5.651z" fill="#e0e0e0"/><path d="m54 42.5c-3.584 0-6.5-2.916-6.5-6.5 0-2.745 1.741-5.205 4.333-6.123.155-.055.323-.03.456.063.132.094.211.246.211.408v5.152h3v-5.151c0-.163.079-.314.211-.408.134-.094.304-.116.456-.063 2.592.917 4.333 3.377 4.333 6.122 0 3.584-2.916 6.5-6.5 6.5zm-2.5-11.393c-1.82.93-3 2.815-3 4.893 0 3.033 2.468 5.5 5.5 5.5s5.5-2.467 5.5-5.5c0-2.078-1.18-3.963-3-4.893v4.893c0 .276-.224.5-.5.5h-4c-.276 0-.5-.224-.5-.5z" fill="#212a41"/><path d="m56 39.5h-4c-.276 0-.5-.224-.5-.5s.224-.5.5-.5h4c.276 0 .5.224.5.5s-.224.5-.5.5z" fill="#212a41"/><path d="m53 58.5c-.276 0-.5-.224-.5-.5v-14c0-.276.224-.5.5-.5s.5.224.5.5v14c0 .276-.224.5-.5.5z" fill="#fefefe"/><circle cx="54" cy="57" fill="#212a41" r="1"/></svg>