<svg id="Icon_Set" enable-background="new 0 0 64 64" height="512" viewBox="0 0 64 64" width="512" xmlns="http://www.w3.org/2000/svg"><path d="m36 46h-11l-20-32v-10h6z" fill="#e0e0e0"/><path d="m36 46.5h-11c-.173 0-.333-.089-.424-.235l-20-32c-.05-.079-.076-.171-.076-.265v-10c0-.276.224-.5.5-.5h6c.176 0 .34.093.43.244l25 42c.092.155.094.347.005.503s-.255.253-.435.253zm-10.723-1h9.843l-24.404-41h-5.216v9.356z" fill="#212a41"/><path d="m33 46h-5l-23-37v-5h3z" fill="#d32e5e"/><path d="m33 46.5h-5c-.173 0-.333-.089-.425-.236l-23-37c-.049-.079-.075-.171-.075-.264v-5c0-.276.224-.5.5-.5h3c.176 0 .34.093.43.244l25 42c.092.155.094.347.005.503s-.255.253-.435.253zm-4.722-1h3.842l-24.404-41h-2.216v4.357z" fill="#212a41"/><circle cx="30.5" cy="48" fill="#db8e11" r="12"/><path d="m30.5 60.5c-6.893 0-12.5-5.607-12.5-12.5s5.607-12.5 12.5-12.5 12.5 5.607 12.5 12.5-5.607 12.5-12.5 12.5zm0-24c-6.341 0-11.5 5.159-11.5 11.5s5.159 11.5 11.5 11.5 11.5-5.159 11.5-11.5-5.159-11.5-11.5-11.5z" fill="#212a41"/><path d="m28 46h11l20-32v-10h-6z" fill="#e0e0e0"/><path d="m39 46.5h-11c-.18 0-.346-.097-.435-.253s-.087-.348.005-.503l25-42c.09-.151.254-.244.43-.244h6c.276 0 .5.224.5.5v10c0 .094-.026.186-.076.265l-20 32c-.091.146-.251.235-.424.235zm-10.12-1h9.843l19.777-31.644v-9.356h-5.216z" fill="#212a41"/><path d="m31 46h5l23-37v-5h-3z" fill="#d32e5e"/><path d="m36 46.5h-5c-.18 0-.346-.097-.435-.253s-.087-.348.005-.503l25-42c.09-.151.254-.244.43-.244h3c.276 0 .5.224.5.5v5c0 .093-.026.185-.075.264l-23 37c-.092.147-.252.236-.425.236zm-4.12-1h3.842l22.778-36.643v-4.357h-2.216z" fill="#212a41"/><circle cx="33.5" cy="48" fill="#f9ac2f" r="12"/><path d="m33.5 60.5c-6.893 0-12.5-5.607-12.5-12.5s5.607-12.5 12.5-12.5 12.5 5.607 12.5 12.5-5.607 12.5-12.5 12.5zm0-24c-6.341 0-11.5 5.159-11.5 11.5s5.159 11.5 11.5 11.5 11.5-5.159 11.5-11.5-5.159-11.5-11.5-11.5z" fill="#212a41"/><circle cx="33.5" cy="48" fill="#f9ac2f" r="9"/><path d="m33.5 57.5c-5.238 0-9.5-4.262-9.5-9.5s4.262-9.5 9.5-9.5 9.5 4.262 9.5 9.5-4.262 9.5-9.5 9.5zm0-18c-4.687 0-8.5 3.813-8.5 8.5s3.813 8.5 8.5 8.5 8.5-3.813 8.5-8.5-3.813-8.5-8.5-8.5z" fill="#212a41"/><path d="m26.5 48.5c-.276 0-.5-.224-.5-.5 0-4.136 3.364-7.5 7.5-7.5.276 0 .5.224.5.5s-.224.5-.5.5c-3.584 0-6.5 2.916-6.5 6.5 0 .276-.224.5-.5.5z" fill="#ffca4d"/><path d="m33.5 55.5c-.276 0-.5-.224-.5-.5s.224-.5.5-.5c3.584 0 6.5-2.916 6.5-6.5 0-.276.224-.5.5-.5s.5.224.5.5c0 4.136-3.364 7.5-7.5 7.5z" fill="#db8e11"/><path d="m33.5 41 1.854 3.95 4.146.634-3 3.074.708 4.342-3.708-2.05-3.708 2.05.708-4.342-3-3.074 4.146-.634z" fill="#e0e0e0"/><path d="m37.208 53.5c-.083 0-.166-.021-.242-.062l-3.466-1.917-3.466 1.916c-.169.094-.373.081-.53-.029-.156-.11-.236-.3-.205-.489l.667-4.093-2.823-2.894c-.131-.134-.176-.33-.117-.508.06-.178.214-.307.399-.335l3.882-.593 1.741-3.708c.164-.352.74-.352.904 0l1.741 3.708 3.882.593c.186.028.34.158.399.335.059.178.014.374-.117.508l-2.823 2.894.667 4.093c.031.189-.049.379-.205.489-.086.061-.186.092-.288.092zm-3.708-3.05c.083 0 .167.021.242.062l2.807 1.552-.542-3.326c-.025-.157.024-.316.136-.43l2.32-2.378-3.184-.486c-.165-.025-.307-.131-.377-.282l-1.402-2.985-1.402 2.986c-.07.151-.212.257-.377.282l-3.184.486 2.32 2.378c.111.114.161.273.136.43l-.542 3.326 2.807-1.552c.075-.042.159-.063.242-.063z" fill="#212a41"/><path d="m5 4h54v10h-54z" fill="#e0e0e0"/><path d="m59 14.5h-54c-.276 0-.5-.224-.5-.5v-10c0-.276.224-.5.5-.5h54c.276 0 .5.224.5.5v10c0 .276-.224.5-.5.5zm-53.5-1h53v-9h-53z" fill="#212a41"/><path d="m5 7h54v4h-54z" fill="#d32e5e"/><path d="m7 12.5c-.276 0-.5-.224-.5-.5v-6c0-.276.224-.5.5-.5s.5.224.5.5v6c0 .276-.224.5-.5.5z" fill="#fefefe"/><path d="m7 11.5c-.276 0-.5-.224-.5-.5v-4c0-.276.224-.5.5-.5s.5.224.5.5v4c0 .276-.224.5-.5.5z" fill="#f14c7c"/><path d="m57 12.5c-.276 0-.5-.224-.5-.5v-6c0-.276.224-.5.5-.5s.5.224.5.5v6c0 .276-.224.5-.5.5z" fill="#c2c2c2"/><path d="m57 11.5c-.276 0-.5-.224-.5-.5v-4c0-.276.224-.5.5-.5s.5.224.5.5v4c0 .276-.224.5-.5.5z" fill="#b51040"/><path d="m59 11.5h-54c-.276 0-.5-.224-.5-.5v-4c0-.276.224-.5.5-.5h54c.276 0 .5.224.5.5v4c0 .276-.224.5-.5.5zm-53.5-1h53v-3h-53z" fill="#212a41"/></svg>