<svg id="Icon_Set" enable-background="new 0 0 64 64" height="512" viewBox="0 0 64 64" width="512" xmlns="http://www.w3.org/2000/svg"><path d="m11.987 18.873 5.742-1.539c.946-1.197 1.348-2.801.923-4.388-.293-1.092-.936-1.988-1.764-2.633l.022-.006 1.414-2.449-5.795 1.552c-2.667.715-4.25 3.456-3.536 6.124.426 1.587 1.576 2.775 2.994 3.339z" fill="#f9ac2f"/><path d="m11.987 19.373c-.062 0-.126-.012-.185-.035-1.641-.652-2.841-1.991-3.293-3.674-.784-2.931.961-5.952 3.89-6.737l5.795-1.553c.195-.05.404.019.526.179.123.161.138.38.036.555l-1.214 2.104c.777.71 1.324 1.604 1.593 2.606.451 1.682.082 3.441-1.014 4.827-.067.084-.159.145-.263.173l-5.742 1.539c-.042.01-.086.016-.129.016zm5.301-10.721-4.629 1.241c-2.396.642-3.824 3.114-3.183 5.512.354 1.322 1.278 2.387 2.546 2.94l5.413-1.45c.821-1.114 1.089-2.497.733-3.819-.249-.936-.799-1.754-1.588-2.369-.149-.116-.22-.308-.183-.493.02-.097.066-.184.133-.251z" fill="#212a41"/><path d="m43 9c0 1.105.895 2 2 2h8c1.105 0 2-.895 2-2 0-1.105-.895-2-2-2h-1.042c0-1.657-1.343-3-3-3s-3 1.343-3 3h-.958c-1.105 0-2 .895-2 2z" fill="#99a2b9"/><path d="m53 11.5h-8c-1.379 0-2.5-1.121-2.5-2.5s1.121-2.5 2.5-2.5h.493c.244-1.694 1.705-3 3.465-3s3.221 1.306 3.465 3h.577c1.379 0 2.5 1.121 2.5 2.5s-1.121 2.5-2.5 2.5zm-8-4c-.827 0-1.5.673-1.5 1.5s.673 1.5 1.5 1.5h8c.827 0 1.5-.673 1.5-1.5s-.673-1.5-1.5-1.5h-1.042c-.276 0-.5-.224-.5-.5 0-1.379-1.121-2.5-2.5-2.5s-2.5 1.121-2.5 2.5c0 .276-.224.5-.5.5z" fill="#212a41"/><path d="m56.958 7c0-1.657-1.343-3-3-3s-3 1.343-3 3h-.958c-1.105 0-2 .895-2 2 0 1.105.895 2 2 2h8c1.105 0 2-.895 2-2 0-1.105-.895-2-2-2z" fill="#b7c0d7"/><path d="m58 11.5h-8c-1.379 0-2.5-1.121-2.5-2.5s1.121-2.5 2.5-2.5h.493c.244-1.694 1.705-3 3.465-3s3.221 1.306 3.465 3h.577c1.379 0 2.5 1.121 2.5 2.5s-1.121 2.5-2.5 2.5zm-8-4c-.827 0-1.5.673-1.5 1.5s.673 1.5 1.5 1.5h8c.827 0 1.5-.673 1.5-1.5s-.673-1.5-1.5-1.5h-1.042c-.276 0-.5-.224-.5-.5 0-1.379-1.121-2.5-2.5-2.5s-2.5 1.121-2.5 2.5c0 .276-.224.5-.5.5zm7.458-.5h.01z" fill="#212a41"/><path d="m44.644 50.018-27.011-.018v10h40.367c-1.864-5.667-7.112-9.788-13.356-9.982z" fill="#f9ac2f"/><path d="m58 60.5h-40.367c-.276 0-.5-.224-.5-.5v-10c0-.133.053-.26.146-.354s.221-.146.354-.146l27.011.019h.016c6.296.195 11.849 4.345 13.815 10.325.051.152.024.319-.069.449-.095.13-.246.207-.406.207zm-39.867-1h39.158c-2.014-5.226-7.015-8.804-12.655-8.981l-26.503-.019z" fill="#212a41"/><path d="m51.986 54.011-13.806-.011v6h21.82c-1.119-3.4-4.267-5.873-8.014-5.989z" fill="#f9ac2f"/><path d="m60 60.5h-21.82c-.276 0-.5-.224-.5-.5v-6c0-.133.053-.26.146-.354s.221-.146.354-.146l13.807.011h.016c3.86.12 7.266 2.665 8.473 6.333.051.152.024.319-.069.449s-.247.207-.407.207zm-21.32-1h20.598c-1.244-2.912-4.096-4.887-7.299-4.989l-13.299-.011z" fill="#212a41"/><path d="m38.287 54c-3.141 0-5.891 1.661-7.427 4.151-2.367-4.824-7.313-8.151-13.049-8.151-6.444 0-11.901 4.195-13.811 10h26 1.622 14.951c-1.146-3.483-4.42-6-8.286-6z" fill="#db8e11"/><path d="m46.573 60.5h-42.573c-.16 0-.311-.077-.405-.207s-.12-.297-.069-.449c2.035-6.187 7.776-10.344 14.285-10.344 5.492 0 10.439 2.922 13.104 7.682 1.738-2.32 4.437-3.682 7.371-3.682 3.992 0 7.514 2.55 8.762 6.344.051.152.024.319-.069.449s-.246.207-.406.207zm-41.864-1h41.143c-1.284-3.018-4.242-5-7.565-5-2.872 0-5.489 1.463-7.001 3.914-.096.154-.252.263-.45.236-.182-.009-.345-.115-.425-.279-2.381-4.854-7.209-7.871-12.6-7.871-5.843 0-11.023 3.589-13.102 9z" fill="#212a41"/><path d="m36.956 24.606-7.727 2.071c-.512.137-1.058.065-1.518-.2l-7.348-4.243c-.957-.552-1.284-1.775-.732-2.732s1.775-1.284 2.732-.732l6.631 3.828 6.927-1.856c1.067-.286 2.164.347 2.449 1.414.286 1.067-.347 2.164-1.414 2.45z" fill="#f9ac2f"/><path d="m28.717 27.243c-.438 0-.873-.113-1.255-.333l-7.349-4.243c-1.194-.689-1.604-2.222-.915-3.415.334-.578.873-.992 1.518-1.165.644-.174 1.319-.083 1.896.251l6.451 3.725 6.728-1.804c1.336-.354 2.706.437 3.063 1.768.355 1.333-.438 2.706-1.769 3.063 0 0 0 0-.001 0l-7.728 2.07c-.208.056-.423.083-.639.083zm-7.353-8.241c-.13 0-.261.017-.39.051-.387.104-.71.353-.911.699-.413.716-.167 1.636.55 2.05l7.349 4.242c.343.197.759.252 1.138.149l7.727-2.07c.799-.214 1.275-1.038 1.062-1.838-.214-.798-1.04-1.278-1.837-1.06l-6.928 1.856c-.13.032-.265.017-.38-.051l-6.631-3.828c-.232-.133-.489-.2-.749-.2zm15.592 5.604h.01z" fill="#212a41"/><circle cx="13.934" cy="51.48" fill="#6c696f" r="8"/><path d="m13.936 59.981c-3.753 0-7.196-2.508-8.213-6.301-1.213-4.527 1.483-9.197 6.011-10.411 4.532-1.21 9.198 1.484 10.411 6.011.587 2.193.286 4.484-.85 6.45-1.135 1.967-2.968 3.373-5.162 3.961-.734.197-1.472.29-2.197.29zm.009-16.003c-.651 0-1.307.085-1.952.259-1.936.519-3.553 1.759-4.555 3.494-1.002 1.734-1.268 3.756-.749 5.69.519 1.936 1.759 3.553 3.494 4.555 1.734 1 3.756 1.27 5.69.749 1.936-.518 3.554-1.759 4.555-3.494 1.002-1.734 1.268-3.756.749-5.69-.519-1.936-1.759-3.553-3.494-4.555-1.155-.668-2.438-1.008-3.738-1.008z" fill="#212a41"/><circle cx="12.002" cy="51.998" fill="#4e4b51" r="8"/><path d="m12.004 60.499c-3.753 0-7.196-2.508-8.213-6.301-1.213-4.527 1.483-9.197 6.011-10.411 4.532-1.21 9.198 1.484 10.411 6.011s-1.483 9.197-6.011 10.411c-.734.196-1.473.29-2.198.29zm.01-16.004c-.651 0-1.307.085-1.952.259-1.936.519-3.553 1.759-4.555 3.494-1.002 1.734-1.268 3.756-.749 5.69.519 1.936 1.759 3.553 3.494 4.555 1.734 1.001 3.757 1.27 5.69.749 1.936-.519 3.553-1.759 4.555-3.494 1.002-1.734 1.268-3.756.749-5.69-.519-1.936-1.759-3.553-3.494-4.555-1.155-.667-2.439-1.008-3.738-1.008z" fill="#212a41"/><circle cx="12.002" cy="51.998" fill="#e0e0e0" r="6"/><path d="m12.004 58.499c-2.87 0-5.503-1.918-6.281-4.818-.927-3.462 1.135-7.033 4.597-7.962 3.466-.924 7.033 1.136 7.962 4.597.927 3.462-1.135 7.033-4.597 7.962-.562.149-1.126.221-1.681.221zm-5.315-5.078c.786 2.93 3.807 4.677 6.735 3.89 2.93-.785 4.675-3.807 3.89-6.735-.785-2.93-3.809-4.68-6.735-3.89-2.93.785-4.675 3.806-3.89 6.735z" fill="#212a41"/><circle cx="12.002" cy="51.998" fill="#e0e0e0" r="2"/><path d="m11.998 54.499c-.434 0-.86-.113-1.246-.336-.578-.334-.991-.873-1.165-1.518-.173-.645-.084-1.319.25-1.897.334-.579.873-.992 1.519-1.165.644-.173 1.317-.085 1.896.25.578.334.991.873 1.165 1.518.173.646.084 1.318-.25 1.897-.334.578-.873.991-1.518 1.165-.215.058-.434.086-.651.086zm.007-4.002c-.131 0-.262.018-.391.053-.388.104-.711.351-.911.698s-.254.751-.149 1.138c.104.388.352.711.698.911.348.201.752.255 1.138.149.388-.104.711-.352.911-.698.2-.348.254-.751.149-1.138-.104-.388-.352-.711-.698-.911-.231-.134-.487-.202-.747-.202z" fill="#212a41"/><path d="m13.476 38.662 2.897-.776-2.689 13.144-2.898.776z" fill="#e0e0e0"/><path d="m10.786 52.307c-.126 0-.249-.048-.343-.136-.126-.119-.182-.295-.147-.465l2.689-13.145c.038-.186.178-.333.36-.383l2.897-.776c.171-.04.348.002.473.119.126.119.182.295.147.465l-2.688 13.144c-.038.186-.178.333-.36.383l-2.897.777c-.044.011-.088.017-.131.017zm3.117-13.242-2.465 12.049 1.817-.488 2.465-12.048z" fill="#212a41"/><path d="m24.196 41.484-2.898.776-3.933-3.087 5.796-1.553z" fill="#e0e0e0"/><path d="m21.299 42.76c-.11 0-.22-.037-.309-.106l-3.934-3.087c-.149-.117-.219-.309-.182-.494.038-.186.178-.333.361-.383l5.796-1.553c.264-.064.54.088.612.354l1.035 3.863c.071.268-.087.541-.354.613l-2.897.776c-.041.011-.085.017-.128.017zm-2.838-3.363 2.95 2.314 2.173-.582-.776-2.897z" fill="#212a41"/><path d="m23.161 37.62-5.796 1.553-6.313-.379-2.898.776-2.708-2.38 4.83-1.294 6.313.379 5.795-1.553z" fill="#005b8a"/><path d="m8.154 40.07c-.12 0-.237-.043-.33-.124l-2.708-2.38c-.139-.122-.199-.311-.157-.49s.18-.321.357-.369l4.829-1.294c.053-.013.102-.021.16-.016l6.232.374 5.718-1.532c.265-.064.54.087.612.354l.776 2.897c.034.129.016.265-.051.38s-.175.198-.304.233l-5.796 1.553c-.052.013-.101.022-.159.016l-6.232-.374-2.818.756c-.042.01-.086.016-.129.016zm-1.675-2.638 1.805 1.587 2.639-.708c.053-.013.102-.021.16-.016l6.232.374 5.234-1.402-.518-1.932-5.313 1.424c-.051.013-.101.022-.159.016l-6.233-.375z" fill="#212a41"/><path d="m36.68 31.927-2.311 6.831-6.762 1.812-2.847-10.626 10.626-2.847z" fill="#0079a8"/><path d="m27.607 41.069c-.221 0-.423-.147-.483-.37l-2.847-10.625c-.071-.268.087-.541.354-.613l10.625-2.847c.271-.064.541.088.613.354l1.294 4.829c.025.096.021.196-.01.29l-2.311 6.831c-.054.158-.183.279-.345.323l-6.762 1.812c-.042.01-.085.016-.128.016zm-2.234-10.771 2.588 9.659 6.021-1.613 2.176-6.434-1.125-4.2z" fill="#212a41"/><circle cx="44.843" cy="43.198" fill="#6c696f" r="8"/><path d="m44.846 51.699c-3.753 0-7.196-2.508-8.213-6.301-.587-2.193-.286-4.484.85-6.45 1.135-1.967 2.968-3.373 5.16-3.961 4.533-1.21 9.199 1.484 10.412 6.011s-1.483 9.197-6.011 10.411c-.734.196-1.473.29-2.198.29zm-.005-16.002c-.641 0-1.291.083-1.939.257-1.935.518-3.552 1.759-4.553 3.494-1.002 1.734-1.268 3.756-.749 5.69.519 1.936 1.759 3.553 3.494 4.555 1.734 1.001 3.756 1.269 5.69.749 1.936-.519 3.553-1.759 4.555-3.494 1.002-1.734 1.268-3.756.749-5.69-.897-3.348-3.936-5.561-7.247-5.561z" fill="#212a41"/><circle cx="42.912" cy="43.716" fill="#4e4b51" r="8"/><path d="m42.914 52.217c-3.753 0-7.196-2.508-8.213-6.301-.587-2.193-.286-4.484.85-6.45 1.135-1.967 2.968-3.373 5.16-3.961 2.194-.585 4.484-.286 6.45.85 1.967 1.136 3.373 2.969 3.961 5.161 1.213 4.527-1.483 9.197-6.01 10.411-.734.196-1.472.29-2.198.29zm.009-16.004c-.651 0-1.307.085-1.952.259-1.936.518-3.553 1.759-4.554 3.494-1.002 1.734-1.268 3.756-.749 5.69.519 1.936 1.759 3.553 3.494 4.555 1.733 1.001 3.757 1.269 5.69.749 1.936-.518 3.553-1.759 4.554-3.494 1.002-1.734 1.268-3.756.749-5.69-.519-1.936-1.759-3.553-3.494-4.555-1.155-.667-2.438-1.008-3.738-1.008z" fill="#212a41"/><circle cx="42.912" cy="43.716" fill="#e0e0e0" r="6"/><path d="m42.914 50.217c-2.871 0-5.504-1.918-6.281-4.819-.927-3.461 1.135-7.032 4.596-7.961 3.466-.924 7.034 1.136 7.962 4.598.927 3.461-1.135 7.032-4.596 7.961-.562.149-1.126.221-1.681.221zm.006-12.004c-.478 0-.958.063-1.433.19-2.929.785-4.673 3.807-3.888 6.735v.001c.38 1.419 1.29 2.604 2.562 3.34 1.271.734 2.753.93 4.174.549 2.929-.785 4.673-3.807 3.888-6.735-.38-1.42-1.29-2.605-2.562-3.341-.847-.489-1.788-.739-2.741-.739z" fill="#212a41"/><path d="m43.947 48.079c-.221 0-.423-.147-.483-.371-.071-.267.087-.54.354-.612.902-.241 1.657-.82 2.124-1.63.468-.81.592-1.753.35-2.656-.071-.267.087-.54.354-.612.264-.064.54.087.612.354.311 1.161.15 2.373-.45 3.414s-1.571 1.785-2.732 2.097c-.043.01-.087.016-.129.016z" fill="#c2c2c2"/><path d="m13.037 56.361c-.221 0-.423-.147-.483-.371-.071-.267.087-.54.354-.612.902-.241 1.657-.82 2.125-1.63.467-.81.591-1.753.349-2.655-.071-.267.087-.541.354-.613.271-.064.541.088.613.354.311 1.161.151 2.374-.449 3.415-.602 1.041-1.572 1.785-2.733 2.097-.044.009-.087.015-.13.015z" fill="#c2c2c2"/><circle cx="42.912" cy="43.716" fill="#e0e0e0" r="2"/><path d="m42.907 46.217c-.433 0-.86-.113-1.245-.336-.579-.334-.992-.873-1.166-1.518-.173-.646-.084-1.318.25-1.897.334-.578.873-.991 1.518-1.165.645-.173 1.319-.085 1.897.25.579.334.992.873 1.166 1.518.355 1.332-.438 2.705-1.768 3.062-.215.057-.434.086-.652.086zm.004-4.001c-.128 0-.259.017-.388.052-.388.104-.711.352-.911.698-.2.348-.254.751-.149 1.138.104.388.352.711.698.911s.751.254 1.139.149c.799-.214 1.274-1.038 1.061-1.837-.179-.669-.788-1.111-1.45-1.111z" fill="#212a41"/><path d="m34.726 32.968 2.898-.776 6.969 10.556-2.898.776z" fill="#e0e0e0"/><path d="m41.695 44.024c-.165 0-.323-.082-.417-.225l-6.97-10.557c-.089-.134-.107-.303-.051-.453.058-.15.184-.264.339-.306l2.898-.776c.204-.053.428.028.546.208l6.97 10.556c.089.134.107.303.051.453-.058.149-.183.264-.338.306l-2.898.777c-.043.012-.087.017-.13.017zm-6.17-10.753 6.389 9.677 1.88-.505-6.389-9.676z" fill="#212a41"/><path d="m33.326 27.237h4v7h-4z" fill="#005b8a" transform="matrix(.966 -.259 .259 .966 -6.752 10.19)"/><path d="m34.3 35.136c-.087 0-.173-.022-.25-.067-.115-.065-.198-.175-.233-.304l-1.812-6.762c-.071-.267.087-.54.354-.612l3.863-1.035c.271-.063.541.088.613.354l1.812 6.761c.071.268-.087.541-.354.613l-3.863 1.036c-.043.01-.087.016-.13.016zm-1.199-6.908 1.553 5.796 2.897-.777-1.553-5.795z" fill="#212a41"/><path d="m27.094 40.707-2.898.777-3.933-3.088 5.796-1.553z" fill="#e0e0e0"/><path d="m24.196 41.983c-.11 0-.22-.037-.309-.106l-3.934-3.087c-.149-.117-.219-.309-.182-.494.038-.186.178-.333.361-.383l5.796-1.553c.264-.064.54.088.612.354l1.035 3.863c.071.268-.087.541-.354.613l-2.897.776c-.041.012-.085.017-.128.017zm-2.838-3.362 2.95 2.314 2.173-.582-.776-2.897z" fill="#212a41"/><path d="m21.349 30.858-10.625 2.847-2.588-9.659c-.572-2.134.695-4.327 2.828-4.899l2.898-.776c2.134-.572 4.327.695 4.899 2.828z" fill="#db8e11"/><path d="m10.724 34.205c-.221 0-.423-.147-.483-.37l-2.588-9.659c-.311-1.161-.15-2.374.45-3.415s1.571-1.785 2.732-2.097l2.898-.776c1.162-.31 2.374-.15 3.414.449 1.041.602 1.785 1.572 2.097 2.733l2.589 9.658c.034.129.016.265-.051.38-.065.115-.175.198-.304.233l-10.626 2.847c-.042.011-.085.017-.128.017zm4.179-15.472c-.304 0-.609.04-.911.121l-2.899.776c-.902.241-1.657.82-2.124 1.63-.468.81-.592 1.753-.35 2.656l2.458 9.176 9.66-2.588-2.46-9.176c-.241-.903-.82-1.658-1.63-2.126-.539-.309-1.137-.469-1.744-.469z" fill="#212a41"/><path d="m25.213 29.823-10.625 2.847-2.588-9.659c-.572-2.134.695-4.327 2.828-4.899l2.898-.776c2.134-.572 4.327.695 4.899 2.828z" fill="#f9ac2f"/><path d="m14.588 33.17c-.221 0-.423-.147-.483-.37l-2.589-9.659c-.311-1.161-.15-2.374.45-3.415.602-1.041 1.572-1.785 2.733-2.097l2.896-.776c2.401-.639 4.869.785 5.513 3.182l2.588 9.659c.071.268-.087.541-.354.613l-10.625 2.847c-.043.01-.086.016-.129.016zm4.179-15.472c-.304 0-.609.04-.911.121l-2.897.776c-.903.241-1.658.82-2.126 1.63s-.592 1.753-.35 2.656l2.459 9.176 9.659-2.588-2.459-9.177c-.242-.902-.821-1.657-1.631-2.125-.539-.31-1.138-.469-1.744-.469z" fill="#212a41"/><path d="m33.782 32.703-2.311 6.831-6.761 1.812-2.847-10.625 10.625-2.847z" fill="#005b8a"/><path d="m24.71 41.846c-.221 0-.423-.147-.483-.37l-2.848-10.625c-.034-.129-.016-.265.051-.38.065-.115.175-.198.304-.233l10.626-2.847c.265-.065.54.088.612.354l1.294 4.829c.025.096.021.196-.01.29l-2.312 6.831c-.054.158-.183.279-.344.323l-6.761 1.812c-.043.01-.086.016-.129.016zm-2.235-10.772 2.589 9.659 6.02-1.613 2.177-6.434-1.125-4.2z" fill="#212a41"/><path d="m28.146 31.608c-.221 0-.423-.147-.483-.37-.071-.268.087-.541.354-.613l2.897-.776c.27-.066.541.088.613.354.071.268-.087.541-.354.613l-2.897.776c-.045.011-.088.016-.13.016z" fill="#212a41"/><path d="m10.724 33.705c.572 2.134 2.765 3.4 4.899 2.828l6.761-1.812 2.847 10.625 3.864-1.035-2.847-10.625c-.572-2.134-2.765-3.4-4.899-2.828z" fill="#005b8a"/><path d="m25.231 45.848c-.087 0-.173-.022-.25-.067-.115-.065-.198-.175-.233-.303l-2.717-10.143-6.279 1.683c-2.396.638-4.869-.787-5.512-3.183-.034-.129-.016-.265.051-.38.065-.115.175-.198.304-.233l10.626-2.847c1.16-.31 2.374-.15 3.414.45 1.041.601 1.785 1.571 2.097 2.732l2.847 10.626c.071.267-.087.54-.354.612l-3.863 1.035c-.044.012-.088.018-.131.018zm-2.846-11.625c.221 0 .423.147.483.371l2.717 10.142 2.897-.776-2.718-10.144c-.241-.902-.82-1.657-1.63-2.124-.81-.468-1.754-.593-2.656-.35l-10.108 2.708c.675 1.572 2.42 2.46 4.124 2.001l6.761-1.812c.044-.01.087-.016.13-.016z" fill="#212a41"/><path d="m30.26 48.659-1.932.518c-1.067.286-2.164-.347-2.449-1.414l-.647-2.415 3.864-1.035c1.067-.286 2.164.347 2.449 1.414l.129.483c.286 1.066-.347 2.163-1.414 2.449z" fill="#4e4b51"/><path d="m27.807 49.746c-.434 0-.861-.114-1.246-.337-.579-.334-.992-.873-1.165-1.519l-.647-2.413c-.034-.129-.016-.265.051-.38.065-.115.175-.198.303-.233l3.863-1.035c1.338-.354 2.706.437 3.063 1.768l.129.483c.356 1.331-.437 2.705-1.768 3.062l-1.932.518c-.216.057-.435.086-.651.086zm-1.963-4.045.519 1.931c.213.8 1.033 1.278 1.837 1.062l1.931-.518c.388-.104.711-.352.911-.698.2-.348.254-.752.149-1.139l-.129-.483c-.104-.387-.352-.71-.698-.91-.348-.201-.752-.255-1.139-.149zm4.416 2.958h.01z" fill="#212a41"/><path d="m31.715 24.989-3.864 1.035c-.533.143-1.082-.174-1.225-.707l-.259-.966c-.143-.533.174-1.082.707-1.225l3.864-1.035c.533-.143 1.082.174 1.225.707l.259.966c.143.534-.174 1.082-.707 1.225z" fill="#6c696f"/><path d="m27.593 26.559c-.662 0-1.27-.442-1.449-1.111l-.26-.968c-.213-.798.263-1.621 1.061-1.836l3.865-1.036c.797-.211 1.622.263 1.837 1.062l.259.965c.213.799-.263 1.623-1.061 1.838 0 0 0 .001-.001.001l-3.864 1.035c-.129.033-.259.05-.387.05zm3.604-4.002c-.043 0-.086.006-.13.018l-3.864 1.035c-.266.071-.424.346-.353.612l.259.967c.071.265.345.426.612.353l3.863-1.034c.267-.072.425-.348.354-.614l-.259-.965c-.059-.225-.261-.372-.482-.372zm.518 2.432h.01z" fill="#212a41"/><path d="m40.408 22.659-3.864 1.035c-.533.143-1.082-.174-1.225-.707l-.259-.966c-.143-.533.174-1.082.707-1.225l3.864-1.035c.533-.143 1.082.174 1.225.707l.259.966c.143.534-.173 1.083-.707 1.225z" fill="#6c696f"/><path d="m36.282 24.229c-.26 0-.516-.068-.747-.201-.347-.2-.595-.524-.698-.911l-.26-.966c-.104-.388-.05-.792.15-1.139s.523-.596.911-.699l3.864-1.035c.795-.213 1.622.263 1.837 1.062l.259.965c.104.388.05.792-.15 1.139s-.523.596-.911.699l-3.864 1.035c-.129.034-.26.051-.391.051zm3.609-4.001c-.043 0-.086.006-.13.018l-3.864 1.035c-.266.07-.424.346-.353.612l.259.965c.034.13.117.237.232.305.117.067.253.082.379.05l3.865-1.036c.266-.07.424-.346.353-.612l-.259-.965c-.06-.225-.262-.372-.482-.372z" fill="#212a41"/><path d="m36.223 26.461h4v7h-4z" fill="#0079a8" transform="matrix(.966 -.259 .259 .966 -6.452 10.914)"/><path d="m37.197 34.359c-.087 0-.173-.022-.25-.067-.115-.065-.198-.175-.233-.304l-1.812-6.762c-.071-.267.087-.54.354-.612l3.863-1.035c.271-.066.541.088.613.354l1.812 6.761c.071.268-.087.541-.354.613l-3.863 1.036c-.043.011-.087.016-.13.016zm-1.199-6.908 1.553 5.796 2.897-.777-1.553-5.795z" fill="#212a41"/><path d="m32.759 22.325h3v5h-3z" fill="#e0e0e0" transform="matrix(.966 -.259 .259 .966 -5.258 9.713)"/><path d="m33.457 28.128c-.087 0-.173-.022-.25-.067-.115-.066-.198-.175-.233-.304l-1.294-4.83c-.071-.267.087-.54.354-.612l2.897-.776c.13-.033.264-.017.38.051.115.066.198.175.233.304l1.294 4.83c.071.267-.087.54-.354.612l-2.897.776c-.043.01-.087.016-.13.016zm-.682-4.977 1.035 3.864 1.932-.518-1.035-3.864z" fill="#212a41"/><path d="m12.081 11.601.518 1.932 2.449 1.414 3.766-1.009c-.02-.329-.073-.661-.161-.992-.293-1.092-.936-1.988-1.764-2.633z" fill="#e0e0e0"/><path d="m15.048 15.447c-.087 0-.173-.022-.25-.067l-2.449-1.414c-.115-.065-.198-.175-.233-.303l-.518-1.932c-.071-.268.087-.541.354-.613l4.808-1.289c.153-.038.314-.008.438.089.962.75 1.633 1.753 1.939 2.899.095.353.154.72.178 1.089.015.237-.14.452-.369.515l-3.767 1.01c-.044.01-.088.016-.131.016zm-2.02-2.243 2.09 1.207 3.154-.846c-.025-.166-.06-.329-.103-.489-.229-.858-.712-1.619-1.399-2.214l-4.077 1.093z" fill="#212a41"/><path d="m12.33 21.519h11v4h-11z" fill="#d32e5e" transform="matrix(.966 -.259 .259 .966 -5.48 5.416)"/><path d="m13.035 27.375c-.221 0-.423-.147-.483-.37l-1.036-3.864c-.034-.129-.016-.265.051-.38.065-.115.175-.198.304-.233l10.626-2.847c.264-.064.54.088.612.354l1.035 3.863c.071.268-.087.541-.354.613l-10.625 2.848c-.044.01-.087.016-.13.016zm-.424-4.011.777 2.898 9.659-2.589-.776-2.897z" fill="#212a41"/><path d="m12.138 31.756c-.221 0-.423-.147-.483-.371l-2.07-7.727c-.071-.268.087-.541.354-.613.264-.064.54.087.612.354l2.07 7.728c.071.267-.087.54-.354.612-.043.011-.086.017-.129.017z" fill="#f9ac2f"/><path d="m26.331 27.453-7.727 2.071c-.512.137-1.058.065-1.518-.2l-7.348-4.243c-.957-.552-1.284-1.775-.732-2.732s1.775-1.284 2.732-.732l6.631 3.828 6.927-1.856c1.067-.286 2.164.347 2.449 1.414.286 1.067-.347 2.164-1.414 2.45z" fill="#f9ac2f"/><path d="m18.082 30.093c-.433 0-.86-.113-1.246-.337l-7.348-4.242c-.578-.334-.992-.873-1.165-1.518s-.085-1.318.25-1.896c.689-1.195 2.22-1.604 3.414-.915l6.451 3.725 6.728-1.804c.646-.171 1.319-.083 1.897.251.579.334.992.873 1.165 1.519.173.645.084 1.317-.25 1.896-.334.578-.873.991-1.518 1.165 0 0 0 0-.001 0l-7.728 2.07c-.213.057-.431.086-.649.086zm-7.342-8.243c-.519 0-1.023.27-1.302.75-.2.347-.253.751-.149 1.138s.352.71.699.911l7.348 4.242c.347.2.75.252 1.138.15l7.728-2.071c.388-.104.711-.352.911-.698.2-.348.254-.751.149-1.138-.213-.8-1.035-1.279-1.837-1.062l-6.927 1.856c-.13.032-.265.016-.38-.051l-6.631-3.828c-.235-.135-.492-.199-.747-.199zm15.591 5.603h.01z" fill="#212a41"/><path d="m23.364 24.107 1.932-.518c1.067-.286 2.164.347 2.45 1.414.286 1.067-.347 2.164-1.414 2.45l-1.932.518z" fill="#e0e0e0"/><path d="m24.399 28.471c-.087 0-.173-.022-.25-.067-.115-.066-.198-.175-.233-.304l-1.035-3.864c-.071-.267.087-.54.354-.612l1.932-.518c.646-.171 1.319-.083 1.897.251.579.334.992.873 1.165 1.519.173.645.084 1.317-.25 1.896-.334.578-.873.991-1.518 1.165l-1.932.518c-.043.01-.087.016-.13.016zm-.422-4.011.776 2.898 1.448-.389c.388-.104.711-.352.911-.698.2-.348.254-.751.149-1.138-.104-.388-.351-.711-.698-.911-.348-.201-.752-.257-1.139-.15z" fill="#212a41"/></svg>