<svg id="Icon_Set" enable-background="new 0 0 64 64" height="512" viewBox="0 0 64 64" width="512" xmlns="http://www.w3.org/2000/svg"><path d="m36 60h-16c-2.209 0-4-1.791-4-4v-29.343c0-1.061.421-2.078 1.172-2.828l6.828-6.829h8l6.828 6.828c.75.75 1.172 1.768 1.172 2.828v29.344c0 2.209-1.791 4-4 4z" fill="#005b8a"/><path d="m36 60.5h-16c-2.481 0-4.5-2.019-4.5-4.5v-29.343c0-1.184.48-2.344 1.318-3.182l6.828-6.829c.094-.093.221-.146.354-.146h8c.133 0 .26.053.354.146l6.828 6.829c.838.838 1.318 1.998 1.318 3.182v29.343c0 2.481-2.019 4.5-4.5 4.5zm-11.793-43-6.682 6.682c-.651.652-1.025 1.554-1.025 2.475v29.343c0 1.93 1.57 3.5 3.5 3.5h16c1.93 0 3.5-1.57 3.5-3.5v-29.343c0-.921-.374-1.823-1.025-2.475l-6.682-6.682z" fill="#212a41"/><path d="m18 56.5c-.276 0-.5-.224-.5-.5v-29.343c0-.276.224-.5.5-.5s.5.224.5.5v29.343c0 .276-.224.5-.5.5z" fill="#0079a8"/><path d="m16 32h24v16h-24z" fill="#b51040"/><path d="m40 48.5h-24c-.276 0-.5-.224-.5-.5v-16c0-.276.224-.5.5-.5h24c.276 0 .5.224.5.5v16c0 .276-.224.5-.5.5zm-23.5-1h23v-15h-23z" fill="#212a41"/><path d="m18 48.5c-.276 0-.5-.224-.5-.5v-16c0-.276.224-.5.5-.5s.5.224.5.5v16c0 .276-.224.5-.5.5z" fill="#d32e5e"/><path d="m40 48.5h-24c-.276 0-.5-.224-.5-.5v-16c0-.276.224-.5.5-.5h24c.276 0 .5.224.5.5v16c0 .276-.224.5-.5.5zm-23.5-1h23v-15h-23z" fill="#212a41"/><path d="m31 4h-6c-.552 0-1 .448-1 1v12h8v-12c0-.552-.448-1-1-1z" fill="#c2c2c2"/><path d="m32 17.5h-8c-.276 0-.5-.224-.5-.5v-12c0-.827.673-1.5 1.5-1.5h6c.827 0 1.5.673 1.5 1.5v12c0 .276-.224.5-.5.5zm-7.5-1h7v-11.5c0-.276-.225-.5-.5-.5h-6c-.275 0-.5.224-.5.5z" fill="#212a41"/><path d="m44 60h-16c-2.209 0-4-1.791-4-4v-29.343c0-1.061.421-2.078 1.172-2.828l6.828-6.829h8l6.828 6.828c.75.75 1.172 1.768 1.172 2.828v29.344c0 2.209-1.791 4-4 4z" fill="#0079a8"/><path d="m44 60.5h-16c-2.481 0-4.5-2.019-4.5-4.5v-29.343c0-1.184.48-2.344 1.318-3.182l6.828-6.829c.094-.093.221-.146.354-.146h8c.133 0 .26.053.354.146l6.828 6.829c.838.838 1.318 1.998 1.318 3.182v29.343c0 2.481-2.019 4.5-4.5 4.5zm-11.793-43-6.682 6.682c-.651.652-1.025 1.554-1.025 2.475v29.343c0 1.93 1.57 3.5 3.5 3.5h16c1.93 0 3.5-1.57 3.5-3.5v-29.343c0-.921-.374-1.823-1.025-2.475l-6.682-6.682z" fill="#212a41"/><path d="m39 4h-6c-.552 0-1 .448-1 1v12h8v-12c0-.552-.448-1-1-1z" fill="#e0e0e0"/><path d="m40 17.5h-8c-.276 0-.5-.224-.5-.5v-12c0-.827.673-1.5 1.5-1.5h6c.827 0 1.5.673 1.5 1.5v12c0 .276-.224.5-.5.5zm-7.5-1h7v-11.5c0-.276-.225-.5-.5-.5h-6c-.275 0-.5.224-.5.5z" fill="#212a41"/><path d="m24 12h-7c-.552 0-1-.448-1-1v-2c0-.552.448-1 1-1h7z" fill="#c2c2c2"/><path d="m24 12.5h-7c-.827 0-1.5-.673-1.5-1.5v-2c0-.827.673-1.5 1.5-1.5h7c.276 0 .5.224.5.5v4c0 .276-.224.5-.5.5zm-7-4c-.275 0-.5.224-.5.5v2c0 .276.225.5.5.5h6.5v-3z" fill="#212a41"/><path d="m47 12h-7v-4h7c.552 0 1 .448 1 1v2c0 .552-.448 1-1 1z" fill="#e0e0e0"/><path d="m47 12.5h-7c-.276 0-.5-.224-.5-.5v-4c0-.276.224-.5.5-.5h7c.827 0 1.5.673 1.5 1.5v2c0 .827-.673 1.5-1.5 1.5zm-6.5-1h6.5c.275 0 .5-.224.5-.5v-2c0-.276-.225-.5-.5-.5h-6.5z" fill="#212a41"/><path d="m24 32h24v16h-24z" fill="#d32e5e"/><g fill="#e0e0e0"><path d="m33.5 45.5h-1.825l-4-9h-.175v9h-1v-10h1.825l4 9h.175v-9h10v1h-9z"/><path d="m42.5 38 3-2-3-2z"/><path d="m40 45.5h-5v-7h5zm-4-1h3v-5h-3z"/><path d="m45.5 45.5h-4v-1h3v-2h-3v-4h4v1h-3v2h3z"/><path d="m28 12h-7c-.552 0-1-.448-1-1v-2c0-.552.448-1 1-1h7z"/></g><path d="m28 12.5h-7c-.827 0-1.5-.673-1.5-1.5v-2c0-.827.673-1.5 1.5-1.5h7c.276 0 .5.224.5.5v4c0 .276-.224.5-.5.5zm-7-4c-.275 0-.5.224-.5.5v2c0 .276.225.5.5.5h6.5v-3z" fill="#212a41"/><circle cx="36" cy="20" fill="#4e4b51" r="6"/><path d="m36 26.5c-3.584 0-6.5-2.916-6.5-6.5s2.916-6.5 6.5-6.5 6.5 2.916 6.5 6.5-2.916 6.5-6.5 6.5zm0-12c-3.032 0-5.5 2.467-5.5 5.5s2.468 5.5 5.5 5.5 5.5-2.467 5.5-5.5-2.468-5.5-5.5-5.5z" fill="#212a41"/><circle cx="39" cy="20" fill="#e0e0e0" r="6"/><path d="m39 26.5c-3.584 0-6.5-2.916-6.5-6.5s2.916-6.5 6.5-6.5 6.5 2.916 6.5 6.5-2.916 6.5-6.5 6.5zm0-12c-3.032 0-5.5 2.467-5.5 5.5s2.468 5.5 5.5 5.5 5.5-2.467 5.5-5.5-2.468-5.5-5.5-5.5z" fill="#212a41"/><path d="m39 20.5c-.161 0-.319-.078-.416-.223l-2-3c-.153-.23-.091-.54.139-.693.227-.153.539-.092.693.139l2 3c.153.23.091.54-.139.693-.085.057-.181.084-.277.084z" fill="#212a41"/><path d="m26 56.5c-.276 0-.5-.224-.5-.5v-29.343c0-.276.224-.5.5-.5s.5.224.5.5v29.343c0 .276-.224.5-.5.5z" fill="#1e97c6"/><path d="m26 48.5c-.276 0-.5-.224-.5-.5v-16c0-.276.224-.5.5-.5s.5.224.5.5v16c0 .276-.224.5-.5.5z" fill="#f14c7c"/><path d="m46 56.5c-.276 0-.5-.224-.5-.5v-29.343c0-.276.224-.5.5-.5s.5.224.5.5v29.343c0 .276-.224.5-.5.5z" fill="#005b8a"/><path d="m46 48.5c-.276 0-.5-.224-.5-.5v-16c0-.276.224-.5.5-.5s.5.224.5.5v16c0 .276-.224.5-.5.5z" fill="#b51040"/><path d="m48 48.5h-24c-.276 0-.5-.224-.5-.5v-16c0-.276.224-.5.5-.5h24c.276 0 .5.224.5.5v16c0 .276-.224.5-.5.5zm-23.5-1h23v-15h-23z" fill="#212a41"/></svg>