<svg id="Icon_Set" enable-background="new 0 0 64 64" height="512" viewBox="0 0 64 64" width="512" xmlns="http://www.w3.org/2000/svg"><path d="m4 56v-36c0-2.209 1.791-4 4-4h36c2.209 0 4 1.791 4 4v36c0 2.209-1.791 4-4 4h-36c-2.209 0-4-1.791-4-4z" fill="#4e4b51"/><path d="m44 60.5h-36c-2.481 0-4.5-2.019-4.5-4.5v-36c0-2.481 2.019-4.5 4.5-4.5h36c2.481 0 4.5 2.019 4.5 4.5v36c0 2.481-2.019 4.5-4.5 4.5zm-36-44c-1.93 0-3.5 1.57-3.5 3.5v36c0 1.93 1.57 3.5 3.5 3.5h36c1.93 0 3.5-1.57 3.5-3.5v-36c0-1.93-1.57-3.5-3.5-3.5z" fill="#212a41"/><path d="m8 56v-36c0-2.209 1.791-4 4-4h36c2.209 0 4 1.791 4 4v36c0 2.209-1.791 4-4 4h-36c-2.209 0-4-1.791-4-4z" fill="#6c696f"/><path d="m48 60.5h-36c-2.481 0-4.5-2.019-4.5-4.5v-36c0-2.481 2.019-4.5 4.5-4.5h36c2.481 0 4.5 2.019 4.5 4.5v36c0 2.481-2.019 4.5-4.5 4.5zm-36-44c-1.93 0-3.5 1.57-3.5 3.5v36c0 1.93 1.57 3.5 3.5 3.5h36c1.93 0 3.5-1.57 3.5-3.5v-36c0-1.93-1.57-3.5-3.5-3.5z" fill="#212a41"/><g fill="#4e4b51"><path d="m50 56.5c-.276 0-.5-.224-.5-.5v-36c0-.276.224-.5.5-.5s.5.224.5.5v36c0 .276-.224.5-.5.5z"/><path d="m20 22-4 2v2l4-2 4 2v-2z"/><path d="m20 26-4 2v2l4-2 4 2v-2z"/><path d="m20 30-4 2v2l4-2 4 2v-2z"/><path d="m20 34-4 2v2l4-2 4 2v-2z"/><path d="m20 38-4 2v2l4-2 4 2v-2z"/><path d="m20 42-4 2v2l4-2 4 2v-2z"/><path d="m20 46-4 2v2l4-2 4 2v-2z"/><path d="m20 50-4 2v2l4-2 4 2v-2z"/><path d="m40 22-4 2v2l4-2 4 2v-2z"/><path d="m40 26-4 2v2l4-2 4 2v-2z"/><path d="m40 30-4 2v2l4-2 4 2v-2z"/><path d="m40 34-4 2v2l4-2 4 2v-2z"/><path d="m40 38-4 2v2l4-2 4 2v-2z"/><path d="m40 42-4 2v2l4-2 4 2v-2z"/><path d="m40 46-4 2v2l4-2 4 2v-2z"/><path d="m40 50-4 2v2l4-2 4 2v-2z"/></g><circle cx="48" cy="13" fill="#db8e11" r="9"/><path d="m48 22.5c-5.238 0-9.5-4.262-9.5-9.5s4.262-9.5 9.5-9.5 9.5 4.262 9.5 9.5-4.262 9.5-9.5 9.5zm0-18c-4.687 0-8.5 3.813-8.5 8.5s3.813 8.5 8.5 8.5 8.5-3.813 8.5-8.5-3.813-8.5-8.5-8.5z" fill="#212a41"/><circle cx="51" cy="13" fill="#f9ac2f" r="9"/><path d="m51 22.5c-5.238 0-9.5-4.262-9.5-9.5s4.262-9.5 9.5-9.5 9.5 4.262 9.5 9.5-4.262 9.5-9.5 9.5zm0-18c-4.687 0-8.5 3.813-8.5 8.5s3.813 8.5 8.5 8.5 8.5-3.813 8.5-8.5-3.813-8.5-8.5-8.5z" fill="#212a41"/><path d="m51 20.5c-.276 0-.5-.224-.5-.5s.224-.5.5-.5c3.584 0 6.5-2.916 6.5-6.5 0-.276.224-.5.5-.5s.5.224.5.5c0 4.136-3.364 7.5-7.5 7.5z" fill="#db8e11"/><path d="m44 13.5c-.276 0-.5-.224-.5-.5 0-4.136 3.364-7.5 7.5-7.5.276 0 .5.224.5.5s-.224.5-.5.5c-3.584 0-6.5 2.916-6.5 6.5 0 .276-.224.5-.5.5z" fill="#ffca4d"/><path d="m51.483 15h-1c-.552 0-1-.448-1-1v-6c0-.552.448-1 1-1h1c.552 0 1 .448 1 1v6c0 .552-.448 1-1 1z" fill="#e0e0e0"/><path d="m51.483 15.5h-1c-.827 0-1.5-.673-1.5-1.5v-6c0-.827.673-1.5 1.5-1.5h1c.827 0 1.5.673 1.5 1.5v6c0 .827-.672 1.5-1.5 1.5zm-1-8c-.275 0-.5.225-.5.5v6c0 .275.225.5.5.5h1c.275 0 .5-.225.5-.5v-6c0-.275-.225-.5-.5-.5z" fill="#212a41"/><circle cx="50.983" cy="18.5" fill="#e0e0e0" r="1.5"/><path d="m50.983 20.5c-1.103 0-2-.897-2-2s.897-2 2-2 2 .897 2 2-.897 2-2 2zm0-3c-.552 0-1 .448-1 1s.448 1 1 1 1-.448 1-1-.448-1-1-1z" fill="#212a41"/><path d="m10 56.5c-.276 0-.5-.224-.5-.5v-36c0-.276.224-.5.5-.5s.5.224.5.5v36c0 .276-.224.5-.5.5z" fill="#8a878d"/></svg>