<svg id="Icon_Set" enable-background="new 0 0 64 64" height="512" viewBox="0 0 64 64" width="512" xmlns="http://www.w3.org/2000/svg"><path d="m48 18h4v37h-4z" fill="#99a2b9"/><path d="m52 55.5h-4c-.276 0-.5-.224-.5-.5v-37c0-.276.224-.5.5-.5h4c.276 0 .5.224.5.5v37c0 .276-.224.5-.5.5zm-3.5-1h3v-36h-3z" fill="#212a41"/><circle cx="36" cy="26" fill="#e0c8a4" r="3"/><path d="m36 29.5c-1.93 0-3.5-1.57-3.5-3.5s1.57-3.5 3.5-3.5 3.5 1.57 3.5 3.5-1.57 3.5-3.5 3.5zm0-6c-1.379 0-2.5 1.122-2.5 2.5s1.121 2.5 2.5 2.5 2.5-1.122 2.5-2.5-1.121-2.5-2.5-2.5z" fill="#212a41"/><path d="m42 41h-12v-10c0-1.105.895-2 2-2h8c1.105 0 2 .895 2 2z" fill="#d32e5e"/><path d="m42 41.5h-12c-.276 0-.5-.224-.5-.5v-10c0-1.378 1.121-2.5 2.5-2.5h8c1.379 0 2.5 1.122 2.5 2.5v10c0 .276-.224.5-.5.5zm-11.5-1h11v-9.5c0-.827-.673-1.5-1.5-1.5h-8c-.827 0-1.5.673-1.5 1.5z" fill="#212a41"/><path d="m32 41h8.059v14h-8.059z" fill="#d32e5e"/><path d="m40.059 55.5h-8.059c-.276 0-.5-.224-.5-.5v-14c0-.276.224-.5.5-.5h8.059c.276 0 .5.224.5.5v14c0 .276-.224.5-.5.5zm-7.559-1h7.059v-13h-7.059z" fill="#212a41"/><path d="m36.029 55.5c-.276 0-.5-.224-.5-.5v-11c0-.276.224-.5.5-.5s.5.224.5.5v11c0 .276-.223.5-.5.5z" fill="#212a41"/><path d="m40 39.5c-.276 0-.5-.224-.5-.5v-8c0-.276.224-.5.5-.5s.5.224.5.5v8c0 .276-.224.5-.5.5z" fill="#b51040"/><path d="m32 39.5c-.276 0-.5-.224-.5-.5v-8c0-.276.224-.5.5-.5s.5.224.5.5v8c0 .276-.224.5-.5.5z" fill="#f14c7c"/><path d="m39 26h-6c0-1.657 1.343-3 3-3 1.657 0 3 1.343 3 3z" fill="#d32e5e"/><path d="m39 26.5h-6c-.276 0-.5-.224-.5-.5 0-1.93 1.57-3.5 3.5-3.5s3.5 1.57 3.5 3.5c0 .276-.224.5-.5.5zm-5.45-1h4.9c-.232-1.14-1.243-2-2.45-2s-2.218.86-2.45 2z" fill="#212a41"/><path d="m41 26.5h-2c-.276 0-.5-.224-.5-.5s.224-.5.5-.5h2c.276 0 .5.224.5.5s-.224.5-.5.5z" fill="#212a41"/><circle cx="48" cy="26" fill="#e0c8a4" r="3"/><path d="m48 29.5c-1.93 0-3.5-1.57-3.5-3.5s1.57-3.5 3.5-3.5 3.5 1.57 3.5 3.5-1.57 3.5-3.5 3.5zm0-6c-1.379 0-2.5 1.122-2.5 2.5s1.121 2.5 2.5 2.5 2.5-1.122 2.5-2.5-1.121-2.5-2.5-2.5z" fill="#212a41"/><path d="m54 41h-12v-10c0-1.105.895-2 2-2h8c1.105 0 2 .895 2 2z" fill="#d32e5e"/><path d="m54 41.5h-12c-.276 0-.5-.224-.5-.5v-10c0-1.378 1.121-2.5 2.5-2.5h8c1.379 0 2.5 1.122 2.5 2.5v10c0 .276-.224.5-.5.5zm-11.5-1h11v-9.5c0-.827-.673-1.5-1.5-1.5h-8c-.827 0-1.5.673-1.5 1.5z" fill="#212a41"/><path d="m44 41h8.059v14h-8.059z" fill="#d32e5e"/><path d="m52.059 55.5h-8.059c-.276 0-.5-.224-.5-.5v-14c0-.276.224-.5.5-.5h8.059c.276 0 .5.224.5.5v14c0 .276-.224.5-.5.5zm-7.559-1h7.059v-13h-7.059z" fill="#212a41"/><path d="m48.029 55.5c-.276 0-.5-.224-.5-.5v-11c0-.276.224-.5.5-.5s.5.224.5.5v11c0 .276-.223.5-.5.5z" fill="#212a41"/><path d="m52 39.5c-.276 0-.5-.224-.5-.5v-8c0-.276.224-.5.5-.5s.5.224.5.5v8c0 .276-.224.5-.5.5z" fill="#b51040"/><path d="m44 39.5c-.276 0-.5-.224-.5-.5v-8c0-.276.224-.5.5-.5s.5.224.5.5v8c0 .276-.224.5-.5.5z" fill="#f14c7c"/><path d="m51 26h-6c0-1.657 1.343-3 3-3 1.657 0 3 1.343 3 3z" fill="#d32e5e"/><path d="m51 26.5h-6c-.276 0-.5-.224-.5-.5 0-1.93 1.57-3.5 3.5-3.5s3.5 1.57 3.5 3.5c0 .276-.224.5-.5.5zm-5.45-1h4.9c-.232-1.14-1.243-2-2.45-2s-2.218.86-2.45 2z" fill="#212a41"/><path d="m53 26.5h-2c-.276 0-.5-.224-.5-.5s.224-.5.5-.5h2c.276 0 .5.224.5.5s-.224.5-.5.5z" fill="#212a41"/><circle cx="24" cy="26" fill="#e0c8a4" r="3"/><path d="m24 29.5c-1.93 0-3.5-1.57-3.5-3.5s1.57-3.5 3.5-3.5 3.5 1.57 3.5 3.5-1.57 3.5-3.5 3.5zm0-6c-1.379 0-2.5 1.122-2.5 2.5s1.121 2.5 2.5 2.5 2.5-1.122 2.5-2.5-1.121-2.5-2.5-2.5z" fill="#212a41"/><path d="m30 41h-12v-10c0-1.105.895-2 2-2h8c1.105 0 2 .895 2 2z" fill="#d32e5e"/><path d="m30 41.5h-12c-.276 0-.5-.224-.5-.5v-10c0-1.378 1.121-2.5 2.5-2.5h8c1.379 0 2.5 1.122 2.5 2.5v10c0 .276-.224.5-.5.5zm-11.5-1h11v-9.5c0-.827-.673-1.5-1.5-1.5h-8c-.827 0-1.5.673-1.5 1.5z" fill="#212a41"/><path d="m20 41h8.059v14h-8.059z" fill="#d32e5e"/><path d="m28.059 55.5h-8.059c-.276 0-.5-.224-.5-.5v-14c0-.276.224-.5.5-.5h8.059c.276 0 .5.224.5.5v14c0 .276-.224.5-.5.5zm-7.559-1h7.059v-13h-7.059z" fill="#212a41"/><path d="m24.029 55.5c-.276 0-.5-.224-.5-.5v-11c0-.276.224-.5.5-.5s.5.224.5.5v11c0 .276-.223.5-.5.5z" fill="#212a41"/><path d="m28 39.5c-.276 0-.5-.224-.5-.5v-8c0-.276.224-.5.5-.5s.5.224.5.5v8c0 .276-.224.5-.5.5z" fill="#b51040"/><path d="m20 39.5c-.276 0-.5-.224-.5-.5v-8c0-.276.224-.5.5-.5s.5.224.5.5v8c0 .276-.224.5-.5.5z" fill="#f14c7c"/><path d="m27 26h-6c0-1.657 1.343-3 3-3 1.657 0 3 1.343 3 3z" fill="#d32e5e"/><path d="m27 26.5h-6c-.276 0-.5-.224-.5-.5 0-1.93 1.57-3.5 3.5-3.5s3.5 1.57 3.5 3.5c0 .276-.224.5-.5.5zm-5.45-1h4.9c-.232-1.14-1.243-2-2.45-2s-2.218.86-2.45 2z" fill="#212a41"/><path d="m29 26.5h-2c-.276 0-.5-.224-.5-.5s.224-.5.5-.5h2c.276 0 .5.224.5.5s-.224.5-.5.5z" fill="#212a41"/><path d="m4 6h44v12h-44z" fill="#99a2b9"/><path d="m48 18.5h-44c-.276 0-.5-.224-.5-.5v-12c0-.276.224-.5.5-.5h44c.276 0 .5.224.5.5v12c0 .276-.224.5-.5.5zm-43.5-1h43v-11h-43z" fill="#212a41"/><path d="m4 18h4v37h-4z" fill="#99a2b9"/><path d="m8 55.5h-4c-.276 0-.5-.224-.5-.5v-37c0-.276.224-.5.5-.5h4c.276 0 .5.224.5.5v37c0 .276-.224.5-.5.5zm-3.5-1h3v-36h-3z" fill="#212a41"/><path d="m8 6h52v12h-52z" fill="#b7c0d7"/><path d="m60 18.5h-52c-.276 0-.5-.224-.5-.5v-12c0-.276.224-.5.5-.5h52c.276 0 .5.224.5.5v12c0 .276-.224.5-.5.5zm-51.5-1h51v-11h-51z" fill="#212a41"/><path d="m59 55h-3v-14h-40v14h-3v-15.5c0-.829.672-1.5 1.5-1.5h43c.828 0 1.5.671 1.5 1.5z" fill="#e0e0e0"/><path d="m59 55.5h-3c-.276 0-.5-.224-.5-.5v-13.5h-39v13.5c0 .276-.224.5-.5.5h-3c-.276 0-.5-.224-.5-.5v-15.5c0-1.103.897-2 2-2h43c1.103 0 2 .897 2 2v15.5c0 .276-.224.5-.5.5zm-2.5-1h2v-15c0-.551-.448-1-1-1h-43c-.552 0-1 .449-1 1v15h2v-13.5c0-.276.224-.5.5-.5h40c.276 0 .5.224.5.5z" fill="#212a41"/><path d="m8 6h4v4h-4z" fill="#e0e0e0"/><path d="m12 10.5h-4c-.276 0-.5-.224-.5-.5v-4c0-.276.224-.5.5-.5h4c.276 0 .5.224.5.5v4c0 .276-.224.5-.5.5zm-3.5-1h3v-3h-3z" fill="#212a41"/><path d="m8 6h4v4h-4z" fill="#e0e0e0"/><path d="m12 10.5h-4c-.276 0-.5-.224-.5-.5v-4c0-.276.224-.5.5-.5h4c.276 0 .5.224.5.5v4c0 .276-.224.5-.5.5zm-3.5-1h3v-3h-3z" fill="#212a41"/><path d="m8 10h4v4h-4z" fill="#6c696f"/><path d="m12 14.5h-4c-.276 0-.5-.224-.5-.5v-4c0-.276.224-.5.5-.5h4c.276 0 .5.224.5.5v4c0 .276-.224.5-.5.5zm-3.5-1h3v-3h-3z" fill="#212a41"/><path d="m12 10h4v4h-4z" fill="#e0e0e0"/><path d="m16 14.5h-4c-.276 0-.5-.224-.5-.5v-4c0-.276.224-.5.5-.5h4c.276 0 .5.224.5.5v4c0 .276-.224.5-.5.5zm-3.5-1h3v-3h-3z" fill="#212a41"/><path d="m12 6h4v4h-4z" fill="#6c696f"/><path d="m16 10.5h-4c-.276 0-.5-.224-.5-.5v-4c0-.276.224-.5.5-.5h4c.276 0 .5.224.5.5v4c0 .276-.224.5-.5.5zm-3.5-1h3v-3h-3z" fill="#212a41"/><path d="m12 14h4v4h-4z" fill="#6c696f"/><path d="m16 18.5h-4c-.276 0-.5-.224-.5-.5v-4c0-.276.224-.5.5-.5h4c.276 0 .5.224.5.5v4c0 .276-.224.5-.5.5zm-3.5-1h3v-3h-3z" fill="#212a41"/><path d="m8 14h4v4h-4z" fill="#e0e0e0"/><path d="m12 18.5h-4c-.276 0-.5-.224-.5-.5v-4c0-.276.224-.5.5-.5h4c.276 0 .5.224.5.5v4c0 .276-.224.5-.5.5zm-3.5-1h3v-3h-3z" fill="#212a41"/><path d="m56 14h4v4h-4z" fill="#e0e0e0" transform="matrix(-1 0 0 -1 116 32)"/><path d="m60 18.5h-4c-.276 0-.5-.224-.5-.5v-4c0-.276.224-.5.5-.5h4c.276 0 .5.224.5.5v4c0 .276-.224.5-.5.5zm-3.5-1h3v-3h-3z" fill="#212a41"/><path d="m56 14h4v4h-4z" fill="#e0e0e0" transform="matrix(-1 0 0 -1 116 32)"/><path d="m60 18.5h-4c-.276 0-.5-.224-.5-.5v-4c0-.276.224-.5.5-.5h4c.276 0 .5.224.5.5v4c0 .276-.224.5-.5.5zm-3.5-1h3v-3h-3z" fill="#212a41"/><path d="m56 10h4v4h-4z" fill="#6c696f" transform="matrix(-1 0 0 -1 116 24)"/><path d="m60 14.5h-4c-.276 0-.5-.224-.5-.5v-4c0-.276.224-.5.5-.5h4c.276 0 .5.224.5.5v4c0 .276-.224.5-.5.5zm-3.5-1h3v-3h-3z" fill="#212a41"/><path d="m52 10h4v4h-4z" fill="#e0e0e0" transform="matrix(-1 0 0 -1 108 24)"/><path d="m56 14.5h-4c-.276 0-.5-.224-.5-.5v-4c0-.276.224-.5.5-.5h4c.276 0 .5.224.5.5v4c0 .276-.224.5-.5.5zm-3.5-1h3v-3h-3z" fill="#212a41"/><path d="m52 14h4v4h-4z" fill="#6c696f" transform="matrix(-1 0 0 -1 108 32)"/><path d="m56 18.5h-4c-.276 0-.5-.224-.5-.5v-4c0-.276.224-.5.5-.5h4c.276 0 .5.224.5.5v4c0 .276-.224.5-.5.5zm-3.5-1h3v-3h-3z" fill="#212a41"/><path d="m52 6h4v4h-4z" fill="#6c696f" transform="matrix(-1 0 0 -1 108 16)"/><path d="m56 10.5h-4c-.276 0-.5-.224-.5-.5v-4c0-.276.224-.5.5-.5h4c.276 0 .5.224.5.5v4c0 .276-.224.5-.5.5zm-3.5-1h3v-3h-3z" fill="#212a41"/><path d="m56 6h4v4h-4z" fill="#e0e0e0" transform="matrix(-1 0 0 -1 116 16)"/><path d="m60 10.5h-4c-.276 0-.5-.224-.5-.5v-4c0-.276.224-.5.5-.5h4c.276 0 .5.224.5.5v4c0 .276-.224.5-.5.5zm-3.5-1h3v-3h-3z" fill="#212a41"/><path d="m22 9h24v6h-24z" fill="#f9ac2f"/><path d="m46 15.5h-24c-.276 0-.5-.224-.5-.5v-6c0-.276.224-.5.5-.5h24c.276 0 .5.224.5.5v6c0 .276-.224.5-.5.5zm-23.5-1h23v-5h-23z" fill="#212a41"/><path d="m4 55h48v3h-48z" fill="#c2c2c2"/><path d="m52 58.5h-48c-.276 0-.5-.224-.5-.5v-3c0-.276.224-.5.5-.5h48c.276 0 .5.224.5.5v3c0 .276-.224.5-.5.5zm-47.5-1h47v-2h-47z" fill="#212a41"/><path d="m12 55h48v3h-48z" fill="#e0e0e0"/><path d="m60 58.5h-48c-.276 0-.5-.224-.5-.5v-3c0-.276.224-.5.5-.5h48c.276 0 .5.224.5.5v3c0 .276-.224.5-.5.5zm-47.5-1h47v-2h-47z" fill="#212a41"/></svg>