<svg id="Icon_Set" enable-background="new 0 0 64 64" height="512" viewBox="0 0 64 64" width="512" xmlns="http://www.w3.org/2000/svg"><path d="m4 54h38v6h-38z" fill="#4e4b51" transform="matrix(-1 0 0 -1 46 114)"/><path d="m42 60.5h-38c-.276 0-.5-.224-.5-.5v-6c0-.276.224-.5.5-.5h38c.276 0 .5.224.5.5v6c0 .276-.224.5-.5.5zm-37.5-1h37v-5h-37z" fill="#212a41"/><path d="m22 54h38v6h-38z" fill="#6c696f" transform="matrix(-1 0 0 -1 82 114)"/><path d="m60 60.5h-38c-.276 0-.5-.224-.5-.5v-6c0-.276.224-.5.5-.5h38c.276 0 .5.224.5.5v6c0 .276-.224.5-.5.5zm-37.5-1h37v-5h-37z" fill="#212a41"/><path d="m31 46h-3v8h3c.828 0 1.5-1.791 1.5-4s-.672-4-1.5-4z" fill="#6c696f"/><path d="m31 54.5h-3c-.276 0-.5-.224-.5-.5v-8c0-.276.224-.5.5-.5h3c1.313 0 2 2.264 2 4.5s-.687 4.5-2 4.5zm-2.5-1h2.5c.29 0 1-1.227 1-3.5s-.71-3.5-1-3.5h-2.5z" fill="#212a41"/><path d="m56.5 46h-3v8h3c.828 0 1.5-1.791 1.5-4s-.672-4-1.5-4z" fill="#6c696f"/><path d="m56.5 54.5h-3c-.276 0-.5-.224-.5-.5v-8c0-.276.224-.5.5-.5h3c1.313 0 2 2.264 2 4.5s-.687 4.5-2 4.5zm-2.5-1h2.5c.29 0 1-1.227 1-3.5s-.71-3.5-1-3.5h-2.5z" fill="#212a41"/><ellipse cx="53.5" cy="50" fill="#4e4b51" rx="1.5" ry="4"/><path d="m53.5 54.5c-1.313 0-2-2.264-2-4.5s.687-4.5 2-4.5 2 2.264 2 4.5-.687 4.5-2 4.5zm0-8c-.29 0-1 1.227-1 3.5s.71 3.5 1 3.5 1-1.227 1-3.5-.71-3.5-1-3.5z" fill="#212a41"/><path d="m42 46h-3v8h3c.828 0 1.5-1.791 1.5-4s-.672-4-1.5-4z" fill="#6c696f"/><path d="m42 54.5h-3c-.276 0-.5-.224-.5-.5v-8c0-.276.224-.5.5-.5h3c1.313 0 2 2.264 2 4.5s-.687 4.5-2 4.5zm-2.5-1h2.5c.29 0 1-1.227 1-3.5s-.71-3.5-1-3.5h-2.5z" fill="#212a41"/><path d="m34 40h-8l-1-3h9z" fill="#6c696f"/><path d="m34 40.5h-8c-.215 0-.406-.138-.475-.342l-1-3c-.051-.152-.025-.32.069-.45.094-.131.245-.208.406-.208h9c.276 0 .5.224.5.5v3c0 .276-.224.5-.5.5zm-7.64-1h7.14v-2h-7.807z" fill="#212a41"/><path d="m27 42h11.097l-3-6h-3.027c-.669 0-1.293.334-1.664.891z" fill="#c2c2c2"/><path d="m38.098 42.5h-11.098c-.185 0-.354-.102-.44-.264-.088-.163-.078-.36.024-.514l3.406-5.109c.465-.697 1.242-1.113 2.08-1.113h3.027c.189 0 .362.107.447.276l3 6c.077.155.069.339-.021.486-.091.148-.252.238-.425.238zm-10.163-1h9.354l-2.5-5h-2.719c-.503 0-.969.25-1.248.668z" fill="#212a41"/><path d="m44 44-5.903-2h-11.097c-1.105 0-2 .895-2 2v5c0 1.105.895 2 2 2h16c.552 0 1-.448 1-1z" fill="#b51040"/><path d="m43 51.5h-16c-1.379 0-2.5-1.121-2.5-2.5v-5c0-1.379 1.121-2.5 2.5-2.5h11.098c.055 0 .108.009.16.026l5.902 2c.203.069.34.26.34.474v6c0 .827-.673 1.5-1.5 1.5zm-16-9c-.827 0-1.5.673-1.5 1.5v5c0 .827.673 1.5 1.5 1.5h16c.275 0 .5-.225.5-.5v-5.642l-5.484-1.858z" fill="#212a41"/><path d="m42 49.5c-.276 0-.5-.224-.5-.5v-3.363c0-.276.224-.5.5-.5s.5.224.5.5v3.363c0 .276-.224.5-.5.5z" fill="#970022"/><path d="m53.097 42h-15l-3-6h12.93c.669 0 1.293.334 1.664.891z" fill="#e0e0e0"/><path d="m53.098 42.5h-15c-.189 0-.362-.107-.447-.276l-3-6c-.077-.155-.069-.339.021-.486.092-.147.253-.237.426-.237h12.93c.838 0 1.615.416 2.08 1.113l3.406 5.109c.103.153.112.351.024.514-.087.161-.256.263-.44.263zm-14.692-1h13.757l-2.888-4.332c-.279-.418-.745-.668-1.248-.668h-12.121z" fill="#212a41"/><path d="m38.097 42 5.224 1.77c.406.137.679.518.679.947v5.283c0 .552-.448 1-1 1h-1 18v-6.246c0-.446-.296-.839-.725-.962l-6.275-1.792z" fill="#d32e5e"/><path d="m60 51.5h-18c-.276 0-.5-.224-.5-.5s.224-.5.5-.5h1c.275 0 .5-.225.5-.5v-5.283c0-.215-.137-.405-.34-.474l-5.223-1.77c-.232-.078-.373-.313-.333-.555s.248-.419.493-.419h14.903c.047 0 .093.007.138.02l6.274 1.793c.64.182 1.088.774 1.088 1.441v6.247c0 .276-.224.5-.5.5zm-15.586-1h15.086v-5.746c0-.222-.149-.419-.362-.479l-6.208-1.775h-11.798l2.35.796c.609.207 1.019.778 1.019 1.421v5.283c-.001.175-.031.344-.087.5z" fill="#212a41"/><path d="m44 45h5v3h-5z" fill="#e0e0e0"/><path d="m49 48.5h-5c-.276 0-.5-.224-.5-.5v-3c0-.276.224-.5.5-.5h5c.276 0 .5.224.5.5v3c0 .276-.224.5-.5.5zm-4.5-1h4v-2h-4z" fill="#212a41"/><path d="m55 45h5v3h-5z" fill="#e0e0e0"/><path d="m60 48.5h-5c-.276 0-.5-.224-.5-.5v-3c0-.276.224-.5.5-.5h5c.276 0 .5.224.5.5v3c0 .276-.224.5-.5.5zm-4.5-1h4v-2h-4z" fill="#212a41"/><path d="m49 45h6v3h-6z" fill="#6c696f"/><path d="m55 48.5h-6c-.276 0-.5-.224-.5-.5v-3c0-.276.224-.5.5-.5h6c.276 0 .5.224.5.5v3c0 .276-.224.5-.5.5zm-5.5-1h5v-2h-5z" fill="#212a41"/><path d="m27 42.5c-.276 0-.5-.224-.5-.5v-2c0-.276.224-.5.5-.5s.5.224.5.5v2c0 .276-.224.5-.5.5z" fill="#212a41"/><ellipse cx="39" cy="50" fill="#4e4b51" rx="1.5" ry="4"/><path d="m39 54.5c-1.313 0-2-2.264-2-4.5s.687-4.5 2-4.5 2 2.264 2 4.5-.687 4.5-2 4.5zm0-8c-.29 0-1 1.227-1 3.5s.71 3.5 1 3.5 1-1.227 1-3.5-.71-3.5-1-3.5z" fill="#212a41"/><ellipse cx="28" cy="50" fill="#4e4b51" rx="1.5" ry="4"/><path d="m28 54.5c-1.313 0-2-2.264-2-4.5s.687-4.5 2-4.5 2 2.264 2 4.5-.687 4.5-2 4.5zm0-8c-.29 0-1 1.227-1 3.5s.71 3.5 1 3.5 1-1.227 1-3.5-.71-3.5-1-3.5z" fill="#212a41"/><path d="m10 46h-3v8h3c.828 0 1.5-1.791 1.5-4s-.672-4-1.5-4z" fill="#6c696f"/><path d="m10 54.5h-3c-.276 0-.5-.224-.5-.5v-8c0-.276.224-.5.5-.5h3c1.313 0 2 2.264 2 4.5s-.687 4.5-2 4.5zm-2.5-1h2.5c.29 0 1-1.227 1-3.5s-.71-3.5-1-3.5h-2.5z" fill="#212a41"/><path d="m35.5 46h-3v8h3c.828 0 1.5-1.791 1.5-4s-.672-4-1.5-4z" fill="#6c696f"/><path d="m35.5 54.5h-3c-.276 0-.5-.224-.5-.5v-8c0-.276.224-.5.5-.5h3c1.313 0 2 2.264 2 4.5s-.687 4.5-2 4.5zm-2.5-1h2.5c.29 0 1-1.227 1-3.5s-.71-3.5-1-3.5h-2.5z" fill="#212a41"/><ellipse cx="32.5" cy="50" fill="#4e4b51" rx="1.5" ry="4"/><path d="m32.5 54.5c-1.313 0-2-2.264-2-4.5s.687-4.5 2-4.5 2 2.264 2 4.5-.687 4.5-2 4.5zm0-8c-.29 0-1 1.227-1 3.5s.71 3.5 1 3.5 1-1.227 1-3.5-.71-3.5-1-3.5z" fill="#212a41"/><path d="m21 46h-3v8h3c.828 0 1.5-1.791 1.5-4s-.672-4-1.5-4z" fill="#6c696f"/><path d="m21 54.5h-3c-.276 0-.5-.224-.5-.5v-8c0-.276.224-.5.5-.5h3c1.313 0 2 2.264 2 4.5s-.687 4.5-2 4.5zm-2.5-1h2.5c.29 0 1-1.227 1-3.5s-.71-3.5-1-3.5h-2.5z" fill="#212a41"/><path d="m13 40h-8l-1-3h9z" fill="#6c696f"/><path d="m13 40.5h-8c-.215 0-.406-.138-.475-.342l-1-3c-.051-.152-.025-.32.069-.45.094-.131.245-.208.406-.208h9c.276 0 .5.224.5.5v3c0 .276-.224.5-.5.5zm-7.64-1h7.14v-2h-7.807z" fill="#212a41"/><path d="m6 42h11.097l-3-6h-3.027c-.669 0-1.293.334-1.664.891z" fill="#c2c2c2"/><path d="m17.098 42.5h-11.098c-.185 0-.354-.102-.44-.264-.088-.163-.078-.36.024-.514l3.406-5.109c.465-.697 1.242-1.113 2.08-1.113h3.027c.189 0 .362.107.447.276l3 6c.077.155.069.339-.021.486-.091.148-.252.238-.425.238zm-10.163-1h9.354l-2.5-5h-2.719c-.503 0-.969.25-1.248.668z" fill="#212a41"/><path d="m23 44-5.903-2h-11.097c-1.105 0-2 .895-2 2v5c0 1.105.895 2 2 2h16c.552 0 1-.448 1-1z" fill="#db8e11"/><path d="m22 51.5h-16c-1.379 0-2.5-1.121-2.5-2.5v-5c0-1.379 1.121-2.5 2.5-2.5h11.098c.055 0 .108.009.16.026l5.902 2c.203.069.34.26.34.474v6c0 .827-.673 1.5-1.5 1.5zm-16-9c-.827 0-1.5.673-1.5 1.5v5c0 .827.673 1.5 1.5 1.5h16c.275 0 .5-.225.5-.5v-5.642l-5.484-1.858z" fill="#212a41"/><path d="m21 49.5c-.276 0-.5-.224-.5-.5v-3.363c0-.276.224-.5.5-.5s.5.224.5.5v3.363c0 .276-.224.5-.5.5z" fill="#bd7000"/><path d="m32.097 42h-15l-3-6h12.93c.669 0 1.293.334 1.664.891z" fill="#e0e0e0"/><path d="m32.098 42.5h-15c-.189 0-.362-.107-.447-.276l-3-6c-.077-.155-.069-.339.021-.486.092-.147.253-.237.426-.237h12.93c.838 0 1.615.416 2.08 1.113l3.406 5.109c.103.153.112.351.024.514-.087.161-.256.263-.44.263zm-14.692-1h13.757l-2.888-4.332c-.279-.418-.745-.668-1.248-.668h-12.121z" fill="#212a41"/><path d="m17.097 42 5.224 1.77c.406.137.679.518.679.947v5.283c0 .552-.448 1-1 1h-1 18v-6.246c0-.446-.296-.839-.725-.962l-6.275-1.792z" fill="#f9ac2f"/><path d="m39 51.5h-18c-.276 0-.5-.224-.5-.5s.224-.5.5-.5h1c.275 0 .5-.225.5-.5v-5.283c0-.215-.137-.405-.34-.474l-5.223-1.77c-.232-.078-.373-.313-.333-.555s.248-.419.493-.419h14.903c.047 0 .093.007.138.02l6.274 1.793c.64.182 1.088.774 1.088 1.441v6.247c0 .276-.224.5-.5.5zm-15.586-1h15.086v-5.746c0-.222-.149-.419-.362-.479l-6.208-1.775h-11.798l2.35.796c.609.207 1.019.778 1.019 1.421v5.283c-.001.175-.031.344-.087.5z" fill="#212a41"/><path d="m23 45h5v3h-5z" fill="#e0e0e0"/><path d="m28 48.5h-5c-.276 0-.5-.224-.5-.5v-3c0-.276.224-.5.5-.5h5c.276 0 .5.224.5.5v3c0 .276-.224.5-.5.5zm-4.5-1h4v-2h-4z" fill="#212a41"/><path d="m34 45h5v3h-5z" fill="#e0e0e0"/><path d="m39 48.5h-5c-.276 0-.5-.224-.5-.5v-3c0-.276.224-.5.5-.5h5c.276 0 .5.224.5.5v3c0 .276-.224.5-.5.5zm-4.5-1h4v-2h-4z" fill="#212a41"/><path d="m28 45h6v3h-6z" fill="#6c696f"/><path d="m34 48.5h-6c-.276 0-.5-.224-.5-.5v-3c0-.276.224-.5.5-.5h6c.276 0 .5.224.5.5v3c0 .276-.224.5-.5.5zm-5.5-1h5v-2h-5z" fill="#212a41"/><path d="m6 42.5c-.276 0-.5-.224-.5-.5v-2c0-.276.224-.5.5-.5s.5.224.5.5v2c0 .276-.224.5-.5.5z" fill="#212a41"/><ellipse cx="18" cy="50" fill="#4e4b51" rx="1.5" ry="4"/><path d="m18 54.5c-1.313 0-2-2.264-2-4.5s.687-4.5 2-4.5 2 2.264 2 4.5-.687 4.5-2 4.5zm0-8c-.29 0-1 1.227-1 3.5s.71 3.5 1 3.5 1-1.227 1-3.5-.71-3.5-1-3.5z" fill="#212a41"/><ellipse cx="7" cy="50" fill="#4e4b51" rx="1.5" ry="4"/><path d="m7 54.5c-1.313 0-2-2.264-2-4.5s.687-4.5 2-4.5 2 2.264 2 4.5-.687 4.5-2 4.5zm0-8c-.29 0-1 1.227-1 3.5s.71 3.5 1 3.5 1-1.227 1-3.5-.71-3.5-1-3.5z" fill="#212a41"/><path d="m39 10h-18c-.552 0-1-.448-1-1v-4c0-.552.448-1 1-1h18c.552 0 1 .448 1 1v4c0 .552-.448 1-1 1z" fill="#4e4b51"/><path d="m39 10.5h-18c-.827 0-1.5-.673-1.5-1.5v-4c0-.827.673-1.5 1.5-1.5h18c.827 0 1.5.673 1.5 1.5v4c0 .827-.673 1.5-1.5 1.5zm-18-6c-.275 0-.5.225-.5.5v4c0 .275.225.5.5.5h18c.275 0 .5-.225.5-.5v-4c0-.275-.225-.5-.5-.5z" fill="#212a41"/><path d="m7 10h46v12h-46z" fill="#c2c2c2"/><path d="m53 22.5h-46c-.276 0-.5-.224-.5-.5v-12c0-.276.224-.5.5-.5h46c.276 0 .5.224.5.5v12c0 .276-.224.5-.5.5zm-45.5-1h45v-11h-45z" fill="#212a41"/><path d="m10 10h47v12h-47z" fill="#e0e0e0"/><g fill="#212a41"><path d="m57 22.5h-47c-.276 0-.5-.224-.5-.5v-12c0-.276.224-.5.5-.5h47c.276 0 .5.224.5.5v12c0 .276-.224.5-.5.5zm-46.5-1h46v-11h-46z"/><path d="m33 19.479c-.276 0-.5-.224-.5-.5v-6c0-.221.145-.415.355-.479.212-.064.438.019.561.201l1.583 2.374 1.584-2.388c.122-.185.35-.269.562-.202.211.063.355.258.355.479v6c0 .276-.224.5-.5.5s-.5-.224-.5-.5v-4.342l-1.083 1.633c-.093.14-.249.224-.416.224-.001 0-.001 0-.001 0-.167 0-.323-.084-.416-.223l-1.084-1.625v4.349c0 .276-.224.499-.5.499z"/><path d="m15 19.479c-.013 0-.025-.001-.039-.002-.229-.018-.416-.189-.454-.416l-1-6c-.046-.272.139-.53.411-.575.266-.046.529.138.575.411l.669 4.011 1.363-4.102c.137-.407.812-.409.949 0l1.363 4.09.669-4.014c.046-.273.309-.462.575-.411.272.045.457.303.411.575l-1 6c-.038.227-.225.398-.454.416-.22.02-.441-.122-.514-.34l-1.524-4.575-1.526 4.59c-.068.206-.26.342-.474.342z"/><path d="m31 19.479c-.161 0-.319-.078-.416-.223l-2-3c-.103-.153-.112-.351-.024-.514.087-.162.256-.264.44-.264h1c.275 0 .5-.225.5-.5v-1c0-.275-.225-.5-.5-.5h-2.5v5.5c0 .276-.224.5-.5.5s-.5-.224-.5-.5v-6c0-.276.224-.5.5-.5h3c.827 0 1.5.673 1.5 1.5v1c0 .827-.673 1.5-1.5 1.5h-.065l1.481 2.223c.153.229.091.54-.139.693-.085.058-.181.085-.277.085z"/><path d="m49 19.479c-.276 0-.5-.224-.5-.5v-6c0-.276.224-.5.5-.5h3c.827 0 1.5.673 1.5 1.5v1c0 .827-.673 1.5-1.5 1.5h-1c-.276 0-.5-.224-.5-.5s.224-.5.5-.5h1c.275 0 .5-.225.5-.5v-1c0-.275-.225-.5-.5-.5h-2.5v5.5c0 .277-.224.5-.5.5z"/><path d="m25 19.479c-.209 0-.404-.133-.475-.342l-1.525-4.576-1.525 4.577c-.088.262-.37.405-.633.316-.262-.088-.403-.371-.316-.633l2-6c.137-.408.812-.408.949 0l2 6c.087.262-.055.545-.316.633-.054.018-.106.025-.159.025z"/></g><path d="m43 10h-18c-.552 0-1-.448-1-1v-4c0-.552.448-1 1-1h18c.552 0 1 .448 1 1v4c0 .552-.448 1-1 1z" fill="#6c696f"/><path d="m43 10.5h-18c-.827 0-1.5-.673-1.5-1.5v-4c0-.827.673-1.5 1.5-1.5h18c.827 0 1.5.673 1.5 1.5v4c0 .827-.673 1.5-1.5 1.5zm-18-6c-.275 0-.5.225-.5.5v4c0 .275.225.5.5.5h18c.275 0 .5-.225.5-.5v-4c0-.275-.225-.5-.5-.5z" fill="#212a41"/><circle cx="29" cy="7.031" fill="#bed38e" r="2"/><path d="m29 9.531c-1.379 0-2.5-1.121-2.5-2.5s1.121-2.5 2.5-2.5 2.5 1.121 2.5 2.5-1.121 2.5-2.5 2.5zm0-4c-.827 0-1.5.673-1.5 1.5s.673 1.5 1.5 1.5 1.5-.673 1.5-1.5-.673-1.5-1.5-1.5z" fill="#212a41"/><circle cx="34" cy="7.031" fill="#bed38e" r="2"/><path d="m34 9.531c-1.379 0-2.5-1.121-2.5-2.5s1.121-2.5 2.5-2.5 2.5 1.121 2.5 2.5-1.121 2.5-2.5 2.5zm0-4c-.827 0-1.5.673-1.5 1.5s.673 1.5 1.5 1.5 1.5-.673 1.5-1.5-.673-1.5-1.5-1.5z" fill="#212a41"/><circle cx="39" cy="7.031" fill="#bed38e" r="2"/><path d="m39 9.531c-1.379 0-2.5-1.121-2.5-2.5s1.121-2.5 2.5-2.5 2.5 1.121 2.5 2.5-1.121 2.5-2.5 2.5zm0-4c-.827 0-1.5.673-1.5 1.5s.673 1.5 1.5 1.5 1.5-.673 1.5-1.5-.673-1.5-1.5-1.5z" fill="#212a41"/><path d="m12 20.5c-.276 0-.5-.224-.5-.5v-8c0-.276.224-.5.5-.5s.5.224.5.5v8c0 .276-.224.5-.5.5z" fill="#fefefe"/><path d="m12 20.5c-.276 0-.5-.224-.5-.5v-8c0-.276.224-.5.5-.5s.5.224.5.5v8c0 .276-.224.5-.5.5z" fill="#fefefe"/><path d="m55 20.5c-.276 0-.5-.224-.5-.5v-8c0-.276.224-.5.5-.5s.5.224.5.5v8c0 .276-.224.5-.5.5z" fill="#c2c2c2"/><path d="m45 19.479c-1.379 0-2.5-1.121-2.5-2.5v-4.015c0-.276.224-.5.5-.5s.5.224.5.5v4.015c0 .827.673 1.5 1.5 1.5s1.5-.673 1.5-1.5v-4.015c0-.276.224-.5.5-.5s.5.224.5.5v4.015c0 1.379-1.121 2.5-2.5 2.5z" fill="#212a41"/><path d="m41 16.479h-2c-.276 0-.5-.224-.5-.5s.224-.5.5-.5h2c.276 0 .5.224.5.5s-.224.5-.5.5z" fill="#212a41"/></svg>