<svg id="Icon_Set" enable-background="new 0 0 64 64" height="512" viewBox="0 0 64 64" width="512" xmlns="http://www.w3.org/2000/svg"><path d="m20 19h5v-3h-5c-.275 0-.5-.224-.5-.5v-6c0-.276.225-.5.5-.5h4v-3h-4c-1.93 0-3.5 1.57-3.5 3.5v6c0 1.93 1.57 3.5 3.5 3.5z" fill="#f9ac2f"/><path d="m25 19.5h-5c-2.206 0-4-1.794-4-4v-6c0-2.206 1.794-4 4-4h4c.276 0 .5.224.5.5v3c0 .276-.224.5-.5.5h-4v6h5c.276 0 .5.224.5.5v3c0 .276-.224.5-.5.5zm-5-13c-1.654 0-3 1.346-3 3v6c0 1.654 1.346 3 3 3h4.5v-2h-4.5c-.551 0-1-.449-1-1v-6c0-.551.449-1 1-1h3.5v-2z" fill="#212a41"/><path d="m44 19h-5v-3h5c.275 0 .5-.224.5-.5v-6c0-.276-.225-.5-.5-.5h-4v-3h4c1.93 0 3.5 1.57 3.5 3.5v6c0 1.93-1.57 3.5-3.5 3.5z" fill="#f9ac2f"/><path d="m44 19.5h-5c-.276 0-.5-.224-.5-.5v-3c0-.276.224-.5.5-.5h5v-6h-4c-.276 0-.5-.224-.5-.5v-3c0-.276.224-.5.5-.5h4c2.206 0 4 1.794 4 4v6c0 2.206-1.794 4-4 4zm-4.5-1h4.5c1.654 0 3-1.346 3-3v-6c0-1.654-1.346-3-3-3h-3.5v2h3.5c.552 0 1 .449 1 1v6c0 .551-.448 1-1 1h-4.5z" fill="#212a41"/><path d="m38 44h15v16h-15z" fill="#db8e11"/><path d="m53 60.5h-15c-.276 0-.5-.224-.5-.5v-16c0-.276.224-.5.5-.5h15c.276 0 .5.224.5.5v16c0 .276-.224.5-.5.5zm-14.5-1h14v-15h-14z" fill="#212a41"/><path d="m59 60h-14c-.552 0-1-.448-1-1v-14c0-.552.448-1 1-1h14c.552 0 1 .448 1 1v14c0 .552-.448 1-1 1z" fill="#b7c0d7"/><path d="m59 60.5h-14c-.827 0-1.5-.673-1.5-1.5v-14c0-.827.673-1.5 1.5-1.5h14c.827 0 1.5.673 1.5 1.5v14c0 .827-.673 1.5-1.5 1.5zm-14-16c-.275 0-.5.224-.5.5v14c0 .276.225.5.5.5h14c.275 0 .5-.224.5-.5v-14c0-.276-.225-.5-.5-.5z" fill="#212a41"/><path d="m37 60h-16c-.552 0-1-.448-1-1v-24c0-.552.448-1 1-1h16c.552 0 1 .448 1 1v24c0 .552-.448 1-1 1z" fill="#005b8a"/><path d="m37 60.5h-16c-.827 0-1.5-.673-1.5-1.5v-24c0-.827.673-1.5 1.5-1.5h16c.827 0 1.5.673 1.5 1.5v24c0 .827-.673 1.5-1.5 1.5zm-16-26c-.276 0-.5.224-.5.5v24c0 .276.224.5.5.5h16c.275 0 .5-.224.5-.5v-24c0-.276-.225-.5-.5-.5z" fill="#212a41"/><path d="m43 60h-16c-.552 0-1-.448-1-1v-24c0-.552.448-1 1-1h16c.552 0 1 .448 1 1v24c0 .552-.448 1-1 1z" fill="#0079a8"/><path d="m43 60.5h-16c-.827 0-1.5-.673-1.5-1.5v-24c0-.827.673-1.5 1.5-1.5h16c.827 0 1.5.673 1.5 1.5v24c0 .827-.673 1.5-1.5 1.5zm-16-26c-.276 0-.5.224-.5.5v24c0 .276.224.5.5.5h16c.275 0 .5-.224.5-.5v-24c0-.276-.225-.5-.5-.5z" fill="#212a41"/><path d="m19 60h-14c-.552 0-1-.448-1-1v-14c0-.552.448-1 1-1h14c.552 0 1 .448 1 1v14c0 .552-.448 1-1 1z" fill="#99a2b9"/><path d="m19 60.5h-14c-.827 0-1.5-.673-1.5-1.5v-14c0-.827.673-1.5 1.5-1.5h14c.827 0 1.5.673 1.5 1.5v14c0 .827-.673 1.5-1.5 1.5zm-14-16c-.276 0-.5.224-.5.5v14c0 .276.224.5.5.5h14c.276 0 .5-.224.5-.5v-14c0-.276-.224-.5-.5-.5z" fill="#212a41"/><path d="m25 60h-14c-.552 0-1-.448-1-1v-14c0-.552.448-1 1-1h14c.552 0 1 .448 1 1v14c0 .552-.448 1-1 1z" fill="#b7c0d7"/><path d="m25 60.5h-14c-.827 0-1.5-.673-1.5-1.5v-14c0-.827.673-1.5 1.5-1.5h14c.827 0 1.5.673 1.5 1.5v14c0 .827-.673 1.5-1.5 1.5zm-14-16c-.276 0-.5.224-.5.5v14c0 .276.224.5.5.5h14c.276 0 .5-.224.5-.5v-14c0-.276-.224-.5-.5-.5z" fill="#212a41"/><path d="m34 22h-4c-3.314 0-6-2.686-6-6v-12h16v12c0 3.314-2.686 6-6 6z" fill="#f9ac2f"/><path d="m34 22.5h-4c-3.584 0-6.5-2.916-6.5-6.5v-12c0-.276.224-.5.5-.5h16c.276 0 .5.224.5.5v12c0 3.584-2.916 6.5-6.5 6.5zm-9.5-18v11.5c0 3.033 2.467 5.5 5.5 5.5h4c3.032 0 5.5-2.467 5.5-5.5v-11.5z" fill="#212a41"/><path d="m38 16.5c-.276 0-.5-.224-.5-.5v-10c0-.276.224-.5.5-.5s.5.224.5.5v10c0 .276-.224.5-.5.5z" fill="#db8e11"/><path d="m26 16.5c-.276 0-.5-.224-.5-.5v-10c0-.276.224-.5.5-.5s.5.224.5.5v10c0 .276-.224.5-.5.5z" fill="#ffca4d"/><path d="m36 30h-8l2-8h4z" fill="#f9ac2f"/><path d="m36 30.5h-8c-.154 0-.299-.071-.394-.192s-.128-.279-.091-.429l2-8c.056-.223.256-.379.485-.379h4c.229 0 .43.156.485.379l2 8c.037.149.004.308-.091.429-.094.121-.24.192-.394.192zm-7.359-1h6.719l-1.75-7h-3.219z" fill="#212a41"/><path d="m39 34h-14c-.552 0-1-.448-1-1v-2c0-.552.448-1 1-1h14c.552 0 1 .448 1 1v2c0 .552-.448 1-1 1z" fill="#f9ac2f"/><path d="m39 34.5h-14c-.827 0-1.5-.673-1.5-1.5v-2c0-.827.673-1.5 1.5-1.5h14c.827 0 1.5.673 1.5 1.5v2c0 .827-.673 1.5-1.5 1.5zm-14-4c-.276 0-.5.224-.5.5v2c0 .276.224.5.5.5h14c.275 0 .5-.224.5-.5v-2c0-.276-.225-.5-.5-.5z" fill="#212a41"/><path d="m58 58.5c-.276 0-.5-.224-.5-.5v-12c0-.276.224-.5.5-.5s.5.224.5.5v12c0 .276-.224.5-.5.5z" fill="#99a2b9"/><path d="m24 58.5c-.276 0-.5-.224-.5-.5v-12c0-.276.224-.5.5-.5s.5.224.5.5v12c0 .276-.224.5-.5.5z" fill="#99a2b9"/><path d="m12 58.5c-.276 0-.5-.224-.5-.5v-12c0-.276.224-.5.5-.5s.5.224.5.5v12c0 .276-.224.5-.5.5z" fill="#d5def5"/><path d="m46 58.5c-.276 0-.5-.224-.5-.5v-12c0-.276.224-.5.5-.5s.5.224.5.5v12c0 .276-.224.5-.5.5z" fill="#d5def5"/><g fill="#212a41"><path d="m35 51.5c-.276 0-.5-.224-.5-.5v-7.5h-1.5c-.276 0-.5-.224-.5-.5s.224-.5.5-.5h2c.276 0 .5.224.5.5v8c0 .276-.224.5-.5.5z"/><path d="m37 51.5h-4c-.276 0-.5-.224-.5-.5s.224-.5.5-.5h4c.276 0 .5.224.5.5s-.224.5-.5.5z"/><path d="m20 55.5h-3c-.827 0-1.5-.673-1.5-1.5v-1c0-.827.673-1.5 1.5-1.5h2c.276 0 .5-.224.5-.5v-1c0-.276-.224-.5-.5-.5h-3c-.276 0-.5-.224-.5-.5s.224-.5.5-.5h3c.827 0 1.5.673 1.5 1.5v1c0 .827-.673 1.5-1.5 1.5h-2c-.276 0-.5.224-.5.5v1c0 .276.224.5.5.5h3c.276 0 .5.224.5.5s-.224.5-.5.5z"/><path d="m53 55.5h-3c-.276 0-.5-.224-.5-.5s.224-.5.5-.5h3c.275 0 .5-.224.5-.5v-4c0-.276-.225-.5-.5-.5h-3c-.276 0-.5-.224-.5-.5s.224-.5.5-.5h3c.827 0 1.5.673 1.5 1.5v4c0 .827-.673 1.5-1.5 1.5z"/><path d="m54 52.5h-4c-.276 0-.5-.224-.5-.5s.224-.5.5-.5h4c.276 0 .5.224.5.5s-.224.5-.5.5z"/></g><path d="m42 58.5c-.276 0-.5-.224-.5-.5v-22c0-.276.224-.5.5-.5s.5.224.5.5v22c0 .276-.224.5-.5.5z" fill="#005b8a"/><path d="m28 58.5c-.276 0-.5-.224-.5-.5v-22c0-.276.224-.5.5-.5s.5.224.5.5v22c0 .276-.224.5-.5.5z" fill="#1e97c6"/><path d="m52 34-1.5-4.5-4.5-1.5 4.5-1.5 1.5-4.5 1.5 4.5 4.5 1.5-4.5 1.5z" fill="#e0e0e0"/><path d="m52 34.5c-.215 0-.406-.138-.475-.342l-1.421-4.263-4.263-1.421c-.203-.068-.341-.259-.341-.474s.138-.406.342-.474l4.263-1.421 1.421-4.263c.137-.408.812-.408.949 0l1.421 4.263 4.263 1.421c.203.068.341.259.341.474s-.138.406-.342.474l-4.263 1.421-1.421 4.263c-.068.204-.259.342-.474.342zm-4.419-6.5 3.077 1.026c.149.049.267.167.316.316l1.026 3.077 1.025-3.077c.05-.149.167-.267.316-.316l3.078-1.026-3.077-1.026c-.149-.049-.267-.167-.316-.316l-1.026-3.077-1.025 3.077c-.05.149-.167.267-.316.316z" fill="#212a41"/><path d="m12 34-1.5-4.5-4.5-1.5 4.5-1.5 1.5-4.5 1.5 4.5 4.5 1.5-4.5 1.5z" fill="#e0e0e0"/><path d="m12 34.5c-.215 0-.406-.138-.474-.342l-1.421-4.263-4.263-1.421c-.204-.068-.342-.259-.342-.474s.138-.406.342-.474l4.263-1.421 1.421-4.263c.136-.408.812-.408.948 0l1.421 4.263 4.263 1.421c.204.068.342.259.342.474s-.138.406-.342.474l-4.263 1.421-1.421 4.263c-.068.204-.259.342-.474.342zm-4.419-6.5 3.077 1.026c.149.049.267.167.316.316l1.026 3.077 1.026-3.077c.049-.149.167-.267.316-.316l3.077-1.026-3.077-1.026c-.149-.049-.267-.167-.316-.316l-1.026-3.077-1.026 3.077c-.049.149-.167.267-.316.316z" fill="#212a41"/></svg>