<svg id="Icon_Set" enable-background="new 0 0 64 64" height="512" viewBox="0 0 64 64" width="512" xmlns="http://www.w3.org/2000/svg"><path d="m44 22h-10c-2.209 0-4-1.791-4-4v-7c0-.552.448-1 1-1h16c.552 0 1 .448 1 1v7c0 2.209-1.791 4-4 4z" fill="#4e4b51"/><path d="m44 22.5h-10c-2.481 0-4.5-2.019-4.5-4.5v-7c0-.827.673-1.5 1.5-1.5h16c.827 0 1.5.673 1.5 1.5v7c0 2.481-2.019 4.5-4.5 4.5zm-13-12c-.276 0-.5.224-.5.5v7c0 1.93 1.57 3.5 3.5 3.5h10c1.93 0 3.5-1.57 3.5-3.5v-7c0-.276-.225-.5-.5-.5z" fill="#212a41"/><path d="m35 22h12v4h-12z" fill="#c2c2c2"/><path d="m47 26.5h-12c-.276 0-.5-.224-.5-.5v-4c0-.276.224-.5.5-.5h12c.276 0 .5.224.5.5v4c0 .276-.224.5-.5.5zm-11.5-1h11v-3h-11z" fill="#212a41"/><path d="m52 54h-40c-4.418 0-8-3.582-8-8v-12c0-4.418 3.582-8 8-8h40c4.418 0 8 3.582 8 8v12c0 4.418-3.582 8-8 8z" fill="#e0e0e0"/><path d="m52 54.5h-40c-4.687 0-8.5-3.813-8.5-8.5v-12c0-4.687 3.813-8.5 8.5-8.5h40c4.687 0 8.5 3.813 8.5 8.5v12c0 4.687-3.813 8.5-8.5 8.5zm-40-28c-4.136 0-7.5 3.364-7.5 7.5v12c0 4.136 3.364 7.5 7.5 7.5h40c4.136 0 7.5-3.364 7.5-7.5v-12c0-4.136-3.364-7.5-7.5-7.5z" fill="#212a41"/><path d="m52 22h-10c-2.209 0-4-1.791-4-4v-7c0-.552.448-1 1-1h16c.552 0 1 .448 1 1v7c0 2.209-1.791 4-4 4z" fill="#6c696f"/><path d="m52 22.5h-10c-2.481 0-4.5-2.019-4.5-4.5v-7c0-.827.673-1.5 1.5-1.5h16c.827 0 1.5.673 1.5 1.5v7c0 2.481-2.019 4.5-4.5 4.5zm-13-12c-.275 0-.5.224-.5.5v7c0 1.93 1.57 3.5 3.5 3.5h10c1.93 0 3.5-1.57 3.5-3.5v-7c0-.276-.225-.5-.5-.5z" fill="#212a41"/><path d="m39 22h12v4h-12z" fill="#e0e0e0"/><path d="m51 26.5h-12c-.276 0-.5-.224-.5-.5v-4c0-.276.224-.5.5-.5h12c.276 0 .5.224.5.5v4c0 .276-.224.5-.5.5zm-11.5-1h11v-3h-11z" fill="#212a41"/><path d="m26 54h-6c-4.418 0-8-3.582-8-8v-12c0-4.418 3.582-8 8-8h6c4.418 0 8 3.582 8 8v12c0 4.418-3.582 8-8 8z" fill="#6c696f"/><path d="m26 54.5h-6c-4.687 0-8.5-3.813-8.5-8.5v-12c0-4.687 3.813-8.5 8.5-8.5h6c4.687 0 8.5 3.813 8.5 8.5v12c0 4.687-3.813 8.5-8.5 8.5zm-6-28c-4.136 0-7.5 3.364-7.5 7.5v12c0 4.136 3.364 7.5 7.5 7.5h6c4.136 0 7.5-3.364 7.5-7.5v-12c0-4.136-3.364-7.5-7.5-7.5z" fill="#212a41"/><path d="m16 54h-4c-4.418 0-8-3.582-8-8v-12c0-4.418 3.582-8 8-8h4c4.418 0 8 3.582 8 8v12c0 4.418-3.582 8-8 8z" fill="#4e4b51"/><path d="m16 54.5h-4c-4.687 0-8.5-3.813-8.5-8.5v-12c0-4.687 3.813-8.5 8.5-8.5h4c4.687 0 8.5 3.813 8.5 8.5v12c0 4.687-3.813 8.5-8.5 8.5zm-4-28c-4.136 0-7.5 3.364-7.5 7.5v12c0 4.136 3.364 7.5 7.5 7.5h4c4.136 0 7.5-3.364 7.5-7.5v-12c0-4.136-3.364-7.5-7.5-7.5z" fill="#212a41"/><path d="m6 46.5c-.276 0-.5-.224-.5-.5v-12c0-.276.224-.5.5-.5s.5.224.5.5v12c0 .276-.224.5-.5.5z" fill="#6c696f"/><path d="m22 46.5c-.276 0-.5-.224-.5-.5v-12c0-.276.224-.5.5-.5s.5.224.5.5v12c0 .276-.224.5-.5.5z" fill="#302d33"/><path d="m26 46.5c-.276 0-.5-.224-.5-.5v-12c0-.276.224-.5.5-.5s.5.224.5.5v12c0 .276-.224.5-.5.5z" fill="#8a878d"/><path d="m58 46.5c-.276 0-.5-.224-.5-.5v-12c0-.276.224-.5.5-.5s.5.224.5.5v12c0 .276-.224.5-.5.5z" fill="#c2c2c2"/><path d="m24 13c0-3.866-3.134-7-7-7s-7 3.134-7 7c0 3.17 2.109 5.845 5 6.706v6.294h4v-6.294c2.891-.861 5-3.536 5-6.706z" fill="#4e4b51"/><path d="m19 26.5h-4c-.276 0-.5-.224-.5-.5v-5.931c-2.962-1.049-5-3.903-5-7.069 0-4.136 3.364-7.5 7.5-7.5s7.5 3.364 7.5 7.5c0 3.166-2.038 6.02-5 7.069v5.931c0 .276-.224.5-.5.5zm-3.5-1h3v-5.794c0-.221.146-.416.357-.479 2.734-.814 4.643-3.375 4.643-6.227 0-3.584-2.916-6.5-6.5-6.5s-6.5 2.916-6.5 6.5c0 2.852 1.909 5.413 4.643 6.227.212.063.357.258.357.479z" fill="#212a41"/><path d="m27 13c0-3.866-3.134-7-7-7s-7 3.134-7 7c0 3.17 2.109 5.845 5 6.706v6.294h4v-6.294c2.891-.861 5-3.536 5-6.706z" fill="#6c696f"/><path d="m22 26.5h-4c-.276 0-.5-.224-.5-.5v-5.931c-2.962-1.049-5-3.903-5-7.069 0-4.136 3.364-7.5 7.5-7.5s7.5 3.364 7.5 7.5c0 3.166-2.038 6.02-5 7.069v5.931c0 .276-.224.5-.5.5zm-3.5-1h3v-5.794c0-.221.146-.416.357-.479 2.734-.814 4.643-3.375 4.643-6.227 0-3.584-2.916-6.5-6.5-6.5s-6.5 2.916-6.5 6.5c0 2.852 1.909 5.413 4.643 6.227.212.063.357.258.357.479z" fill="#212a41"/><circle cx="20" cy="13" fill="#e0e0e0" r="7"/><path d="m20 20.5c-4.136 0-7.5-3.364-7.5-7.5s3.364-7.5 7.5-7.5 7.5 3.364 7.5 7.5-3.364 7.5-7.5 7.5zm0-14c-3.584 0-6.5 2.916-6.5 6.5s2.916 6.5 6.5 6.5 6.5-2.916 6.5-6.5-2.916-6.5-6.5-6.5z" fill="#212a41"/><path d="m20 13.5c-.162 0-.32-.078-.417-.223l-2-3c-.153-.23-.091-.54.139-.693.23-.154.54-.091.693.139l2 3c.153.23.091.54-.139.693-.084.057-.18.084-.276.084z" fill="#212a41"/><path d="m42 58h-32l1-4h32z" fill="#c2c2c2"/><path d="m42 58.5h-32c-.154 0-.299-.071-.394-.192s-.128-.279-.091-.429l1-4c.056-.223.256-.379.485-.379h32c.154 0 .3.071.395.192s.128.279.091.429l-1 4c-.056.223-.257.379-.486.379zm-31.359-1h30.969l.75-3h-30.969z" fill="#212a41"/><path d="m53 58h-33l-1-4h33z" fill="#e0e0e0"/><path d="m53 58.5h-33c-.229 0-.429-.156-.485-.379l-1-4c-.038-.149-.004-.308.091-.429s.24-.192.394-.192h33c.229 0 .43.156.485.379l1 4c.037.149.004.308-.091.429-.094.121-.24.192-.394.192zm-32.609-1h31.969l-.75-3h-31.969z" fill="#212a41"/><path d="m48 32h8v3h-8z" fill="#b7c0d7"/><path d="m56 35.5h-8c-.276 0-.5-.224-.5-.5v-3c0-.276.224-.5.5-.5h8c.276 0 .5.224.5.5v3c0 .276-.224.5-.5.5zm-7.5-1h7v-2h-7z" fill="#212a41"/><path d="m48 38h8v3h-8z" fill="#b7c0d7"/><path d="m56 41.5h-8c-.276 0-.5-.224-.5-.5v-3c0-.276.224-.5.5-.5h8c.276 0 .5.224.5.5v3c0 .276-.224.5-.5.5zm-7.5-1h7v-2h-7z" fill="#212a41"/><path d="m48 44h8v3h-8z" fill="#b7c0d7"/><g fill="#212a41"><path d="m56 47.5h-8c-.276 0-.5-.224-.5-.5v-3c0-.276.224-.5.5-.5h8c.276 0 .5.224.5.5v3c0 .276-.224.5-.5.5zm-7.5-1h7v-2h-7z"/><path d="m58.5 50.5h-53c-.276 0-.5-.224-.5-.5s.224-.5.5-.5h53c.276 0 .5.224.5.5s-.224.5-.5.5z"/><path d="m58.5 30.5h-53c-.276 0-.5-.224-.5-.5s.224-.5.5-.5h53c.276 0 .5.224.5.5s-.224.5-.5.5z"/></g><path d="m54 18.5c-.276 0-.5-.224-.5-.5v-6c0-.276.224-.5.5-.5s.5.224.5.5v6c0 .276-.224.5-.5.5z" fill="#4e4b51"/><path d="m40 18.5c-.276 0-.5-.224-.5-.5v-6c0-.276.224-.5.5-.5s.5.224.5.5v6c0 .276-.224.5-.5.5z" fill="#8a878d"/><path d="m32 18.5c-.276 0-.5-.224-.5-.5v-6c0-.276.224-.5.5-.5s.5.224.5.5v6c0 .276-.224.5-.5.5z" fill="#6c696f"/><path d="m56 18.5h-26c-.276 0-.5-.224-.5-.5s.224-.5.5-.5h26c.276 0 .5.224.5.5s-.224.5-.5.5z" fill="#212a41"/><path d="m56 14.5h-26c-.276 0-.5-.224-.5-.5s.224-.5.5-.5h26c.276 0 .5.224.5.5s-.224.5-.5.5z" fill="#212a41"/></svg>