<svg id="Icon_Set" enable-background="new 0 0 64 64" height="512" viewBox="0 0 64 64" width="512" xmlns="http://www.w3.org/2000/svg"><path d="m34.161 20.004c-1.73-.09-3.161 1.286-3.161 2.996v-2.83c0-1.624-1.216-3.081-2.839-3.166-1.73-.09-3.161 1.286-3.161 2.996v-3.83c0-1.624-1.216-3.081-2.839-3.166-1.73-.09-3.161 1.286-3.161 2.996v4c0-1.71-1.431-3.086-3.161-2.996-1.623.085-2.839 1.541-2.839 3.166v17.102l-2.758-2.758c-1.149-1.149-3.038-1.318-4.246-.231-1.287 1.159-1.326 3.144-.117 4.354l7.121 7.12v12.243c0 .552.448 1 1 1h22c.552 0 1-.448 1-1v-34.83c0-1.625-1.217-3.081-2.839-3.166z" fill="#4e4b51"/><path d="m36 59.5h-22c-.827 0-1.5-.673-1.5-1.5v-12.036l-6.975-6.974c-.686-.686-1.049-1.597-1.024-2.567.025-.969.437-1.861 1.16-2.512 1.359-1.224 3.573-1.112 4.934.249l1.905 1.905v-15.895c0-1.925 1.486-3.569 3.312-3.665.977-.041 1.893.289 2.596.956.031.03.062.06.091.09v-1.551c0-.97.388-1.872 1.091-2.54.703-.667 1.63-.994 2.596-.956 1.827.096 3.312 1.74 3.312 3.665v1.38c.03-.03.06-.06.091-.09.704-.667 1.629-.998 2.596-.956 1.827.096 3.312 1.74 3.312 3.665v.38c.03-.03.06-.06.091-.089.703-.667 1.632-.997 2.597-.956 1.826.096 3.312 1.74 3.312 3.665v34.832c.003.827-.67 1.5-1.497 1.5zm-28.058-25.444c-.59 0-1.167.197-1.612.598-.517.465-.811 1.103-.829 1.795-.018.693.242 1.344.731 1.834l7.121 7.121c.094.094.146.221.146.354v12.242c0 .276.224.5.5.5h22c.275 0 .5-.224.5-.5v-34.83c0-1.402-1.061-2.598-2.365-2.666-.687-.037-1.353.205-1.856.682-.502.477-.778 1.121-.778 1.814 0 .276-.224.5-.5.5s-.5-.224-.5-.5v-2.83c0-1.402-1.061-2.598-2.365-2.666-.686-.039-1.353.206-1.855.682-.504.477-.78 1.121-.78 1.814 0 .276-.224.5-.5.5s-.5-.224-.5-.5v-3.83c0-1.402-1.061-2.598-2.365-2.666-.691-.035-1.353.205-1.855.682s-.78 1.121-.78 1.814v4c0 .276-.224.5-.5.5s-.5-.224-.5-.5c0-.693-.277-1.337-.779-1.814s-1.163-.721-1.855-.682c-1.304.068-2.365 1.264-2.365 2.666v17.102c0 .202-.122.385-.309.462-.186.078-.401.035-.545-.108l-2.758-2.758c-.538-.537-1.251-.812-1.947-.812z" fill="#212a41"/><path d="m35 57.5c-.276 0-.5-.224-.5-.5v-33.83c0-.276.224-.5.5-.5s.5.224.5.5v33.83c0 .276-.224.5-.5.5z" fill="#302d33"/><path d="m15 57.5c-.276 0-.5-.224-.5-.5v-11.243c0-.395-.16-.781-.439-1.061l-7.121-7.121c-.195-.195-.195-.512 0-.707s.512-.195.707 0l7.121 7.121c.472.472.732 1.1.732 1.768v11.243c0 .276-.224.5-.5.5zm0-19.729c-.276 0-.5-.224-.5-.5v-17.101c0-.276.224-.5.5-.5s.5.224.5.5v17.102c0 .276-.224.499-.5.499z" fill="#6c696f"/><g fill="#212a41"><path d="m19 34.5c-.276 0-.5-.224-.5-.5v-14c0-.276.224-.5.5-.5s.5.224.5.5v14c0 .276-.224.5-.5.5z"/><path d="m25 34.5c-.276 0-.5-.224-.5-.5v-14c0-.276.224-.5.5-.5s.5.224.5.5v14c0 .276-.224.5-.5.5z"/><path d="m31 34.5c-.276 0-.5-.224-.5-.5v-11c0-.276.224-.5.5-.5s.5.224.5.5v11c0 .276-.224.5-.5.5z"/><path d="m37 53.5h-24c-.276 0-.5-.224-.5-.5s.224-.5.5-.5h24c.276 0 .5.224.5.5s-.224.5-.5.5z"/><path d="m37 34.5h-24c-.276 0-.5-.224-.5-.5s.224-.5.5-.5h24c.276 0 .5.224.5.5s-.224.5-.5.5z"/><path d="m37 28.5h-24c-.276 0-.5-.224-.5-.5s.224-.5.5-.5h24c.276 0 .5.224.5.5s-.224.5-.5.5z"/></g><path d="m56.161 12.004c-1.73-.09-3.161 1.286-3.161 2.996v-2.83c0-1.624-1.216-3.081-2.839-3.166-1.73-.09-3.161 1.286-3.161 2.996v-3.83c0-1.624-1.216-3.081-2.839-3.166-1.73-.09-3.161 1.286-3.161 2.996v4c0-1.71-1.431-3.086-3.161-2.996-1.623.085-2.839 1.541-2.839 3.166v17.102l-2.758-2.758c-1.149-1.149-3.038-1.318-4.246-.231-1.287 1.159-1.326 3.144-.117 4.354l7.121 7.12v12.243c0 .552.448 1 1 1h22c.552 0 1-.448 1-1v-34.83c0-1.625-1.217-3.081-2.839-3.166z" fill="#6c696f"/><path d="m58 51.5h-22c-.827 0-1.5-.673-1.5-1.5v-12.036l-6.975-6.974c-.686-.686-1.049-1.597-1.024-2.567.025-.969.437-1.861 1.16-2.512 1.359-1.224 3.572-1.112 4.934.249l1.905 1.905v-15.895c0-1.925 1.485-3.569 3.312-3.665.977-.049 1.895.29 2.598.956.03.029.062.06.091.09v-1.551c0-.97.388-1.872 1.091-2.54.703-.667 1.629-1.003 2.597-.956 1.825.097 3.311 1.741 3.311 3.666v1.38c.029-.03.061-.061.091-.09.703-.667 1.634-1.003 2.597-.956 1.826.096 3.312 1.74 3.312 3.665v.38c.029-.03.061-.061.091-.09.704-.667 1.63-.997 2.597-.956 1.826.096 3.312 1.74 3.312 3.665v34.832c0 .827-.673 1.5-1.5 1.5zm-28.058-25.444c-.59 0-1.167.197-1.612.598-.517.465-.811 1.103-.829 1.795-.018.693.242 1.344.731 1.834l7.121 7.121c.094.094.146.221.146.354v12.242c0 .276.225.5.5.5h22c.275 0 .5-.224.5-.5v-34.83c0-1.402-1.061-2.598-2.365-2.666-.69-.039-1.354.205-1.855.682-.503.477-.779 1.121-.779 1.814 0 .276-.224.5-.5.5s-.5-.224-.5-.5v-2.83c0-1.402-1.061-2.598-2.365-2.666-.675-.039-1.354.205-1.855.682-.504.477-.78 1.121-.78 1.814 0 .276-.224.5-.5.5s-.5-.224-.5-.5v-3.83c0-1.402-1.061-2.598-2.365-2.666-.675-.036-1.354.205-1.855.682-.504.477-.78 1.121-.78 1.814v4c0 .276-.224.5-.5.5s-.5-.224-.5-.5c0-.692-.276-1.336-.779-1.813s-1.166-.719-1.856-.683c-1.304.068-2.365 1.264-2.365 2.666v17.102c0 .202-.122.385-.309.462-.186.078-.401.035-.545-.108l-2.759-2.758c-.536-.537-1.249-.812-1.945-.812z" fill="#212a41"/><path d="m57 49.5c-.276 0-.5-.224-.5-.5v-33.83c0-.276.224-.5.5-.5s.5.224.5.5v33.83c0 .276-.224.5-.5.5z" fill="#4e4b51"/><path d="m37 49.5c-.276 0-.5-.224-.5-.5v-11.243c0-.395-.16-.781-.439-1.061l-7.121-7.121c-.195-.195-.195-.512 0-.707s.512-.195.707 0l7.121 7.121c.473.472.732 1.1.732 1.768v11.243c0 .276-.224.5-.5.5zm0-19.729c-.276 0-.5-.224-.5-.5v-17.101c0-.276.224-.5.5-.5s.5.224.5.5v17.102c0 .276-.224.499-.5.499z" fill="#8a878d"/><path d="m59 45.5h-24c-.276 0-.5-.224-.5-.5s.224-.5.5-.5h24c.276 0 .5.224.5.5s-.224.5-.5.5z" fill="#212a41"/><path d="m51 42h-8c-2.209 0-4-1.791-4-4v-2c0-2.209 1.791-4 4-4h8c2.209 0 4 1.791 4 4v2c0 2.209-1.791 4-4 4z" fill="#0079a8"/><path d="m51 42.5h-8c-2.481 0-4.5-2.019-4.5-4.5v-2c0-2.481 2.019-4.5 4.5-4.5h8c2.481 0 4.5 2.019 4.5 4.5v2c0 2.481-2.019 4.5-4.5 4.5zm-8-10c-1.93 0-3.5 1.57-3.5 3.5v2c0 1.93 1.57 3.5 3.5 3.5h8c1.93 0 3.5-1.57 3.5-3.5v-2c0-1.93-1.57-3.5-3.5-3.5z" fill="#212a41"/><path d="m51 40.5c-.276 0-.5-.224-.5-.5s.224-.5.5-.5c.827 0 1.5-.673 1.5-1.5v-2c0-.827-.673-1.5-1.5-1.5-.276 0-.5-.224-.5-.5s.224-.5.5-.5c1.379 0 2.5 1.122 2.5 2.5v2c0 1.378-1.121 2.5-2.5 2.5z" fill="#005b8a"/><path d="m43 40.5c-1.379 0-2.5-1.122-2.5-2.5v-2c0-1.378 1.121-2.5 2.5-2.5.276 0 .5.224.5.5s-.224.5-.5.5c-.827 0-1.5.673-1.5 1.5v2c0 .827.673 1.5 1.5 1.5.276 0 .5.224.5.5s-.224.5-.5.5z" fill="#1e97c6"/><path d="m35 20h24v6h-24z" fill="#0079a8"/><path d="m59 26.5h-24c-.276 0-.5-.224-.5-.5v-6c0-.276.224-.5.5-.5h24c.276 0 .5.224.5.5v6c0 .276-.224.5-.5.5zm-23.5-1h23v-5h-23z" fill="#212a41"/><path d="m41 26.5c-.276 0-.5-.224-.5-.5v-14c0-.276.224-.5.5-.5s.5.224.5.5v14c0 .276-.224.5-.5.5z" fill="#212a41"/><path d="m47 26.5c-.276 0-.5-.224-.5-.5v-14c0-.276.224-.5.5-.5s.5.224.5.5v14c0 .276-.224.5-.5.5z" fill="#212a41"/><path d="m53 26.5c-.276 0-.5-.224-.5-.5v-11c0-.276.224-.5.5-.5s.5.224.5.5v11c0 .276-.224.5-.5.5z" fill="#212a41"/><path d="m21 53.5c-.276 0-.5-.224-.5-.5v-6.343c0-.935-.364-1.813-1.025-2.475l-2.829-2.829c-.195-.195-.195-.512 0-.707s.512-.195.707 0l2.829 2.829c.85.85 1.318 1.979 1.318 3.182v6.343c0 .276-.224.5-.5.5z" fill="#212a41"/></svg>