<svg id="Icon_Set" enable-background="new 0 0 64 64" height="512" viewBox="0 0 64 64" width="512" xmlns="http://www.w3.org/2000/svg"><path d="m4 38v-30c0-2.209 1.791-4 4-4h44c2.209 0 4 1.791 4 4v30c0 2.209-1.791 4-4 4h-44c-2.209 0-4-1.791-4-4z" fill="#99a2b9"/><path d="m52 42.5h-44c-2.481 0-4.5-2.019-4.5-4.5v-30c0-2.481 2.019-4.5 4.5-4.5h44c2.481 0 4.5 2.019 4.5 4.5v30c0 2.481-2.019 4.5-4.5 4.5zm-44-38c-1.93 0-3.5 1.57-3.5 3.5v30c0 1.93 1.57 3.5 3.5 3.5h44c1.93 0 3.5-1.57 3.5-3.5v-30c0-1.93-1.57-3.5-3.5-3.5z" fill="#212a41"/><path d="m8 38v-30c0-2.209 1.791-4 4-4h44c2.209 0 4 1.791 4 4v30c0 2.209-1.791 4-4 4h-44c-2.209 0-4-1.791-4-4z" fill="#b7c0d7"/><path d="m56 42.5h-44c-2.481 0-4.5-2.019-4.5-4.5v-30c0-2.481 2.019-4.5 4.5-4.5h44c2.481 0 4.5 2.019 4.5 4.5v30c0 2.481-2.019 4.5-4.5 4.5zm-44-38c-1.93 0-3.5 1.57-3.5 3.5v30c0 1.93 1.57 3.5 3.5 3.5h44c1.93 0 3.5-1.57 3.5-3.5v-30c0-1.93-1.57-3.5-3.5-3.5z" fill="#212a41"/><path d="m12 8h44v30h-44z" fill="#e0e0e0"/><path d="m56 38.5h-44c-.276 0-.5-.224-.5-.5v-30c0-.276.224-.5.5-.5h44c.276 0 .5.224.5.5v30c0 .276-.224.5-.5.5zm-43.5-1h43v-29h-43z" fill="#212a41"/><path d="m12 26h44v12h-44z" fill="#bed38e"/><g fill="#212a41"><path d="m39 16.5h-10c-.827 0-1.5-.673-1.5-1.5v-3c0-.827.673-1.5 1.5-1.5h10c.827 0 1.5.673 1.5 1.5v3c0 .827-.673 1.5-1.5 1.5zm-10-5c-.276 0-.5.225-.5.5v3c0 .275.224.5.5.5h10c.276 0 .5-.225.5-.5v-3c0-.275-.224-.5-.5-.5z"/><path d="m51.715 11.841h-4c-.276 0-.5-.224-.5-.5s.224-.5.5-.5h4c.276 0 .5.224.5.5s-.224.5-.5.5z"/><path d="m51.715 14.841h-4c-.276 0-.5-.224-.5-.5s.224-.5.5-.5h4c.276 0 .5.224.5.5s-.224.5-.5.5z"/></g><path d="m36 26h-4l-20 12h44z" fill="#6c696f"/><path d="m56 38.5h-44c-.225 0-.422-.15-.482-.366-.06-.217.032-.447.225-.562l20-12c.077-.048.166-.072.257-.072h4c.091 0 .18.024.257.071l20 12c.193.115.285.346.225.562-.06.217-.257.367-.482.367zm-42.195-1h40.39l-18.333-11h-3.723z" fill="#212a41"/><path d="m54 26.5c-.276 0-.5-.224-.5-.5v-16c0-.276.224-.5.5-.5s.5.224.5.5v16c0 .276-.224.5-.5.5z" fill="#c2c2c2"/><path d="m14 26.5c-.276 0-.5-.224-.5-.5v-16c0-.276.224-.5.5-.5s.5.224.5.5v16c0 .276-.224.5-.5.5z" fill="#fefefe"/><path d="m53 46h-4c-1.105 0-2-.895-2-2v-2c0-1.105.895-2 2-2h4c1.105 0 2 .895 2 2v2c0 1.105-.895 2-2 2z" fill="#0079a8"/><path d="m53 46.5h-4c-1.378 0-2.5-1.121-2.5-2.5v-2c0-1.379 1.122-2.5 2.5-2.5h4c1.378 0 2.5 1.121 2.5 2.5v2c0 1.379-1.122 2.5-2.5 2.5zm-4-6c-.827 0-1.5.673-1.5 1.5v2c0 .827.673 1.5 1.5 1.5h4c.827 0 1.5-.673 1.5-1.5v-2c0-.827-.673-1.5-1.5-1.5z" fill="#212a41"/><path d="m14 34.5c-.276 0-.5-.224-.5-.5v-8c0-.276.224-.5.5-.5s.5.224.5.5v8c0 .276-.224.5-.5.5z" fill="#dcf1ac"/><path d="m54 34.5c-.276 0-.5-.224-.5-.5v-8c0-.276.224-.5.5-.5s.5.224.5.5v8c0 .276-.224.5-.5.5z" fill="#a0b570"/><path d="m56 38.5h-44c-.276 0-.5-.224-.5-.5v-12c0-.276.224-.5.5-.5h44c.276 0 .5.224.5.5v12c0 .276-.224.5-.5.5zm-43.5-1h43v-11h-43z" fill="#212a41"/><path d="m4 48h46v12h-46z" fill="#99a2b9"/><path d="m50 60.5h-46c-.276 0-.5-.224-.5-.5v-12c0-.276.224-.5.5-.5h46c.276 0 .5.224.5.5v12c0 .276-.224.5-.5.5zm-45.5-1h45v-11h-45z" fill="#212a41"/><path d="m60 60h-46v-6l-3-6h46l3 6z" fill="#b7c0d7"/><path d="m60 60.5h-46c-.276 0-.5-.224-.5-.5v-5.882l-2.947-5.895c-.078-.155-.069-.339.022-.486s.252-.237.425-.237h46c.189 0 .362.107.447.276l3 6c.035.07.053.147.053.224v6c0 .276-.224.5-.5.5zm-45.5-1h45v-5.382l-2.809-5.618h-44.882l2.638 5.276c.035.07.053.147.053.224z" fill="#212a41"/><path d="m27 31c-6.627 0-12 5.373-12 12s5.373 12 12 12 12-5.373 12-12-5.373-12-12-12zm0 21c-4.971 0-9-4.03-9-9 0-4.971 4.029-9 9-9s9 4.029 9 9c0 4.97-4.029 9-9 9z" fill="#b51040"/><path d="m27 55.5c-6.893 0-12.5-5.607-12.5-12.5s5.607-12.5 12.5-12.5 12.5 5.607 12.5 12.5-5.607 12.5-12.5 12.5zm0-24c-6.341 0-11.5 5.159-11.5 11.5s5.159 11.5 11.5 11.5 11.5-5.159 11.5-11.5-5.159-11.5-11.5-11.5zm0 21c-5.238 0-9.5-4.262-9.5-9.5s4.262-9.5 9.5-9.5 9.5 4.262 9.5 9.5-4.262 9.5-9.5 9.5zm0-18c-4.687 0-8.5 3.813-8.5 8.5s3.813 8.5 8.5 8.5 8.5-3.813 8.5-8.5-3.813-8.5-8.5-8.5z" fill="#212a41"/><path d="m30 31c-6.627 0-12 5.373-12 12s5.373 12 12 12 12-5.373 12-12-5.373-12-12-12zm0 21c-4.971 0-9-4.03-9-9 0-4.971 4.029-9 9-9s9 4.029 9 9c0 4.97-4.029 9-9 9z" fill="#d32e5e"/><path d="m30 55.5c-6.893 0-12.5-5.607-12.5-12.5s5.607-12.5 12.5-12.5 12.5 5.607 12.5 12.5-5.607 12.5-12.5 12.5zm0-24c-6.341 0-11.5 5.159-11.5 11.5s5.159 11.5 11.5 11.5 11.5-5.159 11.5-11.5-5.159-11.5-11.5-11.5zm0 21c-5.238 0-9.5-4.262-9.5-9.5s4.262-9.5 9.5-9.5 9.5 4.262 9.5 9.5-4.262 9.5-9.5 9.5zm0-18c-4.687 0-8.5 3.813-8.5 8.5s3.813 8.5 8.5 8.5 8.5-3.813 8.5-8.5-3.813-8.5-8.5-8.5z" fill="#212a41"/><path d="m38.769 41h-17.538c-.147.644-.231 1.312-.231 2 0 .43.04.849.099 1.262l5.901.738.745 6.704c.722.186 1.475.296 2.255.296s1.533-.11 2.255-.296l.745-6.704 5.901-.738c.059-.413.099-.832.099-1.262 0-.688-.084-1.356-.231-2z" fill="#6c696f"/><path d="m30 52.5c-.78 0-1.582-.105-2.38-.312-.201-.053-.349-.223-.372-.429l-.701-6.312-5.51-.688c-.224-.028-.402-.203-.433-.427-.071-.503-.104-.927-.104-1.332 0-.689.082-1.399.243-2.11.052-.228.254-.39.488-.39h17.539c.233 0 .436.162.488.39.16.711.242 1.421.242 2.11 0 .405-.033.829-.104 1.332-.031.224-.209.398-.433.427l-5.51.688-.701 6.312c-.023.206-.171.376-.372.429-.798.207-1.6.312-2.38.312zm-1.797-1.201c1.212.268 2.382.268 3.594 0l.706-6.354c.026-.229.206-.412.435-.44l5.515-.689c.032-.296.047-.562.047-.816 0-.489-.046-.993-.139-1.5h-16.722c-.093.507-.139 1.011-.139 1.5 0 .254.015.52.047.814l5.515.689c.229.028.409.211.435.44z" fill="#212a41"/><circle cx="30" cy="42.107" fill="#6c696f" r="4"/><path d="m30 46.607c-2.481 0-4.5-2.019-4.5-4.5s2.019-4.5 4.5-4.5 4.5 2.019 4.5 4.5-2.019 4.5-4.5 4.5zm0-8c-1.93 0-3.5 1.57-3.5 3.5s1.57 3.5 3.5 3.5 3.5-1.57 3.5-3.5-1.57-3.5-3.5-3.5z" fill="#212a41"/><path d="m56 55h-8l-2-4h8z" fill="#6c696f"/><path d="m56 55.5h-8c-.189 0-.362-.107-.447-.276l-2-4c-.078-.155-.069-.339.022-.486s.252-.238.425-.238h8c.189 0 .362.107.447.276l2 4c.078.155.069.339-.022.486s-.252.238-.425.238zm-7.691-1h6.882l-1.5-3h-6.882z" fill="#212a41"/><path d="m49.5 46h3v7h-3z" fill="#0079a8"/><path d="m52.5 53.5h-3c-.276 0-.5-.224-.5-.5v-7c0-.276.224-.5.5-.5h3c.276 0 .5.224.5.5v7c0 .276-.224.5-.5.5zm-2.5-1h2v-6h-2z" fill="#212a41"/><path d="m34 11.5c-.276 0-.5-.224-.5-.5v-3c0-.276.224-.5.5-.5s.5.224.5.5v3c0 .276-.224.5-.5.5z" fill="#212a41"/><path d="m6 58.5c-.276 0-.5-.224-.5-.5v-8c0-.276.224-.5.5-.5s.5.224.5.5v8c0 .276-.224.5-.5.5z" fill="#b7c0d7"/><path d="m60 57.5h-46c-.276 0-.5-.224-.5-.5s.224-.5.5-.5h46c.276 0 .5.224.5.5s-.224.5-.5.5z" fill="#212a41"/></svg>