<svg id="Icon_Set" enable-background="new 0 0 64 64" height="512" viewBox="0 0 64 64" width="512" xmlns="http://www.w3.org/2000/svg"><path d="m50 25h-4c-.552 0-1-.448-1-1v-2c0-.552.448-1 1-1h4c.552 0 1 .448 1 1v2c0 .552-.448 1-1 1z" fill="#6c696f"/><path d="m50 25.5h-4c-.827 0-1.5-.673-1.5-1.5v-2c0-.827.673-1.5 1.5-1.5h4c.827 0 1.5.673 1.5 1.5v2c0 .827-.673 1.5-1.5 1.5zm-4-4c-.276 0-.5.224-.5.5v2c0 .276.224.5.5.5h4c.276 0 .5-.224.5-.5v-2c0-.276-.224-.5-.5-.5z" fill="#212a41"/><path d="m52 30h-5v16h5c2.209 0 4-3.582 4-8s-1.791-8-4-8z" fill="#6c696f"/><path d="m52 46.5h-5c-.276 0-.5-.224-.5-.5v-16c0-.276.224-.5.5-.5h5c2.523 0 4.5 3.733 4.5 8.5s-1.977 8.5-4.5 8.5zm-4.5-1h4.5c1.897 0 3.5-3.435 3.5-7.5s-1.603-7.5-3.5-7.5h-4.5z" fill="#212a41"/><ellipse cx="47" cy="38" fill="#4e4b51" rx="4" ry="8"/><path d="m47 46.5c-2.523 0-4.5-3.733-4.5-8.5s1.977-8.5 4.5-8.5 4.5 3.733 4.5 8.5-1.977 8.5-4.5 8.5zm0-16c-1.897 0-3.5 3.435-3.5 7.5s1.603 7.5 3.5 7.5 3.5-3.435 3.5-7.5-1.603-7.5-3.5-7.5z" fill="#212a41"/><ellipse cx="47" cy="38" fill="#848483" rx="1.5" ry="4"/><path d="m47 42.5c-1.313 0-2-2.264-2-4.5s.687-4.5 2-4.5 2 2.264 2 4.5-.687 4.5-2 4.5zm0-8c-.29 0-1 1.227-1 3.5s.71 3.5 1 3.5 1-1.227 1-3.5-.71-3.5-1-3.5z" fill="#212a41"/><path d="m18 30h-5v16h5c2.209 0 4-3.582 4-8s-1.791-8-4-8z" fill="#6c696f"/><path d="m18 46.5h-5c-.276 0-.5-.224-.5-.5v-16c0-.276.224-.5.5-.5h5c2.523 0 4.5 3.733 4.5 8.5s-1.977 8.5-4.5 8.5zm-4.5-1h4.5c1.897 0 3.5-3.435 3.5-7.5s-1.603-7.5-3.5-7.5h-4.5z" fill="#212a41"/><path d="m13 23 12.549 3.586c.859.245 1.451 1.03 1.451 1.923v3.491h32v-3.491c0-.893-.592-1.678-1.451-1.923l-12.549-3.586z" fill="#e0e0e0"/><path d="m59 32.5h-32c-.276 0-.5-.224-.5-.5v-3.491c0-.666-.447-1.259-1.088-1.442l-12.549-3.585c-.24-.069-.393-.303-.358-.55s.245-.432.495-.432h32c.046 0 .093.006.137.019l12.549 3.585c1.068.306 1.813 1.294 1.813 2.404v3.492c.001.276-.223.5-.499.5zm-31.5-1h31v-2.991c0-.666-.447-1.259-1.088-1.442l-12.482-3.567h-28.36l9.116 2.604c1.068.306 1.813 1.294 1.813 2.404v2.992z" fill="#212a41"/><path d="m4 13h27.552c.936 0 1.842.328 2.561.927l10.887 9.073h-32z" fill="#b7c0d7"/><path d="m45 23.5h-32c-.142 0-.277-.06-.372-.166l-9-10c-.132-.147-.166-.357-.085-.538.081-.18.26-.296.457-.296h27.552c1.051 0 2.074.371 2.881 1.043l10.888 9.073c.162.135.222.356.15.555-.073.197-.261.329-.471.329zm-31.777-1h30.396l-9.827-8.188c-.627-.523-1.423-.812-2.24-.812h-26.429z" fill="#212a41"/><path d="m4 32h31v9h-31z" fill="#c2c2c2"/><path d="m35 41.5h-31c-.276 0-.5-.224-.5-.5v-9c0-.276.224-.5.5-.5h31c.276 0 .5.224.5.5v9c0 .276-.224.5-.5.5zm-30.5-1h30v-8h-30z" fill="#212a41"/><path d="m4 23v9h23v-3.491c0-.893-.592-1.678-1.451-1.923l-12.549-3.586z" fill="#c2c2c2"/><path d="m27 32.5h-23c-.276 0-.5-.224-.5-.5v-9c0-.276.224-.5.5-.5h9c.046 0 .093.006.137.019l12.549 3.585c1.068.306 1.813 1.294 1.813 2.404v3.492c.001.276-.223.5-.499.5zm-22.5-1h22v-2.991c0-.666-.447-1.259-1.088-1.442l-12.482-3.567h-8.43z" fill="#212a41"/><ellipse cx="13" cy="38" fill="#4e4b51" rx="4" ry="8"/><path d="m13 46.5c-2.523 0-4.5-3.733-4.5-8.5s1.977-8.5 4.5-8.5 4.5 3.733 4.5 8.5-1.977 8.5-4.5 8.5zm0-16c-1.897 0-3.5 3.435-3.5 7.5s1.603 7.5 3.5 7.5 3.5-3.435 3.5-7.5-1.603-7.5-3.5-7.5z" fill="#212a41"/><ellipse cx="13" cy="38" fill="#848483" rx="1.5" ry="4"/><path d="m13 42.5c-1.313 0-2-2.264-2-4.5s.687-4.5 2-4.5 2 2.264 2 4.5-.687 4.5-2 4.5zm0-8c-.29 0-1 1.227-1 3.5s.71 3.5 1 3.5 1-1.227 1-3.5-.71-3.5-1-3.5z" fill="#212a41"/><path d="m59 32h-32c-.552 0-1 .448-1 1v7c0 .552.448 1 1 1h32c.552 0 1-.448 1-1v-7c0-.552-.448-1-1-1z" fill="#e0e0e0"/><path d="m59 41.5h-32c-.827 0-1.5-.673-1.5-1.5v-7c0-.827.673-1.5 1.5-1.5h32c.827 0 1.5.673 1.5 1.5v7c0 .827-.673 1.5-1.5 1.5zm-32-9c-.276 0-.5.224-.5.5v7c0 .276.224.5.5.5h32c.276 0 .5-.224.5-.5v-7c0-.276-.224-.5-.5-.5z" fill="#212a41"/><path d="m4 13 9 10h-9z" fill="#99a2b9"/><path d="m13 23.5h-9c-.276 0-.5-.224-.5-.5v-10c0-.207.127-.393.321-.467s.412-.022.551.132l9 10c.132.147.166.357.085.538s-.26.297-.457.297zm-8.5-1h7.377l-7.377-8.197z" fill="#212a41"/><path d="m43 9c0 1.105.895 2 2 2h8c1.105 0 2-.895 2-2 0-1.105-.895-2-2-2h-1.042c0-1.657-1.343-3-3-3s-3 1.343-3 3h-.958c-1.105 0-2 .895-2 2z" fill="#99a2b9"/><path d="m53 11.5h-8c-1.378 0-2.5-1.122-2.5-2.5s1.122-2.5 2.5-2.5h.494c.243-1.694 1.704-3 3.464-3s3.221 1.306 3.464 3h.578c1.378 0 2.5 1.122 2.5 2.5s-1.122 2.5-2.5 2.5zm-8-4c-.827 0-1.5.673-1.5 1.5s.673 1.5 1.5 1.5h8c.827 0 1.5-.673 1.5-1.5s-.673-1.5-1.5-1.5h-1.042c-.276 0-.5-.224-.5-.5 0-1.378-1.122-2.5-2.5-2.5s-2.5 1.122-2.5 2.5c0 .276-.224.5-.5.5z" fill="#212a41"/><path d="m56.958 7c0-1.657-1.343-3-3-3s-3 1.343-3 3h-.958c-1.105 0-2 .895-2 2 0 1.105.895 2 2 2h8c1.105 0 2-.895 2-2 0-1.105-.895-2-2-2z" fill="#b7c0d7"/><path d="m58 11.5h-8c-1.378 0-2.5-1.122-2.5-2.5s1.122-2.5 2.5-2.5h.494c.243-1.694 1.704-3 3.464-3s3.221 1.306 3.464 3h.578c1.378 0 2.5 1.122 2.5 2.5s-1.122 2.5-2.5 2.5zm-8-4c-.827 0-1.5.673-1.5 1.5s.673 1.5 1.5 1.5h8c.827 0 1.5-.673 1.5-1.5s-.673-1.5-1.5-1.5h-1.042c-.276 0-.5-.224-.5-.5 0-1.378-1.122-2.5-2.5-2.5s-2.5 1.122-2.5 2.5c0 .276-.224.5-.5.5zm7.458-.5h.01z" fill="#212a41"/><path d="m28 39.5c-.276 0-.5-.224-.5-.5v-5c0-.276.224-.5.5-.5s.5.224.5.5v5c0 .276-.224.5-.5.5z" fill="#fefefe"/><path d="m24 39.5c-.276 0-.5-.224-.5-.5v-5c0-.276.224-.5.5-.5s.5.224.5.5v5c0 .276-.224.5-.5.5z" fill="#a4a4a4"/><path d="m58 39.5c-.276 0-.5-.224-.5-.5v-5c0-.276.224-.5.5-.5s.5.224.5.5v5c0 .276-.224.5-.5.5z" fill="#c2c2c2"/><path d="m6 30.5c-.276 0-.5-.224-.5-.5v-5c0-.276.224-.5.5-.5s.5.224.5.5v5c0 .276-.224.5-.5.5z" fill="#e0e0e0"/><path d="m6 39.5c-.276 0-.5-.224-.5-.5v-5c0-.276.224-.5.5-.5s.5.224.5.5v5c0 .276-.224.5-.5.5z" fill="#e0e0e0"/><path d="m9 25h-4c-.552 0-1-.448-1-1v-2c0-.552.448-1 1-1h4c.552 0 1 .448 1 1v2c0 .552-.448 1-1 1z" fill="#6c696f"/><path d="m9 25.5h-4c-.827 0-1.5-.673-1.5-1.5v-2c0-.827.673-1.5 1.5-1.5h4c.827 0 1.5.673 1.5 1.5v2c0 .827-.673 1.5-1.5 1.5zm-4-4c-.276 0-.5.224-.5.5v2c0 .276.224.5.5.5h4c.276 0 .5-.224.5-.5v-2c0-.276-.224-.5-.5-.5z" fill="#212a41"/><path d="m35 34.5h16v4h-16z" fill="#6c696f"/><path d="m51 39h-16c-.276 0-.5-.224-.5-.5v-4c0-.276.224-.5.5-.5h16c.276 0 .5.224.5.5v4c0 .276-.224.5-.5.5zm-15.5-1h15v-3h-15z" fill="#212a41"/><path d="m34 38.5h-4c-.552 0-1-.448-1-1v-2c0-.552.448-1 1-1h4c.552 0 1 .448 1 1v2c0 .552-.448 1-1 1z" fill="#f9ac2f"/><path d="m34 39h-4c-.827 0-1.5-.673-1.5-1.5v-2c0-.827.673-1.5 1.5-1.5h4c.827 0 1.5.673 1.5 1.5v2c0 .827-.673 1.5-1.5 1.5zm-4-4c-.276 0-.5.224-.5.5v2c0 .276.224.5.5.5h4c.276 0 .5-.224.5-.5v-2c0-.276-.224-.5-.5-.5z" fill="#212a41"/><path d="m56 38.5h-4c-.552 0-1-.448-1-1v-2c0-.552.448-1 1-1h4c.552 0 1 .448 1 1v2c0 .552-.448 1-1 1z" fill="#f9ac2f"/><path d="m56 39h-4c-.827 0-1.5-.673-1.5-1.5v-2c0-.827.673-1.5 1.5-1.5h4c.827 0 1.5.673 1.5 1.5v2c0 .827-.673 1.5-1.5 1.5zm-4-4c-.276 0-.5.224-.5.5v2c0 .276.224.5.5.5h4c.276 0 .5-.224.5-.5v-2c0-.276-.224-.5-.5-.5z" fill="#212a41"/><path d="m32 25h5v4h-5z" fill="#b7c0d7"/><path d="m37 29.5h-5c-.276 0-.5-.224-.5-.5v-4c0-.276.224-.5.5-.5h5c.276 0 .5.224.5.5v4c0 .276-.224.5-.5.5zm-4.5-1h4v-3h-4z" fill="#212a41"/><path d="m29 29h3v-4z" fill="#c2c2c2"/><path d="m32 29.5h-3c-.189 0-.362-.107-.447-.276-.084-.169-.066-.372.047-.523l3-4c.129-.172.354-.242.558-.174s.342.258.342.473v4c0 .276-.224.5-.5.5zm-2-1h1.5v-2z" fill="#212a41"/><path d="m54 25h5v4h-5z" fill="#b7c0d7"/><path d="m59 29.5h-5c-.276 0-.5-.224-.5-.5v-4c0-.276.224-.5.5-.5h5c.276 0 .5.224.5.5v4c0 .276-.224.5-.5.5zm-4.5-1h4v-3h-4z" fill="#212a41"/><path d="m51 29h3v-4z" fill="#c2c2c2"/><path d="m54 29.5h-3c-.189 0-.362-.107-.447-.276-.084-.169-.066-.372.047-.523l3-4c.129-.172.353-.242.558-.174.204.067.342.258.342.473v4c0 .276-.224.5-.5.5zm-2-1h1.5v-2z" fill="#212a41"/><path d="m44.644 50.018-27.011-.018v10h40.367c-1.864-5.667-7.112-9.788-13.356-9.982z" fill="#f9ac2f"/><path d="m58 60.5h-40.367c-.276 0-.5-.224-.5-.5v-10c0-.133.053-.26.146-.354s.221-.146.354-.146l27.011.019h.015c6.296.195 11.848 4.344 13.816 10.325.05.152.024.319-.07.449s-.245.207-.405.207zm-39.867-1h39.158c-2.014-5.226-7.015-8.804-12.656-8.981l-26.502-.019z" fill="#212a41"/><path d="m51.986 54.011-13.806-.011v6h21.82c-1.119-3.4-4.267-5.873-8.014-5.989z" fill="#f9ac2f"/><path d="m60 60.5h-21.82c-.276 0-.5-.224-.5-.5v-6c0-.133.053-.26.146-.354s.221-.146.354-.146l13.807.011h.015c3.861.12 7.266 2.664 8.473 6.333.05.152.024.319-.07.449s-.245.207-.405.207zm-21.32-1h20.598c-1.244-2.912-4.095-4.887-7.299-4.989l-13.299-.011z" fill="#212a41"/><path d="m38.287 54c-3.141 0-5.891 1.661-7.427 4.151-2.367-4.824-7.313-8.151-13.049-8.151-6.444 0-11.901 4.195-13.811 10h26 1.622 14.951c-1.146-3.483-4.42-6-8.286-6z" fill="#db8e11"/><path d="m46.573 60.5h-42.573c-.16 0-.311-.077-.405-.207s-.12-.297-.07-.449c2.035-6.187 7.776-10.344 14.286-10.344 5.492 0 10.438 2.922 13.104 7.682 1.738-2.32 4.436-3.682 7.371-3.682 3.992 0 7.513 2.549 8.762 6.344.05.152.024.319-.07.449s-.245.207-.405.207zm-41.864-1h41.143c-1.283-3.018-4.241-5-7.565-5-2.873 0-5.49 1.463-7.001 3.914-.096.155-.268.245-.45.237-.182-.009-.345-.116-.425-.279-2.382-4.855-7.21-7.872-12.6-7.872-5.843 0-11.024 3.589-13.102 9z" fill="#212a41"/><path d="m13.891 21.5c-.137 0-.273-.056-.372-.166l-3.625-4.027c-.185-.205-.168-.521.037-.706s.521-.169.706.037l3.625 4.027c.185.205.168.521-.037.706-.096.087-.215.129-.334.129z" fill="#d5def5"/><path d="m39.475 21.5c-.113 0-.226-.038-.32-.116l-4.833-4.027c-.212-.177-.241-.492-.064-.705.177-.212.491-.241.705-.064l4.833 4.027c.212.177.241.492.064.705-.099.119-.241.18-.385.18z" fill="#99a2b9"/><path d="m34.112 13.927c-.718-.599-1.625-.927-2.56-.927h-27.552l3.576 3.973h30.192z" fill="#0079a8"/><path d="m37.768 17.473h-30.192c-.142 0-.277-.06-.372-.166l-3.576-3.973c-.132-.147-.166-.357-.085-.538.081-.18.26-.296.457-.296h27.552c1.051 0 2.074.371 2.88 1.043l3.655 3.045c.162.135.222.356.15.555-.071.198-.259.33-.469.33zm-29.97-1h28.588l-2.594-2.161c-.627-.523-1.423-.812-2.24-.812h-26.429z" fill="#212a41"/></svg>