<svg id="Icon_Set" enable-background="new 0 0 64 64" height="512" viewBox="0 0 64 64" width="512" xmlns="http://www.w3.org/2000/svg"><path d="m40 6c-11.046 0-20 11.641-20 26s8.954 26 20 26 20-11.641 20-26-8.954-26-20-26zm0 42c-5.523 0-10-7.163-10-16s4.477-16 10-16 10 7.163 10 16-4.477 16-10 16z" fill="#6c696f"/><path d="m40 58.5c-11.304 0-20.5-11.888-20.5-26.5s9.196-26.5 20.5-26.5 20.5 11.888 20.5 26.5-9.196 26.5-20.5 26.5zm0-52c-10.752 0-19.5 11.439-19.5 25.5s8.748 25.5 19.5 25.5 19.5-11.439 19.5-25.5-8.748-25.5-19.5-25.5zm0 42c-5.79 0-10.5-7.402-10.5-16.5s4.71-16.5 10.5-16.5 10.5 7.402 10.5 16.5-4.71 16.5-10.5 16.5zm0-32c-5.238 0-9.5 6.953-9.5 15.5s4.262 15.5 9.5 15.5 9.5-6.953 9.5-15.5-4.262-15.5-9.5-15.5z" fill="#212a41"/><path d="m40 51.5c-7.444 0-13.5-8.748-13.5-19.5s6.056-19.5 13.5-19.5 13.5 8.748 13.5 19.5-6.056 19.5-13.5 19.5zm0-38c-6.893 0-12.5 8.299-12.5 18.5s5.607 18.5 12.5 18.5 12.5-8.299 12.5-18.5-5.607-18.5-12.5-18.5z" fill="#212a41"/><path d="m37 47.265c.947.476 1.955.735 3 .735 5.523 0 10-7.163 10-16s-4.477-16-10-16c-1.045 0-2.053.259-3 .735 4.057 2.039 7 8.101 7 15.265s-2.943 13.226-7 15.265z" fill="#4e4b51"/><path d="m40 48.5c-1.099 0-2.184-.265-3.225-.788-.169-.085-.275-.258-.275-.447s.106-.362.275-.447c3.96-1.99 6.725-8.083 6.725-14.818s-2.765-12.828-6.725-14.818c-.169-.085-.275-.258-.275-.447s.106-.362.275-.447c1.041-.523 2.126-.788 3.225-.788 5.79 0 10.5 7.402 10.5 16.5s-4.71 16.5-10.5 16.5zm-1.88-1.309c.618.205 1.247.309 1.88.309 5.238 0 9.5-6.953 9.5-15.5s-4.262-15.5-9.5-15.5c-.633 0-1.262.104-1.88.309 3.852 2.558 6.38 8.487 6.38 15.191s-2.528 12.633-6.38 15.191z" fill="#212a41"/><path d="m20 32c0-14.359 8.954-26 20-26h-16c-11.046 0-20 11.641-20 26s8.954 26 20 26h16c-11.046 0-20-11.641-20-26z" fill="#4e4b51"/><path d="m40 58.5h-16c-11.304 0-20.5-11.888-20.5-26.5s9.196-26.5 20.5-26.5h16c.276 0 .5.224.5.5s-.224.5-.5.5c-10.752 0-19.5 11.439-19.5 25.5s8.748 25.5 19.5 25.5c.276 0 .5.224.5.5s-.224.5-.5.5zm-16-52c-10.752 0-19.5 11.439-19.5 25.5s8.748 25.5 19.5 25.5h10.414c-8.598-3.152-14.914-13.391-14.914-25.5s6.316-22.348 14.914-25.5z" fill="#212a41"/><path d="m22 32.5c-.276 0-.5-.224-.5-.5 0-13.509 8.299-24.5 18.5-24.5.276 0 .5.224.5.5s-.224.5-.5.5c-9.649 0-17.5 10.542-17.5 23.5 0 .276-.224.5-.5.5z" fill="#8a878d"/><path d="m40 56.5c-.276 0-.5-.224-.5-.5s.224-.5.5-.5c9.649 0 17.5-10.542 17.5-23.5 0-.276.224-.5.5-.5s.5.224.5.5c0 13.509-8.299 24.5-18.5 24.5z" fill="#4e4b51"/></svg>