<svg id="Icon_Set" enable-background="new 0 0 64 64" height="512" viewBox="0 0 64 64" width="512" xmlns="http://www.w3.org/2000/svg"><path d="m50 51h-42c-2.209 0-4-1.791-4-4v-21.942c0-1.292.624-2.504 1.675-3.255l11.282-8.058c.678-.485 1.491-.745 2.325-.745h19.436c.834 0 1.647.26 2.325.745l11.282 8.058c1.051.751 1.675 1.964 1.675 3.255v21.942c0 2.209-1.791 4-4 4z" fill="#4e4b51"/><path d="m50 51.5h-42c-2.481 0-4.5-2.019-4.5-4.5v-21.941c0-1.45.705-2.819 1.884-3.662l11.282-8.059c.767-.548 1.671-.838 2.615-.838h19.437c.944 0 1.848.29 2.616.838l11.282 8.059c1.18.842 1.884 2.211 1.884 3.662v21.941c0 2.481-2.019 4.5-4.5 4.5zm-30.718-38c-.734 0-1.438.226-2.034.652l-11.283 8.058c-.917.656-1.465 1.721-1.465 2.849v21.941c0 1.93 1.57 3.5 3.5 3.5h42c1.93 0 3.5-1.57 3.5-3.5v-21.941c0-1.128-.548-2.193-1.465-2.848l-11.282-8.059c-.597-.426-1.3-.652-2.034-.652z" fill="#212a41"/><path d="m56 51h-42c-2.209 0-4-1.791-4-4v-21.942c0-1.292.624-2.504 1.675-3.255l11.282-8.058c.678-.485 1.491-.745 2.325-.745h19.436c.834 0 1.647.26 2.325.745l11.282 8.058c1.051.751 1.675 1.964 1.675 3.255v21.942c0 2.209-1.791 4-4 4z" fill="#6c696f"/><path d="m56 51.5h-42c-2.481 0-4.5-2.019-4.5-4.5v-21.941c0-1.45.705-2.819 1.884-3.662l11.282-8.059c.767-.548 1.671-.838 2.615-.838h19.437c.944 0 1.848.29 2.616.838l11.282 8.059c1.18.842 1.884 2.211 1.884 3.662v21.941c0 2.481-2.019 4.5-4.5 4.5zm-30.718-38c-.734 0-1.438.226-2.034.652l-11.283 8.058c-.917.655-1.465 1.72-1.465 2.848v21.942c0 1.93 1.57 3.5 3.5 3.5h42c1.93 0 3.5-1.57 3.5-3.5v-21.941c0-1.128-.548-2.193-1.465-2.848l-11.282-8.059c-.597-.426-1.3-.652-2.034-.652z" fill="#212a41"/><path d="m55 48.5h-40c-1.378 0-2.5-1.122-2.5-2.5v-20c0-.782.374-1.53 1-2l10.134-7.6c.774-.581 1.733-.9 2.7-.9h17.333c.967 0 1.926.319 2.7.9l10.133 7.6c.626.47 1 1.218 1 2v20c0 1.378-1.122 2.5-2.5 2.5zm-28.667-32c-.752 0-1.499.249-2.101.7l-10.132 7.6c-.375.282-.6.73-.6 1.2v20c0 .827.673 1.5 1.5 1.5h40c.827 0 1.5-.673 1.5-1.5v-20c0-.47-.224-.918-.6-1.2l-10.133-7.6c-.602-.451-1.348-.7-2.101-.7z" fill="#212a41"/><path d="m56.2 24.4-10.133-7.6c-.692-.519-1.534-.8-2.4-.8h-4c.865 0 1.708.281 2.4.8l10.133 7.6c.504.378.8.97.8 1.6v20c0 1.105-.895 2-2 2h4c1.105 0 2-.895 2-2v-20c0-.63-.296-1.222-.8-1.6z" fill="#4e4b51"/><path d="m55 48.5h-4c-.276 0-.5-.224-.5-.5s.224-.5.5-.5c.827 0 1.5-.673 1.5-1.5v-20c0-.47-.224-.918-.6-1.2l-10.133-7.6c-.602-.451-1.348-.7-2.1-.7-.276 0-.5-.224-.5-.5s.224-.5.5-.5h4c.967 0 1.926.319 2.7.9l10.133 7.6c.626.47 1 1.218 1 2v20c0 1.378-1.122 2.5-2.5 2.5zm-2.001-1h2.001c.827 0 1.5-.673 1.5-1.5v-20c0-.469-.224-.918-.6-1.2l-10.134-7.6c-.602-.451-1.348-.7-2.1-.7h-1.166l10 7.5c.626.47 1 1.218 1 2v20c0 .562-.187 1.082-.501 1.5z" fill="#212a41"/><circle cx="45" cy="33" fill="#f9ac2f" r="9"/><path d="m45 42.5c-5.238 0-9.5-4.262-9.5-9.5s4.262-9.5 9.5-9.5 9.5 4.262 9.5 9.5-4.262 9.5-9.5 9.5zm0-18c-4.687 0-8.5 3.813-8.5 8.5s3.813 8.5 8.5 8.5 8.5-3.813 8.5-8.5-3.813-8.5-8.5-8.5z" fill="#212a41"/><circle cx="45" cy="33" fill="#e0e0e0" r="7"/><path d="m45 40.5c-4.136 0-7.5-3.364-7.5-7.5s3.364-7.5 7.5-7.5 7.5 3.364 7.5 7.5-3.364 7.5-7.5 7.5zm0-14c-3.584 0-6.5 2.916-6.5 6.5s2.916 6.5 6.5 6.5 6.5-2.916 6.5-6.5-2.916-6.5-6.5-6.5z" fill="#212a41"/><circle cx="45" cy="33" fill="#d32e5e" r="2"/><g fill="#212a41"><path d="m45 35.5c-1.378 0-2.5-1.122-2.5-2.5s1.122-2.5 2.5-2.5 2.5 1.122 2.5 2.5-1.122 2.5-2.5 2.5zm0-4c-.827 0-1.5.673-1.5 1.5s.673 1.5 1.5 1.5 1.5-.673 1.5-1.5-.673-1.5-1.5-1.5z"/><path d="m39 33.5h-3c-.276 0-.5-.224-.5-.5s.224-.5.5-.5h3c.276 0 .5.224.5.5s-.224.5-.5.5z"/><path d="m54 33.5h-3c-.276 0-.5-.224-.5-.5s.224-.5.5-.5h3c.276 0 .5.224.5.5s-.224.5-.5.5z"/><path d="m40.757 29.257c-.128 0-.256-.049-.354-.146l-2.121-2.121c-.195-.195-.195-.512 0-.707s.512-.195.707 0l2.121 2.121c.195.195.195.512 0 .707-.097.097-.225.146-.353.146z"/><path d="m51.364 39.864c-.128 0-.256-.049-.354-.146l-2.121-2.121c-.195-.195-.195-.512 0-.707s.512-.195.707 0l2.121 2.121c.195.195.195.512 0 .707-.097.097-.225.146-.353.146z"/><path d="m49.243 29.257c-.128 0-.256-.049-.354-.146-.195-.195-.195-.512 0-.707l2.121-2.121c.195-.195.512-.195.707 0s.195.512 0 .707l-2.121 2.121c-.097.097-.225.146-.353.146z"/><path d="m38.636 39.864c-.128 0-.256-.049-.354-.146-.195-.195-.195-.512 0-.707l2.121-2.121c.195-.195.512-.195.707 0s.195.512 0 .707l-2.121 2.121c-.097.097-.225.146-.353.146z"/><path d="m45 27.5c-.276 0-.5-.224-.5-.5v-3c0-.276.224-.5.5-.5s.5.224.5.5v3c0 .276-.224.5-.5.5z"/><path d="m38.636 35.864c-.203 0-.394-.125-.469-.326-.096-.259.036-.547.294-.643l6.364-2.364c.26-.095.547.036.643.294.096.259-.036.547-.294.643l-6.364 2.364c-.057.022-.116.032-.174.032z"/></g><circle cx="25" cy="33" fill="#f9ac2f" r="9"/><path d="m25 42.5c-5.238 0-9.5-4.262-9.5-9.5s4.262-9.5 9.5-9.5 9.5 4.262 9.5 9.5-4.262 9.5-9.5 9.5zm0-18c-4.687 0-8.5 3.813-8.5 8.5s3.813 8.5 8.5 8.5 8.5-3.813 8.5-8.5-3.813-8.5-8.5-8.5z" fill="#212a41"/><circle cx="25" cy="33" fill="#e0e0e0" r="7"/><path d="m25 40.5c-4.136 0-7.5-3.364-7.5-7.5s3.364-7.5 7.5-7.5 7.5 3.364 7.5 7.5-3.364 7.5-7.5 7.5zm0-14c-3.584 0-6.5 2.916-6.5 6.5s2.916 6.5 6.5 6.5 6.5-2.916 6.5-6.5-2.916-6.5-6.5-6.5z" fill="#212a41"/><circle cx="25" cy="33" fill="#d32e5e" r="2"/><path d="m25 35.5c-1.378 0-2.5-1.122-2.5-2.5s1.122-2.5 2.5-2.5 2.5 1.122 2.5 2.5-1.122 2.5-2.5 2.5zm0-4c-.827 0-1.5.673-1.5 1.5s.673 1.5 1.5 1.5 1.5-.673 1.5-1.5-.673-1.5-1.5-1.5z" fill="#212a41"/><path d="m19 33.5h-3c-.276 0-.5-.224-.5-.5s.224-.5.5-.5h3c.276 0 .5.224.5.5s-.224.5-.5.5z" fill="#212a41"/><path d="m34 33.5h-3c-.276 0-.5-.224-.5-.5s.224-.5.5-.5h3c.276 0 .5.224.5.5s-.224.5-.5.5z" fill="#212a41"/><path d="m20.757 29.257c-.128 0-.256-.049-.354-.146l-2.121-2.121c-.195-.195-.195-.512 0-.707s.512-.195.707 0l2.121 2.121c.195.195.195.512 0 .707-.097.097-.225.146-.353.146z" fill="#212a41"/><path d="m31.364 39.864c-.128 0-.256-.049-.354-.146l-2.121-2.121c-.195-.195-.195-.512 0-.707s.512-.195.707 0l2.121 2.121c.195.195.195.512 0 .707-.097.097-.225.146-.353.146z" fill="#212a41"/><path d="m29.243 29.257c-.128 0-.256-.049-.354-.146-.195-.195-.195-.512 0-.707l2.121-2.121c.195-.195.512-.195.707 0s.195.512 0 .707l-2.121 2.121c-.097.097-.225.146-.353.146z" fill="#212a41"/><path d="m18.636 39.864c-.128 0-.256-.049-.354-.146-.195-.195-.195-.512 0-.707l2.121-2.121c.195-.195.512-.195.707 0s.195.512 0 .707l-2.121 2.121c-.097.097-.225.146-.353.146z" fill="#212a41"/><path d="m25 27.5c-.276 0-.5-.224-.5-.5v-3c0-.276.224-.5.5-.5s.5.224.5.5v3c0 .276-.224.5-.5.5z" fill="#212a41"/><path d="m18.636 35.864c-.203 0-.394-.125-.469-.326-.096-.259.036-.547.294-.643l6.364-2.364c.26-.095.548.036.643.294.096.259-.036.547-.294.643l-6.364 2.364c-.057.022-.116.032-.174.032z" fill="#212a41"/><path d="m40 48.071h-10c-.552 0-1-.448-1-1v-2c0-.552.448-1 1-1h10c.552 0 1 .448 1 1v2c0 .552-.448 1-1 1z" fill="#e0e0e0"/><path d="m40 48.571h-10c-.827 0-1.5-.673-1.5-1.5v-2c0-.827.673-1.5 1.5-1.5h10c.827 0 1.5.673 1.5 1.5v2c0 .827-.673 1.5-1.5 1.5zm-10-4c-.276 0-.5.224-.5.5v2c0 .276.224.5.5.5h10c.276 0 .5-.224.5-.5v-2c0-.276-.224-.5-.5-.5z" fill="#212a41"/><path d="m33 22.5-3-1.5 3-1.5z" fill="#e0e0e0"/><path d="m33 23c-.077 0-.153-.018-.224-.053l-3-1.5c-.169-.085-.276-.258-.276-.447s.107-.362.276-.447l3-1.5c.155-.078.338-.071.486.022.148.091.238.252.238.425v3c0 .173-.09.334-.237.425-.08.05-.172.075-.263.075zm-1.882-2 1.382.691v-1.382z" fill="#212a41"/><path d="m37 22.5 3-1.5-3-1.5z" fill="#e0e0e0"/><path d="m37 23c-.091 0-.183-.025-.263-.075-.147-.091-.237-.252-.237-.425v-3c0-.173.09-.334.237-.425.147-.092.332-.1.486-.022l3 1.5c.17.085.277.258.277.447s-.107.362-.276.447l-3 1.5c-.071.035-.147.053-.224.053zm.5-2.691v1.382l1.382-.691z" fill="#212a41"/><path d="m6 47.5c-.276 0-.5-.224-.5-.5v-21.941c0-.276.224-.5.5-.5s.5.224.5.5v21.941c0 .276-.224.5-.5.5z" fill="#6c696f"/></svg>