<svg id="Icon_Set" enable-background="new 0 0 64 64" height="512" viewBox="0 0 64 64" width="512" xmlns="http://www.w3.org/2000/svg"><path d="m30.5 6c-14.359 0-26 11.641-26 26s11.641 26 26 26 26-11.641 26-26-11.641-26-26-26zm0 47c-11.598 0-21-9.402-21-21s9.402-21 21-21 21 9.402 21 21-9.402 21-21 21z" fill="#4e4b51"/><path d="m30.5 58.5c-14.612 0-26.5-11.888-26.5-26.5s11.888-26.5 26.5-26.5 26.5 11.888 26.5 26.5-11.888 26.5-26.5 26.5zm0-52c-14.061 0-25.5 11.439-25.5 25.5s11.439 25.5 25.5 25.5 25.5-11.439 25.5-25.5-11.439-25.5-25.5-25.5zm0 47c-11.855 0-21.5-9.645-21.5-21.5s9.645-21.5 21.5-21.5 21.5 9.645 21.5 21.5-9.645 21.5-21.5 21.5zm0-42c-11.304 0-20.5 9.196-20.5 20.5s9.196 20.5 20.5 20.5 20.5-9.196 20.5-20.5-9.196-20.5-20.5-20.5z" fill="#212a41"/><circle cx="30.5" cy="32" fill="#db8e11" r="8"/><path d="m30.5 40.5c-4.687 0-8.5-3.813-8.5-8.5s3.813-8.5 8.5-8.5 8.5 3.813 8.5 8.5-3.813 8.5-8.5 8.5zm0-16c-4.136 0-7.5 3.364-7.5 7.5s3.364 7.5 7.5 7.5 7.5-3.364 7.5-7.5-3.364-7.5-7.5-7.5z" fill="#212a41"/><path d="m30.5 40c-1.246 0-2.421-.293-3.473-.801l-1.205 13.26c1.506.343 3.068.541 4.678.541s3.172-.198 4.678-.541l-1.205-13.26c-1.052.508-2.227.801-3.473.801z" fill="#e0e0e0"/><path d="m30.5 53.5c-1.564 0-3.175-.186-4.789-.554-.244-.055-.409-.283-.387-.533l1.205-13.26c.015-.163.109-.309.252-.39.144-.081.315-.086.464-.015 2.062.997 4.447.997 6.51 0 .149-.071.322-.066.464.015.143.081.237.227.252.39l1.205 13.26c.022.25-.143.478-.387.533-1.614.368-3.225.554-4.789.554zm-4.14-1.436c2.795.578 5.484.578 8.279 0l-1.103-12.132c-1.947.754-4.127.754-6.074 0z" fill="#212a41"/><path d="m33.5 6c-14.359 0-26 11.641-26 26s11.641 26 26 26 26-11.641 26-26-11.641-26-26-26zm0 47c-11.598 0-21-9.402-21-21s9.402-21 21-21 21 9.402 21 21-9.402 21-21 21z" fill="#6c696f"/><path d="m33.5 58.5c-14.612 0-26.5-11.888-26.5-26.5s11.888-26.5 26.5-26.5 26.5 11.888 26.5 26.5-11.888 26.5-26.5 26.5zm0-52c-14.061 0-25.5 11.439-25.5 25.5s11.439 25.5 25.5 25.5 25.5-11.439 25.5-25.5-11.439-25.5-25.5-25.5zm0 47c-11.855 0-21.5-9.645-21.5-21.5s9.645-21.5 21.5-21.5 21.5 9.645 21.5 21.5-9.645 21.5-21.5 21.5zm0-42c-11.304 0-20.5 9.196-20.5 20.5s9.196 20.5 20.5 20.5 20.5-9.196 20.5-20.5-9.196-20.5-20.5-20.5z" fill="#212a41"/><path d="m53.727 26.419-14.227 1.581h-12l-14.227-1.581c-.49 1.78-.773 3.646-.773 5.581 0 .795.053 1.577.139 2.349l14.861 1.651h2.818l-1.496 16.459c1.506.343 3.068.541 4.678.541s3.172-.198 4.678-.541l-1.496-16.459h2.818l14.861-1.651c.086-.772.139-1.554.139-2.349 0-1.935-.283-3.801-.773-5.581z" fill="#e0e0e0"/><path d="m33.5 53.5c-1.564 0-3.175-.186-4.789-.554-.244-.055-.409-.283-.387-.533l1.447-15.913h-2.271l-14.916-1.654c-.231-.026-.415-.209-.441-.441-.096-.854-.143-1.64-.143-2.405 0-1.885.267-3.807.791-5.714.065-.236.27-.389.538-.364l14.227 1.581 11.944-.003 14.171-1.578c.264-.024.473.128.538.364.524 1.907.791 3.829.791 5.714 0 .765-.047 1.551-.143 2.405-.026.232-.21.415-.441.441l-14.86 1.651-2.327.003 1.446 15.914c.022.25-.143.478-.387.533-1.613.367-3.224.553-4.788.553zm-4.14-1.436c2.795.578 5.484.578 8.279 0l-1.456-16.019c-.013-.14.034-.279.129-.383s.229-.163.369-.163h2.819l14.405-1.604c.064-.664.095-1.288.095-1.895 0-1.66-.218-3.352-.646-5.037l-13.798 1.534-12.056.003-13.854-1.537c-.428 1.685-.646 3.377-.646 5.037 0 .607.031 1.231.095 1.896l14.461 1.607 2.763-.003c.141 0 .274.059.369.163s.142.243.129.383z" fill="#212a41"/><circle cx="33.5" cy="32" fill="#f9ac2f" r="8"/><path d="m33.5 40.5c-4.687 0-8.5-3.813-8.5-8.5s3.813-8.5 8.5-8.5 8.5 3.813 8.5 8.5-3.813 8.5-8.5 8.5zm0-16c-4.136 0-7.5 3.364-7.5 7.5s3.364 7.5 7.5 7.5 7.5-3.364 7.5-7.5-3.364-7.5-7.5-7.5z" fill="#212a41"/><path d="m33.5 38.5c-.276 0-.5-.224-.5-.5s.224-.5.5-.5c3.032 0 5.5-2.467 5.5-5.5 0-.276.224-.5.5-.5s.5.224.5.5c0 3.584-2.916 6.5-6.5 6.5z" fill="#db8e11"/><path d="m27.5 32.5c-.276 0-.5-.224-.5-.5 0-3.584 2.916-6.5 6.5-6.5.276 0 .5.224.5.5s-.224.5-.5.5c-3.032 0-5.5 2.467-5.5 5.5 0 .276-.224.5-.5.5z" fill="#ffca4d"/><path d="m36.5 33.5h-6c-.552 0-1-.448-1-1v-1c0-.552.448-1 1-1h6c.552 0 1 .448 1 1v1c0 .552-.448 1-1 1z" fill="#0079a8"/><path d="m36.5 34h-6c-.827 0-1.5-.673-1.5-1.5v-1c0-.827.673-1.5 1.5-1.5h6c.827 0 1.5.673 1.5 1.5v1c0 .827-.673 1.5-1.5 1.5zm-6-3c-.275 0-.5.224-.5.5v1c0 .276.225.5.5.5h6c.275 0 .5-.224.5-.5v-1c0-.276-.225-.5-.5-.5z" fill="#212a41"/><circle cx="47.5" cy="31" fill="#b7c0d7" r="1.5"/><path d="m47.5 33c-1.103 0-2-.897-2-2s.897-2 2-2 2 .897 2 2-.897 2-2 2zm0-3c-.552 0-1 .449-1 1s.448 1 1 1 1-.449 1-1-.448-1-1-1z" fill="#212a41"/><circle cx="33.5" cy="47" fill="#b7c0d7" r="1.5"/><path d="m33.5 49c-1.103 0-2-.897-2-2s.897-2 2-2 2 .897 2 2-.897 2-2 2zm0-3c-.552 0-1 .449-1 1s.448 1 1 1 1-.449 1-1-.448-1-1-1z" fill="#212a41"/><circle cx="19.5" cy="31" fill="#b7c0d7" r="1.5"/><path d="m19.5 33c-1.103 0-2-.897-2-2s.897-2 2-2 2 .897 2 2-.897 2-2 2zm0-3c-.552 0-1 .449-1 1s.448 1 1 1 1-.449 1-1-.448-1-1-1z" fill="#212a41"/></svg>