<svg id="Icon_Set" enable-background="new 0 0 64 64" height="512" viewBox="0 0 64 64" width="512" xmlns="http://www.w3.org/2000/svg"><path d="m24.319 17h5.945c1.224-.911 2.027-2.357 2.027-4 0-2.761-2.239-5-5-5s-5 2.239-5 5c0 1.643.804 3.089 2.028 4z" fill="#d32e5e"/><path d="m30.264 17.5h-5.944c-.107 0-.212-.034-.299-.099-1.417-1.055-2.229-2.659-2.229-4.401 0-3.032 2.468-5.5 5.5-5.5s5.5 2.468 5.5 5.5c0 1.743-.812 3.348-2.229 4.401-.087.065-.192.099-.299.099zm-5.775-1h5.604c1.081-.863 1.697-2.13 1.697-3.5 0-2.481-2.019-4.5-4.5-4.5s-4.5 2.019-4.5 4.5c.001 1.37.618 2.637 1.699 3.5z" fill="#212a41"/><path d="m15.76 38h-3v16h3c4.418 0 8-3.582 8-8s-3.582-8-8-8z" fill="#6c696f"/><path d="m15.76 54.5h-3c-.276 0-.5-.224-.5-.5v-16c0-.276.224-.5.5-.5h3c4.687 0 8.5 3.813 8.5 8.5s-3.814 8.5-8.5 8.5zm-2.5-1h2.5c4.136 0 7.5-3.364 7.5-7.5s-3.364-7.5-7.5-7.5h-2.5z" fill="#212a41"/><path d="m49.76 38h-3v16h3c4.418 0 8-3.582 8-8s-3.582-8-8-8z" fill="#6c696f"/><path d="m49.76 54.5h-3c-.276 0-.5-.224-.5-.5v-16c0-.276.224-.5.5-.5h3c4.687 0 8.5 3.813 8.5 8.5s-3.814 8.5-8.5 8.5zm-2.5-1h2.5c4.136 0 7.5-3.364 7.5-7.5s-3.364-7.5-7.5-7.5h-2.5z" fill="#212a41"/><path d="m22 54h38v6h-38z" fill="#6c696f"/><path d="m60 60.5h-38c-.276 0-.5-.224-.5-.5v-6c0-.276.224-.5.5-.5h38c.276 0 .5.224.5.5v6c0 .276-.224.5-.5.5zm-37.5-1h37v-5h-37z" fill="#212a41"/><path d="m4 54h38v6h-38z" fill="#4e4b51"/><path d="m42 60.5h-38c-.276 0-.5-.224-.5-.5v-6c0-.276.224-.5.5-.5h38c.276 0 .5.224.5.5v6c0 .276-.224.5-.5.5zm-37.5-1h37v-5h-37z" fill="#212a41"/><path d="m43 9c0 1.105.895 2 2 2h8c1.105 0 2-.895 2-2 0-1.105-.895-2-2-2h-1.042c0-1.657-1.343-3-3-3s-3 1.343-3 3h-.958c-1.105 0-2 .895-2 2z" fill="#99a2b9"/><path d="m53 11.5h-8c-1.379 0-2.5-1.121-2.5-2.5s1.121-2.5 2.5-2.5h.493c.244-1.694 1.705-3 3.465-3s3.221 1.306 3.465 3h.577c1.379 0 2.5 1.121 2.5 2.5s-1.121 2.5-2.5 2.5zm-8-4c-.827 0-1.5.673-1.5 1.5s.673 1.5 1.5 1.5h8c.827 0 1.5-.673 1.5-1.5s-.673-1.5-1.5-1.5h-1.042c-.276 0-.5-.224-.5-.5 0-1.379-1.121-2.5-2.5-2.5s-2.5 1.121-2.5 2.5c0 .276-.224.5-.5.5z" fill="#212a41"/><path d="m56.958 7c0-1.657-1.343-3-3-3s-3 1.343-3 3h-.958c-1.105 0-2 .895-2 2 0 1.105.895 2 2 2h8c1.105 0 2-.895 2-2 0-1.105-.895-2-2-2z" fill="#b7c0d7"/><path d="m58 11.5h-8c-1.379 0-2.5-1.121-2.5-2.5s1.121-2.5 2.5-2.5h.493c.244-1.694 1.705-3 3.465-3s3.221 1.306 3.465 3h.577c1.379 0 2.5 1.121 2.5 2.5s-1.121 2.5-2.5 2.5zm-8-4c-.827 0-1.5.673-1.5 1.5s.673 1.5 1.5 1.5h8c.827 0 1.5-.673 1.5-1.5s-.673-1.5-1.5-1.5h-1.042c-.276 0-.5-.224-.5-.5 0-1.379-1.121-2.5-2.5-2.5s-2.5 1.121-2.5 2.5c0 .276-.224.5-.5.5zm7.458-.5h.01z" fill="#212a41"/><path d="m44.954 29h-8c-.53 0-1.039-.211-1.414-.586l-6-6c-.781-.781-.781-2.047 0-2.828s2.047-.781 2.828 0l5.414 5.414h7.172c1.104 0 2 .896 2 2s-.896 2-2 2z" fill="#bed38e"/><path d="m44.953 29.5h-8c-.668 0-1.295-.26-1.768-.732l-6-6c-.975-.975-.975-2.561 0-3.535s2.561-.975 3.535 0l5.268 5.268h6.965c1.379 0 2.5 1.121 2.5 2.5s-1.121 2.499-2.5 2.499zm-14-9.999c-.384 0-.769.146-1.061.438-.585.585-.585 1.536 0 2.121l6 6c.279.279.666.439 1.061.439h8c.827 0 1.5-.673 1.5-1.5s-.673-1.5-1.5-1.5h-7.172c-.133 0-.26-.053-.354-.146l-5.414-5.414c-.291-.292-.676-.438-1.06-.438z" fill="#212a41"/><circle cx="12.76" cy="46" fill="#4e4b51" r="8"/><path d="m12.76 54.5c-4.687 0-8.5-3.813-8.5-8.5s3.813-8.5 8.5-8.5 8.5 3.813 8.5 8.5-3.814 8.5-8.5 8.5zm0-16c-4.136 0-7.5 3.364-7.5 7.5s3.364 7.5 7.5 7.5 7.5-3.364 7.5-7.5-3.364-7.5-7.5-7.5z" fill="#212a41"/><circle cx="12.76" cy="46" fill="#db8e11" r="6"/><path d="m12.76 52.5c-3.584 0-6.5-2.916-6.5-6.5s2.916-6.5 6.5-6.5 6.5 2.916 6.5 6.5-2.916 6.5-6.5 6.5zm0-12c-3.032 0-5.5 2.468-5.5 5.5s2.468 5.5 5.5 5.5 5.5-2.468 5.5-5.5-2.468-5.5-5.5-5.5z" fill="#212a41"/><circle cx="12.76" cy="46" fill="#e0e0e0" r="2"/><path d="m12.76 48.5c-1.379 0-2.5-1.121-2.5-2.5s1.121-2.5 2.5-2.5 2.5 1.121 2.5 2.5-1.121 2.5-2.5 2.5zm0-4c-.827 0-1.5.673-1.5 1.5s.673 1.5 1.5 1.5 1.5-.673 1.5-1.5-.673-1.5-1.5-1.5z" fill="#212a41"/><path d="m19.635 36.5h3l-8 9h-3z" fill="#e0e0e0"/><path d="m14.635 46h-3c-.197 0-.375-.115-.456-.295s-.049-.39.082-.537l8-9c.094-.106.231-.168.374-.168h3c.197 0 .375.115.456.295s.049.39-.082.537l-8 9c-.095.106-.232.168-.374.168zm-1.887-1h1.662l7.111-8h-1.662z" fill="#212a41"/><path d="m28.26 40h-4l-9-5-5-1-2-4h8l6 2h6z" fill="#b51040"/><path d="m28.26 40.5h-4c-.085 0-.169-.021-.243-.062l-8.932-4.963-4.923-.984c-.151-.03-.28-.129-.35-.267l-2-4c-.077-.155-.069-.339.021-.486.093-.148.254-.238.427-.238h8c.054 0 .107.009.158.025l5.923 1.975h5.919c.276 0 .5.224.5.5v8c0 .276-.224.5-.5.5zm-3.87-1h3.37v-7h-5.5c-.054 0-.107-.009-.158-.025l-5.923-1.975h-7.11l1.529 3.058 4.76.952c.051.01.1.028.146.053z" fill="#212a41"/><path d="m43.791 37-7 8h-4v-17h11z" fill="#d32e5e"/><path d="m36.791 45.5h-4c-.276 0-.5-.224-.5-.5v-17c0-.276.224-.5.5-.5h11c.276 0 .5.224.5.5v9c0 .121-.044.238-.124.329l-7 8c-.095.109-.231.171-.376.171zm-3.5-1h3.273l6.727-7.688v-8.312h-10zm10.5-7.5h.01z" fill="#212a41"/><circle cx="46.76" cy="46" fill="#4e4b51" r="8"/><path d="m46.76 54.5c-4.687 0-8.5-3.813-8.5-8.5s3.813-8.5 8.5-8.5 8.5 3.813 8.5 8.5-3.814 8.5-8.5 8.5zm0-16c-4.136 0-7.5 3.364-7.5 7.5s3.364 7.5 7.5 7.5 7.5-3.364 7.5-7.5-3.364-7.5-7.5-7.5z" fill="#212a41"/><circle cx="46.76" cy="46" fill="#db8e11" r="6"/><path d="m46.76 52.5c-3.584 0-6.5-2.916-6.5-6.5s2.916-6.5 6.5-6.5 6.5 2.916 6.5 6.5-2.916 6.5-6.5 6.5zm0-12c-3.032 0-5.5 2.468-5.5 5.5s2.468 5.5 5.5 5.5 5.5-2.468 5.5-5.5-2.468-5.5-5.5-5.5z" fill="#212a41"/><path d="m46.76 50.5c-.276 0-.5-.224-.5-.5s.224-.5.5-.5c1.93 0 3.5-1.57 3.5-3.5 0-.276.224-.5.5-.5s.5.224.5.5c0 2.481-2.019 4.5-4.5 4.5z" fill="#bd7000"/><path d="m12.76 50.5c-.276 0-.5-.224-.5-.5s.224-.5.5-.5c1.93 0 3.5-1.57 3.5-3.5 0-.276.224-.5.5-.5s.5.224.5.5c0 2.481-2.019 4.5-4.5 4.5z" fill="#bd7000"/><circle cx="46.76" cy="46" fill="#e0e0e0" r="2"/><path d="m46.76 48.5c-1.379 0-2.5-1.121-2.5-2.5s1.121-2.5 2.5-2.5 2.5 1.121 2.5 2.5-1.121 2.5-2.5 2.5zm0-4c-.827 0-1.5.673-1.5 1.5s.673 1.5 1.5 1.5 1.5-.673 1.5-1.5-.673-1.5-1.5-1.5z" fill="#212a41"/><path d="m41.635 36.5h3l4 9h-3z" fill="#e0e0e0"/><path d="m48.635 46h-3c-.197 0-.377-.116-.457-.297l-4-9c-.068-.154-.055-.334.038-.476.092-.141.25-.227.419-.227h3c.197 0 .377.116.457.297l4 9c.068.154.055.334-.038.476-.092.141-.25.227-.419.227zm-2.675-1h1.905l-3.556-8h-1.905z" fill="#212a41"/><path d="m23.26 28h-11l4.863-8.915c.701-1.285 2.048-2.085 3.511-2.085h5.256c1.518 0 2.483 1.625 1.756 2.958z" fill="#a0b570"/><path d="m23.26 28.5h-11c-.177 0-.34-.093-.43-.245-.091-.151-.094-.34-.009-.494l4.863-8.915c.788-1.447 2.302-2.346 3.95-2.346h5.256c.891 0 1.694.457 2.149 1.224.455.766.472 1.69.046 2.474l-4.388 8.042c-.086.16-.255.26-.437.26zm-10.157-1h9.86l4.245-7.781c.256-.47.245-1.025-.027-1.484-.273-.46-.756-.734-1.29-.734h-5.256c-1.282 0-2.46.699-3.072 1.824z" fill="#212a41"/><path d="m27.26 28h-11l4.863-8.915c.701-1.285 2.048-2.085 3.511-2.085h5.256c1.518 0 2.483 1.625 1.756 2.958z" fill="#bed38e"/><path d="m27.26 28.5h-11c-.177 0-.34-.093-.43-.245-.091-.151-.094-.34-.009-.494l4.863-8.915c.788-1.447 2.302-2.346 3.95-2.346h5.256c.891 0 1.694.457 2.149 1.224.455.766.472 1.69.046 2.474l-4.388 8.042c-.086.16-.255.26-.437.26zm-10.157-1h9.86l4.245-7.781c.256-.47.245-1.025-.027-1.484-.273-.46-.756-.734-1.29-.734h-5.256c-1.282 0-2.46.699-3.072 1.824z" fill="#212a41"/><path d="m39.791 37-7 8h-6v-17h13z" fill="#b51040"/><path d="m32.791 45.5h-6c-.276 0-.5-.224-.5-.5v-17c0-.276.224-.5.5-.5h13c.276 0 .5.224.5.5v9c0 .121-.044.238-.124.329l-7 8c-.095.109-.231.171-.376.171zm-5.5-1h5.273l6.727-7.688v-8.312h-12zm12.5-7.5h.01z" fill="#212a41"/><path d="m27.26 47.5h-2c-1.105 0-2-.895-2-2v-2.5h4c1.105 0 2 .895 2 2v.5c0 1.105-.896 2-2 2z" fill="#4e4b51"/><path d="m27.26 48h-2c-1.379 0-2.5-1.121-2.5-2.5v-2.5c0-.276.224-.5.5-.5h4c1.379 0 2.5 1.121 2.5 2.5v.5c0 1.379-1.121 2.5-2.5 2.5zm-3.5-4.5v2c0 .827.673 1.5 1.5 1.5h2c.827 0 1.5-.673 1.5-1.5v-.5c0-.827-.673-1.5-1.5-1.5z" fill="#212a41"/><path d="m39.791 29.013h-4c-.552 0-1-.448-1-1v-1c0-.552.448-1 1-1h4c.552 0 1 .448 1 1v1c0 .553-.447 1-1 1z" fill="#6c696f"/><path d="m39.791 29.514h-4c-.827 0-1.5-.673-1.5-1.5v-1c0-.827.673-1.5 1.5-1.5h4c.827 0 1.5.673 1.5 1.5v1c0 .827-.673 1.5-1.5 1.5zm-4-3c-.275 0-.5.225-.5.5v1c0 .275.225.5.5.5h4c.275 0 .5-.225.5-.5v-1c0-.275-.225-.5-.5-.5z" fill="#212a41"/><path d="m50.791 35-1 2h-10v-9l2-1-3-8h4l8 8z" fill="#d32e5e"/><path d="m49.791 37.5h-10c-.276 0-.5-.224-.5-.5v-9c0-.189.107-.362.276-.447l1.598-.799-2.842-7.578c-.058-.153-.036-.326.057-.461.094-.135.247-.215.411-.215h4c.133 0 .26.053.354.146l8 8c.094.094.146.221.146.354v8c0 .077-.019.154-.053.224l-1 2c-.085.169-.258.276-.447.276zm-9.5-1h9.191l.809-1.618v-7.675l-7.707-7.707h-3.071l2.746 7.324c.09.24-.016.509-.244.623l-1.724.861zm10.5-1.5h.01z" fill="#212a41"/><path d="m50.791 34h-4l-1-5h5z" fill="#e0e0e0"/><path d="m50.791 34.5h-4c-.238 0-.443-.168-.49-.402l-1-5c-.029-.146.009-.299.104-.415.095-.115.237-.183.387-.183h5c.276 0 .5.224.5.5v5c-.001.276-.225.5-.501.5zm-3.59-1h3.09v-4h-3.89z" fill="#212a41"/><path d="m39.791 33h-13v2l13 2z" fill="#db8e11"/><path d="m39.791 37.5c-.025 0-.051-.002-.076-.006l-13-2c-.244-.037-.424-.247-.424-.494v-2c0-.276.224-.5.5-.5h13c.276 0 .5.224.5.5v4c0 .146-.063.284-.175.38-.091.078-.207.12-.325.12zm-12.5-2.929 12 1.846v-2.917h-12z" fill="#212a41"/><path d="m12.26 28c0 2.209 1.791 4 4 4h7v11h4v-11c0-2.209-1.791-4-4-4z" fill="#a0b570"/><path d="m27.26 43.5h-4c-.276 0-.5-.224-.5-.5v-10.5h-6.5c-2.481 0-4.5-2.019-4.5-4.5 0-.276.224-.5.5-.5h11c2.481 0 4.5 2.019 4.5 4.5v11c0 .276-.224.5-.5.5zm-3.5-1h3v-10.5c0-1.93-1.57-3.5-3.5-3.5h-10.465c.244 1.694 1.705 3 3.465 3h7c.276 0 .5.224.5.5z" fill="#212a41"/><path d="m31.869 15c.268-.613.422-1.288.422-2s-.154-1.387-.422-2h-5.578v2l2 2z" fill="#6c696f"/><path d="m31.869 15.5h-3.578c-.133 0-.26-.053-.354-.146l-2-2c-.094-.094-.146-.221-.146-.354v-2c0-.276.224-.5.5-.5h5.578c.198 0 .378.117.458.3.308.702.464 1.443.464 2.2s-.156 1.498-.464 2.2c-.08.183-.26.3-.458.3zm-3.371-1h3.032c.173-.484.261-.988.261-1.5s-.088-1.016-.261-1.5h-4.739v1.293z" fill="#212a41"/><path d="m33.954 29h-8c-.53 0-1.039-.211-1.414-.586l-6-6c-.781-.781-.781-2.047 0-2.828s2.047-.781 2.828 0l5.414 5.414h7.172c1.104 0 2 .896 2 2s-.896 2-2 2z" fill="#bed38e"/><path d="m33.953 29.5h-8c-.668 0-1.295-.26-1.768-.732l-6-6c-.975-.975-.975-2.561 0-3.535s2.561-.975 3.535 0l5.268 5.268h6.965c1.379 0 2.5 1.121 2.5 2.5s-1.121 2.499-2.5 2.499zm-14-9.999c-.384 0-.769.146-1.061.438-.585.585-.585 1.536 0 2.121l6 6c.279.279.666.439 1.061.439h8c.827 0 1.5-.673 1.5-1.5s-.673-1.5-1.5-1.5h-7.172c-.133 0-.26-.053-.354-.146l-5.414-5.414c-.291-.292-.676-.438-1.06-.438z" fill="#212a41"/><path d="m33.947 29.013h-1.993v-4.013h1.993c1.108 0 2.007.898 2.007 2.007 0 1.108-.899 2.006-2.007 2.006z" fill="#0079a8"/><path d="m33.947 29.514h-1.994c-.276 0-.5-.224-.5-.5v-4.014c0-.276.224-.5.5-.5h1.994c1.382 0 2.506 1.125 2.506 2.507s-1.124 2.507-2.506 2.507zm-1.494-1h1.494c.83 0 1.506-.676 1.506-1.507s-.676-1.507-1.506-1.507h-1.494z" fill="#212a41"/><path d="m41.791 35.5c-.276 0-.5-.224-.5-.5v-5c0-.276.224-.5.5-.5s.5.224.5.5v5c0 .276-.224.5-.5.5z" fill="#f14c7c"/></svg>