<svg id="Icon_Set" enable-background="new 0 0 64 64" height="512" viewBox="0 0 64 64" width="512" xmlns="http://www.w3.org/2000/svg"><path d="m37 28 3-8-8 4-8-4 3 8-10-2 6 12h18l6-12z" fill="#f9ac2f"/><path d="m41 38.5h-18c-.189 0-.362-.107-.447-.276l-6-12c-.085-.171-.066-.375.05-.527.116-.151.31-.227.495-.187l9.118 1.823-2.684-7.157c-.072-.192-.02-.41.133-.548.154-.137.374-.166.559-.075l7.776 3.888 7.776-3.889c.185-.091.404-.062.559.075.152.138.205.355.133.548l-2.684 7.157 9.118-1.823c.187-.04.38.035.495.187.116.152.135.356.05.527l-6 12c-.085.17-.258.277-.447.277zm-17.691-1h17.383l5.404-10.81-8.998 1.8c-.177.039-.361-.029-.479-.166-.117-.139-.151-.33-.087-.5l2.553-6.808-6.861 3.431c-.141.07-.307.07-.447 0l-6.861-3.431 2.553 6.808c.064.17.03.361-.087.5-.116.138-.301.206-.479.166l-8.998-1.8z" fill="#212a41"/><path d="m26.997 30.499c-.161 0-.324-.016-.486-.048l-5.991-1.198c-.271-.054-.447-.317-.393-.588.055-.272.329-.446.588-.393l5.99 1.198c.532.105 1.084-.086 1.438-.499.353-.415.453-.989.263-1.498l-1.212-3.231c-.098-.259.033-.547.292-.644.257-.1.547.034.644.292l1.212 3.231c.318.85.151 1.807-.437 2.498-.48.565-1.181.88-1.908.88z" fill="#ffca4d"/><path d="m37.003 30.499c-.727 0-1.428-.315-1.907-.879-.588-.691-.755-1.648-.437-2.498l1.212-3.231c.097-.258.386-.392.644-.292.259.097.39.385.292.644l-1.212 3.231c-.19.509-.09 1.083.263 1.498.353.413.898.605 1.438.499l5.989-1.198c.259-.055.533.12.588.393.055.271-.121.534-.393.588l-5.99 1.198c-.162.031-.325.047-.487.047z" fill="#db8e11"/><path d="m43 9c0 1.105.895 2 2 2h8c1.105 0 2-.895 2-2 0-1.105-.895-2-2-2h-1.042c0-1.657-1.343-3-3-3s-3 1.343-3 3h-.958c-1.105 0-2 .895-2 2z" fill="#99a2b9"/><path d="m53 11.5h-8c-1.379 0-2.5-1.121-2.5-2.5s1.121-2.5 2.5-2.5h.493c.244-1.694 1.705-3 3.465-3s3.221 1.306 3.465 3h.577c1.379 0 2.5 1.121 2.5 2.5s-1.121 2.5-2.5 2.5zm-8-4c-.827 0-1.5.673-1.5 1.5s.673 1.5 1.5 1.5h8c.827 0 1.5-.673 1.5-1.5s-.673-1.5-1.5-1.5h-1.042c-.276 0-.5-.224-.5-.5 0-1.379-1.121-2.5-2.5-2.5s-2.5 1.121-2.5 2.5c0 .276-.224.5-.5.5z" fill="#212a41"/><path d="m56.958 7c0-1.657-1.343-3-3-3s-3 1.343-3 3h-.958c-1.105 0-2 .895-2 2 0 1.105.895 2 2 2h8c1.105 0 2-.895 2-2 0-1.105-.895-2-2-2z" fill="#b7c0d7"/><path d="m58 11.5h-8c-1.379 0-2.5-1.121-2.5-2.5s1.121-2.5 2.5-2.5h.493c.244-1.694 1.705-3 3.465-3s3.221 1.306 3.465 3h.577c1.379 0 2.5 1.121 2.5 2.5s-1.121 2.5-2.5 2.5zm-8-4c-.827 0-1.5.673-1.5 1.5s.673 1.5 1.5 1.5h8c.827 0 1.5-.673 1.5-1.5s-.673-1.5-1.5-1.5h-1.042c-.276 0-.5-.224-.5-.5 0-1.379-1.121-2.5-2.5-2.5s-2.5 1.121-2.5 2.5c0 .276-.224.5-.5.5zm7.458-.5h.01z" fill="#212a41"/><path d="m4 15c0 1.105.895 2 2 2h8c1.105 0 2-.895 2-2 0-1.105-.895-2-2-2h-1.042c0-1.657-1.343-3-3-3s-3 1.343-3 3h-.958c-1.105 0-2 .895-2 2z" fill="#99a2b9"/><path d="m14 17.5h-8c-1.379 0-2.5-1.121-2.5-2.5s1.121-2.5 2.5-2.5h.493c.244-1.694 1.705-3 3.465-3s3.221 1.306 3.465 3h.577c1.379 0 2.5 1.121 2.5 2.5s-1.121 2.5-2.5 2.5zm-8-4c-.827 0-1.5.673-1.5 1.5s.673 1.5 1.5 1.5h8c.827 0 1.5-.673 1.5-1.5s-.673-1.5-1.5-1.5h-1.042c-.276 0-.5-.224-.5-.5 0-1.379-1.121-2.5-2.5-2.5s-2.5 1.121-2.5 2.5c0 .276-.224.5-.5.5z" fill="#212a41"/><path d="m17.958 13c0-1.657-1.343-3-3-3s-3 1.343-3 3h-.958c-1.105 0-2 .895-2 2 0 1.105.895 2 2 2h8c1.105 0 2-.895 2-2 0-1.105-.895-2-2-2z" fill="#b7c0d7"/><path d="m19 17.5h-8c-1.379 0-2.5-1.121-2.5-2.5s1.121-2.5 2.5-2.5h.493c.244-1.694 1.705-3 3.465-3s3.221 1.306 3.465 3h.577c1.379 0 2.5 1.121 2.5 2.5s-1.121 2.5-2.5 2.5zm-8-4c-.827 0-1.5.673-1.5 1.5s.673 1.5 1.5 1.5h8c.827 0 1.5-.673 1.5-1.5s-.673-1.5-1.5-1.5h-1.042c-.276 0-.5-.224-.5-.5 0-1.379-1.121-2.5-2.5-2.5s-2.5 1.121-2.5 2.5c0 .276-.224.5-.5.5zm7.458-.5h.01z" fill="#212a41"/><path d="m35.167 42h3.333v8h-3.333c-1.473 0-2.667-1.791-2.667-4s1.194-4 2.667-4z" fill="#6c696f"/><path d="m38.5 50.5h-3.333c-1.776 0-3.167-1.977-3.167-4.5s1.391-4.5 3.167-4.5h3.333c.276 0 .5.224.5.5v8c0 .276-.224.5-.5.5zm-3.333-8c-1.175 0-2.167 1.603-2.167 3.5s.992 3.5 2.167 3.5h2.833v-7z" fill="#212a41"/><ellipse cx="38.5" cy="46" fill="#4e4b51" rx="3" ry="4"/><path d="m38.5 50.5c-1.93 0-3.5-2.019-3.5-4.5s1.57-4.5 3.5-4.5 3.5 2.019 3.5 4.5-1.57 4.5-3.5 4.5zm0-8c-1.379 0-2.5 1.57-2.5 3.5s1.121 3.5 2.5 3.5 2.5-1.57 2.5-3.5-1.121-3.5-2.5-3.5z" fill="#212a41"/><path d="m49.167 42h3.333v8h-3.333c-1.473 0-2.667-1.791-2.667-4s1.194-4 2.667-4z" fill="#6c696f"/><path d="m52.5 50.5h-3.333c-1.776 0-3.167-1.977-3.167-4.5s1.391-4.5 3.167-4.5h3.333c.276 0 .5.224.5.5v8c0 .276-.224.5-.5.5zm-3.333-8c-1.175 0-2.167 1.603-2.167 3.5s.992 3.5 2.167 3.5h2.833v-7z" fill="#212a41"/><path d="m60 32h-4.597l-3 6h7.597z" fill="#c2c2c2"/><path d="m60 38.5h-7.598c-.173 0-.334-.09-.426-.237-.091-.147-.099-.331-.021-.486l3-6c.085-.169.258-.276.447-.276h4.598c.276 0 .5.224.5.5v6c0 .275-.224.499-.5.499zm-6.789-1h6.289v-5h-3.789z" fill="#212a41"/><path d="m60 38h-7.597l-9.101 1.838c-.467.094-.802.504-.802.98v5.182c0 .552.448 1 1 1h16.5z" fill="#0079a8"/><path d="m60 47.5h-16.5c-.827 0-1.5-.673-1.5-1.5v-5.182c0-.71.506-1.329 1.202-1.471l9.102-1.838 7.696-.009c.276 0 .5.224.5.5v9c0 .276-.224.5-.5.5zm-7.598-9-9.002 1.828c-.231.047-.4.253-.4.49v5.182c0 .275.225.5.5.5h16v-8z" fill="#212a41"/><path d="m39.403 38h13l3-6h-10.93c-.669 0-1.293.334-1.664.891z" fill="#e0e0e0"/><path d="m52.402 38.5h-13c-.185 0-.354-.102-.44-.264-.088-.163-.078-.36.024-.514l3.406-5.109c.465-.697 1.242-1.113 2.08-1.113h10.93c.173 0 .334.09.426.237.091.147.099.331.021.486l-3 6c-.084.17-.257.277-.447.277zm-12.065-1h11.757l2.5-5h-10.121c-.503 0-.969.25-1.248.668z" fill="#212a41"/><path d="m52.403 38-9.101 1.838c-.467.094-.802.504-.802.98v5.182c0 .552.448 1 1 1h1-13c-.552 0-1-.448-1-1v-5.198c0-.469.326-.875.783-.976l8.217-1.826z" fill="#005b8a"/><path d="m44.5 47.5h-13c-.827 0-1.5-.673-1.5-1.5v-5.198c0-.708.483-1.311 1.175-1.464l8.217-1.826c.035-.008.072-.012.108-.012h12.902c.257 0 .472.194.497.45.026.256-.146.489-.398.54l-9.101 1.838c-.231.047-.4.253-.4.49v5.182c0 .275.225.5.5.5h1c.276 0 .5.224.5.5s-.224.5-.5.5zm-4.945-9-8.163 1.814c-.231.051-.392.251-.392.488v5.198c0 .275.225.5.5.5h10.586c-.056-.156-.086-.325-.086-.5v-5.182c0-.71.506-1.329 1.202-1.471l4.198-.847z" fill="#212a41"/><path d="m38.5 41h4v3h-4z" fill="#e0e0e0" transform="matrix(-1 0 0 -1 81 85)"/><path d="m42.5 44.5h-4c-.276 0-.5-.224-.5-.5v-3c0-.276.224-.5.5-.5h4c.276 0 .5.224.5.5v3c0 .276-.224.5-.5.5zm-3.5-1h3v-2h-3z" fill="#212a41"/><path d="m30.5 41h4v3h-4z" fill="#e0e0e0" transform="matrix(-1 0 0 -1 65 85)"/><path d="m34.5 44.5h-4c-.276 0-.5-.224-.5-.5v-3c0-.276.224-.5.5-.5h4c.276 0 .5.224.5.5v3c0 .276-.224.5-.5.5zm-3.5-1h3v-2h-3z" fill="#212a41"/><path d="m34.5 41h4v3h-4z" fill="#6c696f" transform="matrix(-1 0 0 -1 73 85)"/><path d="m38.5 44.5h-4c-.276 0-.5-.224-.5-.5v-3c0-.276.224-.5.5-.5h4c.276 0 .5.224.5.5v3c0 .276-.224.5-.5.5zm-3.5-1h3v-2h-3z" fill="#212a41"/><ellipse cx="52.5" cy="46" fill="#4e4b51" rx="3" ry="4"/><path d="m52.5 50.5c-1.93 0-3.5-2.019-3.5-4.5s1.57-4.5 3.5-4.5 3.5 2.019 3.5 4.5-1.57 4.5-3.5 4.5zm0-8c-1.379 0-2.5 1.57-2.5 3.5s1.121 3.5 2.5 3.5 2.5-1.57 2.5-3.5-1.121-3.5-2.5-3.5z" fill="#212a41"/><path d="m15 36h-10l-1-3h10z" fill="#6c696f"/><path d="m15 36.5h-10c-.215 0-.406-.138-.475-.342l-1-3c-.051-.152-.025-.32.069-.45.094-.131.245-.208.406-.208h10c.215 0 .406.138.475.342l1 3c.051.152.025.32-.069.45-.094.131-.245.208-.406.208zm-9.64-1h8.946l-.667-2h-8.946z" fill="#212a41"/><path d="m42.333 42h-3.333v8h3.333c1.473 0 2.667-1.791 2.667-4s-1.194-4-2.667-4z" fill="#6c696f"/><path d="m42.333 50.5h-3.333c-.276 0-.5-.224-.5-.5v-8c0-.276.224-.5.5-.5h3.333c1.776 0 3.167 1.977 3.167 4.5s-1.391 4.5-3.167 4.5zm-2.833-1h2.833c1.175 0 2.167-1.603 2.167-3.5s-.992-3.5-2.167-3.5h-2.833z" fill="#212a41"/><ellipse cx="39" cy="46" fill="#4e4b51" rx="3" ry="4"/><path d="m39 50.5c-1.93 0-3.5-2.019-3.5-4.5s1.57-4.5 3.5-4.5 3.5 2.019 3.5 4.5-1.57 4.5-3.5 4.5zm0-8c-1.379 0-2.5 1.57-2.5 3.5s1.121 3.5 2.5 3.5 2.5-1.57 2.5-3.5-1.121-3.5-2.5-3.5z" fill="#212a41"/><path d="m28.333 42h-3.333v8h3.333c1.473 0 2.667-1.791 2.667-4s-1.194-4-2.667-4z" fill="#6c696f"/><path d="m28.333 50.5h-3.333c-.276 0-.5-.224-.5-.5v-8c0-.276.224-.5.5-.5h3.333c1.776 0 3.167 1.977 3.167 4.5s-1.391 4.5-3.167 4.5zm-2.833-1h2.833c1.175 0 2.167-1.603 2.167-3.5s-.992-3.5-2.167-3.5h-2.833z" fill="#212a41"/><path d="m14.333 42h-3.333v8h3.333c1.473 0 2.667-1.791 2.667-4s-1.194-4-2.667-4z" fill="#6c696f"/><path d="m14.333 50.5h-3.333c-.276 0-.5-.224-.5-.5v-8c0-.276.224-.5.5-.5h3.333c1.776 0 3.167 1.977 3.167 4.5s-1.391 4.5-3.167 4.5zm-2.833-1h2.833c1.175 0 2.167-1.603 2.167-3.5s-.992-3.5-2.167-3.5h-2.833z" fill="#212a41"/><path d="m10 38h15.097l-3-6h-7.027c-.669 0-1.293.334-1.664.891z" fill="#c2c2c2"/><path d="m25.098 38.5h-15.098c-.185 0-.354-.102-.44-.264-.088-.163-.078-.36.024-.514l3.406-5.109c.465-.697 1.242-1.113 2.08-1.113h7.027c.189 0 .362.107.447.276l3 6c.077.155.069.339-.021.486-.091.148-.252.238-.425.238zm-14.163-1h13.354l-2.5-5h-6.719c-.503 0-.969.25-1.248.668z" fill="#212a41"/><path d="m34.198 39.838-9.101-1.838h-18.097c-1.105 0-2 .895-2 2v5c0 1.105.895 2 2 2h27c.552 0 1-.448 1-1v-5.182c0-.476-.335-.886-.802-.98z" fill="#b51040"/><path d="m34 47.5h-27c-1.379 0-2.5-1.121-2.5-2.5v-5c0-1.379 1.121-2.5 2.5-2.5h18.098l9.199 1.848h.001c.696.142 1.202.76 1.202 1.471v5.181c0 .827-.673 1.5-1.5 1.5zm-9.001-9.01-17.999.01c-.827 0-1.5.673-1.5 1.5v5c0 .827.673 1.5 1.5 1.5h27c.275 0 .5-.225.5-.5v-5.182c0-.237-.169-.443-.4-.49z" fill="#212a41"/><path d="m33 45.5c-.276 0-.5-.224-.5-.5v-3.363c0-.276.224-.5.5-.5s.5.224.5.5v3.363c0 .276-.224.5-.5.5z" fill="#970022"/><path d="m38.097 38h-13l-3-6h10.93c.669 0 1.293.334 1.664.891z" fill="#e0e0e0"/><path d="m38.098 38.5h-13c-.189 0-.362-.107-.447-.276l-3-6c-.077-.155-.069-.339.021-.486.092-.147.253-.237.426-.237h10.93c.838 0 1.615.416 2.08 1.113l3.406 5.109c.103.153.112.351.024.514-.087.161-.256.263-.44.263zm-12.692-1h11.757l-2.888-4.332c-.279-.418-.745-.668-1.248-.668h-10.121z" fill="#212a41"/><path d="m25.097 38 9.101 1.838c.467.094.802.504.802.98v5.182c0 .552-.448 1-1 1h-1 13c.552 0 1-.448 1-1v-5.198c0-.469-.326-.875-.783-.976l-8.217-1.826z" fill="#d32e5e"/><path d="m46 47.5h-13c-.276 0-.5-.224-.5-.5s.224-.5.5-.5h1c.275 0 .5-.225.5-.5v-5.182c0-.237-.169-.443-.401-.49l-9.1-1.838c-.252-.051-.425-.284-.398-.54.025-.256.24-.45.497-.45h12.902c.036 0 .073.004.108.012l8.217 1.826c.691.153 1.175.756 1.175 1.464v5.198c0 .827-.673 1.5-1.5 1.5zm-10.586-1h10.586c.275 0 .5-.225.5-.5v-5.198c0-.236-.161-.437-.392-.487l-8.163-1.815h-7.845l4.197.848c.697.142 1.203.76 1.203 1.471v5.181c0 .175-.03.344-.086.5z" fill="#212a41"/><path d="m35 41h4v3h-4z" fill="#e0e0e0"/><path d="m39 44.5h-4c-.276 0-.5-.224-.5-.5v-3c0-.276.224-.5.5-.5h4c.276 0 .5.224.5.5v3c0 .276-.224.5-.5.5zm-3.5-1h3v-2h-3z" fill="#212a41"/><path d="m43 41h4v3h-4z" fill="#e0e0e0"/><path d="m47 44.5h-4c-.276 0-.5-.224-.5-.5v-3c0-.276.224-.5.5-.5h4c.276 0 .5.224.5.5v3c0 .276-.224.5-.5.5zm-3.5-1h3v-2h-3z" fill="#212a41"/><path d="m39 41h4v3h-4z" fill="#6c696f"/><path d="m43 44.5h-4c-.276 0-.5-.224-.5-.5v-3c0-.276.224-.5.5-.5h4c.276 0 .5.224.5.5v3c0 .276-.224.5-.5.5zm-3.5-1h3v-2h-3z" fill="#212a41"/><ellipse cx="11" cy="46" fill="#4e4b51" rx="3" ry="4"/><path d="m11 50.5c-1.93 0-3.5-2.019-3.5-4.5s1.57-4.5 3.5-4.5 3.5 2.019 3.5 4.5-1.57 4.5-3.5 4.5zm0-8c-1.379 0-2.5 1.57-2.5 3.5s1.121 3.5 2.5 3.5 2.5-1.57 2.5-3.5-1.121-3.5-2.5-3.5z" fill="#212a41"/><ellipse cx="25" cy="46" fill="#4e4b51" rx="3" ry="4"/><path d="m25 50.5c-1.93 0-3.5-2.019-3.5-4.5s1.57-4.5 3.5-4.5 3.5 2.019 3.5 4.5-1.57 4.5-3.5 4.5zm0-8c-1.379 0-2.5 1.57-2.5 3.5s1.121 3.5 2.5 3.5 2.5-1.57 2.5-3.5-1.121-3.5-2.5-3.5z" fill="#212a41"/><path d="m7 38.5c-.276 0-.5-.224-.5-.5v-2c0-.276.224-.5.5-.5s.5.224.5.5v2c0 .276-.224.5-.5.5z" fill="#212a41"/><path d="m22 50h38v10h-38z" fill="#6c696f"/><path d="m60 60.5h-38c-.276 0-.5-.224-.5-.5v-10c0-.276.224-.5.5-.5h38c.276 0 .5.224.5.5v10c0 .276-.224.5-.5.5zm-37.5-1h37v-9h-37z" fill="#212a41"/><path d="m58 58.5c-.276 0-.5-.224-.5-.5v-6c0-.276.224-.5.5-.5s.5.224.5.5v6c0 .276-.224.5-.5.5z" fill="#4e4b51"/><path d="m44 58.5c-.276 0-.5-.224-.5-.5v-6c0-.276.224-.5.5-.5s.5.224.5.5v6c0 .276-.224.5-.5.5z" fill="#8a878d"/><path d="m4 50h38v10h-38z" fill="#4e4b51"/><path d="m42 60.5h-38c-.276 0-.5-.224-.5-.5v-10c0-.276.224-.5.5-.5h38c.276 0 .5.224.5.5v10c0 .276-.224.5-.5.5zm-37.5-1h37v-9h-37z" fill="#212a41"/><path d="m40 58.5c-.276 0-.5-.224-.5-.5v-6c0-.276.224-.5.5-.5s.5.224.5.5v6c0 .276-.224.5-.5.5z" fill="#302d33"/><path d="m6 58.5c-.276 0-.5-.224-.5-.5v-6c0-.276.224-.5.5-.5s.5.224.5.5v6c0 .276-.224.5-.5.5z" fill="#6c696f"/><path d="m7 45.5c-.276 0-.5-.224-.5-.5v-5c0-.276.224-.5.5-.5s.5.224.5.5v5c0 .276-.224.5-.5.5z" fill="#d32e5e"/><path d="m58 45.5c-.276 0-.5-.224-.5-.5v-5c0-.276.224-.5.5-.5s.5.224.5.5v5c0 .276-.224.5-.5.5z" fill="#005b8a"/></svg>