<svg id="Icon_Set" enable-background="new 0 0 64 64" height="512" viewBox="0 0 64 64" width="512" xmlns="http://www.w3.org/2000/svg"><path d="m36 12c-13.255 0-24 10.745-24 24s10.745 24 24 24 24-10.745 24-24-10.745-24-24-24zm0 40c-8.837 0-16-7.163-16-16s7.163-16 16-16 16 7.163 16 16-7.163 16-16 16z" fill="#6c696f"/><path d="m36 60.5c-13.509 0-24.5-10.991-24.5-24.5s10.991-24.5 24.5-24.5 24.5 10.991 24.5 24.5-10.991 24.5-24.5 24.5zm0-48c-12.958 0-23.5 10.542-23.5 23.5s10.542 23.5 23.5 23.5 23.5-10.542 23.5-23.5-10.542-23.5-23.5-23.5zm0 40c-9.098 0-16.5-7.402-16.5-16.5s7.402-16.5 16.5-16.5 16.5 7.402 16.5 16.5-7.402 16.5-16.5 16.5zm0-32c-8.547 0-15.5 6.953-15.5 15.5s6.953 15.5 15.5 15.5 15.5-6.953 15.5-15.5-6.953-15.5-15.5-15.5z" fill="#212a41"/><path d="m12 36c0-13.255 10.745-24 24-24 0 0-4.163 0-8 0-13.255 0-24 10.745-24 24s10.745 24 24 24h8c-13.255 0-24-10.745-24-24z" fill="#4e4b51"/><path d="m36 60.5h-8c-13.509 0-24.5-10.991-24.5-24.5s10.991-24.5 24.5-24.5h8c.276 0 .5.224.5.5s-.224.5-.5.5c-12.958 0-23.5 10.542-23.5 23.5s10.542 23.5 23.5 23.5c.276 0 .5.224.5.5s-.224.5-.5.5zm-8-48c-12.958 0-23.5 10.542-23.5 23.5s10.542 23.5 23.5 23.5h1.062c-10.141-2.999-17.562-12.399-17.562-23.5s7.421-20.501 17.562-23.5z" fill="#212a41"/><path d="m36 20c-1.384 0-2.719.194-4 .524 6.897 1.779 12 8.023 12 15.476s-5.103 13.697-12 15.476c1.281.33 2.616.524 4 .524 8.837 0 16-7.163 16-16 0-.551-.033-1.107-.087-1.665-.833-8.054-7.639-14.335-15.913-14.335z" fill="#4e4b51"/><path d="m36 52.5c-1.346 0-2.734-.182-4.125-.54-.221-.057-.375-.256-.375-.484s.154-.427.375-.484c6.845-1.766 11.625-7.93 11.625-14.992s-4.78-13.226-11.625-14.991c-.221-.057-.375-.256-.375-.484s.154-.427.375-.484c1.391-.358 2.779-.54 4.125-.54 8.484 0 15.539 6.355 16.411 14.784.06.626.089 1.186.089 1.715 0 9.098-7.402 16.5-16.5 16.5zm-2.011-1.14c.678.093 1.351.14 2.011.14 8.547 0 15.5-6.953 15.5-15.5 0-.497-.028-1.025-.084-1.617-.819-7.913-7.446-13.883-15.416-13.883-.661 0-1.333.047-2.011.14 6.276 2.438 10.511 8.501 10.511 15.36s-4.235 12.922-10.511 15.36z" fill="#212a41"/><path d="m36 17.5c-10.217 0-18.5 8.283-18.5 18.5s8.283 18.5 18.5 18.5 18.5-8.283 18.5-18.5-8.283-18.5-18.5-18.5zm0 34.5c-8.837 0-16-7.163-16-16s7.163-16 16-16 16 7.163 16 16-7.163 16-16 16z" fill="#b7c0d7"/><path d="m36 55c-10.477 0-19-8.523-19-19s8.523-19 19-19 19 8.523 19 19-8.523 19-19 19zm0-37c-9.925 0-18 8.075-18 18s8.075 18 18 18 18-8.075 18-18-8.075-18-18-18zm0 34.5c-9.098 0-16.5-7.402-16.5-16.5s7.402-16.5 16.5-16.5 16.5 7.402 16.5 16.5-7.402 16.5-16.5 16.5zm0-32c-8.547 0-15.5 6.953-15.5 15.5s6.953 15.5 15.5 15.5 15.5-6.953 15.5-15.5-6.953-15.5-15.5-15.5z" fill="#212a41"/><path d="m14 36.5c-.276 0-.5-.224-.5-.5 0-12.407 10.093-22.5 22.5-22.5.276 0 .5.224.5.5s-.224.5-.5.5c-11.855 0-21.5 9.645-21.5 21.5 0 .276-.224.5-.5.5z" fill="#8a878d"/><path d="m36 58.5c-.276 0-.5-.224-.5-.5s.224-.5.5-.5c11.855 0 21.5-9.645 21.5-21.5 0-.276.224-.5.5-.5s.5.224.5.5c0 12.407-10.093 22.5-22.5 22.5z" fill="#4e4b51"/><path d="m52 36c0-.506-.03-1.006-.076-1.5h-12.303l8.703-8.703c-.639-.771-1.35-1.482-2.121-2.121l-8.703 8.703v-12.303c-.494-.046-.994-.076-1.5-.076s-1.006.03-1.5.076v12.303l-8.703-8.703c-.771.639-1.482 1.35-2.121 2.121l8.703 8.703h-12.303c-.046.494-.076.994-.076 1.5s.03 1.006.076 1.5h12.303l-8.703 8.703c.639.771 1.35 1.482 2.121 2.121l8.703-8.703v12.303c.494.046.994.076 1.5.076s1.006-.03 1.5-.076v-12.303l8.703 8.703c.771-.639 1.482-1.35 2.121-2.121l-8.703-8.703h12.303c.046-.494.076-.994.076-1.5z" fill="#e0e0e0"/><path d="m36 52.5c-.477 0-.982-.025-1.546-.078-.257-.024-.454-.239-.454-.498v-11.096l-7.849 7.849c-.183.183-.474.196-.673.031-.793-.658-1.529-1.394-2.187-2.187-.165-.199-.151-.49.031-.673l7.85-7.848h-11.096c-.258 0-.474-.197-.498-.454-.053-.564-.078-1.069-.078-1.546s.025-.982.078-1.546c.024-.257.239-.454.498-.454h11.096l-7.849-7.849c-.183-.183-.196-.474-.031-.673.658-.793 1.394-1.529 2.187-2.187.199-.166.49-.151.673.031l7.848 7.85v-11.096c0-.258.197-.474.454-.498 1.128-.104 1.965-.104 3.093 0 .256.024.453.239.453.498v11.096l7.849-7.849c.182-.183.474-.196.673-.031.793.658 1.529 1.394 2.187 2.187.165.199.151.49-.031.673l-7.85 7.848h11.096c.258 0 .474.197.498.454.053.564.078 1.069.078 1.546s-.025.982-.078 1.546c-.024.257-.239.454-.498.454h-11.096l7.849 7.849c.183.183.196.474.031.673-.658.793-1.394 1.529-2.187 2.187-.2.164-.491.151-.673-.031l-7.848-7.85v11.096c0 .258-.197.474-.454.498-.564.053-1.069.078-1.546.078zm-1-1.037c.71.049 1.29.049 2 0v-11.842c0-.202.122-.385.309-.462.188-.077.402-.034.545.108l8.376 8.375c.5-.44.974-.914 1.414-1.414l-8.375-8.376c-.143-.143-.186-.358-.108-.545.075-.185.258-.307.46-.307h11.842c.024-.355.037-.685.037-1s-.012-.645-.037-1h-11.842c-.202 0-.385-.122-.462-.309-.078-.187-.035-.402.108-.545l8.375-8.376c-.44-.5-.914-.974-1.414-1.414l-8.376 8.375c-.143.143-.357.186-.545.108-.185-.075-.307-.258-.307-.46v-11.842c-.71-.049-1.29-.049-2 0v11.842c0 .202-.122.385-.309.462-.187.078-.402.035-.545-.108l-8.376-8.375c-.5.44-.974.914-1.414 1.414l8.375 8.376c.143.143.186.358.108.545-.075.185-.258.307-.46.307h-11.842c-.024.355-.037.685-.037 1s.012.645.037 1h11.842c.202 0 .385.122.462.309.078.187.035.402-.108.545l-8.375 8.376c.44.5.914.974 1.414 1.414l8.376-8.375c.143-.143.358-.187.545-.108.185.075.307.258.307.46z" fill="#212a41"/><circle cx="36" cy="36" fill="#e0e0e0" r="6"/><path d="m36 42.5c-3.584 0-6.5-2.916-6.5-6.5s2.916-6.5 6.5-6.5 6.5 2.916 6.5 6.5-2.916 6.5-6.5 6.5zm0-12c-3.033 0-5.5 2.467-5.5 5.5s2.467 5.5 5.5 5.5 5.5-2.467 5.5-5.5-2.467-5.5-5.5-5.5z" fill="#212a41"/><circle cx="36" cy="36" fill="#b7c0d7" r="3"/><path d="m36 39.5c-1.93 0-3.5-1.57-3.5-3.5s1.57-3.5 3.5-3.5 3.5 1.57 3.5 3.5-1.57 3.5-3.5 3.5zm0-6c-1.378 0-2.5 1.122-2.5 2.5s1.122 2.5 2.5 2.5 2.5-1.122 2.5-2.5-1.122-2.5-2.5-2.5z" fill="#212a41"/><path d="m57 11c0-3.866-3.134-7-7-7s-7 3.134-7 7c0 3.17 2.109 5.845 5 6.706v5.294h4v-5.294c2.891-.861 5-3.536 5-6.706z" fill="#0079a8"/><path d="m52 23.5h-4c-.276 0-.5-.224-.5-.5v-4.931c-2.962-1.049-5-3.903-5-7.069 0-4.136 3.364-7.5 7.5-7.5s7.5 3.364 7.5 7.5c0 3.166-2.038 6.02-5 7.069v4.931c0 .276-.224.5-.5.5zm-3.5-1h3v-4.794c0-.221.146-.416.357-.479 2.734-.814 4.643-3.375 4.643-6.227 0-3.584-2.916-6.5-6.5-6.5s-6.5 2.916-6.5 6.5c0 2.852 1.909 5.413 4.643 6.227.212.063.357.258.357.479z" fill="#212a41"/><path d="m60 11c0-3.866-3.134-7-7-7s-7 3.134-7 7c0 3.17 2.109 5.845 5 6.706v5.294h4v-5.294c2.891-.861 5-3.536 5-6.706z" fill="#0079a8"/><path d="m55 23.5h-4c-.276 0-.5-.224-.5-.5v-4.931c-2.962-1.049-5-3.903-5-7.069 0-4.136 3.364-7.5 7.5-7.5s7.5 3.364 7.5 7.5c0 3.166-2.038 6.02-5 7.069v4.931c0 .276-.224.5-.5.5zm-3.5-1h3v-4.794c0-.221.146-.416.357-.479 2.734-.814 4.643-3.375 4.643-6.227 0-3.584-2.916-6.5-6.5-6.5s-6.5 2.916-6.5 6.5c0 2.852 1.909 5.413 4.643 6.227.212.063.357.258.357.479z" fill="#212a41"/><circle cx="53" cy="11" fill="#e0e0e0" r="7"/><g fill="#212a41"><path d="m53 18.5c-4.136 0-7.5-3.364-7.5-7.5s3.364-7.5 7.5-7.5 7.5 3.364 7.5 7.5-3.364 7.5-7.5 7.5zm0-14c-3.584 0-6.5 2.916-6.5 6.5s2.916 6.5 6.5 6.5 6.5-2.916 6.5-6.5-2.916-6.5-6.5-6.5z"/><path d="m53 11.5c-.162 0-.32-.078-.417-.223l-2-3c-.153-.23-.091-.54.139-.693s.54-.091.693.139l2 3c.153.23.091.54-.139.693-.084.057-.18.084-.276.084z"/></g></svg>