<svg id="Icon_Set" enable-background="new 0 0 64 64" height="512" viewBox="0 0 64 64" width="512" xmlns="http://www.w3.org/2000/svg"><path d="m44 55h-34l15-50h4z" fill="#db8e11"/><path d="m44 55.5h-34c-.158 0-.307-.075-.401-.202-.094-.126-.123-.291-.077-.442l15-50c.063-.211.257-.356.478-.356h4c.221 0 .415.145.479.356l15 50c.046.151.017.315-.077.442-.095.127-.244.202-.402.202zm-33.328-1h32.656l-14.7-49h-3.256z" fill="#212a41"/><path d="m19.6 23h14.8l-2.4-8h-10z" fill="#e0e0e0"/><path d="m14.8 39h24.4l-2.4-8h-19.6z" fill="#e0e0e0"/><path d="m12.688 53.5c-.048 0-.096-.007-.144-.021-.265-.08-.415-.358-.335-.623l13.8-46c.079-.265.36-.413.622-.335.265.08.415.358.335.623l-13.8 46c-.063.216-.263.356-.478.356z" fill="#f9ac2f"/><path d="m16.889 39.5c-.048 0-.096-.007-.144-.021-.265-.08-.415-.358-.335-.623l2.399-8c.079-.265.36-.414.622-.335.265.08.415.358.335.623l-2.399 8c-.064.216-.263.356-.478.356z" fill="#fefefe"/><path d="m21.688 23.5c-.048 0-.096-.007-.144-.021-.265-.08-.415-.358-.335-.623l2.399-8c.079-.265.361-.411.622-.335.265.08.415.358.335.623l-2.399 8c-.063.216-.263.356-.478.356z" fill="#fefefe"/><path d="m48 59h-42c-.552 0-1-.448-1-1v-2c0-.552.448-1 1-1h42c.552 0 1 .448 1 1v2c0 .552-.448 1-1 1z" fill="#db8e11"/><g fill="#212a41"><path d="m48 59.5h-42c-.827 0-1.5-.673-1.5-1.5v-2c0-.827.673-1.5 1.5-1.5h42c.827 0 1.5.673 1.5 1.5v2c0 .827-.673 1.5-1.5 1.5zm-42-4c-.275 0-.5.224-.5.5v2c0 .276.225.5.5.5h42c.275 0 .5-.224.5-.5v-2c0-.276-.225-.5-.5-.5z"/><path d="m34.4 23.5h-14.8c-.158 0-.307-.075-.401-.202-.094-.126-.123-.291-.077-.442l2.4-8c.063-.211.257-.356.478-.356h10c.221 0 .415.145.479.356l2.4 8c.046.151.017.315-.077.442-.095.127-.243.202-.402.202zm-14.129-1h13.457l-2.101-7h-9.256z"/><path d="m39.2 39.5h-24.4c-.158 0-.307-.075-.401-.202-.094-.126-.123-.291-.077-.442l2.4-8c.063-.211.258-.356.479-.356h19.6c.221 0 .415.145.479.356l2.4 8c.046.151.017.315-.077.442-.096.127-.245.202-.403.202zm-23.728-1h23.057l-2.101-7h-18.856z"/></g><path d="m54 55h-34l15-50h4z" fill="#f9ac2f"/><path d="m54 55.5h-34c-.158 0-.307-.075-.401-.202-.094-.126-.123-.291-.077-.442l15-50c.063-.211.257-.356.478-.356h4c.221 0 .415.145.479.356l15 50c.046.151.017.315-.077.442-.095.127-.244.202-.402.202zm-33.328-1h32.656l-14.7-49h-3.256z" fill="#212a41"/><path d="m29.6 23h14.8l-2.4-8h-10z" fill="#e0e0e0"/><path d="m24.8 39h24.4l-2.4-8h-19.6z" fill="#e0e0e0"/><path d="m22.688 53.5c-.048 0-.096-.007-.144-.021-.265-.08-.415-.358-.335-.623l13.8-46c.079-.265.361-.413.622-.335.265.08.415.358.335.623l-13.8 46c-.063.216-.263.356-.478.356z" fill="#ffca4d"/><path d="m26.889 39.5c-.048 0-.096-.007-.144-.021-.265-.08-.415-.358-.335-.623l2.399-8c.079-.265.358-.414.622-.335.265.08.415.358.335.623l-2.399 8c-.064.216-.263.356-.478.356z" fill="#fefefe"/><path d="m31.688 23.5c-.048 0-.096-.007-.144-.021-.265-.08-.415-.358-.335-.623l2.399-8c.079-.265.359-.411.622-.335.265.08.415.358.335.623l-2.399 8c-.063.216-.263.356-.478.356z" fill="#fefefe"/><path d="m58 59h-42c-.552 0-1-.448-1-1v-2c0-.552.448-1 1-1h42c.552 0 1 .448 1 1v2c0 .552-.448 1-1 1z" fill="#f9ac2f"/><path d="m58 59.5h-42c-.827 0-1.5-.673-1.5-1.5v-2c0-.827.673-1.5 1.5-1.5h42c.827 0 1.5.673 1.5 1.5v2c0 .827-.673 1.5-1.5 1.5zm-42-4c-.275 0-.5.224-.5.5v2c0 .276.225.5.5.5h42c.275 0 .5-.224.5-.5v-2c0-.276-.225-.5-.5-.5z" fill="#212a41"/><path d="m51.312 53.5c-.215 0-.414-.14-.479-.356l-13.8-46c-.08-.264.07-.543.335-.623.262-.078.543.07.622.335l13.8 46c.08.264-.07.543-.335.623-.048.014-.096.021-.143.021z" fill="#db8e11"/><path d="m47.111 39.5c-.215 0-.414-.14-.479-.356l-2.399-8c-.08-.265.07-.543.335-.623.262-.079.543.07.622.335l2.399 8c.08.265-.07.543-.335.623-.047.014-.095.021-.143.021z" fill="#c2c2c2"/><path d="m42.312 23.5c-.215 0-.414-.14-.479-.356l-2.399-8c-.08-.265.07-.543.335-.623.264-.077.543.07.622.335l2.399 8c.08.265-.07.543-.335.623-.048.014-.096.021-.143.021z" fill="#c2c2c2"/><path d="m44.4 23.5h-14.8c-.158 0-.307-.075-.401-.202-.094-.126-.123-.291-.077-.442l2.4-8c.063-.211.257-.356.478-.356h10c.221 0 .415.145.479.356l2.4 8c.046.151.017.315-.077.442-.095.127-.243.202-.402.202zm-14.129-1h13.457l-2.101-7h-9.256z" fill="#212a41"/><path d="m49.2 39.5h-24.4c-.158 0-.307-.075-.401-.202-.094-.126-.123-.291-.077-.442l2.4-8c.063-.211.258-.356.479-.356h19.6c.221 0 .415.145.479.356l2.4 8c.046.151.017.315-.077.442-.096.127-.245.202-.403.202zm-23.728-1h23.057l-2.101-7h-18.856z" fill="#212a41"/></svg>