<svg id="Icon_Set" enable-background="new 0 0 64 64" height="512" viewBox="0 0 64 64" width="512" xmlns="http://www.w3.org/2000/svg"><path d="m52 14h-46c-.552 0-1-.448-1-1v-4c0-.552.448-1 1-1h46c.552 0 1 .448 1 1v4c0 .552-.448 1-1 1z" fill="#c2c2c2"/><path d="m52 14.5h-46c-.827 0-1.5-.673-1.5-1.5v-4c0-.827.673-1.5 1.5-1.5h46c.827 0 1.5.673 1.5 1.5v4c0 .827-.673 1.5-1.5 1.5zm-46-6c-.276 0-.5.224-.5.5v4c0 .276.224.5.5.5h46c.276 0 .5-.224.5-.5v-4c0-.276-.224-.5-.5-.5z" fill="#212a41"/><path d="m58 14h-46c-.552 0-1-.448-1-1v-4c0-.552.448-1 1-1h46c.552 0 1 .448 1 1v4c0 .552-.448 1-1 1z" fill="#e0e0e0"/><path d="m58 14.5h-46c-.827 0-1.5-.673-1.5-1.5v-4c0-.827.673-1.5 1.5-1.5h46c.827 0 1.5.673 1.5 1.5v4c0 .827-.673 1.5-1.5 1.5zm-46-6c-.276 0-.5.224-.5.5v4c0 .276.224.5.5.5h46c.276 0 .5-.224.5-.5v-4c0-.276-.224-.5-.5-.5z" fill="#212a41"/><path d="m15 56h-8c-1.105 0-2-.895-2-2v-30c0-1.105.895-2 2-2h8c1.105 0 2 .895 2 2v30c0 1.105-.895 2-2 2z" fill="#4e4b51"/><path d="m15 56.5h-8c-1.378 0-2.5-1.122-2.5-2.5v-30c0-1.378 1.122-2.5 2.5-2.5h8c1.378 0 2.5 1.122 2.5 2.5v30c0 1.378-1.122 2.5-2.5 2.5zm-8-34c-.827 0-1.5.673-1.5 1.5v30c0 .827.673 1.5 1.5 1.5h8c.827 0 1.5-.673 1.5-1.5v-30c0-.827-.673-1.5-1.5-1.5z" fill="#212a41"/><path d="m21 56h-10c-1.105 0-2-.895-2-2v-30c0-1.105.895-2 2-2h10c1.105 0 2 .895 2 2v30c0 1.105-.895 2-2 2z" fill="#6c696f"/><path d="m21 56.5h-10c-1.378 0-2.5-1.122-2.5-2.5v-30c0-1.378 1.122-2.5 2.5-2.5h10c1.378 0 2.5 1.122 2.5 2.5v30c0 1.378-1.122 2.5-2.5 2.5zm-10-34c-.827 0-1.5.673-1.5 1.5v30c0 .827.673 1.5 1.5 1.5h10c.827 0 1.5-.673 1.5-1.5v-30c0-.827-.673-1.5-1.5-1.5z" fill="#212a41"/><circle cx="16" cy="30" fill="#d32e5e" r="4"/><path d="m16 34.5c-2.481 0-4.5-2.019-4.5-4.5s2.019-4.5 4.5-4.5 4.5 2.019 4.5 4.5-2.019 4.5-4.5 4.5zm0-8c-1.93 0-3.5 1.57-3.5 3.5s1.57 3.5 3.5 3.5 3.5-1.57 3.5-3.5-1.57-3.5-3.5-3.5z" fill="#212a41"/><path d="m16 32.5c-.276 0-.5-.224-.5-.5s.224-.5.5-.5c.827 0 1.5-.673 1.5-1.5 0-.276.224-.5.5-.5s.5.224.5.5c0 1.378-1.122 2.5-2.5 2.5z" fill="#b51040"/><path d="m14 30.5c-.276 0-.5-.224-.5-.5 0-1.378 1.122-2.5 2.5-2.5.276 0 .5.224.5.5s-.224.5-.5.5c-.827 0-1.5.673-1.5 1.5 0 .276-.224.5-.5.5z" fill="#f14c7c"/><circle cx="16" cy="39" fill="#f9ac2f" r="4"/><path d="m16 43.5c-2.481 0-4.5-2.019-4.5-4.5s2.019-4.5 4.5-4.5 4.5 2.019 4.5 4.5-2.019 4.5-4.5 4.5zm0-8c-1.93 0-3.5 1.57-3.5 3.5s1.57 3.5 3.5 3.5 3.5-1.57 3.5-3.5-1.57-3.5-3.5-3.5z" fill="#212a41"/><circle cx="16" cy="48" fill="#bed38e" r="4"/><path d="m16 52.5c-2.481 0-4.5-2.019-4.5-4.5s2.019-4.5 4.5-4.5 4.5 2.019 4.5 4.5-2.019 4.5-4.5 4.5zm0-8c-1.93 0-3.5 1.57-3.5 3.5s1.57 3.5 3.5 3.5 3.5-1.57 3.5-3.5-1.57-3.5-3.5-3.5z" fill="#212a41"/><path d="m14 14h3v8h-3z" fill="#e0e0e0"/><path d="m17 22.5h-3c-.276 0-.5-.224-.5-.5v-8c0-.276.224-.5.5-.5h3c.276 0 .5.224.5.5v8c0 .276-.224.5-.5.5zm-2.5-1h2v-7h-2z" fill="#212a41"/><path d="m11 14h3v8h-3z" fill="#c2c2c2"/><path d="m14 22.5h-3c-.276 0-.5-.224-.5-.5v-8c0-.276.224-.5.5-.5h3c.276 0 .5.224.5.5v8c0 .276-.224.5-.5.5zm-2.5-1h2v-7h-2z" fill="#212a41"/><path d="m32 14h3v8h-3z" fill="#e0e0e0"/><path d="m35 22.5h-3c-.276 0-.5-.224-.5-.5v-8c0-.276.224-.5.5-.5h3c.276 0 .5.224.5.5v8c0 .276-.224.5-.5.5zm-2.5-1h2v-7h-2z" fill="#212a41"/><path d="m29 14h3v8h-3z" fill="#c2c2c2"/><path d="m32 22.5h-3c-.276 0-.5-.224-.5-.5v-8c0-.276.224-.5.5-.5h3c.276 0 .5.224.5.5v8c0 .276-.224.5-.5.5zm-2.5-1h2v-7h-2z" fill="#212a41"/><path d="m50 14h3v8h-3z" fill="#e0e0e0"/><path d="m53 22.5h-3c-.276 0-.5-.224-.5-.5v-8c0-.276.224-.5.5-.5h3c.276 0 .5.224.5.5v8c0 .276-.224.5-.5.5zm-2.5-1h2v-7h-2z" fill="#212a41"/><path d="m47 14h3v8h-3z" fill="#c2c2c2"/><path d="m50 22.5h-3c-.276 0-.5-.224-.5-.5v-8c0-.276.224-.5.5-.5h3c.276 0 .5.224.5.5v8c0 .276-.224.5-.5.5zm-2.5-1h2v-7h-2z" fill="#212a41"/><path d="m11 54.5c-.276 0-.5-.224-.5-.5v-30c0-.276.224-.5.5-.5s.5.224.5.5v30c0 .276-.224.5-.5.5z" fill="#8a878d"/><path d="m21 54.5c-.276 0-.5-.224-.5-.5v-30c0-.276.224-.5.5-.5s.5.224.5.5v30c0 .276-.224.5-.5.5z" fill="#4e4b51"/><path d="m16 41.5c-.276 0-.5-.224-.5-.5s.224-.5.5-.5c.827 0 1.5-.673 1.5-1.5 0-.276.224-.5.5-.5s.5.224.5.5c0 1.378-1.122 2.5-2.5 2.5z" fill="#db8e11"/><path d="m14 39.5c-.276 0-.5-.224-.5-.5 0-1.378 1.122-2.5 2.5-2.5.276 0 .5.224.5.5s-.224.5-.5.5c-.827 0-1.5.673-1.5 1.5 0 .276-.224.5-.5.5z" fill="#ffca4d"/><path d="m16 50.5c-.276 0-.5-.224-.5-.5s.224-.5.5-.5c.827 0 1.5-.673 1.5-1.5 0-.276.224-.5.5-.5s.5.224.5.5c0 1.378-1.122 2.5-2.5 2.5z" fill="#a0b570"/><path d="m14 48.5c-.276 0-.5-.224-.5-.5 0-1.378 1.122-2.5 2.5-2.5.276 0 .5.224.5.5s-.224.5-.5.5c-.827 0-1.5.673-1.5 1.5 0 .276-.224.5-.5.5z" fill="#dcf1ac"/><path d="m33 56h-8c-1.105 0-2-.895-2-2v-30c0-1.105.895-2 2-2h8c1.105 0 2 .895 2 2v30c0 1.105-.895 2-2 2z" fill="#4e4b51"/><path d="m33 56.5h-8c-1.378 0-2.5-1.122-2.5-2.5v-30c0-1.378 1.122-2.5 2.5-2.5h8c1.378 0 2.5 1.122 2.5 2.5v30c0 1.378-1.122 2.5-2.5 2.5zm-8-34c-.827 0-1.5.673-1.5 1.5v30c0 .827.673 1.5 1.5 1.5h8c.827 0 1.5-.673 1.5-1.5v-30c0-.827-.673-1.5-1.5-1.5z" fill="#212a41"/><path d="m39 56h-10c-1.105 0-2-.895-2-2v-30c0-1.105.895-2 2-2h10c1.105 0 2 .895 2 2v30c0 1.105-.895 2-2 2z" fill="#6c696f"/><path d="m39 56.5h-10c-1.378 0-2.5-1.122-2.5-2.5v-30c0-1.378 1.122-2.5 2.5-2.5h10c1.378 0 2.5 1.122 2.5 2.5v30c0 1.378-1.122 2.5-2.5 2.5zm-10-34c-.827 0-1.5.673-1.5 1.5v30c0 .827.673 1.5 1.5 1.5h10c.827 0 1.5-.673 1.5-1.5v-30c0-.827-.673-1.5-1.5-1.5z" fill="#212a41"/><circle cx="34" cy="30" fill="#d32e5e" r="4"/><path d="m34 34.5c-2.481 0-4.5-2.019-4.5-4.5s2.019-4.5 4.5-4.5 4.5 2.019 4.5 4.5-2.019 4.5-4.5 4.5zm0-8c-1.93 0-3.5 1.57-3.5 3.5s1.57 3.5 3.5 3.5 3.5-1.57 3.5-3.5-1.57-3.5-3.5-3.5z" fill="#212a41"/><path d="m34 32.5c-.276 0-.5-.224-.5-.5s.224-.5.5-.5c.827 0 1.5-.673 1.5-1.5 0-.276.224-.5.5-.5s.5.224.5.5c0 1.378-1.122 2.5-2.5 2.5z" fill="#b51040"/><path d="m32 30.5c-.276 0-.5-.224-.5-.5 0-1.378 1.122-2.5 2.5-2.5.276 0 .5.224.5.5s-.224.5-.5.5c-.827 0-1.5.673-1.5 1.5 0 .276-.224.5-.5.5z" fill="#f14c7c"/><circle cx="34" cy="39" fill="#f9ac2f" r="4"/><path d="m34 43.5c-2.481 0-4.5-2.019-4.5-4.5s2.019-4.5 4.5-4.5 4.5 2.019 4.5 4.5-2.019 4.5-4.5 4.5zm0-8c-1.93 0-3.5 1.57-3.5 3.5s1.57 3.5 3.5 3.5 3.5-1.57 3.5-3.5-1.57-3.5-3.5-3.5z" fill="#212a41"/><circle cx="34" cy="48" fill="#bed38e" r="4"/><path d="m34 52.5c-2.481 0-4.5-2.019-4.5-4.5s2.019-4.5 4.5-4.5 4.5 2.019 4.5 4.5-2.019 4.5-4.5 4.5zm0-8c-1.93 0-3.5 1.57-3.5 3.5s1.57 3.5 3.5 3.5 3.5-1.57 3.5-3.5-1.57-3.5-3.5-3.5z" fill="#212a41"/><path d="m29 54.5c-.276 0-.5-.224-.5-.5v-30c0-.276.224-.5.5-.5s.5.224.5.5v30c0 .276-.224.5-.5.5z" fill="#8a878d"/><path d="m39 54.5c-.276 0-.5-.224-.5-.5v-30c0-.276.224-.5.5-.5s.5.224.5.5v30c0 .276-.224.5-.5.5z" fill="#4e4b51"/><path d="m34 41.5c-.276 0-.5-.224-.5-.5s.224-.5.5-.5c.827 0 1.5-.673 1.5-1.5 0-.276.224-.5.5-.5s.5.224.5.5c0 1.378-1.122 2.5-2.5 2.5z" fill="#db8e11"/><path d="m32 39.5c-.276 0-.5-.224-.5-.5 0-1.378 1.122-2.5 2.5-2.5.276 0 .5.224.5.5s-.224.5-.5.5c-.827 0-1.5.673-1.5 1.5 0 .276-.224.5-.5.5z" fill="#ffca4d"/><path d="m34 50.5c-.276 0-.5-.224-.5-.5s.224-.5.5-.5c.827 0 1.5-.673 1.5-1.5 0-.276.224-.5.5-.5s.5.224.5.5c0 1.378-1.122 2.5-2.5 2.5z" fill="#a0b570"/><path d="m32 48.5c-.276 0-.5-.224-.5-.5 0-1.378 1.122-2.5 2.5-2.5.276 0 .5.224.5.5s-.224.5-.5.5c-.827 0-1.5.673-1.5 1.5 0 .276-.224.5-.5.5z" fill="#dcf1ac"/><path d="m51 56h-8c-1.105 0-2-.895-2-2v-30c0-1.105.895-2 2-2h8c1.105 0 2 .895 2 2v30c0 1.105-.895 2-2 2z" fill="#4e4b51"/><path d="m51 56.5h-8c-1.378 0-2.5-1.122-2.5-2.5v-30c0-1.378 1.122-2.5 2.5-2.5h8c1.378 0 2.5 1.122 2.5 2.5v30c0 1.378-1.122 2.5-2.5 2.5zm-8-34c-.827 0-1.5.673-1.5 1.5v30c0 .827.673 1.5 1.5 1.5h8c.827 0 1.5-.673 1.5-1.5v-30c0-.827-.673-1.5-1.5-1.5z" fill="#212a41"/><path d="m57 56h-10c-1.105 0-2-.895-2-2v-30c0-1.105.895-2 2-2h10c1.105 0 2 .895 2 2v30c0 1.105-.895 2-2 2z" fill="#6c696f"/><path d="m57 56.5h-10c-1.378 0-2.5-1.122-2.5-2.5v-30c0-1.378 1.122-2.5 2.5-2.5h10c1.378 0 2.5 1.122 2.5 2.5v30c0 1.378-1.122 2.5-2.5 2.5zm-10-34c-.827 0-1.5.673-1.5 1.5v30c0 .827.673 1.5 1.5 1.5h10c.827 0 1.5-.673 1.5-1.5v-30c0-.827-.673-1.5-1.5-1.5z" fill="#212a41"/><circle cx="52" cy="30" fill="#d32e5e" r="4"/><path d="m52 34.5c-2.481 0-4.5-2.019-4.5-4.5s2.019-4.5 4.5-4.5 4.5 2.019 4.5 4.5-2.019 4.5-4.5 4.5zm0-8c-1.93 0-3.5 1.57-3.5 3.5s1.57 3.5 3.5 3.5 3.5-1.57 3.5-3.5-1.57-3.5-3.5-3.5z" fill="#212a41"/><path d="m52 32.5c-.276 0-.5-.224-.5-.5s.224-.5.5-.5c.827 0 1.5-.673 1.5-1.5 0-.276.224-.5.5-.5s.5.224.5.5c0 1.378-1.122 2.5-2.5 2.5z" fill="#b51040"/><path d="m50 30.5c-.276 0-.5-.224-.5-.5 0-1.378 1.122-2.5 2.5-2.5.276 0 .5.224.5.5s-.224.5-.5.5c-.827 0-1.5.673-1.5 1.5 0 .276-.224.5-.5.5z" fill="#f14c7c"/><circle cx="52" cy="39" fill="#f9ac2f" r="4"/><path d="m52 43.5c-2.481 0-4.5-2.019-4.5-4.5s2.019-4.5 4.5-4.5 4.5 2.019 4.5 4.5-2.019 4.5-4.5 4.5zm0-8c-1.93 0-3.5 1.57-3.5 3.5s1.57 3.5 3.5 3.5 3.5-1.57 3.5-3.5-1.57-3.5-3.5-3.5z" fill="#212a41"/><circle cx="52" cy="48" fill="#bed38e" r="4"/><path d="m52 52.5c-2.481 0-4.5-2.019-4.5-4.5s2.019-4.5 4.5-4.5 4.5 2.019 4.5 4.5-2.019 4.5-4.5 4.5zm0-8c-1.93 0-3.5 1.57-3.5 3.5s1.57 3.5 3.5 3.5 3.5-1.57 3.5-3.5-1.57-3.5-3.5-3.5z" fill="#212a41"/><path d="m47 54.5c-.276 0-.5-.224-.5-.5v-30c0-.276.224-.5.5-.5s.5.224.5.5v30c0 .276-.224.5-.5.5z" fill="#8a878d"/><path d="m57 54.5c-.276 0-.5-.224-.5-.5v-30c0-.276.224-.5.5-.5s.5.224.5.5v30c0 .276-.224.5-.5.5z" fill="#4e4b51"/><path d="m52 41.5c-.276 0-.5-.224-.5-.5s.224-.5.5-.5c.827 0 1.5-.673 1.5-1.5 0-.276.224-.5.5-.5s.5.224.5.5c0 1.378-1.122 2.5-2.5 2.5z" fill="#db8e11"/><path d="m50 39.5c-.276 0-.5-.224-.5-.5 0-1.378 1.122-2.5 2.5-2.5.276 0 .5.224.5.5s-.224.5-.5.5c-.827 0-1.5.673-1.5 1.5 0 .276-.224.5-.5.5z" fill="#ffca4d"/><path d="m52 50.5c-.276 0-.5-.224-.5-.5s.224-.5.5-.5c.827 0 1.5-.673 1.5-1.5 0-.276.224-.5.5-.5s.5.224.5.5c0 1.378-1.122 2.5-2.5 2.5z" fill="#a0b570"/><path d="m50 48.5c-.276 0-.5-.224-.5-.5 0-1.378 1.122-2.5 2.5-2.5.276 0 .5.224.5.5s-.224.5-.5.5c-.827 0-1.5.673-1.5 1.5 0 .276-.224.5-.5.5z" fill="#dcf1ac"/></svg>