<svg id="Icon_Set" enable-background="new 0 0 64 64" height="512" viewBox="0 0 64 64" width="512" xmlns="http://www.w3.org/2000/svg"><path d="m4 54h38v6h-38z" fill="#4e4b51" transform="matrix(-1 0 0 -1 46 114)"/><path d="m42 60.5h-38c-.276 0-.5-.224-.5-.5v-6c0-.276.224-.5.5-.5h38c.276 0 .5.224.5.5v6c0 .276-.224.5-.5.5zm-37.5-1h37v-5h-37z" fill="#212a41"/><path d="m22 54h38v6h-38z" fill="#6c696f" transform="matrix(-1 0 0 -1 82 114)"/><path d="m60 60.5h-38c-.276 0-.5-.224-.5-.5v-6c0-.276.224-.5.5-.5h38c.276 0 .5.224.5.5v6c0 .276-.224.5-.5.5zm-37.5-1h37v-5h-37z" fill="#212a41"/><path d="m20.5 46h-3v8h3c.828 0 1.5-1.791 1.5-4s-.672-4-1.5-4z" fill="#6c696f"/><path d="m20.5 54.5h-3c-.276 0-.5-.224-.5-.5v-8c0-.276.224-.5.5-.5h3c1.313 0 2 2.264 2 4.5s-.687 4.5-2 4.5zm-2.5-1h2.5c.29 0 1-1.227 1-3.5s-.71-3.5-1-3.5h-2.5z" fill="#212a41"/><path d="m46 46h-3v8h3c.828 0 1.5-1.791 1.5-4s-.672-4-1.5-4z" fill="#6c696f"/><path d="m46 54.5h-3c-.276 0-.5-.224-.5-.5v-8c0-.276.224-.5.5-.5h3c1.313 0 2 2.264 2 4.5s-.687 4.5-2 4.5zm-2.5-1h2.5c.29 0 1-1.227 1-3.5s-.71-3.5-1-3.5h-2.5z" fill="#212a41"/><ellipse cx="43" cy="50" fill="#4e4b51" rx="1.5" ry="4"/><path d="m43 54.5c-1.313 0-2-2.264-2-4.5s.687-4.5 2-4.5 2 2.264 2 4.5-.687 4.5-2 4.5zm0-8c-.29 0-1 1.227-1 3.5s.71 3.5 1 3.5 1-1.227 1-3.5-.71-3.5-1-3.5z" fill="#212a41"/><path d="m31.5 46h-3v8h3c.828 0 1.5-1.791 1.5-4s-.672-4-1.5-4z" fill="#6c696f"/><path d="m31.5 54.5h-3c-.276 0-.5-.224-.5-.5v-8c0-.276.224-.5.5-.5h3c1.313 0 2 2.264 2 4.5s-.687 4.5-2 4.5zm-2.5-1h2.5c.29 0 1-1.227 1-3.5s-.71-3.5-1-3.5h-2.5z" fill="#212a41"/><path d="m23.5 40h-8l-1-3h9z" fill="#6c696f"/><path d="m23.5 40.5h-8c-.215 0-.406-.138-.475-.342l-1-3c-.051-.152-.025-.32.069-.45.094-.131.244-.208.405-.208h9c.276 0 .5.224.5.5v3c.001.276-.223.5-.499.5zm-7.64-1h7.14v-2h-7.807z" fill="#212a41"/><path d="m16.5 42h11.097l-3-6h-3.027c-.669 0-1.293.334-1.664.891z" fill="#c2c2c2"/><path d="m27.598 42.5h-11.098c-.185 0-.354-.102-.44-.264-.088-.163-.078-.36.024-.514l3.406-5.109c.465-.697 1.242-1.113 2.08-1.113h3.027c.189 0 .362.107.447.276l3 6c.077.155.069.339-.021.486-.091.148-.252.238-.425.238zm-10.163-1h9.354l-2.5-5h-2.719c-.503 0-.969.25-1.248.668z" fill="#212a41"/><path d="m33.5 44-5.903-2h-11.097c-1.105 0-2 .895-2 2v5c0 1.105.895 2 2 2h16c.552 0 1-.448 1-1z" fill="#db8e11"/><path d="m32.5 51.5h-16c-1.379 0-2.5-1.121-2.5-2.5v-5c0-1.379 1.121-2.5 2.5-2.5h11.098c.055 0 .108.009.16.026l5.902 2c.203.07.34.26.34.474v6c0 .827-.673 1.5-1.5 1.5zm-16-9c-.827 0-1.5.673-1.5 1.5v5c0 .827.673 1.5 1.5 1.5h16c.275 0 .5-.225.5-.5v-5.642l-5.484-1.858z" fill="#212a41"/><path d="m31.5 49.5c-.276 0-.5-.224-.5-.5v-3.363c0-.276.224-.5.5-.5s.5.224.5.5v3.363c0 .276-.224.5-.5.5z" fill="#bd7000"/><path d="m42.597 42h-15l-3-6h12.93c.669 0 1.293.334 1.664.891z" fill="#e0e0e0"/><path d="m42.598 42.5h-15c-.189 0-.362-.107-.447-.276l-3-6c-.077-.155-.069-.339.021-.486.092-.147.253-.237.426-.237h12.93c.838 0 1.615.416 2.08 1.113l3.406 5.109c.103.153.112.351.024.514-.087.161-.256.263-.44.263zm-14.692-1h13.757l-2.888-4.332c-.279-.418-.745-.668-1.248-.668h-12.121z" fill="#212a41"/><path d="m27.597 42 5.224 1.77c.406.138.679.518.679.947v5.283c0 .552-.448 1-1 1h-1 18v-6.246c0-.446-.296-.839-.725-.962l-6.275-1.792z" fill="#f9ac2f"/><path d="m49.5 51.5h-18c-.276 0-.5-.224-.5-.5s.224-.5.5-.5h1c.275 0 .5-.225.5-.5v-5.283c0-.215-.137-.405-.34-.474l-5.223-1.77c-.232-.078-.373-.313-.333-.555s.248-.419.493-.419h14.903c.047 0 .093.007.138.02l6.274 1.793c.64.182 1.088.775 1.088 1.442v6.246c0 .276-.224.5-.5.5zm-15.586-1h15.086v-5.746c0-.222-.149-.419-.362-.479l-6.208-1.775h-11.798l2.35.796c.609.207 1.018.778 1.018 1.421v5.283c0 .175-.03.344-.086.5z" fill="#212a41"/><path d="m33.5 45h5v3h-5z" fill="#e0e0e0"/><path d="m38.5 48.5h-5c-.276 0-.5-.224-.5-.5v-3c0-.276.224-.5.5-.5h5c.276 0 .5.224.5.5v3c0 .276-.224.5-.5.5zm-4.5-1h4v-2h-4z" fill="#212a41"/><path d="m44.5 45h5v3h-5z" fill="#e0e0e0"/><path d="m49.5 48.5h-5c-.276 0-.5-.224-.5-.5v-3c0-.276.224-.5.5-.5h5c.276 0 .5.224.5.5v3c0 .276-.224.5-.5.5zm-4.5-1h4v-2h-4z" fill="#212a41"/><path d="m38.5 45h6v3h-6z" fill="#6c696f"/><path d="m44.5 48.5h-6c-.276 0-.5-.224-.5-.5v-3c0-.276.224-.5.5-.5h6c.276 0 .5.224.5.5v3c0 .276-.224.5-.5.5zm-5.5-1h5v-2h-5z" fill="#212a41"/><path d="m16.5 42.5c-.276 0-.5-.224-.5-.5v-2c0-.276.224-.5.5-.5s.5.224.5.5v2c0 .276-.224.5-.5.5z" fill="#212a41"/><ellipse cx="28.5" cy="50" fill="#4e4b51" rx="1.5" ry="4"/><path d="m28.5 54.5c-1.313 0-2-2.264-2-4.5s.687-4.5 2-4.5 2 2.264 2 4.5-.687 4.5-2 4.5zm0-8c-.29 0-1 1.227-1 3.5s.71 3.5 1 3.5 1-1.227 1-3.5-.71-3.5-1-3.5z" fill="#212a41"/><ellipse cx="17.5" cy="50" fill="#4e4b51" rx="1.5" ry="4"/><path d="m17.5 54.5c-1.313 0-2-2.264-2-4.5s.687-4.5 2-4.5 2 2.264 2 4.5-.687 4.5-2 4.5zm0-8c-.29 0-1 1.227-1 3.5s.71 3.5 1 3.5 1-1.227 1-3.5-.71-3.5-1-3.5z" fill="#212a41"/><path d="m14.447 5.866h16v12h-16z" fill="#6c696f" transform="matrix(-.966 .259 -.259 -.966 47.201 17.518)"/><path d="m16.272 20.232c-.087 0-.173-.022-.25-.067-.115-.066-.198-.175-.233-.304l-3.105-11.591c-.071-.267.087-.54.354-.612l15.454-4.141c.271-.065.541.088.613.354l3.106 11.591c.034.129.016.265-.051.38-.065.115-.175.198-.303.233l-15.455 4.142c-.043.01-.087.015-.13.015zm-2.493-11.738 2.847 10.626 14.489-3.883-2.847-10.625z" fill="#212a41"/><path d="m25.207 4.449h4v4h-4z" fill="#e0e0e0" transform="matrix(-.966 .259 -.259 -.966 55.157 5.637)"/><path d="m25.793 9.399c-.087 0-.173-.022-.25-.067-.115-.065-.198-.175-.233-.304l-1.035-3.864c-.071-.267.087-.54.354-.612l3.863-1.035c.271-.065.541.088.613.354l1.036 3.863c.034.129.016.265-.051.38-.065.115-.175.198-.303.233l-3.864 1.036c-.043.011-.087.016-.13.016zm-.423-4.01.776 2.898 2.898-.777-.777-2.897z" fill="#212a41"/><path d="m17.48 6.52h4v4h-4z" fill="#e0e0e0" transform="matrix(-.966 .259 -.259 -.966 40.501 11.708)"/><path d="m18.065 11.47c-.221 0-.423-.147-.483-.371l-1.035-3.864c-.071-.267.087-.54.354-.612l3.864-1.035c.263-.065.54.088.612.354l1.035 3.864c.071.267-.087.54-.354.612l-3.864 1.035c-.043.011-.086.017-.129.017zm-.422-4.011.776 2.898 2.898-.776-.776-2.898z" fill="#212a41"/><path d="m27.278 12.177h4v4h-4z" fill="#e0e0e0" transform="matrix(-.966 .259 -.259 -.966 61.228 20.293)"/><path d="m27.863 17.126c-.221 0-.423-.147-.483-.37l-1.035-3.863c-.034-.129-.016-.265.051-.38s.175-.198.304-.233l3.864-1.035c.266-.066.54.088.612.354l1.035 3.863c.034.129.016.265-.051.38s-.175.198-.304.233l-3.864 1.035c-.043.01-.086.016-.129.016zm-.423-4.01.776 2.897 2.898-.776-.776-2.897z" fill="#212a41"/><path d="m19.551 14.247h4v4h-4z" fill="#e0e0e0" transform="matrix(-.966 .259 -.259 -.966 46.572 26.364)"/><path d="m20.137 19.197c-.221 0-.423-.147-.483-.37l-1.036-3.864c-.034-.129-.016-.265.051-.38.065-.115.175-.198.304-.233l3.864-1.035c.263-.066.54.088.612.354l1.035 3.864c.071.267-.087.54-.354.612l-3.863 1.035c-.044.011-.087.017-.13.017zm-.424-4.01.777 2.898 2.897-.776-.776-2.898z" fill="#212a41"/><path d="m22.379 9.348h4v4h-4z" fill="#e0e0e0" transform="matrix(-.966 .259 -.259 -.966 50.864 16)"/><path d="m22.965 14.298c-.221 0-.423-.147-.483-.37l-1.035-3.863c-.071-.268.087-.541.354-.613l3.863-1.035c.271-.066.541.088.613.354l1.035 3.863c.071.268-.087.541-.354.613l-3.863 1.035c-.044.01-.087.016-.13.016zm-.423-4.01.776 2.897 2.897-.776-.776-2.897z" fill="#212a41"/><path d="m14.652 11.419h4v4h-4z" fill="#e0e0e0" transform="matrix(-.966 .259 -.259 -.966 36.209 22.071)"/><path d="m15.237 16.368c-.221 0-.423-.147-.483-.37l-1.035-3.863c-.071-.268.087-.541.354-.613l3.863-1.035c.271-.066.541.088.613.354l1.035 3.863c.071.268-.087.541-.354.613l-3.863 1.035c-.044.01-.087.016-.13.016zm-.423-4.01.776 2.897 2.897-.776-.776-2.897z" fill="#212a41"/><path d="m34.833 27.683c-.221 0-.423-.147-.483-.371l-3.106-11.592c-.071-.267.087-.54.354-.612.265-.064.54.087.612.354l3.105 11.592c.071.267-.087.54-.354.612-.042.011-.085.017-.128.017z" fill="#212a41"/><path d="m33.553 5.866h16v12h-16z" fill="#6c696f" transform="matrix(.966 .259 -.259 .966 4.487 -10.35)"/><path d="m47.728 20.232c-.043 0-.087-.006-.13-.017l-15.455-4.142c-.128-.035-.237-.118-.303-.233s-.085-.251-.051-.38l3.107-11.59c.072-.266.345-.419.613-.354l15.454 4.141c.267.072.425.346.354.612l-3.105 11.592c-.035.129-.118.237-.233.304-.079.045-.165.067-.251.067zm-14.843-4.995 14.489 3.883 2.847-10.626-14.489-3.882z" fill="#212a41"/><path d="m34.793 4.449h4v4h-4z" fill="#e0e0e0" transform="matrix(.966 .259 -.259 .966 2.923 -9.303)"/><path d="m38.207 9.399c-.043 0-.087-.006-.13-.017l-3.864-1.036c-.128-.035-.237-.118-.303-.233s-.085-.251-.051-.38l1.036-3.863c.072-.266.345-.419.613-.354l3.863 1.035c.267.072.425.346.354.612l-1.035 3.865c-.035.129-.118.238-.233.304-.077.045-.163.067-.25.067zm-3.252-1.889 2.898.777.776-2.898-2.897-.776z" fill="#212a41"/><path d="m42.52 6.52h4v4h-4z" fill="#e0e0e0" transform="matrix(.966 .259 -.259 .966 3.722 -11.232)"/><path d="m45.935 11.47c-.043 0-.086-.006-.129-.017l-3.864-1.035c-.268-.072-.426-.346-.354-.612l1.035-3.864c.072-.267.349-.42.612-.354l3.864 1.035c.268.072.426.346.354.612l-1.035 3.864c-.061.223-.263.371-.483.371zm-3.252-1.889 2.898.776.776-2.898-2.898-.776z" fill="#212a41"/><path d="m32.722 12.177h4v4h-4z" fill="#e0e0e0" transform="matrix(.966 .259 -.259 .966 4.852 -8.504)"/><path d="m36.137 17.126c-.043 0-.086-.006-.129-.017l-3.864-1.035c-.129-.035-.237-.118-.304-.233s-.085-.251-.051-.38l1.035-3.863c.072-.266.349-.419.612-.354l3.864 1.035c.129.035.237.118.304.233s.085.251.051.38l-1.035 3.863c-.06.224-.263.371-.483.371zm-3.252-1.889 2.898.776.776-2.897-2.898-.776z" fill="#212a41"/><path d="m40.449 14.247h4v4h-4z" fill="#e0e0e0" transform="matrix(.966 .259 -.259 .966 5.652 -10.433)"/><path d="m43.863 19.197c-.043 0-.086-.006-.13-.017l-3.863-1.035c-.267-.072-.425-.346-.354-.612l1.035-3.864c.073-.267.349-.42.612-.354l3.864 1.035c.129.035.238.118.304.233s.085.251.051.38l-1.036 3.864c-.06.223-.262.37-.483.37zm-3.251-1.888 2.897.776.777-2.898-2.898-.776z" fill="#212a41"/><path d="m37.621 9.348h4v4h-4z" fill="#e0e0e0" transform="matrix(.966 .259 -.259 .966 4.287 -9.868)"/><path d="m41.035 14.298c-.043 0-.086-.006-.13-.017l-3.863-1.035c-.267-.072-.425-.346-.354-.613l1.035-3.863c.072-.266.346-.419.613-.354l3.864 1.035c.267.072.425.346.354.613l-1.035 3.863c-.061.223-.263.371-.484.371zm-3.251-1.889 2.897.776.776-2.897-2.897-.776z" fill="#212a41"/><path d="m45.348 11.419h4v4h-4z" fill="#e0e0e0" transform="matrix(.966 .259 -.259 .966 5.087 -11.797)"/><g fill="#212a41"><path d="m48.763 16.368c-.043 0-.086-.006-.13-.017l-3.863-1.035c-.267-.072-.425-.346-.354-.613l1.035-3.863c.072-.266.346-.419.613-.354l3.863 1.035c.267.072.425.346.354.613l-1.035 3.863c-.06.224-.263.371-.483.371zm-3.251-1.889 2.897.776.776-2.897-2.897-.776z"/><path d="m29.167 27.683c-.043 0-.086-.006-.129-.017-.268-.072-.426-.346-.354-.612l3.105-11.592c.072-.268.351-.418.612-.354.268.072.426.346.354.612l-3.105 11.592c-.06.223-.262.371-.483.371z"/></g></svg>