<svg id="Icon_Set" enable-background="new 0 0 64 64" height="512" viewBox="0 0 64 64" width="512" xmlns="http://www.w3.org/2000/svg"><path d="m41 21h-28v-6c0-1.105.895-2 2-2h24c1.105 0 2 .895 2 2z" fill="#c2c2c2"/><path d="m41 21.5h-28c-.276 0-.5-.224-.5-.5v-6c0-1.378 1.121-2.5 2.5-2.5h24c1.379 0 2.5 1.122 2.5 2.5v6c0 .276-.224.5-.5.5zm-27.5-1h27v-5.5c0-.827-.673-1.5-1.5-1.5h-24c-.827 0-1.5.673-1.5 1.5z" fill="#212a41"/><path d="m15 21.5c-.276 0-.5-.224-.5-.5v-6c0-.276.224-.5.5-.5s.5.224.5.5v6c0 .276-.224.5-.5.5z" fill="#e0e0e0"/><path d="m39 29h-24c-1.105 0-2-.895-2-2v-6h28v6c0 1.105-.895 2-2 2z" fill="#005b8a"/><path d="m15 27.5c-.276 0-.5-.224-.5-.5v-6c0-.276.224-.5.5-.5s.5.224.5.5v6c0 .276-.224.5-.5.5z" fill="#0079a8"/><path d="m39 29.5h-24c-1.379 0-2.5-1.122-2.5-2.5v-6c0-.276.224-.5.5-.5h28c.276 0 .5.224.5.5v6c0 1.378-1.121 2.5-2.5 2.5zm-25.5-8v5.5c0 .827.673 1.5 1.5 1.5h24c.827 0 1.5-.673 1.5-1.5v-5.5z" fill="#212a41"/><path d="m18 29h18v4h-18z" fill="#99a2b9"/><path d="m36 33.5h-18c-.276 0-.5-.224-.5-.5v-4c0-.276.224-.5.5-.5h18c.276 0 .5.224.5.5v4c0 .276-.224.5-.5.5zm-17.5-1h17v-3h-17z" fill="#212a41"/><path d="m33 13h-12v-6c0-1.105.895-2 2-2h8c1.105 0 2 .895 2 2z" fill="#c2c2c2"/><path d="m33 13.5h-12c-.276 0-.5-.224-.5-.5v-6c0-1.378 1.121-2.5 2.5-2.5h8c1.379 0 2.5 1.122 2.5 2.5v6c0 .276-.224.5-.5.5zm-11.5-1h11v-5.5c0-.827-.673-1.5-1.5-1.5h-8c-.827 0-1.5.673-1.5 1.5z" fill="#212a41"/><path d="m15 45.183v1.635c0 .729.397 1.401 1.036 1.752l18.964 10.43h-10l-18.964-10.43c-.639-.352-1.036-1.023-1.036-1.753v-1.635c0-.729.397-1.401 1.036-1.752l18.964-10.43h10l-18.964 10.43c-.639.352-1.036 1.023-1.036 1.753z" fill="#c2c2c2"/><path d="m35 59.5h-10c-.084 0-.167-.021-.241-.062l-18.964-10.43c-.799-.44-1.295-1.279-1.295-2.191v-1.635c0-.912.496-1.751 1.295-2.19l18.964-10.43c.074-.041.157-.062.241-.062h10c.229 0 .428.155.484.375.057.221-.043.453-.243.562l-18.964 10.43c-.479.264-.777.768-.777 1.314v1.635c0 .547.298 1.05.777 1.314l18.964 10.43c.2.11.3.341.243.562-.056.223-.255.378-.484.378zm-9.871-1h7.925l-17.259-9.492c-.799-.439-1.295-1.279-1.295-2.19v-1.635c0-.912.496-1.751 1.295-2.19l17.259-9.493h-7.925l-18.852 10.368c-.479.264-.777.768-.777 1.315v1.635c0 .547.298 1.05.777 1.314z" fill="#212a41"/><path d="m25.514 57.5c-.082 0-.164-.02-.241-.062l-18.514-10.183c-.159-.088-.259-.255-.259-.438v-1.635c0-.182.1-.35.259-.438l18.514-10.183c.242-.132.545-.047.68.197.133.242.045.546-.197.679l-18.256 10.041v1.044l18.255 10.04c.242.133.33.437.197.679-.092.165-.263.259-.438.259z" fill="#e0e0e0"/><path d="m51 21h-28v-6c0-1.105.895-2 2-2h24c1.105 0 2 .895 2 2z" fill="#e0e0e0"/><path d="m51 21.5h-28c-.276 0-.5-.224-.5-.5v-6c0-1.378 1.121-2.5 2.5-2.5h24c1.379 0 2.5 1.122 2.5 2.5v6c0 .276-.224.5-.5.5zm-27.5-1h27v-5.5c0-.827-.673-1.5-1.5-1.5h-24c-.827 0-1.5.673-1.5 1.5z" fill="#212a41"/><path d="m49 29h-24c-1.105 0-2-.895-2-2v-6h28v6c0 1.105-.895 2-2 2z" fill="#0079a8"/><path d="m28 29h18v4h-18z" fill="#b7c0d7"/><path d="m46 33.5h-18c-.276 0-.5-.224-.5-.5v-4c0-.276.224-.5.5-.5h18c.276 0 .5.224.5.5v4c0 .276-.224.5-.5.5zm-17.5-1h17v-3h-17z" fill="#212a41"/><path d="m43 13h-12v-6c0-1.105.895-2 2-2h8c1.105 0 2 .895 2 2z" fill="#e0e0e0"/><path d="m43 13.5h-12c-.276 0-.5-.224-.5-.5v-6c0-1.378 1.121-2.5 2.5-2.5h8c1.379 0 2.5 1.122 2.5 2.5v6c0 .276-.224.5-.5.5zm-11.5-1h11v-5.5c0-.827-.673-1.5-1.5-1.5h-8c-.827 0-1.5.673-1.5 1.5z" fill="#212a41"/><path d="m59 45.183v1.635c0 .729-.397 1.401-1.036 1.752l-18.964 10.43h-4l-18.964-10.43c-.639-.352-1.036-1.023-1.036-1.753v-1.635c0-.729.397-1.401 1.036-1.752l18.964-10.43h4l18.964 10.43c.639.352 1.036 1.023 1.036 1.753z" fill="#e0e0e0"/><path d="m39 59.5h-4c-.084 0-.167-.021-.241-.062l-18.964-10.43c-.799-.439-1.295-1.279-1.295-2.19v-1.635c0-.912.496-1.751 1.295-2.19l18.964-10.43c.074-.042.157-.063.241-.063h4c.084 0 .167.021.241.062l18.964 10.43c.799.439 1.295 1.279 1.295 2.19v1.635c0 .912-.496 1.751-1.295 2.19l-18.964 10.43c-.074.042-.157.063-.241.063zm-3.871-1h3.742l18.852-10.368c.479-.264.777-.768.777-1.314v-1.635c0-.547-.298-1.05-.777-1.314l-18.852-10.369h-3.742l-18.852 10.368c-.479.264-.777.768-.777 1.314v1.635c0 .547.298 1.05.777 1.314z" fill="#212a41"/><circle cx="37" cy="46" fill="#6c696f" r="8"/><path d="m37 54.5c-4.687 0-8.5-3.813-8.5-8.5s3.813-8.5 8.5-8.5 8.5 3.813 8.5 8.5-3.813 8.5-8.5 8.5zm0-16c-4.136 0-7.5 3.364-7.5 7.5s3.364 7.5 7.5 7.5 7.5-3.364 7.5-7.5-3.364-7.5-7.5-7.5z" fill="#212a41"/><path d="m55 13h-12v-3h12c.552 0 1 .448 1 1v1c0 .552-.448 1-1 1z" fill="#e0e0e0"/><path d="m55 13.5h-12c-.276 0-.5-.224-.5-.5v-3c0-.276.224-.5.5-.5h12c.827 0 1.5.673 1.5 1.5v1c0 .827-.673 1.5-1.5 1.5zm-11.5-1h11.5c.275 0 .5-.224.5-.5v-1c0-.276-.225-.5-.5-.5h-11.5z" fill="#212a41"/><circle cx="20.5" cy="46" fill="#6c696f" r="1.5"/><path d="m20.5 48c-1.103 0-2-.897-2-2s.897-2 2-2 2 .897 2 2-.897 2-2 2zm0-3c-.552 0-1 .449-1 1s.448 1 1 1 1-.449 1-1-.448-1-1-1z" fill="#212a41"/><circle cx="53.5" cy="46" fill="#6c696f" r="1.5"/><path d="m53.5 48c-1.103 0-2-.897-2-2s.897-2 2-2 2 .897 2 2-.897 2-2 2zm0-3c-.552 0-1 .449-1 1s.448 1 1 1 1-.449 1-1-.448-1-1-1z" fill="#212a41"/><path d="m25 21.5c-.276 0-.5-.224-.5-.5v-6c0-.276.224-.5.5-.5s.5.224.5.5v6c0 .276-.224.5-.5.5z" fill="#fefefe"/><path d="m25 27.5c-.276 0-.5-.224-.5-.5v-6c0-.276.224-.5.5-.5s.5.224.5.5v6c0 .276-.224.5-.5.5z" fill="#1e97c6"/><path d="m49 21.5c-.276 0-.5-.224-.5-.5v-6c0-.276.224-.5.5-.5s.5.224.5.5v6c0 .276-.224.5-.5.5z" fill="#c2c2c2"/><path d="m49 27.5c-.276 0-.5-.224-.5-.5v-6c0-.276.224-.5.5-.5s.5.224.5.5v6c0 .276-.224.5-.5.5z" fill="#005b8a"/><path d="m49 29.5h-24c-1.379 0-2.5-1.122-2.5-2.5v-6c0-.276.224-.5.5-.5h28c.276 0 .5.224.5.5v6c0 1.378-1.121 2.5-2.5 2.5zm-25.5-8v5.5c0 .827.673 1.5 1.5 1.5h24c.827 0 1.5-.673 1.5-1.5v-5.5z" fill="#212a41"/><path d="m31 46.5c-.276 0-.5-.224-.5-.5 0-3.584 2.916-6.5 6.5-6.5.276 0 .5.224.5.5s-.224.5-.5.5c-3.032 0-5.5 2.467-5.5 5.5 0 .276-.224.5-.5.5z" fill="#8a878d"/><path d="m37 52.5c-.276 0-.5-.224-.5-.5s.224-.5.5-.5c3.032 0 5.5-2.467 5.5-5.5 0-.276.224-.5.5-.5s.5.224.5.5c0 3.584-2.916 6.5-6.5 6.5z" fill="#4e4b51"/></svg>