<svg id="Icon_Set" enable-background="new 0 0 64 64" height="512" viewBox="0 0 64 64" width="512" xmlns="http://www.w3.org/2000/svg"><path d="m4 52v-40c0-2.209 1.791-4 4-4h44c2.209 0 4 1.791 4 4v40c0 2.209-1.791 4-4 4h-44c-2.209 0-4-1.791-4-4z" fill="#99a2b9"/><path d="m52 56.5h-44c-2.481 0-4.5-2.019-4.5-4.5v-40c0-2.481 2.019-4.5 4.5-4.5h44c2.481 0 4.5 2.019 4.5 4.5v40c0 2.481-2.019 4.5-4.5 4.5zm-44-48c-1.93 0-3.5 1.57-3.5 3.5v40c0 1.93 1.57 3.5 3.5 3.5h44c1.93 0 3.5-1.57 3.5-3.5v-40c0-1.93-1.57-3.5-3.5-3.5z" fill="#212a41"/><path d="m8 52v-40c0-2.209 1.791-4 4-4h44c2.209 0 4 1.791 4 4v40c0 2.209-1.791 4-4 4h-44c-2.209 0-4-1.791-4-4z" fill="#b7c0d7"/><path d="m56 56.5h-44c-2.481 0-4.5-2.019-4.5-4.5v-40c0-2.481 2.019-4.5 4.5-4.5h44c2.481 0 4.5 2.019 4.5 4.5v40c0 2.481-2.019 4.5-4.5 4.5zm-44-48c-1.93 0-3.5 1.57-3.5 3.5v40c0 1.93 1.57 3.5 3.5 3.5h44c1.93 0 3.5-1.57 3.5-3.5v-40c0-1.93-1.57-3.5-3.5-3.5z" fill="#212a41"/><path d="m12 12h44v40h-44z" fill="#0079a8"/><path d="m56 52.5h-44c-.276 0-.5-.224-.5-.5v-40c0-.276.224-.5.5-.5h44c.276 0 .5.224.5.5v40c0 .276-.224.5-.5.5zm-43.5-1h43v-39h-43z" fill="#212a41"/><path d="m54 50.5c-.276 0-.5-.224-.5-.5v-36c0-.276.224-.5.5-.5s.5.224.5.5v36c0 .276-.224.5-.5.5z" fill="#005b8a"/><path d="m14 50.5c-.276 0-.5-.224-.5-.5v-36c0-.276.224-.5.5-.5s.5.224.5.5v36c0 .276-.224.5-.5.5z" fill="#1e97c6"/><path d="m49.715 43.841h-8c-.276 0-.5-.224-.5-.5s.224-.5.5-.5h8c.276 0 .5.224.5.5s-.224.5-.5.5z" fill="#212a41"/><path d="m49.715 46.841h-8c-.276 0-.5-.224-.5-.5s.224-.5.5-.5h8c.276 0 .5.224.5.5s-.224.5-.5.5z" fill="#212a41"/><path d="m48.397 35.379c.874-1.615.792-3.578-.213-5.115l-11.941-18.264h-11.948l10.461 16h-22.756v10h32c1.836 0 3.524-1.006 4.397-2.621z" fill="#e0e0e0"/><path d="m27.781 30.837h-4v-2l-6 4.5 6 4.5v-2h4z" fill="#d32e5e"/><path d="m23.78 38.337c-.106 0-.212-.034-.3-.1l-6-4.5c-.126-.095-.2-.243-.2-.4s.074-.306.2-.4l6-4.5c.15-.112.355-.131.523-.047.169.085.276.258.276.447v1.5h3.5c.276 0 .5.224.5.5v5c0 .276-.224.5-.5.5h-3.5v1.5c0 .189-.107.362-.276.447-.069.035-.147.053-.223.053zm-5.167-5 4.667 3.5v-1c0-.276.224-.5.5-.5h3.5v-4h-3.5c-.276 0-.5-.224-.5-.5v-1z" fill="#212a41"/><path d="m40.458 22.896-2.179-3.354 1.678-1.089-7.042-2.582-.506 7.483 1.677-1.089 2.179 3.355z" fill="#bed38e"/><path d="m36.265 26.12c-.035 0-.069-.004-.104-.011-.13-.027-.243-.105-.315-.217l-1.906-2.937-1.258.817c-.16.104-.363.108-.525.013-.164-.097-.259-.276-.246-.466l.506-7.483c.011-.156.095-.3.227-.385.131-.086.297-.104.444-.051l7.042 2.581c.178.065.304.226.325.414s-.065.372-.225.475l-1.259.817 1.906 2.936c.15.231.085.541-.146.691l-4.193 2.724c-.083.055-.178.082-.273.082zm-2.179-4.355c.035 0 .069.004.104.011.13.027.243.105.315.217l1.907 2.937 3.354-2.179-1.906-2.936c-.15-.231-.085-.541.146-.691l.839-.546-5.477-2.007-.394 5.819.838-.544c.084-.054.178-.081.274-.081z" fill="#212a41"/><path d="m14 38.5c-.276 0-.5-.224-.5-.5v-10c0-.276.224-.5.5-.5s.5.224.5.5v10c0 .276-.224.5-.5.5z" fill="#fefefe"/><path d="m44 38.5h-32c-.276 0-.5-.224-.5-.5v-10c0-.276.224-.5.5-.5h21.833l-9.956-15.227c-.1-.153-.108-.35-.021-.512.087-.161.256-.262.439-.262h11.947c.169 0 .326.085.419.227l11.943 18.264c1.106 1.692 1.196 3.849.233 5.627-.961 1.779-2.815 2.883-4.837 2.883zm-31.5-1h31.5c1.654 0 3.171-.904 3.958-2.358 0-.001 0-.001 0-.001.787-1.454.714-3.219-.192-4.604l-11.793-18.037h-10.753l9.956 15.227c.1.153.108.35.021.512-.087.161-.256.262-.439.262h-22.258z" fill="#212a41"/></svg>