<svg id="Icon_Set" enable-background="new 0 0 64 64" height="512" viewBox="0 0 64 64" width="512" xmlns="http://www.w3.org/2000/svg"><path d="m58 44h-35.172c-.53 0-1.039.211-1.414.586l-5.414 5.414h44v-4c0-1.105-.895-2-2-2z" fill="#bed38e"/><path d="m60 50.5h-44c-.202 0-.385-.122-.462-.309-.078-.187-.035-.402.108-.545l5.414-5.414c.472-.473 1.1-.732 1.768-.732h35.172c1.378 0 2.5 1.121 2.5 2.5v4c0 .276-.224.5-.5.5zm-42.793-1h42.293v-3.5c0-.827-.673-1.5-1.5-1.5h-35.171c-.401 0-.777.156-1.061.439z" fill="#212a41"/><path d="m43 9c0 1.105.895 2 2 2h8c1.105 0 2-.895 2-2 0-1.105-.895-2-2-2h-1.042c0-1.657-1.343-3-3-3s-3 1.343-3 3h-.958c-1.105 0-2 .895-2 2z" fill="#99a2b9"/><path d="m53 11.5h-8c-1.378 0-2.5-1.121-2.5-2.5s1.122-2.5 2.5-2.5h.494c.243-1.694 1.704-3 3.464-3s3.221 1.306 3.464 3h.578c1.378 0 2.5 1.121 2.5 2.5s-1.122 2.5-2.5 2.5zm-8-4c-.827 0-1.5.673-1.5 1.5s.673 1.5 1.5 1.5h8c.827 0 1.5-.673 1.5-1.5s-.673-1.5-1.5-1.5h-1.042c-.276 0-.5-.224-.5-.5 0-1.379-1.122-2.5-2.5-2.5s-2.5 1.121-2.5 2.5c0 .276-.224.5-.5.5z" fill="#212a41"/><path d="m56.958 7c0-1.657-1.343-3-3-3s-3 1.343-3 3h-.958c-1.105 0-2 .895-2 2 0 1.105.895 2 2 2h8c1.105 0 2-.895 2-2 0-1.105-.895-2-2-2z" fill="#b7c0d7"/><path d="m58 11.5h-8c-1.378 0-2.5-1.121-2.5-2.5s1.122-2.5 2.5-2.5h.494c.243-1.694 1.704-3 3.464-3s3.221 1.306 3.464 3h.578c1.378 0 2.5 1.121 2.5 2.5s-1.122 2.5-2.5 2.5zm-8-4c-.827 0-1.5.673-1.5 1.5s.673 1.5 1.5 1.5h8c.827 0 1.5-.673 1.5-1.5s-.673-1.5-1.5-1.5h-1.042c-.276 0-.5-.224-.5-.5 0-1.379-1.122-2.5-2.5-2.5s-2.5 1.121-2.5 2.5c0 .276-.224.5-.5.5zm7.458-.5h.01z" fill="#212a41"/><path d="m26.5 17c-.061 0-.118.014-.178.018-.409-1.172-1.511-2.018-2.822-2.018s-2.414.846-2.822 2.018c-.06-.004-.117-.018-.178-.018s-.118.014-.178.018c-.409-1.172-1.511-2.018-2.822-2.018-1.132 0-2.106.635-2.617 1.56-.359-.345-.845-.56-1.383-.56-1.105 0-2 .895-2 2s.895 2 2 2c.538 0 1.024-.215 1.383-.56.511.925 1.485 1.56 2.617 1.56.061 0 .118-.014.178-.018.408 1.172 1.511 2.018 2.822 2.018s2.414-.846 2.822-2.018c.06.004.117.018.178.018s.118-.014.178-.018c.408 1.172 1.511 2.018 2.822 2.018 1.657 0 3-1.343 3-3s-1.343-3-3-3z" fill="#b7c0d7"/><path d="m26.5 23.5c-1.245 0-2.379-.669-3-1.72-.621 1.051-1.755 1.72-3 1.72-1.354 0-2.577-.791-3.151-2.003-1.018-.045-1.962-.54-2.589-1.34-.38.224-.812.343-1.26.343-1.378 0-2.5-1.121-2.5-2.5s1.122-2.5 2.5-2.5c.448 0 .88.119 1.26.343.658-.839 1.665-1.343 2.74-1.343 1.245 0 2.379.669 3 1.72.621-1.051 1.755-1.72 3-1.72 1.354 0 2.576.791 3.15 2.003 1.861.079 3.35 1.617 3.35 3.497 0 1.93-1.57 3.5-3.5 3.5zm-2.822-3.018c.212 0 .402.134.472.336.351 1.006 1.295 1.682 2.35 1.682 1.378 0 2.5-1.121 2.5-2.5 0-1.377-1.12-2.498-2.497-2.5-.014.001-.155.017-.157.017-.234.025-.424-.126-.497-.334-.351-1.007-1.295-1.683-2.35-1.683s-1.999.676-2.35 1.683c-.073.208-.286.358-.496.334-.015 0-.109-.011-.124-.013-.015.002-.169.013-.184.013-.235.025-.424-.126-.497-.334-.351-1.007-1.295-1.683-2.35-1.683-.901 0-1.736.499-2.179 1.302-.075.137-.209.229-.363.253-.153.025-.31-.026-.421-.134-.282-.271-.65-.421-1.037-.421-.827 0-1.5.673-1.5 1.5s.673 1.5 1.5 1.5c.386 0 .754-.149 1.037-.421.112-.107.269-.156.421-.134.154.023.288.116.363.253.443.803 1.278 1.302 2.179 1.302.071-.01.112-.015.154-.017.218-.029.423.125.496.335.351 1.006 1.295 1.682 2.35 1.682s1.999-.676 2.35-1.682c.072-.21.253-.366.497-.335.015 0 .108.01.123.013.015-.003.17-.013.185-.013.009-.001.017-.001.025-.001z" fill="#212a41"/><path d="m21.5 34h-10l-1 3h10z" fill="#6c696f"/><path d="m20.5 37.5h-10c-.161 0-.312-.077-.406-.208-.094-.13-.12-.298-.068-.45l1-3c.068-.204.259-.342.474-.342h10c.161 0 .312.077.406.208.094.13.12.298.068.45l-1 3c-.068.204-.259.342-.474.342zm-9.306-1h8.946l.667-2h-8.947z" fill="#212a41"/><path d="m48.833 28h-3.333v-8h3.333c1.473 0 2.667 1.791 2.667 4s-1.194 4-2.667 4z" fill="#6c696f"/><path d="m48.833 28.5h-3.333c-.276 0-.5-.224-.5-.5v-8c0-.276.224-.5.5-.5h3.333c1.775 0 3.167 1.977 3.167 4.5s-1.392 4.5-3.167 4.5zm-2.833-1h2.833c1.174 0 2.167-1.603 2.167-3.5s-.992-3.5-2.167-3.5h-2.833z" fill="#212a41"/><ellipse cx="45.5" cy="24" fill="#4e4b51" rx="3" ry="4"/><path d="m45.5 28.5c-1.93 0-3.5-2.019-3.5-4.5s1.57-4.5 3.5-4.5 3.5 2.019 3.5 4.5-1.57 4.5-3.5 4.5zm0-8c-1.378 0-2.5 1.57-2.5 3.5s1.122 3.5 2.5 3.5 2.5-1.57 2.5-3.5-1.122-3.5-2.5-3.5z" fill="#212a41"/><path d="m34.833 28h-3.333v-8h3.333c1.473 0 2.667 1.791 2.667 4s-1.194 4-2.667 4z" fill="#6c696f"/><path d="m34.833 28.5h-3.333c-.276 0-.5-.224-.5-.5v-8c0-.276.224-.5.5-.5h3.333c1.775 0 3.167 1.977 3.167 4.5s-1.392 4.5-3.167 4.5zm-2.833-1h2.833c1.174 0 2.167-1.603 2.167-3.5s-.992-3.5-2.167-3.5h-2.833z" fill="#212a41"/><path d="m20.833 28h-3.333v-8h3.333c1.473 0 2.667 1.791 2.667 4s-1.194 4-2.667 4z" fill="#6c696f"/><path d="m20.833 28.5h-3.333c-.276 0-.5-.224-.5-.5v-8c0-.276.224-.5.5-.5h3.333c1.775 0 3.167 1.977 3.167 4.5s-1.392 4.5-3.167 4.5zm-2.833-1h2.833c1.174 0 2.167-1.603 2.167-3.5s-.992-3.5-2.167-3.5h-2.833z" fill="#212a41"/><path d="m16.5 32h15.097l-3 6h-7.027c-.669 0-1.293-.334-1.664-.891z" fill="#c2c2c2"/><path d="m28.597 38.5h-7.027c-.838 0-1.615-.416-2.08-1.113l-3.406-5.109c-.103-.153-.112-.351-.025-.514.087-.162.256-.264.441-.264h15.097c.173 0 .334.09.425.237s.1.331.022.486l-3 6c-.085.17-.257.277-.447.277zm-11.163-6 2.888 4.332c.279.418.746.668 1.248.668h6.718l2.5-5z" fill="#212a41"/><path d="m41.5 30-9.903 2h-18.097c-1.105 0-2-.895-2-2v-5c0-1.105.895-2 2-2h28z" fill="#b51040"/><path d="m13.5 32.5c-1.378 0-2.5-1.121-2.5-2.5v-5c0-1.379 1.122-2.5 2.5-2.5h28c.276 0 .5.224.5.5v7c0 .238-.168.443-.401.49l-9.903 2zm0-9c-.827 0-1.5.673-1.5 1.5v5c0 .827.673 1.5 1.5 1.5h18.097l9.403-1.909v-6.091zm28 6.5h.01z" fill="#212a41"/><path d="m44.597 32h-13l-3 6h10.93c.669 0 1.293-.334 1.664-.891z" fill="#e0e0e0"/><path d="m39.527 38.5h-10.93c-.173 0-.334-.09-.425-.237s-.1-.331-.022-.486l3-6c.085-.169.258-.276.447-.276h13c.185 0 .354.102.441.264.087.163.077.36-.025.514l-3.406 5.109c-.465.696-1.242 1.112-2.08 1.112zm-10.121-1h10.121c.502 0 .969-.25 1.248-.668l2.888-4.332h-11.757z" fill="#212a41"/><path d="m31.597 32 9.101-1.838c.467-.094.802-.504.802-.98v-5.182c0-.552-.448-1-1-1h-1 13c.552 0 1 .448 1 1v5.198c0 .469-.326.875-.783.976l-8.217 1.826z" fill="#d32e5e"/><path d="m44.5 32.5h-12.903c-.257 0-.472-.194-.498-.45s.147-.489.398-.54l9.101-1.838c.233-.047.402-.253.402-.49v-5.182c0-.275-.224-.5-.5-.5h-1c-.276 0-.5-.224-.5-.5s.224-.5.5-.5h13c.827 0 1.5.673 1.5 1.5v5.198c0 .708-.483 1.311-1.175 1.464l-8.217 1.826c-.035.008-.071.012-.108.012zm-7.901-1h7.847l8.163-1.814c.23-.051.391-.252.391-.488v-5.198c0-.275-.224-.5-.5-.5h-10.585c.055.156.085.325.085.5v5.182c0 .711-.506 1.329-1.203 1.471z" fill="#212a41"/><path d="m41.5 26h4v3h-4z" fill="#e0e0e0"/><path d="m45.5 29.5h-4c-.276 0-.5-.224-.5-.5v-3c0-.276.224-.5.5-.5h4c.276 0 .5.224.5.5v3c0 .276-.224.5-.5.5zm-3.5-1h3v-2h-3z" fill="#212a41"/><path d="m49.5 26h4v3h-4z" fill="#e0e0e0"/><path d="m53.5 29.5h-4c-.276 0-.5-.224-.5-.5v-3c0-.276.224-.5.5-.5h4c.276 0 .5.224.5.5v3c0 .276-.224.5-.5.5zm-3.5-1h3v-2h-3z" fill="#212a41"/><path d="m45.5 26h4v3h-4z" fill="#6c696f"/><path d="m49.5 29.5h-4c-.276 0-.5-.224-.5-.5v-3c0-.276.224-.5.5-.5h4c.276 0 .5.224.5.5v3c0 .276-.224.5-.5.5zm-3.5-1h3v-2h-3z" fill="#212a41"/><ellipse cx="17.5" cy="24" fill="#4e4b51" rx="3" ry="4"/><path d="m17.5 28.5c-1.93 0-3.5-2.019-3.5-4.5s1.57-4.5 3.5-4.5 3.5 2.019 3.5 4.5-1.57 4.5-3.5 4.5zm0-8c-1.378 0-2.5 1.57-2.5 3.5s1.122 3.5 2.5 3.5 2.5-1.57 2.5-3.5-1.122-3.5-2.5-3.5z" fill="#212a41"/><ellipse cx="31.5" cy="24" fill="#4e4b51" rx="3" ry="4"/><path d="m31.5 28.5c-1.93 0-3.5-2.019-3.5-4.5s1.57-4.5 3.5-4.5 3.5 2.019 3.5 4.5-1.57 4.5-3.5 4.5zm0-8c-1.378 0-2.5 1.57-2.5 3.5s1.122 3.5 2.5 3.5 2.5-1.57 2.5-3.5-1.122-3.5-2.5-3.5z" fill="#212a41"/><path d="m13.5 34.5c-.276 0-.5-.224-.5-.5v-2c0-.276.224-.5.5-.5s.5.224.5.5v2c0 .276-.224.5-.5.5z" fill="#212a41"/><path d="m22 50h38v10h-38z" fill="#6c696f"/><path d="m60 60.5h-38c-.276 0-.5-.224-.5-.5v-10c0-.276.224-.5.5-.5h38c.276 0 .5.224.5.5v10c0 .276-.224.5-.5.5zm-37.5-1h37v-9h-37z" fill="#212a41"/><path d="m58 58.5c-.276 0-.5-.224-.5-.5v-6c0-.276.224-.5.5-.5s.5.224.5.5v6c0 .276-.224.5-.5.5z" fill="#4e4b51"/><path d="m44 58.5c-.276 0-.5-.224-.5-.5v-6c0-.276.224-.5.5-.5s.5.224.5.5v6c0 .276-.224.5-.5.5z" fill="#8a878d"/><path d="m4 50h38v10h-38z" fill="#4e4b51"/><path d="m42 60.5h-38c-.276 0-.5-.224-.5-.5v-10c0-.276.224-.5.5-.5h38c.276 0 .5.224.5.5v10c0 .276-.224.5-.5.5zm-37.5-1h37v-9h-37z" fill="#212a41"/><path d="m40 58.5c-.276 0-.5-.224-.5-.5v-6c0-.276.224-.5.5-.5s.5.224.5.5v6c0 .276-.224.5-.5.5z" fill="#302d33"/><path d="m6 58.5c-.276 0-.5-.224-.5-.5v-6c0-.276.224-.5.5-.5s.5.224.5.5v6c0 .276-.224.5-.5.5z" fill="#6c696f"/><path d="m54 44h-37.172c-.53 0-1.039.211-1.414.586l-5.414 5.414h38z" fill="#a0b570"/><path d="m48 50.5h-38c-.202 0-.385-.122-.462-.309-.078-.187-.035-.402.108-.545l5.414-5.414c.472-.473 1.1-.732 1.768-.732h37.172c.202 0 .385.122.462.309.078.187.035.402-.108.545l-6 6c-.094.093-.221.146-.354.146zm-36.793-1h36.586l5-5h-35.964c-.401 0-.777.156-1.061.439z" fill="#212a41"/><path d="m39.5 28.863c-.276 0-.5-.224-.5-.5v-3.363c0-.276.224-.5.5-.5s.5.224.5.5v3.363c0 .277-.224.5-.5.5z" fill="#970022"/><path d="m13.5 30.5c-.276 0-.5-.224-.5-.5v-5c0-.276.224-.5.5-.5s.5.224.5.5v5c0 .276-.224.5-.5.5z" fill="#d32e5e"/></svg>