<svg id="Icon_Set" enable-background="new 0 0 64 64" height="512" viewBox="0 0 64 64" width="512" xmlns="http://www.w3.org/2000/svg"><path d="m43 9c0 1.105.895 2 2 2h8c1.105 0 2-.895 2-2 0-1.105-.895-2-2-2h-1.042c0-1.657-1.343-3-3-3s-3 1.343-3 3h-.958c-1.105 0-2 .895-2 2z" fill="#99a2b9"/><path d="m53 11.5h-8c-1.378 0-2.5-1.121-2.5-2.5s1.122-2.5 2.5-2.5h.494c.243-1.694 1.704-3 3.464-3s3.221 1.306 3.464 3h.578c1.378 0 2.5 1.121 2.5 2.5s-1.122 2.5-2.5 2.5zm-8-4c-.827 0-1.5.673-1.5 1.5s.673 1.5 1.5 1.5h8c.827 0 1.5-.673 1.5-1.5s-.673-1.5-1.5-1.5h-1.042c-.276 0-.5-.224-.5-.5 0-1.379-1.122-2.5-2.5-2.5s-2.5 1.121-2.5 2.5c0 .276-.224.5-.5.5z" fill="#212a41"/><path d="m56.958 7c0-1.657-1.343-3-3-3s-3 1.343-3 3h-.958c-1.105 0-2 .895-2 2 0 1.105.895 2 2 2h8c1.105 0 2-.895 2-2 0-1.105-.895-2-2-2z" fill="#b7c0d7"/><path d="m58 11.5h-8c-1.378 0-2.5-1.121-2.5-2.5s1.122-2.5 2.5-2.5h.494c.243-1.694 1.704-3 3.464-3s3.221 1.306 3.464 3h.578c1.378 0 2.5 1.121 2.5 2.5s-1.122 2.5-2.5 2.5zm-8-4c-.827 0-1.5.673-1.5 1.5s.673 1.5 1.5 1.5h8c.827 0 1.5-.673 1.5-1.5s-.673-1.5-1.5-1.5h-1.042c-.276 0-.5-.224-.5-.5 0-1.379-1.122-2.5-2.5-2.5s-2.5 1.121-2.5 2.5c0 .276-.224.5-.5.5zm7.458-.5h.01z" fill="#212a41"/><path d="m28 36h-10l-1-3h10z" fill="#6c696f"/><path d="m28 36.5h-10c-.215 0-.406-.138-.474-.342l-1-3c-.051-.152-.025-.32.068-.45.094-.131.245-.208.406-.208h10c.215 0 .406.138.474.342l1 3c.051.152.025.32-.068.45-.094.131-.245.208-.406.208zm-9.64-1h8.946l-.667-2h-8.946z" fill="#212a41"/><path d="m55.333 42h-3.333v8h3.333c1.473 0 2.667-1.791 2.667-4s-1.194-4-2.667-4z" fill="#6c696f"/><path d="m55.333 50.5h-3.333c-.276 0-.5-.224-.5-.5v-8c0-.276.224-.5.5-.5h3.333c1.776 0 3.167 1.977 3.167 4.5s-1.391 4.5-3.167 4.5zm-2.833-1h2.833c1.175 0 2.167-1.603 2.167-3.5s-.992-3.5-2.167-3.5h-2.833z" fill="#212a41"/><ellipse cx="52" cy="46" fill="#4e4b51" rx="3" ry="4"/><path d="m52 50.5c-1.93 0-3.5-2.019-3.5-4.5s1.57-4.5 3.5-4.5 3.5 2.019 3.5 4.5-1.57 4.5-3.5 4.5zm0-8c-1.378 0-2.5 1.57-2.5 3.5s1.122 3.5 2.5 3.5 2.5-1.57 2.5-3.5-1.122-3.5-2.5-3.5z" fill="#212a41"/><path d="m41.333 42h-3.333v8h3.333c1.473 0 2.667-1.791 2.667-4s-1.194-4-2.667-4z" fill="#6c696f"/><path d="m41.333 50.5h-3.333c-.276 0-.5-.224-.5-.5v-8c0-.276.224-.5.5-.5h3.333c1.776 0 3.167 1.977 3.167 4.5s-1.391 4.5-3.167 4.5zm-2.833-1h2.833c1.175 0 2.167-1.603 2.167-3.5s-.992-3.5-2.167-3.5h-2.833z" fill="#212a41"/><path d="m27.333 42h-3.333v8h3.333c1.473 0 2.667-1.791 2.667-4s-1.194-4-2.667-4z" fill="#6c696f"/><path d="m27.333 50.5h-3.333c-.276 0-.5-.224-.5-.5v-8c0-.276.224-.5.5-.5h3.333c1.776 0 3.167 1.977 3.167 4.5s-1.391 4.5-3.167 4.5zm-2.833-1h2.833c1.175 0 2.167-1.603 2.167-3.5s-.992-3.5-2.167-3.5h-2.833z" fill="#212a41"/><path d="m23 38h15.097l-3-6h-7.027c-.669 0-1.293.334-1.664.891z" fill="#c2c2c2"/><path d="m38.097 38.5h-15.097c-.185 0-.354-.102-.441-.264-.087-.163-.078-.36.025-.514l3.406-5.109c.465-.697 1.242-1.113 2.08-1.113h7.027c.189 0 .362.107.447.276l3 6c.078.155.069.339-.022.486s-.251.238-.425.238zm-14.163-1h13.354l-2.5-5h-6.718c-.502 0-.969.25-1.248.668z" fill="#212a41"/><path d="m47.198 39.838-9.101-1.838h-18.097c-1.105 0-2 .895-2 2v5c0 1.105.895 2 2 2h27c.552 0 1-.448 1-1v-5.182c0-.476-.335-.886-.802-.98z" fill="#b51040"/><path d="m47 47.5h-27c-1.378 0-2.5-1.121-2.5-2.5v-5c0-1.379 1.122-2.5 2.5-2.5h18.097l9.2 1.848c.697.142 1.202.76 1.202 1.471v5.181c.001.827-.672 1.5-1.499 1.5zm-9.002-9.01-17.998.01c-.827 0-1.5.673-1.5 1.5v5c0 .827.673 1.5 1.5 1.5h27c.276 0 .5-.225.5-.5v-5.182c0-.236-.168-.443-.401-.49z" fill="#212a41"/><path d="m46 45.5c-.276 0-.5-.224-.5-.5v-3.363c0-.276.224-.5.5-.5s.5.224.5.5v3.363c0 .276-.224.5-.5.5z" fill="#970022"/><path d="m51.097 38h-13l-3-6h10.93c.669 0 1.293.334 1.664.891z" fill="#e0e0e0"/><path d="m51.097 38.5h-13c-.189 0-.362-.107-.447-.276l-3-6c-.078-.155-.069-.339.022-.486s.252-.237.425-.237h10.93c.838 0 1.616.416 2.08 1.113l3.406 5.109c.102.153.112.351.025.514-.087.161-.256.263-.441.263zm-12.691-1h11.757l-2.888-4.332c-.278-.418-.745-.668-1.248-.668h-10.121z" fill="#212a41"/><path d="m38.097 38 9.101 1.838c.467.094.802.504.802.98v5.182c0 .552-.448 1-1 1h-1 13c.552 0 1-.448 1-1v-5.198c0-.469-.326-.875-.783-.976l-8.217-1.826z" fill="#d32e5e"/><path d="m59 47.5h-13c-.276 0-.5-.224-.5-.5s.224-.5.5-.5h1c.276 0 .5-.225.5-.5v-5.182c0-.237-.169-.443-.401-.49l-9.101-1.838c-.251-.051-.424-.284-.398-.54s.241-.45.498-.45h12.902c.037 0 .073.004.108.012l8.217 1.826c.692.153 1.175.756 1.175 1.464v5.198c0 .827-.673 1.5-1.5 1.5zm-10.585-1h10.585c.276 0 .5-.225.5-.5v-5.198c0-.235-.161-.437-.392-.487l-8.163-1.815h-7.846l4.198.848c.697.142 1.203.76 1.203 1.471v5.181c0 .175-.03.344-.085.5z" fill="#212a41"/><path d="m48 41h4v3h-4z" fill="#e0e0e0"/><path d="m52 44.5h-4c-.276 0-.5-.224-.5-.5v-3c0-.276.224-.5.5-.5h4c.276 0 .5.224.5.5v3c0 .276-.224.5-.5.5zm-3.5-1h3v-2h-3z" fill="#212a41"/><path d="m56 41h4v3h-4z" fill="#e0e0e0"/><path d="m60 44.5h-4c-.276 0-.5-.224-.5-.5v-3c0-.276.224-.5.5-.5h4c.276 0 .5.224.5.5v3c0 .276-.224.5-.5.5zm-3.5-1h3v-2h-3z" fill="#212a41"/><path d="m52 41h4v3h-4z" fill="#6c696f"/><path d="m56 44.5h-4c-.276 0-.5-.224-.5-.5v-3c0-.276.224-.5.5-.5h4c.276 0 .5.224.5.5v3c0 .276-.224.5-.5.5zm-3.5-1h3v-2h-3z" fill="#212a41"/><ellipse cx="24" cy="46" fill="#4e4b51" rx="3" ry="4"/><path d="m24 50.5c-1.93 0-3.5-2.019-3.5-4.5s1.57-4.5 3.5-4.5 3.5 2.019 3.5 4.5-1.57 4.5-3.5 4.5zm0-8c-1.378 0-2.5 1.57-2.5 3.5s1.122 3.5 2.5 3.5 2.5-1.57 2.5-3.5-1.122-3.5-2.5-3.5z" fill="#212a41"/><ellipse cx="38" cy="46" fill="#4e4b51" rx="3" ry="4"/><path d="m38 50.5c-1.93 0-3.5-2.019-3.5-4.5s1.57-4.5 3.5-4.5 3.5 2.019 3.5 4.5-1.57 4.5-3.5 4.5zm0-8c-1.378 0-2.5 1.57-2.5 3.5s1.122 3.5 2.5 3.5 2.5-1.57 2.5-3.5-1.122-3.5-2.5-3.5z" fill="#212a41"/><path d="m20 38.5c-.276 0-.5-.224-.5-.5v-2c0-.276.224-.5.5-.5s.5.224.5.5v2c0 .276-.224.5-.5.5z" fill="#212a41"/><path d="m22 50h38v10h-38z" fill="#6c696f"/><path d="m60 60.5h-38c-.276 0-.5-.224-.5-.5v-10c0-.276.224-.5.5-.5h38c.276 0 .5.224.5.5v10c0 .276-.224.5-.5.5zm-37.5-1h37v-9h-37z" fill="#212a41"/><path d="m58 58.5c-.276 0-.5-.224-.5-.5v-6c0-.276.224-.5.5-.5s.5.224.5.5v6c0 .276-.224.5-.5.5z" fill="#4e4b51"/><path d="m44 58.5c-.276 0-.5-.224-.5-.5v-6c0-.276.224-.5.5-.5s.5.224.5.5v6c0 .276-.224.5-.5.5z" fill="#8a878d"/><path d="m4 50h38v10h-38z" fill="#4e4b51"/><path d="m42 60.5h-38c-.276 0-.5-.224-.5-.5v-10c0-.276.224-.5.5-.5h38c.276 0 .5.224.5.5v10c0 .276-.224.5-.5.5zm-37.5-1h37v-9h-37z" fill="#212a41"/><path d="m40 58.5c-.276 0-.5-.224-.5-.5v-6c0-.276.224-.5.5-.5s.5.224.5.5v6c0 .276-.224.5-.5.5z" fill="#302d33"/><path d="m6 58.5c-.276 0-.5-.224-.5-.5v-6c0-.276.224-.5.5-.5s.5.224.5.5v6c0 .276-.224.5-.5.5z" fill="#6c696f"/><path d="m27.333 42h-3.333v8h3.333c1.473 0 2.667-1.791 2.667-4s-1.194-4-2.667-4z" fill="#6c696f"/><path d="m27.333 50.5h-3.333c-.276 0-.5-.224-.5-.5v-8c0-.276.224-.5.5-.5h3.333c1.776 0 3.167 1.977 3.167 4.5s-1.391 4.5-3.167 4.5zm-2.833-1h2.833c1.175 0 2.167-1.603 2.167-3.5s-.992-3.5-2.167-3.5h-2.833z" fill="#212a41"/><ellipse cx="24" cy="46" fill="#4e4b51" rx="3" ry="4"/><path d="m24 50.5c-1.93 0-3.5-2.019-3.5-4.5s1.57-4.5 3.5-4.5 3.5 2.019 3.5 4.5-1.57 4.5-3.5 4.5zm0-8c-1.378 0-2.5 1.57-2.5 3.5s1.122 3.5 2.5 3.5 2.5-1.57 2.5-3.5-1.122-3.5-2.5-3.5z" fill="#212a41"/><path d="m13.333 42h-3.333v8h3.333c1.473 0 2.667-1.791 2.667-4s-1.194-4-2.667-4z" fill="#6c696f"/><path d="m13.333 50.5h-3.333c-.276 0-.5-.224-.5-.5v-8c0-.276.224-.5.5-.5h3.333c1.776 0 3.167 1.977 3.167 4.5s-1.391 4.5-3.167 4.5zm-2.833-1h2.833c1.175 0 2.167-1.603 2.167-3.5s-.992-3.5-2.167-3.5h-2.833z" fill="#212a41"/><path d="m18 45.5c-.276 0-.5-.224-.5-.5v-3.363c0-.276.224-.5.5-.5s.5.224.5.5v3.363c0 .276-.224.5-.5.5z" fill="#003d6c"/><path d="m23.097 38h-13l-3-6h10.93c.669 0 1.293.334 1.664.891z" fill="#e0e0e0"/><path d="m23.097 38.5h-13c-.189 0-.362-.107-.447-.276l-3-6c-.078-.155-.069-.339.022-.486s.252-.238.425-.238h10.93c.838 0 1.616.416 2.08 1.113l3.406 5.109c.102.153.112.351.025.514-.087.162-.256.264-.441.264zm-12.691-1h11.757l-2.888-4.332c-.278-.418-.745-.668-1.248-.668h-10.121z" fill="#212a41"/><path d="m10.097 38 9.101 1.838c.467.094.802.504.802.98v5.182c0 .552-.448 1-1 1h-1 13c.552 0 1-.448 1-1v-5.198c0-.469-.326-.875-.783-.976l-8.217-1.826z" fill="#0079a8"/><path d="m31 47.5h-13c-.276 0-.5-.224-.5-.5s.224-.5.5-.5h1c.276 0 .5-.225.5-.5v-5.182c0-.237-.169-.443-.401-.49l-9.101-1.838c-.251-.051-.424-.284-.398-.54s.241-.45.498-.45h12.902c.037 0 .073.004.108.012l8.217 1.826c.692.153 1.175.756 1.175 1.464v5.198c0 .827-.673 1.5-1.5 1.5zm-10.585-1h10.585c.276 0 .5-.225.5-.5v-5.198c0-.235-.161-.437-.392-.487l-8.163-1.815h-7.846l4.198.848c.697.142 1.203.76 1.203 1.471v5.181c0 .175-.03.344-.085.5z" fill="#212a41"/><path d="m20 41h4v3h-4z" fill="#e0e0e0"/><path d="m24 44.5h-4c-.276 0-.5-.224-.5-.5v-3c0-.276.224-.5.5-.5h4c.276 0 .5.224.5.5v3c0 .276-.224.5-.5.5zm-3.5-1h3v-2h-3z" fill="#212a41"/><path d="m28 41h4v3h-4z" fill="#e0e0e0"/><path d="m32 44.5h-4c-.276 0-.5-.224-.5-.5v-3c0-.276.224-.5.5-.5h4c.276 0 .5.224.5.5v3c0 .276-.224.5-.5.5zm-3.5-1h3v-2h-3z" fill="#212a41"/><path d="m24 41h4v3h-4z" fill="#6c696f"/><path d="m28 44.5h-4c-.276 0-.5-.224-.5-.5v-3c0-.276.224-.5.5-.5h4c.276 0 .5.224.5.5v3c0 .276-.224.5-.5.5zm-3.5-1h3v-2h-3z" fill="#212a41"/><path d="m19.198 39.838-9.101-1.838h-6.097v9h15c.552 0 1-.448 1-1v-5.182c0-.476-.335-.886-.802-.98z" fill="#005b8a"/><path d="m19 47.5h-15c-.276 0-.5-.224-.5-.5v-9c0-.276.224-.5.5-.5h6.097l9.2 1.848c.697.142 1.202.76 1.202 1.471v5.181c.001.827-.672 1.5-1.499 1.5zm-14.5-1h14.5c.276 0 .5-.225.5-.5v-5.182c0-.236-.168-.443-.401-.49l-9.101-1.838-5.498.009z" fill="#212a41"/><path d="m4 38h6.097l-3-6h-3.097z" fill="#c2c2c2"/><path d="m10.097 38.5h-6.097c-.276 0-.5-.224-.5-.5v-6c0-.276.224-.5.5-.5h3.097c.189 0 .362.107.447.276l3 6c.078.155.069.339-.022.486s-.251.238-.425.238zm-5.597-1h4.788l-2.5-5h-2.288z" fill="#212a41"/><ellipse cx="10" cy="46" fill="#4e4b51" rx="3" ry="4"/><path d="m10 50.5c-1.93 0-3.5-2.019-3.5-4.5s1.57-4.5 3.5-4.5 3.5 2.019 3.5 4.5-1.57 4.5-3.5 4.5zm0-8c-1.378 0-2.5 1.57-2.5 3.5s1.122 3.5 2.5 3.5 2.5-1.57 2.5-3.5-1.122-3.5-2.5-3.5z" fill="#212a41"/><path d="m8.049 15h4c.552 0 1 .448 1 1v1c0 .552-.448 1-1 1h-4c-.552 0-1-.448-1-1v-1c0-.552.447-1 1-1z" fill="#b7c0d7"/><path d="m12.049 18.5h-4c-.827 0-1.5-.673-1.5-1.5v-1c0-.827.673-1.5 1.5-1.5h4c.827 0 1.5.673 1.5 1.5v1c0 .827-.673 1.5-1.5 1.5zm-4-3c-.276 0-.5.225-.5.5v1c0 .275.224.5.5.5h4c.276 0 .5-.225.5-.5v-1c0-.275-.224-.5-.5-.5z" fill="#212a41"/><path d="m5.049 15h4c.552 0 1 .448 1 1v1c0 .552-.448 1-1 1h-4c-.552 0-1-.448-1-1v-1c0-.552.447-1 1-1z" fill="#99a2b9"/><path d="m9.049 18.5h-4c-.827 0-1.5-.673-1.5-1.5v-1c0-.827.673-1.5 1.5-1.5h4c.827 0 1.5.673 1.5 1.5v1c0 .827-.673 1.5-1.5 1.5zm-4-3c-.276 0-.5.225-.5.5v1c0 .275.224.5.5.5h4c.276 0 .5-.225.5-.5v-1c0-.275-.224-.5-.5-.5z" fill="#212a41"/><path d="m21 15h18c.552 0 1 .448 1 1v1c0 .552-.448 1-1 1h-18c-.552 0-1-.448-1-1v-1c0-.552.448-1 1-1z" fill="#b7c0d7"/><path d="m39 18.5h-18c-.827 0-1.5-.673-1.5-1.5v-1c0-.827.673-1.5 1.5-1.5h18c.827 0 1.5.673 1.5 1.5v1c0 .827-.673 1.5-1.5 1.5zm-18-3c-.276 0-.5.225-.5.5v1c0 .275.224.5.5.5h18c.276 0 .5-.225.5-.5v-1c0-.275-.224-.5-.5-.5z" fill="#212a41"/><path d="m18 15h18c.552 0 1 .448 1 1v1c0 .552-.448 1-1 1h-18c-.552 0-1-.448-1-1v-1c0-.552.448-1 1-1z" fill="#99a2b9"/><path d="m36 18.5h-18c-.827 0-1.5-.673-1.5-1.5v-1c0-.827.673-1.5 1.5-1.5h18c.827 0 1.5.673 1.5 1.5v1c0 .827-.673 1.5-1.5 1.5zm-18-3c-.276 0-.5.225-.5.5v1c0 .275.224.5.5.5h18c.276 0 .5-.225.5-.5v-1c0-.275-.224-.5-.5-.5z" fill="#212a41"/><path d="m18.049 23h4c.552 0 1 .448 1 1v1c0 .552-.448 1-1 1h-4c-.552 0-1-.448-1-1v-1c0-.552.447-1 1-1z" fill="#b7c0d7"/><path d="m22.049 26.5h-4c-.827 0-1.5-.673-1.5-1.5v-1c0-.827.673-1.5 1.5-1.5h4c.827 0 1.5.673 1.5 1.5v1c0 .827-.673 1.5-1.5 1.5zm-4-3c-.276 0-.5.225-.5.5v1c0 .275.224.5.5.5h4c.276 0 .5-.225.5-.5v-1c0-.275-.224-.5-.5-.5z" fill="#212a41"/><path d="m15.049 23h4c.552 0 1 .448 1 1v1c0 .552-.448 1-1 1h-4c-.552 0-1-.448-1-1v-1c0-.552.447-1 1-1z" fill="#99a2b9"/><path d="m19.049 26.5h-4c-.827 0-1.5-.673-1.5-1.5v-1c0-.827.673-1.5 1.5-1.5h4c.827 0 1.5.673 1.5 1.5v1c0 .827-.673 1.5-1.5 1.5zm-4-3c-.276 0-.5.225-.5.5v1c0 .275.224.5.5.5h4c.276 0 .5-.225.5-.5v-1c0-.275-.224-.5-.5-.5z" fill="#212a41"/><path d="m31 23h18c.552 0 1 .448 1 1v1c0 .552-.448 1-1 1h-18c-.552 0-1-.448-1-1v-1c0-.552.448-1 1-1z" fill="#b7c0d7"/><path d="m49 26.5h-18c-.827 0-1.5-.673-1.5-1.5v-1c0-.827.673-1.5 1.5-1.5h18c.827 0 1.5.673 1.5 1.5v1c0 .827-.673 1.5-1.5 1.5zm-18-3c-.276 0-.5.225-.5.5v1c0 .275.224.5.5.5h18c.276 0 .5-.225.5-.5v-1c0-.275-.224-.5-.5-.5z" fill="#212a41"/><path d="m28 23h18c.552 0 1 .448 1 1v1c0 .552-.448 1-1 1h-18c-.552 0-1-.448-1-1v-1c0-.552.448-1 1-1z" fill="#99a2b9"/><path d="m46 26.5h-18c-.827 0-1.5-.673-1.5-1.5v-1c0-.827.673-1.5 1.5-1.5h18c.827 0 1.5.673 1.5 1.5v1c0 .827-.673 1.5-1.5 1.5zm-18-3c-.276 0-.5.225-.5.5v1c0 .275.224.5.5.5h18c.276 0 .5-.225.5-.5v-1c0-.275-.224-.5-.5-.5z" fill="#212a41"/><path d="m18 45.5c-.276 0-.5-.224-.5-.5v-3.363c0-.276.224-.5.5-.5s.5.224.5.5v3.363c0 .276-.224.5-.5.5z" fill="#003d6c"/></svg>