<svg id="Icon_Set" enable-background="new 0 0 64 64" height="512" viewBox="0 0 64 64" width="512" xmlns="http://www.w3.org/2000/svg"><path d="m4 50h46v10h-46z" fill="#4e4b51"/><path d="m50 60.5h-46c-.276 0-.5-.224-.5-.5v-10c0-.276.224-.5.5-.5h46c.276 0 .5.224.5.5v10c0 .276-.224.5-.5.5zm-45.5-1h45v-9h-45z" fill="#212a41"/><path d="m52 34h-5v16h5c2.209 0 4-3.582 4-8s-1.791-8-4-8z" fill="#6c696f"/><path d="m52 50.5h-5c-.276 0-.5-.224-.5-.5v-16c0-.276.224-.5.5-.5h5c2.523 0 4.5 3.733 4.5 8.5s-1.977 8.5-4.5 8.5zm-4.5-1h4.5c1.897 0 3.5-3.435 3.5-7.5s-1.603-7.5-3.5-7.5h-4.5z" fill="#212a41"/><ellipse cx="47" cy="42" fill="#4e4b51" rx="4" ry="8"/><path d="m47 50.5c-2.523 0-4.5-3.733-4.5-8.5s1.977-8.5 4.5-8.5 4.5 3.733 4.5 8.5-1.977 8.5-4.5 8.5zm0-16c-1.897 0-3.5 3.435-3.5 7.5s1.603 7.5 3.5 7.5 3.5-3.435 3.5-7.5-1.603-7.5-3.5-7.5z" fill="#212a41"/><ellipse cx="47" cy="42" fill="#005b8a" rx="1.5" ry="4"/><path d="m47 46.5c-1.313 0-2-2.264-2-4.5s.687-4.5 2-4.5 2 2.264 2 4.5-.687 4.5-2 4.5zm0-8c-.29 0-1 1.227-1 3.5s.71 3.5 1 3.5 1-1.227 1-3.5-.71-3.5-1-3.5z" fill="#212a41"/><path d="m18 34h-5v16h5c2.209 0 4-3.582 4-8s-1.791-8-4-8z" fill="#6c696f"/><path d="m18 50.5h-5c-.276 0-.5-.224-.5-.5v-16c0-.276.224-.5.5-.5h5c2.523 0 4.5 3.733 4.5 8.5s-1.977 8.5-4.5 8.5zm-4.5-1h4.5c1.897 0 3.5-3.435 3.5-7.5s-1.603-7.5-3.5-7.5h-4.5z" fill="#212a41"/><path d="m13 28 11.051 3.684c.597.199 1.066.668 1.265 1.265l1.684 5.051h32l-1.684-5.051c-.199-.597-.668-1.066-1.265-1.265l-11.051-3.684z" fill="#0079a8"/><path d="m59 38.5h-32c-.215 0-.406-.138-.474-.342l-1.684-5.051c-.149-.446-.503-.8-.949-.949l-11.051-3.684c-.232-.077-.375-.312-.335-.554s.249-.42.494-.42h32c.054 0 .107.009.158.026l11.051 3.684c.743.248 1.333.838 1.581 1.581l1.684 5.051c.051.152.025.32-.068.451-.095.13-.246.207-.407.207zm-31.64-1h30.946l-1.464-4.393c-.149-.446-.503-.8-.949-.949l-10.974-3.658h-28.838l8.128 2.709c.743.248 1.333.838 1.581 1.581z" fill="#212a41"/><path d="m4 18h27.552c.936 0 1.842.328 2.561.927l10.887 9.073h-32z" fill="#e0e0e0"/><path d="m45 28.5h-32c-.142 0-.277-.06-.372-.166l-9-10c-.132-.147-.166-.357-.085-.538.081-.18.26-.296.457-.296h27.552c1.05 0 2.074.371 2.881 1.043l10.888 9.073c.162.135.222.356.15.555-.073.197-.261.329-.471.329zm-31.777-1h30.396l-9.827-8.188c-.628-.523-1.424-.812-2.241-.812h-26.428z" fill="#212a41"/><path d="m13.891 26.5c-.137 0-.273-.056-.372-.166l-5.4-6c-.185-.205-.168-.521.037-.706s.521-.169.706.037l5.4 6c.185.205.168.521-.037.706-.096.087-.215.129-.334.129z" fill="#fefefe"/><path d="m39.475 26.5c-.113 0-.226-.038-.32-.116l-6.644-5.536c-.212-.177-.241-.492-.064-.705.176-.212.491-.241.705-.064l6.644 5.536c.212.177.241.492.064.705-.099.119-.241.18-.385.18z" fill="#c2c2c2"/><path d="m4 38h31v9h-31z" fill="#005b8a"/><path d="m35 47.5h-31c-.276 0-.5-.224-.5-.5v-9c0-.276.224-.5.5-.5h31c.276 0 .5.224.5.5v9c0 .276-.224.5-.5.5zm-30.5-1h30v-8h-30z" fill="#212a41"/><path d="m4 28v10h23l-1.684-5.051c-.199-.597-.668-1.066-1.265-1.265l-11.051-3.684z" fill="#005b8a"/><path d="m27 38.5h-23c-.276 0-.5-.224-.5-.5v-10c0-.276.224-.5.5-.5h9c.054 0 .107.009.158.026l11.051 3.684c.743.248 1.333.838 1.581 1.581l1.684 5.051c.051.152.025.32-.068.451-.094.13-.245.207-.406.207zm-22.5-1h21.806l-1.464-4.393c-.149-.446-.503-.8-.949-.949l-10.974-3.658h-8.419z" fill="#212a41"/><path d="m24.349 36.5c-.198 0-.385-.118-.464-.313l-.981-2.437c-.103-.256.021-.548.277-.651.256-.102.547.021.651.277l.981 2.437c.103.256-.021.548-.277.651-.062.024-.125.036-.187.036z" fill="#003d6c"/><ellipse cx="13" cy="42" fill="#4e4b51" rx="4" ry="8"/><path d="m13 50.5c-2.523 0-4.5-3.733-4.5-8.5s1.977-8.5 4.5-8.5 4.5 3.733 4.5 8.5-1.977 8.5-4.5 8.5zm0-16c-1.897 0-3.5 3.435-3.5 7.5s1.603 7.5 3.5 7.5 3.5-3.435 3.5-7.5-1.603-7.5-3.5-7.5z" fill="#212a41"/><ellipse cx="13" cy="42" fill="#005b8a" rx="1.5" ry="4"/><path d="m13 46.5c-1.313 0-2-2.264-2-4.5s.687-4.5 2-4.5 2 2.264 2 4.5-.687 4.5-2 4.5zm0-8c-.29 0-1 1.227-1 3.5s.71 3.5 1 3.5 1-1.227 1-3.5-.71-3.5-1-3.5z" fill="#212a41"/><path d="m30.533 33.999c-1.076 0-3.235-.001-4.867-.001l1.334 4.002h8l-.895-1.79c-.677-1.355-2.058-2.211-3.572-2.211z" fill="#e0e0e0"/><path d="m35 38.5h-8c-.215 0-.406-.138-.474-.342l-1.334-4.002c-.051-.152-.025-.32.068-.451.094-.13.245-.208.406-.208l4.867.001c1.712.001 3.252.955 4.019 2.488l.895 1.79c.078.155.069.339-.022.486s-.252.238-.425.238zm-7.64-1h6.831l-.533-1.066c-.596-1.193-1.794-1.934-3.125-1.935l-4.172-.001z" fill="#212a41"/><path d="m55.467 33.999c-1.514.001-2.895.857-3.572 2.211l-.895 1.79h8l-1.334-4.002c-.91 0-1.818 0-2.199.001z" fill="#e0e0e0"/><path d="m59 38.5h-8c-.173 0-.334-.09-.425-.237s-.1-.332-.022-.486l.895-1.79c.767-1.533 2.307-2.487 4.019-2.488h2.198c.215 0 .406.138.474.342l1.334 4.002c.051.152.025.32-.068.451-.093.129-.244.206-.405.206zm-7.191-1h6.497l-1-3.002h-1.838c-1.332.001-2.529.742-3.125 1.935z" fill="#212a41"/><path d="m59 38h-32c-.552 0-1 .448-1 1v7c0 .552.448 1 1 1h32c.552 0 1-.448 1-1v-7c0-.552-.448-1-1-1z" fill="#0079a8"/><path d="m59 47.5h-32c-.827 0-1.5-.673-1.5-1.5v-7c0-.827.673-1.5 1.5-1.5h32c.827 0 1.5.673 1.5 1.5v7c0 .827-.673 1.5-1.5 1.5zm-32-9c-.276 0-.5.224-.5.5v7c0 .276.224.5.5.5h32c.276 0 .5-.224.5-.5v-7c0-.276-.224-.5-.5-.5z" fill="#212a41"/><path d="m4 18 9 10h-9z" fill="#c2c2c2"/><path d="m13 28.5h-9c-.276 0-.5-.224-.5-.5v-10c0-.207.127-.393.321-.467.195-.074.412-.021.551.132l9 10c.132.147.166.357.085.538s-.26.297-.457.297zm-8.5-1h7.377l-7.377-8.197z" fill="#212a41"/><path d="m14 50h46v10h-46z" fill="#6c696f"/><path d="m60 60.5h-46c-.276 0-.5-.224-.5-.5v-10c0-.276.224-.5.5-.5h46c.276 0 .5.224.5.5v10c0 .276-.224.5-.5.5zm-45.5-1h45v-9h-45z" fill="#212a41"/><path d="m43 9c0 1.105.895 2 2 2h8c1.105 0 2-.895 2-2 0-1.105-.895-2-2-2h-1.042c0-1.657-1.343-3-3-3s-3 1.343-3 3h-.958c-1.105 0-2 .895-2 2z" fill="#99a2b9"/><path d="m53 11.5h-8c-1.378 0-2.5-1.122-2.5-2.5s1.122-2.5 2.5-2.5h.494c.243-1.694 1.704-3 3.464-3s3.221 1.306 3.464 3h.578c1.378 0 2.5 1.122 2.5 2.5s-1.122 2.5-2.5 2.5zm-8-4c-.827 0-1.5.673-1.5 1.5s.673 1.5 1.5 1.5h8c.827 0 1.5-.673 1.5-1.5s-.673-1.5-1.5-1.5h-1.042c-.276 0-.5-.224-.5-.5 0-1.378-1.122-2.5-2.5-2.5s-2.5 1.122-2.5 2.5c0 .276-.224.5-.5.5z" fill="#212a41"/><path d="m56.958 7c0-1.657-1.343-3-3-3s-3 1.343-3 3h-.958c-1.105 0-2 .895-2 2 0 1.105.895 2 2 2h8c1.105 0 2-.895 2-2 0-1.105-.895-2-2-2z" fill="#b7c0d7"/><path d="m58 11.5h-8c-1.378 0-2.5-1.122-2.5-2.5s1.122-2.5 2.5-2.5h.494c.243-1.694 1.704-3 3.464-3s3.221 1.306 3.464 3h.578c1.378 0 2.5 1.122 2.5 2.5s-1.122 2.5-2.5 2.5zm-8-4c-.827 0-1.5.673-1.5 1.5s.673 1.5 1.5 1.5h8c.827 0 1.5-.673 1.5-1.5s-.673-1.5-1.5-1.5h-1.042c-.276 0-.5-.224-.5-.5 0-1.378-1.122-2.5-2.5-2.5s-2.5 1.122-2.5 2.5c0 .276-.224.5-.5.5zm7.458-.5h.01z" fill="#212a41"/><path d="m28 45.5c-.276 0-.5-.224-.5-.5v-5c0-.276.224-.5.5-.5s.5.224.5.5v5c0 .276-.224.5-.5.5z" fill="#1e97c6"/><path d="m58 45.5c-.276 0-.5-.224-.5-.5v-5c0-.276.224-.5.5-.5s.5.224.5.5v5c0 .276-.224.5-.5.5z" fill="#005b8a"/><path d="m6 36.5c-.276 0-.5-.224-.5-.5v-6c0-.276.224-.5.5-.5s.5.224.5.5v6c0 .276-.224.5-.5.5z" fill="#0079a8"/><path d="m6 45.5c-.276 0-.5-.224-.5-.5v-5c0-.276.224-.5.5-.5s.5.224.5.5v5c0 .276-.224.5-.5.5z" fill="#0079a8"/><path d="m24 45.5c-.276 0-.5-.224-.5-.5v-5c0-.276.224-.5.5-.5s.5.224.5.5v5c0 .276-.224.5-.5.5z" fill="#003d6c"/><path d="m58 58.5c-.276 0-.5-.224-.5-.5v-6c0-.276.224-.5.5-.5s.5.224.5.5v6c0 .276-.224.5-.5.5z" fill="#4e4b51"/><path d="m16 58.5c-.276 0-.5-.224-.5-.5v-6c0-.276.224-.5.5-.5s.5.224.5.5v6c0 .276-.224.5-.5.5z" fill="#8a878d"/><path d="m6 58.5c-.276 0-.5-.224-.5-.5v-6c0-.276.224-.5.5-.5s.5.224.5.5v6c0 .276-.224.5-.5.5z" fill="#6c696f"/><path d="m47.559 44h-9.117c-.861 0-1.625-.551-1.897-1.368l-1.545-4.632h16l-1.544 4.632c-.272.817-1.037 1.368-1.897 1.368z" fill="#6c696f"/><path d="m47.559 44.5h-9.117c-1.078 0-2.031-.687-2.372-1.709l-1.544-4.632c-.051-.152-.025-.32.068-.451.094-.131.245-.208.406-.208h16c.161 0 .312.077.406.208.094.13.12.298.068.451l-1.544 4.632c-.341 1.022-1.294 1.709-2.371 1.709zm-11.865-6 1.324 3.974c.205.614.777 1.026 1.423 1.026h9.117c.646 0 1.218-.412 1.423-1.026l1.324-3.974z" fill="#212a41"/><path d="m38 30.999h-4v-2l4-5z" fill="#005b8a"/><path d="m38 31.499h-4c-.276 0-.5-.224-.5-.5v-2c0-.114.039-.224.109-.312l4-5c.134-.165.357-.229.556-.159.2.07.334.259.334.472v7c.001.275-.223.499-.499.499zm-3.5-1h3v-5.075l-3 3.75z" fill="#212a41"/><path d="m38 23.999h10v7h-10z" fill="#6c696f"/><g fill="#212a41"><path d="m48 31.499h-10c-.276 0-.5-.224-.5-.5v-7c0-.276.224-.5.5-.5h10c.276 0 .5.224.5.5v7c0 .276-.224.5-.5.5zm-9.5-1h9v-6h-9z"/><path d="m41 31.499c-.276 0-.5-.224-.5-.5v-7c0-.276.224-.5.5-.5s.5.224.5.5v7c0 .276-.224.5-.5.5z"/><path d="m45 31.499c-.276 0-.5-.224-.5-.5v-7c0-.276.224-.5.5-.5s.5.224.5.5v7c0 .276-.224.5-.5.5z"/></g><circle cx="6" cy="33" fill="#b7c0d7" r="2"/><path d="m6 35.5c-1.378 0-2.5-1.122-2.5-2.5s1.122-2.5 2.5-2.5 2.5 1.122 2.5 2.5-1.122 2.5-2.5 2.5zm0-4c-.827 0-1.5.673-1.5 1.5s.673 1.5 1.5 1.5 1.5-.673 1.5-1.5-.673-1.5-1.5-1.5z" fill="#212a41"/><path d="m15 44c-.382 0-.744.078-1.08.208-.329-2.058-1.904-3.693-3.931-4.103 0 0 .011-.069.011-.105 0-1.657-1.343-3-3-3s-3 1.343-3 3c0 .841.348 1.598.905 2.143-.567.811-.905 1.793-.905 2.857 0 2.761 2.239 5 5 5 1.348 0 2.567-.54 3.466-1.407.531.843 1.464 1.407 2.534 1.407 1.657 0 3-1.343 3-3s-1.343-3-3-3z" fill="#b7c0d7"/><path d="m15 50.5c-1.01 0-1.951-.432-2.61-1.178-.968.763-2.152 1.178-3.39 1.178-3.033 0-5.5-2.467-5.5-5.5 0-.992.267-1.954.776-2.806-.503-.62-.776-1.385-.776-2.194 0-1.93 1.57-3.5 3.5-3.5 1.833 0 3.341 1.416 3.488 3.212 1.853.524 3.307 2.006 3.807 3.864 2.17-.464 4.205 1.26 4.205 3.424 0 1.93-1.57 3.5-3.5 3.5zm-2.534-2.407c.02 0 .04.001.06.003.149.018.283.103.363.23.464.735 1.253 1.174 2.111 1.174 1.378 0 2.5-1.122 2.5-2.5 0-1.675-1.703-2.982-3.399-2.325-.141.054-.298.042-.429-.033s-.221-.206-.245-.354c-.295-1.84-1.716-3.324-3.537-3.692-.262-.053-.436-.303-.395-.567.005-1.407-1.117-2.529-2.495-2.529s-2.5 1.122-2.5 2.5c0 .676.268 1.31.754 1.786.175.171.2.443.06.644-.532.761-.814 1.651-.814 2.57 0 2.481 2.019 4.5 4.5 4.5 1.165 0 2.272-.45 3.119-1.267.094-.09.218-.14.347-.14z" fill="#212a41"/></svg>