<svg id="Icon_Set" enable-background="new 0 0 64 64" height="512" viewBox="0 0 64 64" width="512" xmlns="http://www.w3.org/2000/svg"><path d="m43 9c0 1.105.895 2 2 2h8c1.105 0 2-.895 2-2 0-1.105-.895-2-2-2h-1.042c0-1.657-1.343-3-3-3s-3 1.343-3 3h-.958c-1.105 0-2 .895-2 2z" fill="#99a2b9"/><path d="m53 11.5h-8c-1.378 0-2.5-1.121-2.5-2.5s1.122-2.5 2.5-2.5h.494c.243-1.694 1.704-3 3.464-3s3.221 1.306 3.464 3h.578c1.378 0 2.5 1.121 2.5 2.5s-1.122 2.5-2.5 2.5zm-8-4c-.827 0-1.5.673-1.5 1.5s.673 1.5 1.5 1.5h8c.827 0 1.5-.673 1.5-1.5s-.673-1.5-1.5-1.5h-1.042c-.276 0-.5-.224-.5-.5 0-1.379-1.122-2.5-2.5-2.5s-2.5 1.121-2.5 2.5c0 .276-.224.5-.5.5z" fill="#212a41"/><path d="m56.958 7c0-1.657-1.343-3-3-3s-3 1.343-3 3h-.958c-1.105 0-2 .895-2 2 0 1.105.895 2 2 2h8c1.105 0 2-.895 2-2 0-1.105-.895-2-2-2z" fill="#b7c0d7"/><path d="m58 11.5h-8c-1.378 0-2.5-1.121-2.5-2.5s1.122-2.5 2.5-2.5h.494c.243-1.694 1.704-3 3.464-3s3.221 1.306 3.464 3h.578c1.378 0 2.5 1.121 2.5 2.5s-1.122 2.5-2.5 2.5zm-8-4c-.827 0-1.5.673-1.5 1.5s.673 1.5 1.5 1.5h8c.827 0 1.5-.673 1.5-1.5s-.673-1.5-1.5-1.5h-1.042c-.276 0-.5-.224-.5-.5 0-1.379-1.122-2.5-2.5-2.5s-2.5 1.121-2.5 2.5c0 .276-.224.5-.5.5zm7.458-.5h.01z" fill="#212a41"/><path d="m4 15c0 1.105.895 2 2 2h8c1.105 0 2-.895 2-2 0-1.105-.895-2-2-2h-1.042c0-1.657-1.343-3-3-3s-3 1.343-3 3h-.958c-1.105 0-2 .895-2 2z" fill="#99a2b9"/><path d="m14 17.5h-8c-1.378 0-2.5-1.121-2.5-2.5s1.122-2.5 2.5-2.5h.494c.243-1.694 1.704-3 3.464-3s3.221 1.306 3.464 3h.578c1.378 0 2.5 1.121 2.5 2.5s-1.122 2.5-2.5 2.5zm-8-4c-.827 0-1.5.673-1.5 1.5s.673 1.5 1.5 1.5h8c.827 0 1.5-.673 1.5-1.5s-.673-1.5-1.5-1.5h-1.042c-.276 0-.5-.224-.5-.5 0-1.379-1.122-2.5-2.5-2.5s-2.5 1.121-2.5 2.5c0 .276-.224.5-.5.5z" fill="#212a41"/><path d="m17.958 13c0-1.657-1.343-3-3-3s-3 1.343-3 3h-.958c-1.105 0-2 .895-2 2 0 1.105.895 2 2 2h8c1.105 0 2-.895 2-2 0-1.105-.895-2-2-2z" fill="#b7c0d7"/><path d="m19 17.5h-8c-1.378 0-2.5-1.121-2.5-2.5s1.122-2.5 2.5-2.5h.494c.243-1.694 1.704-3 3.464-3s3.221 1.306 3.464 3h.578c1.378 0 2.5 1.121 2.5 2.5s-1.122 2.5-2.5 2.5zm-8-4c-.827 0-1.5.673-1.5 1.5s.673 1.5 1.5 1.5h8c.827 0 1.5-.673 1.5-1.5s-.673-1.5-1.5-1.5h-1.042c-.276 0-.5-.224-.5-.5 0-1.379-1.122-2.5-2.5-2.5s-2.5 1.121-2.5 2.5c0 .276-.224.5-.5.5zm7.458-.5h.01z" fill="#212a41"/><path d="m22 50h38v10h-38z" fill="#6c696f"/><path d="m60 60.5h-38c-.276 0-.5-.224-.5-.5v-10c0-.276.224-.5.5-.5h38c.276 0 .5.224.5.5v10c0 .276-.224.5-.5.5zm-37.5-1h37v-9h-37z" fill="#212a41"/><path d="m58 58.5c-.276 0-.5-.224-.5-.5v-6c0-.276.224-.5.5-.5s.5.224.5.5v6c0 .276-.224.5-.5.5z" fill="#4e4b51"/><path d="m44 58.5c-.276 0-.5-.224-.5-.5v-6c0-.276.224-.5.5-.5s.5.224.5.5v6c0 .276-.224.5-.5.5z" fill="#8a878d"/><path d="m4 50h38v10h-38z" fill="#4e4b51"/><path d="m42 60.5h-38c-.276 0-.5-.224-.5-.5v-10c0-.276.224-.5.5-.5h38c.276 0 .5.224.5.5v10c0 .276-.224.5-.5.5zm-37.5-1h37v-9h-37z" fill="#212a41"/><path d="m40 58.5c-.276 0-.5-.224-.5-.5v-6c0-.276.224-.5.5-.5s.5.224.5.5v6c0 .276-.224.5-.5.5z" fill="#302d33"/><path d="m6 58.5c-.276 0-.5-.224-.5-.5v-6c0-.276.224-.5.5-.5s.5.224.5.5v6c0 .276-.224.5-.5.5z" fill="#6c696f"/><path d="m26 42h-3v8h3c1.105 0 2-1.791 2-4s-.895-4-2-4z" fill="#6c696f"/><path d="m26 50.5h-3c-.276 0-.5-.224-.5-.5v-8c0-.276.224-.5.5-.5h3c1.425 0 2.5 1.935 2.5 4.5s-1.075 4.5-2.5 4.5zm-2.5-1h2.5c.708 0 1.5-1.497 1.5-3.5s-.792-3.5-1.5-3.5h-2.5z" fill="#212a41"/><path d="m52 42h-3v8h3c.552 0 1-1.791 1-4s-.448-4-1-4z" fill="#6c696f"/><path d="m52 50.5h-3c-.276 0-.5-.224-.5-.5v-8c0-.276.224-.5.5-.5h3c1.428 0 1.5 3.749 1.5 4.5s-.072 4.5-1.5 4.5zm-2.5-1h2.416c.215-.259.584-1.485.584-3.5s-.369-3.241-.584-3.5h-2.416zm2.5-7h.01z" fill="#212a41"/><ellipse cx="49" cy="46" fill="#4e4b51" rx="1" ry="4"/><path d="m49 50.5c-1.428 0-1.5-3.749-1.5-4.5s.072-4.5 1.5-4.5 1.5 3.749 1.5 4.5-.072 4.5-1.5 4.5zm0-7.863c-.215.431-.5 1.593-.5 3.363s.285 2.933.5 3.363c.215-.431.5-1.593.5-3.363s-.285-2.933-.5-3.363z" fill="#212a41"/><path d="m27 36h-9l-1-3h9z" fill="#6c696f"/><path d="m27 36.5h-9c-.215 0-.406-.138-.474-.342l-1-3c-.051-.152-.025-.32.068-.45.094-.131.245-.208.406-.208h9c.215 0 .406.138.474.342l1 3c.051.152.025.32-.068.45-.094.131-.245.208-.406.208zm-8.64-1h7.946l-.667-2h-7.946z" fill="#212a41"/><path d="m22 38h13.097l-3-6h-5.027c-.669 0-1.293.334-1.664.891z" fill="#c2c2c2"/><path d="m35.097 38.5h-13.097c-.185 0-.354-.102-.441-.264-.087-.163-.078-.36.025-.514l3.406-5.109c.465-.697 1.242-1.113 2.08-1.113h5.027c.189 0 .362.107.447.276l3 6c.078.155.069.339-.022.486s-.251.238-.425.238zm-12.163-1h11.354l-2.5-5h-4.718c-.502 0-.969.25-1.248.668z" fill="#212a41"/><path d="m42.245 39.809-7.148-1.809h-15.097c-1.105 0-2 .895-2 2v5c0 1.105.895 2 2 2h23v-6.222c0-.457-.311-.857-.755-.969z" fill="#b51040"/><path d="m43 47.5h-23c-1.378 0-2.5-1.121-2.5-2.5v-5c0-1.379 1.122-2.5 2.5-2.5h15.097c.042 0 .083.005.123.016l7.148 1.809c.667.168 1.132.767 1.132 1.454v6.221c0 .276-.224.5-.5.5zm-23-9c-.827 0-1.5.673-1.5 1.5v5c0 .827.673 1.5 1.5 1.5h22.5v-5.722c0-.229-.155-.429-.377-.485l-7.088-1.793z" fill="#212a41"/><path d="m41 45.5c-.276 0-.5-.224-.5-.5v-3.363c0-.276.224-.5.5-.5s.5.224.5.5v3.363c0 .276-.224.5-.5.5z" fill="#970022"/><path d="m48.097 38h-13l-3-6h10.93c.669 0 1.293.334 1.664.891z" fill="#e0e0e0"/><path d="m48.097 38.5h-13c-.189 0-.362-.107-.447-.276l-3-6c-.078-.155-.069-.339.022-.486s.252-.237.425-.237h10.93c.838 0 1.615.416 2.08 1.113l3.406 5.109c.102.153.112.351.025.514-.087.161-.256.263-.441.263zm-12.691-1h11.757l-2.888-4.332c-.279-.418-.746-.668-1.248-.668h-10.121z" fill="#212a41"/><path d="m35.097 38 7.148 1.809c.444.112.755.512.755.969v5.222c0 .552-.448 1-1 1h-1 15c.552 0 1-.448 1-1v-5.198c0-.469-.326-.875-.783-.976l-8.217-1.826z" fill="#d32e5e"/><path d="m56 47.5h-15c-.276 0-.5-.224-.5-.5s.224-.5.5-.5h1c.276 0 .5-.225.5-.5v-5.222c0-.229-.155-.429-.377-.485l-7.148-1.809c-.245-.062-.405-.296-.374-.546.031-.251.244-.438.496-.438h12.903c.037 0 .073.004.108.012l8.217 1.826c.692.153 1.175.756 1.175 1.464v5.198c0 .827-.673 1.5-1.5 1.5zm-12.585-1h12.585c.276 0 .5-.225.5-.5v-5.198c0-.235-.161-.437-.392-.487l-8.163-1.815h-8.833l3.256.824c.667.168 1.132.767 1.132 1.454v5.222c0 .175-.03.344-.085.5z" fill="#212a41"/><path d="m43 41h4v3h-4z" fill="#e0e0e0"/><path d="m47 44.5h-4c-.276 0-.5-.224-.5-.5v-3c0-.276.224-.5.5-.5h4c.276 0 .5.224.5.5v3c0 .276-.224.5-.5.5zm-3.5-1h3v-2h-3z" fill="#212a41"/><path d="m53 41h4v3h-4z" fill="#e0e0e0"/><path d="m57 44.5h-4c-.276 0-.5-.224-.5-.5v-3c0-.276.224-.5.5-.5h4c.276 0 .5.224.5.5v3c0 .276-.224.5-.5.5zm-3.5-1h3v-2h-3z" fill="#212a41"/><path d="m47 41h6v3h-6z" fill="#6c696f"/><path d="m53 44.5h-6c-.276 0-.5-.224-.5-.5v-3c0-.276.224-.5.5-.5h6c.276 0 .5.224.5.5v3c0 .276-.224.5-.5.5zm-5.5-1h5v-2h-5z" fill="#212a41"/><ellipse cx="23" cy="46" fill="#4e4b51" rx="2" ry="4"/><path d="m23 50.5c-1.425 0-2.5-1.935-2.5-4.5s1.075-4.5 2.5-4.5 2.5 1.935 2.5 4.5-1.075 4.5-2.5 4.5zm0-8c-.708 0-1.5 1.497-1.5 3.5s.792 3.5 1.5 3.5 1.5-1.497 1.5-3.5-.792-3.5-1.5-3.5z" fill="#212a41"/><path d="m20 38.5c-.276 0-.5-.224-.5-.5v-2c0-.276.224-.5.5-.5s.5.224.5.5v2c0 .276-.224.5-.5.5z" fill="#212a41"/><path d="m20 45.5c-.276 0-.5-.224-.5-.5v-5c0-.276.224-.5.5-.5s.5.224.5.5v5c0 .276-.224.5-.5.5z" fill="#d32e5e"/><path d="m16 42c-.238 0-.463.049-.675.125-.55-.681-1.382-1.125-2.325-1.125-1.132 0-2.106.635-2.617 1.56-.359-.345-.845-.56-1.383-.56-1.105 0-2 .895-2 2s.895 2 2 2c.538 0 1.024-.215 1.383-.56.511.925 1.485 1.56 2.617 1.56.943 0 1.775-.444 2.325-1.125.212.076.437.125.675.125 1.105 0 2-.895 2-2s-.895-2-2-2z" fill="#b7c0d7"/><path d="m13 47.5c-1.075 0-2.082-.504-2.74-1.343-.38.224-.812.343-1.26.343-1.378 0-2.5-1.121-2.5-2.5s1.122-2.5 2.5-2.5c.448 0 .88.119 1.26.343.658-.839 1.665-1.343 2.74-1.343.94 0 1.83.382 2.488 1.058 1.562-.355 3.012.893 3.012 2.442 0 1.55-1.449 2.8-3.012 2.442-.658.676-1.548 1.058-2.488 1.058zm-2.617-2.561c.025 0 .05.002.075.006.154.023.288.116.363.253.443.803 1.278 1.302 2.179 1.302.748 0 1.454-.343 1.936-.939.135-.164.359-.226.558-.156 1.097.393 2.006-.416 2.006-1.405 0-.988-.909-1.798-2.006-1.404-.2.07-.424.009-.558-.156-.482-.597-1.188-.94-1.936-.94-.901 0-1.736.499-2.179 1.302-.075.137-.209.229-.363.253-.153.025-.31-.026-.421-.134-.283-.272-.651-.421-1.037-.421-.827 0-1.5.673-1.5 1.5s.673 1.5 1.5 1.5c.386 0 .754-.149 1.037-.421.093-.09.218-.14.346-.14z" fill="#212a41"/><path d="m38 42h-3v8h3c.552 0 1-1.791 1-4s-.448-4-1-4z" fill="#6c696f"/><path d="m38 50.5h-3c-.276 0-.5-.224-.5-.5v-8c0-.276.224-.5.5-.5h3c1.428 0 1.5 3.749 1.5 4.5s-.072 4.5-1.5 4.5zm-2.5-1h2.416c.215-.259.584-1.485.584-3.5s-.369-3.241-.584-3.5h-2.416zm2.5-7h.01z" fill="#212a41"/><ellipse cx="35" cy="46" fill="#4e4b51" rx="1" ry="4"/><path d="m35 50.5c-1.428 0-1.5-3.749-1.5-4.5s.072-4.5 1.5-4.5 1.5 3.749 1.5 4.5-.072 4.5-1.5 4.5zm0-7.863c-.215.431-.5 1.593-.5 3.363s.285 2.933.5 3.363c.215-.431.5-1.593.5-3.363s-.285-2.933-.5-3.363z" fill="#212a41"/></svg>