<svg id="Icon_Set" enable-background="new 0 0 64 64" height="512" viewBox="0 0 64 64" width="512" xmlns="http://www.w3.org/2000/svg"><path d="m44 60h-32c-2.209 0-4-1.791-4-4v-40c0-2.209 1.791-4 4-4h20.343c1.061 0 2.078.421 2.828 1.172l11.657 11.657c.75.75 1.172 1.768 1.172 2.828v28.343c0 2.209-1.791 4-4 4z" fill="#99a2b9"/><path d="m44 60.5h-32c-2.481 0-4.5-2.019-4.5-4.5v-40c0-2.481 2.019-4.5 4.5-4.5h20.343c1.202 0 2.332.468 3.182 1.318l11.657 11.657c.85.85 1.318 1.979 1.318 3.182v28.343c0 2.481-2.019 4.5-4.5 4.5zm-32-48c-1.93 0-3.5 1.57-3.5 3.5v40c0 1.93 1.57 3.5 3.5 3.5h32c1.93 0 3.5-1.57 3.5-3.5v-28.343c0-.935-.364-1.813-1.025-2.475l-11.657-11.657c-.661-.661-1.54-1.025-2.475-1.025z" fill="#212a41"/><path d="m26 4h-10c-.552 0-1 .448-1 1v7h12v-7c0-.552-.448-1-1-1z" fill="#99a2b9"/><path d="m27 12.5h-12c-.276 0-.5-.224-.5-.5v-7c0-.827.673-1.5 1.5-1.5h10c.827 0 1.5.673 1.5 1.5v7c0 .276-.224.5-.5.5zm-11.5-1h11v-6.5c0-.276-.224-.5-.5-.5h-10c-.276 0-.5.224-.5.5z" fill="#212a41"/><path d="m52 60h-32c-2.209 0-4-1.791-4-4v-40c0-2.209 1.791-4 4-4h20.343c1.061 0 2.078.421 2.828 1.172l11.657 11.657c.75.75 1.172 1.768 1.172 2.828v28.343c0 2.209-1.791 4-4 4z" fill="#b7c0d7"/><path d="m52 60.5h-32c-2.481 0-4.5-2.019-4.5-4.5v-40c0-2.481 2.019-4.5 4.5-4.5h20.343c1.202 0 2.332.468 3.182 1.318l11.657 11.657c.85.85 1.318 1.979 1.318 3.182v28.343c0 2.481-2.019 4.5-4.5 4.5zm-32-48c-1.93 0-3.5 1.57-3.5 3.5v40c0 1.93 1.57 3.5 3.5 3.5h32c1.93 0 3.5-1.57 3.5-3.5v-28.343c0-.935-.364-1.813-1.025-2.475l-11.657-11.657c-.661-.661-1.54-1.025-2.475-1.025z" fill="#212a41"/><path d="m54 56.5c-.276 0-.5-.224-.5-.5v-28.343c0-.276.224-.5.5-.5s.5.224.5.5v28.343c0 .276-.224.5-.5.5zm-44 0c-.276 0-.5-.224-.5-.5v-40c0-.276.224-.5.5-.5s.5.224.5.5v40c0 .276-.224.5-.5.5z" fill="#b7c0d7"/><path d="m18 56.5c-.276 0-.5-.224-.5-.5v-40c0-.276.224-.5.5-.5s.5.224.5.5v40c0 .276-.224.5-.5.5z" fill="#d5def5"/><path d="m54 56.5c-.276 0-.5-.224-.5-.5v-28.343c0-.276.224-.5.5-.5s.5.224.5.5v28.343c0 .276-.224.5-.5.5z" fill="#99a2b9"/><path d="m32 4h-10c-.552 0-1 .448-1 1v7h12v-7c0-.552-.448-1-1-1z" fill="#b7c0d7"/><path d="m33 12.5h-12c-.276 0-.5-.224-.5-.5v-7c0-.827.673-1.5 1.5-1.5h10c.827 0 1.5.673 1.5 1.5v7c0 .276-.224.5-.5.5zm-11.5-1h11v-6.5c0-.276-.224-.5-.5-.5h-10c-.276 0-.5.224-.5.5z" fill="#212a41"/><path d="m50 52h-20c-1.105 0-2-.895-2-2v-20c0-1.105.895-2 2-2h20c1.105 0 2 .895 2 2v20c0 1.105-.895 2-2 2z" fill="#bed38e"/><path d="m50 52.5h-20c-1.378 0-2.5-1.122-2.5-2.5v-20c0-1.378 1.122-2.5 2.5-2.5h20c1.378 0 2.5 1.122 2.5 2.5v20c0 1.378-1.122 2.5-2.5 2.5zm-20-24c-.827 0-1.5.673-1.5 1.5v20c0 .827.673 1.5 1.5 1.5h20c.827 0 1.5-.673 1.5-1.5v-20c0-.827-.673-1.5-1.5-1.5z" fill="#212a41"/><path d="m37.172 44.716c-1.298-1.298-1.546-3.312-.602-4.886l3.43-5.717 3.43 5.716c.944 1.574.696 3.588-.602 4.886-1.562 1.563-4.094 1.563-5.656.001z" fill="#f9ac2f"/><g fill="#212a41"><path d="m40 46.385c-1.152 0-2.305-.438-3.182-1.316-1.463-1.463-1.741-3.723-.677-5.498l3.43-5.716c.181-.301.677-.301.857 0l3.43 5.716c1.064 1.774.786 4.035-.677 5.498-.876.878-2.029 1.316-3.181 1.316zm0-11.301-3.001 5.002c-.828 1.38-.611 3.138.526 4.276 1.364 1.364 3.585 1.364 4.949 0 1.138-1.138 1.354-2.896.526-4.276z"/><path d="m22 52.5h-6c-.276 0-.5-.224-.5-.5v-24c0-.276.224-.5.5-.5h6c1.378 0 2.5 1.122 2.5 2.5v20c0 1.378-1.122 2.5-2.5 2.5zm-5.5-1h5.5c.827 0 1.5-.673 1.5-1.5v-20c0-.827-.673-1.5-1.5-1.5h-5.5z"/><path d="m16 52.5h-8c-.276 0-.5-.224-.5-.5v-24c0-.276.224-.5.5-.5h8c.276 0 .5.224.5.5v24c0 .276-.224.5-.5.5zm-7.5-1h7v-23h-7z"/><path d="m34 8.5h-20c-.276 0-.5-.224-.5-.5s.224-.5.5-.5h20c.276 0 .5.224.5.5s-.224.5-.5.5z"/></g><path d="m30 20h12v4h-12z" fill="#d32e5e"/><path d="m42 24.5h-12c-.276 0-.5-.224-.5-.5v-4c0-.276.224-.5.5-.5h12c.276 0 .5.224.5.5v4c0 .276-.224.5-.5.5zm-11.5-1h11v-3h-11z" fill="#212a41"/><path d="m56 56.5h-48c-.276 0-.5-.224-.5-.5s.224-.5.5-.5h48c.276 0 .5.224.5.5s-.224.5-.5.5z" fill="#212a41"/><path d="m30 50.5c-.276 0-.5-.224-.5-.5v-20c0-.276.224-.5.5-.5s.5.224.5.5v20c0 .276-.224.5-.5.5z" fill="#dcf1ac"/><path d="m50 50.5c-.276 0-.5-.224-.5-.5v-20c0-.276.224-.5.5-.5s.5.224.5.5v20c0 .276-.224.5-.5.5z" fill="#a0b570"/></svg>