<svg id="Icon_Set" enable-background="new 0 0 64 64" height="512" viewBox="0 0 64 64" width="512" xmlns="http://www.w3.org/2000/svg"><path d="m43 53h-32v-44c0-2.209 1.791-4 4-4h24c2.209 0 4 1.791 4 4z" fill="#db8e11"/><path d="m43 53.5h-32c-.276 0-.5-.224-.5-.5v-44c0-2.481 2.019-4.5 4.5-4.5h24c2.481 0 4.5 2.019 4.5 4.5v44c0 .276-.224.5-.5.5zm-31.5-1h31v-43.5c0-1.93-1.57-3.5-3.5-3.5h-24c-1.93 0-3.5 1.57-3.5 3.5z" fill="#212a41"/><path d="m54 53h-32v-44c0-2.209 1.791-4 4-4h24c2.209 0 4 1.791 4 4z" fill="#f9ac2f"/><path d="m54 53.5h-32c-.276 0-.5-.224-.5-.5v-44c0-2.481 2.019-4.5 4.5-4.5h24c2.481 0 4.5 2.019 4.5 4.5v44c0 .276-.224.5-.5.5zm-31.5-1h31v-43.5c0-1.93-1.57-3.5-3.5-3.5h-24c-1.93 0-3.5 1.57-3.5 3.5z" fill="#212a41"/><path d="m26 11h16v12h-16z" fill="#b7c0d7"/><path d="m42 23.5h-16c-.276 0-.5-.224-.5-.5v-12c0-.276.224-.5.5-.5h16c.276 0 .5.224.5.5v12c0 .276-.224.5-.5.5zm-15.5-1h15v-11h-15z" fill="#212a41"/><path d="m42 11h8v12h-8z" fill="#e0e0e0"/><path d="m50 23.5h-8c-.276 0-.5-.224-.5-.5v-12c0-.276.224-.5.5-.5h8c.276 0 .5.224.5.5v12c0 .276-.224.5-.5.5zm-7.5-1h7v-11h-7z" fill="#212a41"/><path d="m9 49.009c-2.757 0-5-2.243-5-5v-16.5h3v16.5c0 1.103.897 2 2 2s2-.897 2-2v-12.5c0-1.93 1.57-3.5 3.5-3.5h3v3h-3c-.275 0-.5.224-.5.5v12.5c0 2.757-2.243 5-5 5z" fill="#4e4b51"/><path d="m9 49.509c-3.032 0-5.5-2.467-5.5-5.5v-16.5c0-.276.224-.5.5-.5h3c.276 0 .5.224.5.5v16.5c0 .827.673 1.5 1.5 1.5s1.5-.673 1.5-1.5v-12.5c0-2.206 1.794-4 4-4h3c.276 0 .5.224.5.5v3c0 .276-.224.5-.5.5h-3v12.5c0 3.033-2.468 5.5-5.5 5.5zm-4.5-21.5v16c0 2.481 2.019 4.5 4.5 4.5s4.5-2.019 4.5-4.5v-12.5c0-.551.448-1 1-1h2.5v-2h-2.5c-1.654 0-3 1.346-3 3v12.5c0 1.378-1.121 2.5-2.5 2.5s-2.5-1.122-2.5-2.5v-16z" fill="#212a41"/><path d="m10 25.509-3 2h-3v-12l3-2h3z" fill="#db8e11"/><path d="m7 28.009h-3c-.276 0-.5-.224-.5-.5v-12c0-.167.084-.323.223-.416l3-2c.082-.055.178-.084.277-.084h3c.276 0 .5.224.5.5v12c0 .167-.084.323-.223.416l-3 2c-.082.054-.178.084-.277.084zm-2.5-1h2.349l2.651-1.768v-11.232h-2.349l-2.651 1.767zm5.5-1.5h.01z" fill="#212a41"/><path d="m13 25.509-3 2h-3v-12l3-2h3z" fill="#f9ac2f"/><path d="m10 28.009h-3c-.276 0-.5-.224-.5-.5v-12c0-.167.084-.323.223-.416l3-2c.082-.055.179-.084.277-.084h3c.276 0 .5.224.5.5v12c0 .167-.084.323-.223.416l-3 2c-.082.054-.178.084-.277.084zm-2.5-1h2.349l2.651-1.768v-11.232h-2.349l-2.651 1.767zm5.5-1.5h.01z" fill="#212a41"/><path d="m13 13.5h5v3h-5z" fill="#4e4b51"/><path d="m18 17h-5c-.276 0-.5-.224-.5-.5v-3c0-.276.224-.5.5-.5h5c.276 0 .5.224.5.5v3c0 .276-.224.5-.5.5zm-4.5-1h4v-2h-4z" fill="#212a41"/><path d="m49 53h-44c-.552 0-1 .448-1 1v4c0 .552.448 1 1 1h44c.552 0 1-.448 1-1v-4c0-.552-.448-1-1-1z" fill="#4e4b51"/><path d="m49 59.5h-44c-.827 0-1.5-.673-1.5-1.5v-4c0-.827.673-1.5 1.5-1.5h44c.827 0 1.5.673 1.5 1.5v4c0 .827-.673 1.5-1.5 1.5zm-44-6c-.275 0-.5.224-.5.5v4c0 .276.225.5.5.5h44c.275 0 .5-.224.5-.5v-4c0-.276-.225-.5-.5-.5z" fill="#212a41"/><path d="m59 53h-44c-.552 0-1 .448-1 1v4c0 .552.448 1 1 1h44c.552 0 1-.448 1-1v-4c0-.552-.448-1-1-1z" fill="#6c696f"/><path d="m59 59.5h-44c-.827 0-1.5-.673-1.5-1.5v-4c0-.827.673-1.5 1.5-1.5h44c.827 0 1.5.673 1.5 1.5v4c0 .827-.673 1.5-1.5 1.5zm-44-6c-.275 0-.5.224-.5.5v4c0 .276.225.5.5.5h44c.275 0 .5-.224.5-.5v-4c0-.276-.225-.5-.5-.5z" fill="#212a41"/><circle cx="38" cy="38" fill="#e0e0e0" r="9"/><path d="m38 47.5c-5.238 0-9.5-4.262-9.5-9.5s4.262-9.5 9.5-9.5 9.5 4.262 9.5 9.5-4.262 9.5-9.5 9.5zm0-18c-4.687 0-8.5 3.813-8.5 8.5s3.813 8.5 8.5 8.5 8.5-3.813 8.5-8.5-3.813-8.5-8.5-8.5z" fill="#212a41"/><path d="m35.172 42.716c-1.298-1.298-1.546-3.312-.602-4.886l3.43-5.717 3.43 5.716c.944 1.574.696 3.588-.602 4.886-1.562 1.563-4.094 1.563-5.656.001z" fill="#d32e5e"/><path d="m38 44.387c-1.202 0-2.332-.468-3.182-1.318-1.463-1.463-1.741-3.723-.677-5.498l3.43-5.716c.18-.301.678-.301.857 0l3.43 5.716c1.064 1.774.786 4.035-.677 5.498-.849.85-1.979 1.318-3.181 1.318zm0-11.303-3.001 5.002c-.828 1.38-.611 3.138.526 4.276 1.322 1.322 3.627 1.322 4.949 0 1.138-1.138 1.354-2.896.526-4.276z" fill="#212a41"/><path d="m24 51.5c-.276 0-.5-.224-.5-.5v-42c0-.276.224-.5.5-.5s.5.224.5.5v42c0 .276-.224.5-.5.5z" fill="#ffca4d"/><path d="m20 51.5c-.276 0-.5-.224-.5-.5v-42c0-.276.224-.5.5-.5s.5.224.5.5v42c0 .276-.224.5-.5.5z" fill="#bd7000"/><path d="m52 51.5c-.276 0-.5-.224-.5-.5v-42c0-.276.224-.5.5-.5s.5.224.5.5v42c0 .276-.224.5-.5.5z" fill="#db8e11"/><path d="m28 21.5c-.276 0-.5-.224-.5-.5v-8c0-.276.224-.5.5-.5s.5.224.5.5v8c0 .276-.224.5-.5.5z" fill="#d5def5"/><path d="m48 21.5c-.276 0-.5-.224-.5-.5v-8c0-.276.224-.5.5-.5s.5.224.5.5v8c0 .276-.224.5-.5.5z" fill="#c2c2c2"/></svg>