<svg id="Icon_Set" enable-background="new 0 0 64 64" height="512" viewBox="0 0 64 64" width="512" xmlns="http://www.w3.org/2000/svg"><path d="m28 8c-13.255 0-24 10.745-24 24s10.745 24 24 24 24-10.745 24-24-10.745-24-24-24z" fill="#4e4b51"/><path d="m28 56.5c-13.509 0-24.5-10.991-24.5-24.5s10.991-24.5 24.5-24.5c13.51 0 24.5 10.991 24.5 24.5s-10.99 24.5-24.5 24.5zm0-48c-12.958 0-23.5 10.542-23.5 23.5s10.542 23.5 23.5 23.5 23.5-10.542 23.5-23.5-10.542-23.5-23.5-23.5z" fill="#212a41"/><path d="m32 8c-13.255 0-24 10.745-24 24s10.745 24 24 24 24-10.745 24-24-10.745-24-24-24z" fill="#0079a8"/><path d="m32 56.5c-13.509 0-24.5-10.991-24.5-24.5s10.991-24.5 24.5-24.5c13.51 0 24.5 10.991 24.5 24.5s-10.99 24.5-24.5 24.5zm0-48c-12.958 0-23.5 10.542-23.5 23.5s10.542 23.5 23.5 23.5 23.5-10.542 23.5-23.5-10.542-23.5-23.5-23.5z" fill="#212a41"/><path d="m32 12c-11.046 0-20 8.954-20 20s8.954 20 20 20 20-8.954 20-20-8.954-20-20-20z" fill="#6c696f"/><path d="m32 52.5c-11.304 0-20.5-9.196-20.5-20.5s9.196-20.5 20.5-20.5 20.5 9.196 20.5 20.5-9.196 20.5-20.5 20.5zm0-40c-10.752 0-19.5 8.748-19.5 19.5s8.748 19.5 19.5 19.5 19.5-8.748 19.5-19.5-8.748-19.5-19.5-19.5z" fill="#212a41"/><path d="m14 32.5c-.276 0-.5-.224-.5-.5 0-10.201 8.299-18.5 18.5-18.5.276 0 .5.224.5.5s-.224.5-.5.5c-9.649 0-17.5 7.851-17.5 17.5 0 .276-.224.5-.5.5z" fill="#8a878d"/><path d="m32 50.5c-.276 0-.5-.224-.5-.5s.224-.5.5-.5c9.649 0 17.5-7.851 17.5-17.5 0-.276.224-.5.5-.5s.5.224.5.5c0 10.201-8.299 18.5-18.5 18.5z" fill="#4e4b51"/><path d="m30.5 13.5v-4c0-.829.671-1.5 1.5-1.5s1.5.671 1.5 1.5v4c0 .829-.671 1.5-1.5 1.5s-1.5-.671-1.5-1.5z" fill="#e0e0e0"/><path d="m32 15.5c-1.103 0-2-.897-2-2v-4c0-1.103.897-2 2-2s2 .897 2 2v4c0 1.103-.897 2-2 2zm0-7c-.551 0-1 .449-1 1v4c0 .551.449 1 1 1s1-.449 1-1v-4c0-.551-.449-1-1-1z" fill="#212a41"/><path d="m9.5 30.5h4c.829 0 1.5.671 1.5 1.5s-.671 1.5-1.5 1.5h-4c-.829 0-1.5-.671-1.5-1.5s.671-1.5 1.5-1.5z" fill="#e0e0e0"/><path d="m13.5 34h-4c-1.103 0-2-.897-2-2s.897-2 2-2h4c1.103 0 2 .897 2 2s-.897 2-2 2zm-4-3c-.551 0-1 .449-1 1s.449 1 1 1h4c.551 0 1-.449 1-1s-.449-1-1-1z" fill="#212a41"/><path d="m50.5 30.5h4c.829 0 1.5.671 1.5 1.5s-.671 1.5-1.5 1.5h-4c-.829 0-1.5-.671-1.5-1.5s.671-1.5 1.5-1.5z" fill="#e0e0e0"/><path d="m54.5 34h-4c-1.103 0-2-.897-2-2s.897-2 2-2h4c1.103 0 2 .897 2 2s-.897 2-2 2zm-4-3c-.552 0-1 .449-1 1s.448 1 1 1h4c.552 0 1-.449 1-1s-.448-1-1-1z" fill="#212a41"/><path d="m17.151 15.029 2.828 2.828c.586.586.586 1.535 0 2.121s-1.535.586-2.121 0l-2.828-2.828c-.586-.586-.586-1.535 0-2.121.585-.585 1.535-.585 2.121 0z" fill="#e0e0e0"/><path d="m18.918 20.917c-.512 0-1.024-.195-1.414-.585l-2.829-2.828c-.78-.78-.78-2.049 0-2.829.781-.781 2.049-.78 2.829 0l2.828 2.829c.78.78.78 2.048 0 2.828-.389.391-.901.585-1.414.585zm-2.828-5.827c-.256 0-.513.098-.708.292-.39.39-.39 1.024 0 1.415l2.829 2.828c.39.39 1.024.39 1.414 0s.39-1.024 0-1.414l-2.828-2.829c-.194-.194-.451-.292-.707-.292z" fill="#212a41"/><path d="m46.142 44.021 2.828 2.828c.586.586.586 1.535 0 2.121s-1.535.586-2.121 0l-2.828-2.828c-.586-.586-.586-1.535 0-2.121s1.535-.586 2.121 0z" fill="#e0e0e0"/><path d="m47.91 49.909c-.512 0-1.024-.195-1.414-.585l-2.829-2.829c-.779-.78-.779-2.048 0-2.828.778-.78 2.049-.782 2.829 0l2.828 2.828c.78.78.78 2.049 0 2.829-.389.39-.902.585-1.414.585zm-2.829-5.827c-.256 0-.512.098-.707.292-.39.39-.39 1.024 0 1.414l2.829 2.829c.391.39 1.023.39 1.414 0 .39-.39.39-1.024 0-1.415l-2.828-2.828c-.195-.194-.451-.292-.708-.292z" fill="#212a41"/><path d="m19.979 46.142-2.828 2.828c-.586.586-1.535.586-2.121 0s-.586-1.535 0-2.121l2.828-2.828c.586-.586 1.535-.586 2.121 0s.586 1.535 0 2.121z" fill="#e0e0e0"/><path d="m16.09 49.909c-.512 0-1.024-.195-1.414-.585-.78-.78-.78-2.049 0-2.829l2.829-2.828c.779-.779 2.049-.78 2.828 0 .78.78.78 2.048 0 2.828l-2.828 2.829c-.39.39-.903.585-1.415.585zm2.828-5.827c-.256 0-.512.098-.707.292l-2.829 2.828c-.39.39-.39 1.024 0 1.415.389.389 1.024.39 1.415 0l2.828-2.829c.39-.39.39-1.024 0-1.414-.194-.194-.451-.292-.707-.292z" fill="#212a41"/><path d="m17.333 39.418c-.602 0-1.17-.365-1.4-.96-.298-.772.086-1.641.859-1.94l14.667-5.667c.771-.299 1.641.086 1.94.859.298.772-.086 1.641-.859 1.94l-14.667 5.667c-.178.068-.36.101-.54.101z" fill="#0079a8"/><path d="m17.333 39.918c-.82 0-1.57-.514-1.866-1.28-.397-1.028.116-2.189 1.145-2.586l14.667-5.667c.498-.192 1.042-.18 1.53.037.489.216.864.61 1.057 1.108.396 1.029-.117 2.189-1.146 2.586l-14.667 5.667c-.232.09-.474.135-.72.135zm14.667-8.669c-.122 0-.243.022-.36.068l-14.668 5.667c-.514.199-.771.779-.573 1.293.192.497.788.768 1.294.572l14.667-5.667c.514-.199.771-.779.573-1.294-.096-.249-.284-.446-.529-.554-.13-.056-.267-.085-.404-.085z" fill="#212a41"/><path d="m32 28.25c-2.209 0-4 1.791-4 4s1.791 4 4 4 4-1.791 4-4-1.791-4-4-4z" fill="#6c696f"/><path d="m32 36.75c-2.481 0-4.5-2.019-4.5-4.5s2.019-4.5 4.5-4.5 4.5 2.019 4.5 4.5-2.019 4.5-4.5 4.5zm0-8c-1.93 0-3.5 1.57-3.5 3.5s1.57 3.5 3.5 3.5 3.5-1.57 3.5-3.5-1.57-3.5-3.5-3.5z" fill="#212a41"/><path d="m58 27h-20c-1.105 0-2-.895-2-2v-8c0-1.105.895-2 2-2h20c1.105 0 2 .895 2 2v8c0 1.105-.895 2-2 2z" fill="#e0e0e0"/><g fill="#212a41"><path d="m58 27.5h-20c-1.379 0-2.5-1.122-2.5-2.5v-8c0-1.378 1.121-2.5 2.5-2.5h20c1.379 0 2.5 1.122 2.5 2.5v8c0 1.378-1.121 2.5-2.5 2.5zm-20-12c-.827 0-1.5.673-1.5 1.5v8c0 .827.673 1.5 1.5 1.5h20c.827 0 1.5-.673 1.5-1.5v-8c0-.827-.673-1.5-1.5-1.5z"/><path d="m49.5 24.5c-.053 0-.105-.008-.158-.026-.262-.087-.403-.37-.316-.632l1.43-4.288-2.13 1.825c-.116.1-.278.139-.424.111-.151-.031-.279-.129-.349-.267l-.96-1.92-1.618 4.855c-.088.263-.37.405-.633.316-.262-.087-.403-.37-.316-.632l2-6c.064-.192.237-.326.439-.34.199-.02.393.094.482.275l1.214 2.427 3.014-2.583c.171-.146.418-.16.604-.036.187.125.266.36.195.573l-2 6c-.07.21-.265.342-.474.342z"/><path d="m51.5 24.5c-.053 0-.105-.008-.158-.026-.262-.087-.403-.37-.316-.632l2-6c.089-.262.373-.403.633-.316.262.087.403.37.316.632l-2 6c-.071.21-.266.342-.475.342z"/><path d="m38.5 24.5c-.053 0-.105-.008-.158-.026-.262-.087-.403-.37-.316-.632l2-6c.089-.262.372-.403.633-.316.262.087.403.37.316.632l-2 6c-.071.21-.266.342-.475.342z"/><path d="m55.5 24.5c-.053 0-.105-.008-.158-.026-.262-.087-.403-.37-.316-.632l2-6c.088-.262.371-.403.633-.316s.403.37.316.632l-2 6c-.071.21-.266.342-.475.342z"/><path d="m55.5 21.5h-2c-.276 0-.5-.224-.5-.5s.224-.5.5-.5h2c.276 0 .5.224.5.5s-.224.5-.5.5z"/><path d="m42.5 24.5c-.161 0-.319-.078-.416-.223l-2-3c-.146-.218-.098-.512.11-.673l3.875-3c.217-.168.531-.13.701.089.169.218.129.532-.09.702l-3.506 2.715 1.741 2.612c.153.23.091.54-.139.693-.084.058-.18.085-.276.085z"/></g><path d="m30 32.5c-.276 0-.5-.224-.5-.5 0-1.378 1.122-2.5 2.5-2.5.276 0 .5.224.5.5s-.224.5-.5.5c-.827 0-1.5.673-1.5 1.5 0 .276-.224.5-.5.5z" fill="#8a878d"/><path d="m32 34.5c-.276 0-.5-.224-.5-.5s.224-.5.5-.5c.827 0 1.5-.673 1.5-1.5 0-.276.224-.5.5-.5s.5.224.5.5c0 1.378-1.121 2.5-2.5 2.5z" fill="#4e4b51"/></svg>