<svg id="Icon_Set" enable-background="new 0 0 64 64" height="512" viewBox="0 0 64 64" width="512" xmlns="http://www.w3.org/2000/svg"><path d="m32 22h-12c-1.105 0-2-.895-2-2v-14c0-1.105.895-2 2-2h12c1.105 0 2 .895 2 2v14c0 1.105-.895 2-2 2z" fill="#4e4b51"/><path d="m32 22.5h-12c-1.378 0-2.5-1.122-2.5-2.5v-14c0-1.378 1.122-2.5 2.5-2.5h12c1.379 0 2.5 1.122 2.5 2.5v14c0 1.378-1.121 2.5-2.5 2.5zm-12-18c-.827 0-1.5.673-1.5 1.5v14c0 .827.673 1.5 1.5 1.5h12c.827 0 1.5-.673 1.5-1.5v-14c0-.827-.673-1.5-1.5-1.5z" fill="#212a41"/><path d="m44 4h-12c-1.105 0-2 .895-2 2v14c0 1.105.895 2 2 2h12c1.105 0 2-.895 2-2v-14c0-1.105-.895-2-2-2zm-6 13.5c-1.105 0-2-.895-2-2s.895-2 2-2 2 .895 2 2-.895 2-2 2z" fill="#6c696f"/><path d="m44 22.5h-12c-1.378 0-2.5-1.122-2.5-2.5v-14c0-1.378 1.122-2.5 2.5-2.5h12c1.379 0 2.5 1.122 2.5 2.5v14c0 1.378-1.121 2.5-2.5 2.5zm-12-18c-.827 0-1.5.673-1.5 1.5v14c0 .827.673 1.5 1.5 1.5h12c.827 0 1.5-.673 1.5-1.5v-14c0-.827-.673-1.5-1.5-1.5zm6 13.5c-1.379 0-2.5-1.122-2.5-2.5s1.121-2.5 2.5-2.5 2.5 1.122 2.5 2.5-1.121 2.5-2.5 2.5zm0-4c-.827 0-1.5.673-1.5 1.5s.673 1.5 1.5 1.5 1.5-.673 1.5-1.5-.673-1.5-1.5-1.5z" fill="#212a41"/><path d="m24.018 58c1.669 1.25 3.736 2 5.982 2s4.312-.75 5.982-2z" fill="#c2c2c2"/><path d="m30 60.5c-2.275 0-4.448-.726-6.282-2.1-.172-.129-.243-.354-.175-.559.068-.204.259-.342.475-.342h11.963c.215 0 .406.138.475.342.067.205-.003.429-.175.558-1.833 1.375-4.005 2.101-6.281 2.101zm-4.23-2c2.616 1.316 5.843 1.315 8.46 0z" fill="#212a41"/><path d="m32 20.5c-.276 0-.5-.224-.5-.5v-14c0-.276.224-.5.5-.5s.5.224.5.5v14c0 .276-.224.5-.5.5z" fill="#8a878d"/><path d="m20 20.5c-.276 0-.5-.224-.5-.5v-14c0-.276.224-.5.5-.5s.5.224.5.5v14c0 .276-.224.5-.5.5z" fill="#6c696f"/><path d="m44 20.5c-.276 0-.5-.224-.5-.5v-14c0-.276.224-.5.5-.5s.5.224.5.5v14c0 .276-.224.5-.5.5z" fill="#4e4b51"/><path d="m18 45.828v11.172c0 .552.448 1 1 1h3v-12.172c0-.53.211-1.039.586-1.414l7.414-7.414h-4.004l-7.411 7.414c-.374.375-.585.884-.585 1.414z" fill="#c2c2c2"/><path d="m22 58.5h-3c-.827 0-1.5-.673-1.5-1.5v-11.172c0-.667.26-1.295.731-1.768l7.411-7.414c.094-.094.221-.146.354-.146h4.004c.202 0 .385.122.462.309.078.187.035.402-.108.545l-7.414 7.414c-.283.284-.439.66-.439 1.061v12.171c-.001.276-.225.5-.501.5zm4.203-21-7.264 7.268c-.283.283-.439.66-.439 1.061v11.171c0 .276.224.5.5.5h2.5v-11.671c0-.668.26-1.296.732-1.768l6.561-6.561z" fill="#212a41"/><path d="m25.996 22h8.007v15h-8.007z" fill="#c2c2c2"/><path d="m34.004 37.5h-8.008c-.276 0-.5-.224-.5-.5v-15c0-.276.224-.5.5-.5h8.008c.276 0 .5.224.5.5v15c0 .276-.224.5-.5.5zm-7.508-1h7.008v-14h-7.008z" fill="#212a41"/><path d="m29.996 22h8.007v15h-8.007z" fill="#e0e0e0"/><path d="m38.004 37.5h-8.008c-.276 0-.5-.224-.5-.5v-15c0-.276.224-.5.5-.5h8.008c.276 0 .5.224.5.5v15c0 .276-.224.5-.5.5zm-7.508-1h7.008v-14h-7.008z" fill="#212a41"/><path d="m34 40c-5.523 0-10 4.477-10 10s4.477 10 10 10 10-4.477 10-10-4.477-10-10-10zm0 17c-3.866 0-7-3.134-7-7s3.134-7 7-7 7 3.134 7 7-3.134 7-7 7z" fill="#b7c0d7"/><path d="m34 60.5c-5.79 0-10.5-4.71-10.5-10.5s4.71-10.5 10.5-10.5 10.5 4.71 10.5 10.5-4.71 10.5-10.5 10.5zm0-20c-5.238 0-9.5 4.262-9.5 9.5s4.262 9.5 9.5 9.5 9.5-4.262 9.5-9.5-4.262-9.5-9.5-9.5zm0 17c-4.136 0-7.5-3.364-7.5-7.5s3.364-7.5 7.5-7.5 7.5 3.364 7.5 7.5-3.364 7.5-7.5 7.5zm0-14c-3.584 0-6.5 2.916-6.5 6.5s2.916 6.5 6.5 6.5 6.5-2.916 6.5-6.5-2.916-6.5-6.5-6.5z" fill="#212a41"/><path d="m34 43c-.515 0-1.016.059-1.5.165 3.144.687 5.5 3.484 5.5 6.835s-2.356 6.148-5.5 6.835c.484.106.985.165 1.5.165 3.624 0 6.605-2.754 6.964-6.284.017-.238.036-.474.036-.716s-.019-.478-.036-.716c-.359-3.53-3.34-6.284-6.964-6.284z" fill="#c2c2c2"/><path d="m34 57.5c-.528 0-1.069-.06-1.606-.176-.23-.051-.394-.254-.394-.489s.164-.438.393-.488c2.96-.647 5.107-3.317 5.107-6.347s-2.147-5.7-5.107-6.347c-.229-.049-.393-.253-.393-.488s.164-.438.394-.489c.537-.116 1.078-.176 1.606-.176 3.864 0 7.071 2.895 7.461 6.734.001.005.008.102.008.107.015.218.031.437.031.659s-.016.441-.031.659c0 .005-.007.102-.008.107-.39 3.839-3.597 6.734-7.461 6.734zm.814-13.95c2.225 1.326 3.686 3.765 3.686 6.45s-1.461 5.124-3.686 6.45c2.976-.368 5.342-2.732 5.652-5.784.019-.273.034-.468.034-.666s-.015-.393-.028-.588c-.315-3.123-2.682-5.493-5.658-5.862z" fill="#212a41"/><path d="m38.001 37.001-8.005-.001-7.411 7.414c-.374.375-.585.884-.585 1.414v12.172h6.018c-2.78-2.083-4.45-5.567-3.921-9.414.613-4.452 4.27-8.014 8.735-8.519 6.046-.685 11.168 4.026 11.168 9.933 0 3.277-1.583 6.176-4.018 8h5.018c.552 0 1-.448 1-1v-11.172c0-.53-.211-1.039-.586-1.414z" fill="#e0e0e0"/><path d="m45 58.5h-5.019c-.215 0-.406-.138-.475-.342-.067-.204.003-.429.175-.558 2.427-1.817 3.818-4.587 3.818-7.6 0-2.703-1.157-5.286-3.174-7.088-2.045-1.826-4.685-2.657-7.437-2.349-4.228.479-7.717 3.881-8.296 8.091-.48 3.495.912 6.839 3.725 8.946.172.129.243.354.175.559-.068.204-.259.342-.475.342h-6.017c-.276 0-.5-.224-.5-.5v-12.173c0-.667.26-1.295.731-1.768l7.411-7.414c.094-.094.221-.146.354-.146l8.005.001c.133 0 .26.053.354.146l7.413 7.413c.473.472.732 1.1.732 1.768v11.172c0 .827-.673 1.5-1.5 1.5zm-3.664-1h3.664c.275 0 .5-.224.5-.5v-11.171c0-.401-.156-.777-.439-1.061l-7.267-7.267-7.591-.001-7.264 7.268c-.283.283-.439.66-.439 1.061v11.671h4.163c-2.394-2.322-3.527-5.588-3.06-8.983.64-4.655 4.499-8.418 9.174-8.948 3.04-.341 5.956.579 8.215 2.597 2.23 1.992 3.508 4.847 3.508 7.834 0 2.866-1.139 5.533-3.164 7.5z" fill="#212a41"/><path d="m32.003 35.5c-.276 0-.5-.224-.5-.5v-11c0-.276.224-.5.5-.5s.5.224.5.5v11c0 .276-.223.5-.5.5z" fill="#fefefe"/><path d="m36.004 35.5c-.276 0-.5-.224-.5-.5v-11c0-.276.224-.5.5-.5s.5.224.5.5v11c0 .276-.224.5-.5.5z" fill="#c2c2c2"/><g fill="#212a41"><path d="m46 10.5h-28c-.276 0-.5-.224-.5-.5s.224-.5.5-.5h28c.276 0 .5.224.5.5s-.224.5-.5.5z"/><path d="m46 7.5h-28c-.276 0-.5-.224-.5-.5s.224-.5.5-.5h28c.276 0 .5.224.5.5s-.224.5-.5.5z"/></g></svg>