<svg id="Icon_Set" enable-background="new 0 0 64 64" height="512" viewBox="0 0 64 64" width="512" xmlns="http://www.w3.org/2000/svg"><path d="m8 56v-48c0-2.209 1.791-4 4-4h36c2.209 0 4 1.791 4 4v48c0 2.209-1.791 4-4 4h-36c-2.209 0-4-1.791-4-4z" fill="#99a2b9"/><path d="m48 60.5h-36c-2.481 0-4.5-2.019-4.5-4.5v-48c0-2.481 2.019-4.5 4.5-4.5h36c2.481 0 4.5 2.019 4.5 4.5v48c0 2.481-2.019 4.5-4.5 4.5zm-36-56c-1.93 0-3.5 1.57-3.5 3.5v48c0 1.93 1.57 3.5 3.5 3.5h36c1.93 0 3.5-1.57 3.5-3.5v-48c0-1.93-1.57-3.5-3.5-3.5z" fill="#212a41"/><path d="m12 56v-48c0-2.209 1.791-4 4-4h36c2.209 0 4 1.791 4 4v48c0 2.209-1.791 4-4 4h-36c-2.209 0-4-1.791-4-4z" fill="#b7c0d7"/><path d="m52 60.5h-36c-2.481 0-4.5-2.019-4.5-4.5v-48c0-2.481 2.019-4.5 4.5-4.5h36c2.481 0 4.5 2.019 4.5 4.5v48c0 2.481-2.019 4.5-4.5 4.5zm-36-56c-1.93 0-3.5 1.57-3.5 3.5v48c0 1.93 1.57 3.5 3.5 3.5h36c1.93 0 3.5-1.57 3.5-3.5v-48c0-1.93-1.57-3.5-3.5-3.5z" fill="#212a41"/><path d="m14 56.5c-.276 0-.5-.224-.5-.5v-48c0-.276.224-.5.5-.5s.5.224.5.5v48c0 .276-.224.5-.5.5z" fill="#d5def5"/><path d="m54 56.5c-.276 0-.5-.224-.5-.5v-48c0-.276.224-.5.5-.5s.5.224.5.5v48c0 .276-.224.5-.5.5z" fill="#99a2b9"/><path d="m16 8h36v12h-36z" fill="#6c696f"/><path d="m52 20.5h-36c-.276 0-.5-.224-.5-.5v-12c0-.276.224-.5.5-.5h36c.276 0 .5.224.5.5v12c0 .276-.224.5-.5.5zm-35.5-1h35v-11h-35z" fill="#212a41"/><path d="m16 20h36v12h-36z" fill="#6c696f"/><path d="m52 32.5h-36c-.276 0-.5-.224-.5-.5v-12c0-.276.224-.5.5-.5h36c.276 0 .5.224.5.5v12c0 .276-.224.5-.5.5zm-35.5-1h35v-11h-35z" fill="#212a41"/><path d="m16 32h36v12h-36z" fill="#6c696f"/><path d="m52 44.5h-36c-.276 0-.5-.224-.5-.5v-12c0-.276.224-.5.5-.5h36c.276 0 .5.224.5.5v12c0 .276-.224.5-.5.5zm-35.5-1h35v-11h-35z" fill="#212a41"/><path d="m16 44h36v12h-36z" fill="#6c696f"/><path d="m52 56.5h-36c-.276 0-.5-.224-.5-.5v-12c0-.276.224-.5.5-.5h36c.276 0 .5.224.5.5v12c0 .276-.224.5-.5.5zm-35.5-1h35v-11h-35z" fill="#212a41"/><g fill="#e0e0e0"><path d="m24 11.5h-4c-.276 0-.5-.224-.5-.5s.224-.5.5-.5h4c.276 0 .5.224.5.5s-.224.5-.5.5z"/><path d="m32 17.5h-4c-.276 0-.5-.224-.5-.5s.224-.5.5-.5h4c.276 0 .5.224.5.5s-.224.5-.5.5z"/><path d="m22 17.5c-.276 0-.5-.224-.5-.5v-5c0-.276.224-.5.5-.5s.5.224.5.5v5c0 .276-.224.5-.5.5z"/><path d="m22 53c-.276 0-.5-.224-.5-.5v-5c0-.276.224-.5.5-.5s.5.224.5.5v5c0 .276-.224.5-.5.5z"/><path d="m24.5 50.5h-5c-.276 0-.5-.224-.5-.5s.224-.5.5-.5h5c.276 0 .5.224.5.5s-.224.5-.5.5z"/><path d="m20 29.5c-.276 0-.5-.224-.5-.5v-2c0-.276.224-.5.5-.5s.5.224.5.5v2c0 .276-.224.5-.5.5z"/><path d="m23 26.5h-3c-.276 0-.5-.224-.5-.5v-3c0-.276.224-.5.5-.5h3c.827 0 1.5.673 1.5 1.5v1c0 .827-.673 1.5-1.5 1.5zm-2.5-1h2.5c.276 0 .5-.224.5-.5v-1c0-.276-.224-.5-.5-.5h-2.5z"/><path d="m24 41.5h-4c-.276 0-.5-.224-.5-.5v-6c0-.276.224-.5.5-.5s.5.224.5.5v5.5h3.5c.276 0 .5.224.5.5s-.224.5-.5.5z"/><path d="m31.5 53.5h-2c-.827 0-1.5-.673-1.5-1.5v-4c0-.827.673-1.5 1.5-1.5h2c.827 0 1.5.673 1.5 1.5v4c0 .827-.673 1.5-1.5 1.5zm-2-6c-.276 0-.5.224-.5.5v4c0 .276.224.5.5.5h2c.276 0 .5-.224.5-.5v-4c0-.276-.224-.5-.5-.5z"/><path d="m47.5 53.5h-2c-.827 0-1.5-.673-1.5-1.5v-4c0-.827.673-1.5 1.5-1.5h2c.827 0 1.5.673 1.5 1.5v4c0 .827-.673 1.5-1.5 1.5zm-2-6c-.276 0-.5.224-.5.5v4c0 .276.224.5.5.5h2c.276 0 .5-.224.5-.5v-4c0-.276-.224-.5-.5-.5z"/><path d="m35.5 49c-.276 0-.5-.224-.5-.5v-1c0-.276.224-.5.5-.5s.5.224.5.5v1c0 .276-.224.5-.5.5z"/><path d="m35.5 53c-.276 0-.5-.224-.5-.5v-1c0-.276.224-.5.5-.5s.5.224.5.5v1c0 .276-.224.5-.5.5z"/><path d="m35.5 12.823c-.276 0-.5-.224-.5-.5v-1c0-.276.224-.5.5-.5s.5.224.5.5v1c0 .276-.224.5-.5.5z"/><path d="m35.5 17c-.276 0-.5-.224-.5-.5v-1.177c0-.276.224-.5.5-.5s.5.224.5.5v1.177c0 .276-.224.5-.5.5z"/><path d="m41.5 53.5h-3c-.276 0-.5-.224-.5-.5s.224-.5.5-.5h3c.276 0 .5-.224.5-.5v-4c0-.276-.224-.5-.5-.5h-3c-.276 0-.5-.224-.5-.5s.224-.5.5-.5h3c.827 0 1.5.673 1.5 1.5v4c0 .827-.673 1.5-1.5 1.5z"/><path d="m41.5 50.5h-3c-.276 0-.5-.224-.5-.5s.224-.5.5-.5h3c.276 0 .5.224.5.5s-.224.5-.5.5z"/><path d="m32 29.5h-3c-.827 0-1.5-.673-1.5-1.5v-1c0-.827.673-1.5 1.5-1.5h2c.276 0 .5-.224.5-.5v-1c0-.276-.224-.5-.5-.5h-3c-.276 0-.5-.224-.5-.5s.224-.5.5-.5h3c.827 0 1.5.673 1.5 1.5v1c0 .827-.673 1.5-1.5 1.5h-2c-.276 0-.5.224-.5.5v1c0 .276.224.5.5.5h3c.276 0 .5.224.5.5s-.224.5-.5.5z"/><path d="m32 41.5h-3c-.827 0-1.5-.673-1.5-1.5v-1c0-.827.673-1.5 1.5-1.5h2c.276 0 .5-.224.5-.5v-1c0-.276-.224-.5-.5-.5h-3c-.276 0-.5-.224-.5-.5s.224-.5.5-.5h3c.827 0 1.5.673 1.5 1.5v1c0 .827-.673 1.5-1.5 1.5h-2c-.276 0-.5.224-.5.5v1c0 .276.224.5.5.5h3c.276 0 .5.224.5.5s-.224.5-.5.5z"/><path d="m30 16.5c-.276 0-.5-.224-.5-.5v-4.5h-1.5c-.276 0-.5-.224-.5-.5s.224-.5.5-.5h2c.276 0 .5.224.5.5v5c0 .276-.224.5-.5.5z"/><path d="m41.5 14.5h-2c-.827 0-1.5-.673-1.5-1.5v-2c0-.276.224-.5.5-.5s.5.224.5.5v2c0 .276.224.5.5.5h2c.276 0 .5-.224.5-.5v-2c0-.276.224-.5.5-.5s.5.224.5.5v2c0 .827-.673 1.5-1.5 1.5z"/><path d="m42.5 17.5c-.276 0-.5-.224-.5-.5v-2c0-.276.224-.5.5-.5s.5.224.5.5v2c0 .276-.224.5-.5.5z"/><path d="m38 38.5h-2c-.827 0-1.5-.673-1.5-1.5v-2c0-.276.224-.5.5-.5s.5.224.5.5v2c0 .276.224.5.5.5h2c.276 0 .5-.224.5-.5v-2c0-.276.224-.5.5-.5s.5.224.5.5v2c0 .827-.673 1.5-1.5 1.5z"/><path d="m39 41.5c-.276 0-.5-.224-.5-.5v-2c0-.276.224-.5.5-.5s.5.224.5.5v2c0 .276-.224.5-.5.5z"/><path d="m47.5 17.5h-3c-.276 0-.5-.224-.5-.5s.224-.5.5-.5h3c.276 0 .5-.224.5-.5v-1c0-.276-.224-.5-.5-.5h-2c-.827 0-1.5-.673-1.5-1.5v-1c0-.827.673-1.5 1.5-1.5h3c.276 0 .5.224.5.5s-.224.5-.5.5h-3c-.276 0-.5.224-.5.5v1c0 .276.224.5.5.5h2c.827 0 1.5.673 1.5 1.5v1c0 .827-.673 1.5-1.5 1.5z"/></g></svg>