<svg id="Icon_Set" enable-background="new 0 0 64 64" height="512" viewBox="0 0 64 64" width="512" xmlns="http://www.w3.org/2000/svg"><path d="m45 56h-38c-.552 0-1-.448-1-1v-28h40v28c0 .552-.448 1-1 1z" fill="#99a2b9"/><path d="m45 56.5h-38c-.827 0-1.5-.673-1.5-1.5v-28c0-.276.224-.5.5-.5h40c.276 0 .5.224.5.5v28c0 .827-.673 1.5-1.5 1.5zm-38.5-29v27.5c0 .276.224.5.5.5h38c.276 0 .5-.224.5-.5v-27.5z" fill="#212a41"/><path d="m57 56h-38c-.552 0-1-.448-1-1v-28h40v28c0 .552-.448 1-1 1z" fill="#b7c0d7"/><path d="m57 56.5h-38c-.827 0-1.5-.673-1.5-1.5v-28c0-.276.224-.5.5-.5h40c.276 0 .5.224.5.5v28c0 .827-.673 1.5-1.5 1.5zm-38.5-29v27.5c0 .276.224.5.5.5h38c.276 0 .5-.224.5-.5v-27.5z" fill="#212a41"/><path d="m24 31h28v25h-28z" fill="#0079a8"/><path d="m52 56.5h-28c-.276 0-.5-.224-.5-.5v-25c0-.276.224-.5.5-.5h28c.276 0 .5.224.5.5v25c0 .276-.224.5-.5.5zm-27.5-1h27v-24h-27z" fill="#212a41"/><path d="m20 54.5c-.276 0-.5-.224-.5-.5v-25c0-.276.224-.5.5-.5s.5.224.5.5v25c0 .276-.224.5-.5.5z" fill="#d5def5"/><path d="m56 54.5c-.276 0-.5-.224-.5-.5v-25c0-.276.224-.5.5-.5s.5.224.5.5v25c0 .276-.224.5-.5.5z" fill="#99a2b9"/><path d="m47 27h-42c-.552 0-1-.448-1-1v-6c0-.552.448-1 1-1h42c.552 0 1 .448 1 1v6c0 .552-.448 1-1 1z" fill="#99a2b9"/><path d="m47 27.5h-42c-.827 0-1.5-.673-1.5-1.5v-6c0-.827.673-1.5 1.5-1.5h42c.827 0 1.5.673 1.5 1.5v6c0 .827-.673 1.5-1.5 1.5zm-42-8c-.276 0-.5.224-.5.5v6c0 .276.224.5.5.5h42c.276 0 .5-.224.5-.5v-6c0-.276-.224-.5-.5-.5z" fill="#212a41"/><path d="m59 27h-42c-.552 0-1-.448-1-1v-6c0-.552.448-1 1-1h42c.552 0 1 .448 1 1v6c0 .552-.448 1-1 1z" fill="#b7c0d7"/><path d="m59 27.5h-42c-.827 0-1.5-.673-1.5-1.5v-6c0-.827.673-1.5 1.5-1.5h42c.827 0 1.5.673 1.5 1.5v6c0 .827-.673 1.5-1.5 1.5zm-42-8c-.276 0-.5.224-.5.5v6c0 .276.224.5.5.5h42c.276 0 .5-.224.5-.5v-6c0-.276-.224-.5-.5-.5z" fill="#212a41"/><path d="m43 16h-26c-.552 0-1-.448-1-1v-10c0-.552.448-1 1-1h26c.552 0 1 .448 1 1v10c0 .552-.448 1-1 1z" fill="#db8e11"/><path d="m43 16.5h-26c-.827 0-1.5-.673-1.5-1.5v-10c0-.827.673-1.5 1.5-1.5h26c.827 0 1.5.673 1.5 1.5v10c0 .827-.673 1.5-1.5 1.5zm-26-12c-.276 0-.5.224-.5.5v10c0 .276.224.5.5.5h26c.276 0 .5-.224.5-.5v-10c0-.276-.224-.5-.5-.5z" fill="#212a41"/><path d="m47 16h-26c-.552 0-1-.448-1-1v-10c0-.552.448-1 1-1h26c.552 0 1 .448 1 1v10c0 .552-.448 1-1 1z" fill="#f9ac2f"/><g fill="#212a41"><path d="m47 16.5h-26c-.827 0-1.5-.673-1.5-1.5v-10c0-.827.673-1.5 1.5-1.5h26c.827 0 1.5.673 1.5 1.5v10c0 .827-.673 1.5-1.5 1.5zm-26-12c-.276 0-.5.224-.5.5v10c0 .276.224.5.5.5h26c.276 0 .5-.224.5-.5v-10c0-.276-.224-.5-.5-.5z"/><path d="m20 19.5c-.276 0-.5-.224-.5-.5v-3c0-.276.224-.5.5-.5s.5.224.5.5v3c0 .276-.224.5-.5.5z"/><path d="m44 19.5c-.276 0-.5-.224-.5-.5v-3c0-.276.224-.5.5-.5s.5.224.5.5v3c0 .276-.224.5-.5.5z"/></g><path d="m40.304 11.431v-3h2.584c-.52-.893-1.476-1.5-2.584-1.5s-2.064.607-2.584 1.5h-6.832c-.52-.893-1.476-1.5-2.584-1.5s-2.064.607-2.584 1.5h2.584v3h-2.584c.52.893 1.476 1.5 2.584 1.5s2.064-.607 2.584-1.5h6.832c.52.893 1.476 1.5 2.584 1.5s2.064-.607 2.584-1.5z" fill="#e0e0e0"/><path d="m40.304 13.431c-1.135 0-2.205-.568-2.857-1.5h-6.286c-.652.932-1.722 1.5-2.857 1.5-1.233 0-2.389-.67-3.016-1.749-.09-.155-.09-.346-.001-.501s.255-.25.434-.25h2.084v-2h-2.085c-.179 0-.344-.096-.434-.25-.089-.155-.088-.346.001-.501.627-1.079 1.783-1.749 3.016-1.749 1.135 0 2.205.568 2.857 1.5h6.286c.652-.932 1.722-1.5 2.857-1.5 1.232 0 2.388.67 3.016 1.749.09.154.09.346.001.5-.089.155-.254.251-.434.251h-2.084v2h2.084c.179 0 .344.096.434.251.089.155.088.346-.001.5-.627 1.079-1.783 1.749-3.015 1.749zm-9.416-2.5h6.832c.178 0 .343.095.432.249.456.784 1.26 1.251 2.152 1.251.551 0 1.068-.179 1.491-.5h-1.491c-.276 0-.5-.224-.5-.5v-3c0-.276.224-.5.5-.5h1.491c-.423-.321-.94-.5-1.491-.5-.892 0-1.696.468-2.152 1.251-.089.154-.254.249-.432.249h-6.832c-.178 0-.343-.095-.432-.249-.457-.784-1.261-1.251-2.152-1.251-.551 0-1.068.179-1.491.5h1.491c.276 0 .5.224.5.5v3c0 .276-.224.5-.5.5h-1.491c.423.321.94.5 1.491.5.891 0 1.695-.468 2.152-1.251.089-.154.254-.249.432-.249z" fill="#212a41"/><circle cx="54" cy="46" fill="#6c696f" r="6"/><path d="m54 52.5c-3.584 0-6.5-2.916-6.5-6.5s2.916-6.5 6.5-6.5 6.5 2.916 6.5 6.5-2.916 6.5-6.5 6.5zm0-12c-3.033 0-5.5 2.467-5.5 5.5s2.467 5.5 5.5 5.5 5.5-2.467 5.5-5.5-2.467-5.5-5.5-5.5z" fill="#212a41"/><circle cx="54" cy="46" fill="#e0e0e0" r="3"/><path d="m54 49.5c-1.93 0-3.5-1.57-3.5-3.5s1.57-3.5 3.5-3.5 3.5 1.57 3.5 3.5-1.57 3.5-3.5 3.5zm0-6c-1.378 0-2.5 1.122-2.5 2.5s1.122 2.5 2.5 2.5 2.5-1.122 2.5-2.5-1.122-2.5-2.5-2.5z" fill="#212a41"/><path d="m59 56h-10c-.552 0-1-.448-1-1v-2c0-.552.448-1 1-1h10c.552 0 1 .448 1 1v2c0 .552-.448 1-1 1z" fill="#6c696f"/><path d="m59 56.5h-10c-.827 0-1.5-.673-1.5-1.5v-2c0-.827.673-1.5 1.5-1.5h10c.827 0 1.5.673 1.5 1.5v2c0 .827-.673 1.5-1.5 1.5zm-10-4c-.276 0-.5.224-.5.5v2c0 .276.224.5.5.5h10c.276 0 .5-.224.5-.5v-2c0-.276-.224-.5-.5-.5z" fill="#212a41"/><path d="m60 54.5h-12c-.276 0-.5-.224-.5-.5s.224-.5.5-.5h12c.276 0 .5.224.5.5s-.224.5-.5.5z" fill="#212a41"/><path d="m59 56h-10c-.552 0-1-.448-1-1v-2c0-.552.448-1 1-1h10c.552 0 1 .448 1 1v2c0 .552-.448 1-1 1z" fill="#6c696f"/><path d="m59 56.5h-10c-.827 0-1.5-.673-1.5-1.5v-2c0-.827.673-1.5 1.5-1.5h10c.827 0 1.5.673 1.5 1.5v2c0 .827-.673 1.5-1.5 1.5zm-10-4c-.276 0-.5.224-.5.5v2c0 .276.224.5.5.5h10c.276 0 .5-.224.5-.5v-2c0-.276-.224-.5-.5-.5z" fill="#212a41"/><path d="m60 54.5h-12c-.276 0-.5-.224-.5-.5s.224-.5.5-.5h12c.276 0 .5.224.5.5s-.224.5-.5.5z" fill="#212a41"/><path d="m59 60h-10c-.552 0-1-.448-1-1v-2c0-.552.448-1 1-1h10c.552 0 1 .448 1 1v2c0 .552-.448 1-1 1z" fill="#6c696f"/><path d="m59 60.5h-10c-.827 0-1.5-.673-1.5-1.5v-2c0-.827.673-1.5 1.5-1.5h10c.827 0 1.5.673 1.5 1.5v2c0 .827-.673 1.5-1.5 1.5zm-10-4c-.276 0-.5.224-.5.5v2c0 .276.224.5.5.5h10c.276 0 .5-.224.5-.5v-2c0-.276-.224-.5-.5-.5z" fill="#212a41"/><path d="m60 58.5h-12c-.276 0-.5-.224-.5-.5s.224-.5.5-.5h12c.276 0 .5.224.5.5s-.224.5-.5.5z" fill="#212a41"/><path d="m59 60h-10c-.552 0-1-.448-1-1v-2c0-.552.448-1 1-1h10c.552 0 1 .448 1 1v2c0 .552-.448 1-1 1z" fill="#6c696f"/><path d="m59 60.5h-10c-.827 0-1.5-.673-1.5-1.5v-2c0-.827.673-1.5 1.5-1.5h10c.827 0 1.5.673 1.5 1.5v2c0 .827-.673 1.5-1.5 1.5zm-10-4c-.276 0-.5.224-.5.5v2c0 .276.224.5.5.5h10c.276 0 .5-.224.5-.5v-2c0-.276-.224-.5-.5-.5z" fill="#212a41"/><path d="m60 58.5h-12c-.276 0-.5-.224-.5-.5s.224-.5.5-.5h12c.276 0 .5.224.5.5s-.224.5-.5.5z" fill="#212a41"/><path d="m58 25.5c-.276 0-.5-.224-.5-.5v-4c0-.276.224-.5.5-.5s.5.224.5.5v4c0 .276-.224.5-.5.5z" fill="#99a2b9"/><path d="m18 25.5c-.276 0-.5-.224-.5-.5v-4c0-.276.224-.5.5-.5s.5.224.5.5v4c0 .276-.224.5-.5.5z" fill="#d5def5"/><path d="m8 54.5c-.276 0-.5-.224-.5-.5v-25c0-.276.224-.5.5-.5s.5.224.5.5v25c0 .276-.224.5-.5.5z" fill="#b7c0d7"/><path d="m6 25.5c-.276 0-.5-.224-.5-.5v-4c0-.276.224-.5.5-.5s.5.224.5.5v4c0 .276-.224.5-.5.5z" fill="#b7c0d7"/><path d="m51 60h-9.112v-11h7.112l2 2z" fill="#d32e5e"/><path d="m51 60.5h-9.112c-.276 0-.5-.224-.5-.5v-11c0-.276.224-.5.5-.5h7.112c.133 0 .26.053.354.146l2 2c.093.094.146.221.146.354v9c0 .276-.224.5-.5.5zm-8.612-1h8.112v-8.293l-1.707-1.707h-6.405z" fill="#212a41"/><path d="m42.944 46h3v3h-3z" fill="#d32e5e"/><path d="m45.944 49.5h-3c-.276 0-.5-.224-.5-.5v-3c0-.276.224-.5.5-.5h3c.276 0 .5.224.5.5v3c0 .276-.224.5-.5.5zm-2.5-1h2v-2h-2z" fill="#212a41"/><path d="m46.888 53h4v4h-4z" fill="#d32e5e"/><path d="m50.888 57.5h-4c-.276 0-.5-.224-.5-.5v-4c0-.276.224-.5.5-.5h4c.276 0 .5.224.5.5v4c0 .276-.224.5-.5.5zm-3.5-1h3v-3h-3z" fill="#212a41"/><path d="m43.888 58.5c-.276 0-.5-.224-.5-.5v-7c0-.276.224-.5.5-.5s.5.224.5.5v7c0 .276-.224.5-.5.5z" fill="#f14c7c"/></svg>