<svg id="Icon_Set" enable-background="new 0 0 64 64" height="512" viewBox="0 0 64 64" width="512" xmlns="http://www.w3.org/2000/svg"><path d="m42 9h-2v-3c0-.552-.448-1-1-1h-16c-.552 0-1 .448-1 1v3h-4c-5.523 0-10 4.477-10 10v29c0 .552.448 1 1 1h7v9c0 .552.448 1 1 1h26c.552 0 1-.448 1-1v-9h7c.552 0 1-.448 1-1v-29c0-5.523-4.477-10-10-10z" fill="#b51040"/><path d="m43 59.5h-26c-.827 0-1.5-.673-1.5-1.5v-8.5h-6.5c-.827 0-1.5-.673-1.5-1.5v-29c0-5.79 4.71-10.5 10.5-10.5h3.5v-2.5c0-.827.673-1.5 1.5-1.5h16c.827 0 1.5.673 1.5 1.5v2.5h1.5c5.79 0 10.5 4.71 10.5 10.5v29c0 .827-.673 1.5-1.5 1.5h-6.5v8.5c0 .827-.673 1.5-1.5 1.5zm-25-50c-5.238 0-9.5 4.262-9.5 9.5v29c0 .276.224.5.5.5h7c.276 0 .5.224.5.5v9c0 .276.224.5.5.5h26c.276 0 .5-.224.5-.5v-9c0-.276.224-.5.5-.5h7c.276 0 .5-.224.5-.5v-29c0-5.238-4.262-9.5-9.5-9.5h-2c-.276 0-.5-.224-.5-.5v-3c0-.276-.224-.5-.5-.5h-16c-.276 0-.5.224-.5.5v3c0 .276-.224.5-.5.5z" fill="#212a41"/><path d="m46 9h-24c-5.523 0-10 4.477-10 10v29c0 .552.448 1 1 1h7v9c0 .552.448 1 1 1h26c.552 0 1-.448 1-1v-9h7c.552 0 1-.448 1-1v-29c0-5.523-4.477-10-10-10z" fill="#d32e5e"/><path d="m47 59.5h-26c-.827 0-1.5-.673-1.5-1.5v-8.5h-6.5c-.827 0-1.5-.673-1.5-1.5v-29c0-5.79 4.71-10.5 10.5-10.5h24c5.79 0 10.5 4.71 10.5 10.5v29c0 .827-.673 1.5-1.5 1.5h-6.5v8.5c0 .827-.673 1.5-1.5 1.5zm-25-50c-5.238 0-9.5 4.262-9.5 9.5v29c0 .276.224.5.5.5h7c.276 0 .5.224.5.5v9c0 .276.224.5.5.5h26c.276 0 .5-.224.5-.5v-9c0-.276.224-.5.5-.5h7c.276 0 .5-.224.5-.5v-29c0-5.238-4.262-9.5-9.5-9.5z" fill="#212a41"/><path d="m14 47.5c-.276 0-.5-.224-.5-.5v-28c0-4.687 3.813-8.5 8.5-8.5.276 0 .5.224.5.5s-.224.5-.5.5c-4.136 0-7.5 3.364-7.5 7.5v28c0 .276-.224.5-.5.5z" fill="#f14c7c"/><path d="m54 47.5c-.276 0-.5-.224-.5-.5v-28c0-4.136-3.364-7.5-7.5-7.5-.276 0-.5-.224-.5-.5s.224-.5.5-.5c4.687 0 8.5 3.813 8.5 8.5v28c0 .276-.224.5-.5.5z" fill="#b51040"/><g fill="#212a41"><path d="m20 49.5c-.276 0-.5-.224-.5-.5v-24c0-.276.224-.5.5-.5s.5.224.5.5v24c0 .276-.224.5-.5.5z"/><path d="m48 49.5c-.276 0-.5-.224-.5-.5v-24c0-.276.224-.5.5-.5s.5.224.5.5v24c0 .276-.224.5-.5.5z"/><path d="m41 9.5h-14c-.276 0-.5-.224-.5-.5s.224-.5.5-.5h14c.276 0 .5.224.5.5s-.224.5-.5.5z"/></g><path d="m41 11h-11c-.552 0-1-.448-1-1v-4c0-.552.448-1 1-1h11c.552 0 1 .448 1 1v4c0 .552-.448 1-1 1z" fill="#d32e5e"/><path d="m41 11.5h-11c-.827 0-1.5-.673-1.5-1.5v-4c0-.827.673-1.5 1.5-1.5h11c.827 0 1.5.673 1.5 1.5v4c0 .827-.673 1.5-1.5 1.5zm-11-6c-.276 0-.5.224-.5.5v4c0 .276.224.5.5.5h11c.276 0 .5-.224.5-.5v-4c0-.276-.224-.5-.5-.5z" fill="#212a41"/><path d="m24 47v-21.957l-8.622-13.522c-2.068 1.832-3.378 4.499-3.378 7.479v2.035l8 4.007v21.958z" fill="#e0e0e0"/><path d="m44 17.5h-4c-.276 0-.5-.224-.5-.5s.224-.5.5-.5h4c.276 0 .5.224.5.5s-.224.5-.5.5z" fill="#212a41"/><path d="m44 20.5h-4c-.276 0-.5-.224-.5-.5s.224-.5.5-.5h4c.276 0 .5.224.5.5s-.224.5-.5.5z" fill="#212a41"/><path d="m48 47h-4l-7 6h-6l-7-6h-4v4l11 8h6l11-8z" fill="#e0e0e0"/><path d="m37 59.5h-6c-.105 0-.208-.034-.294-.096l-11-8c-.129-.094-.206-.244-.206-.404v-4c0-.276.224-.5.5-.5h4c.119 0 .235.042.325.121l6.86 5.879h5.63l6.86-5.879c.09-.079.206-.121.325-.121h4c.276 0 .5.224.5.5v4c0 .16-.077.31-.206.404l-11 8c-.086.062-.189.096-.294.096zm-5.837-1h5.675l10.662-7.754v-3.246h-3.315l-6.86 5.879c-.09.079-.206.121-.325.121h-6c-.119 0-.235-.042-.325-.121l-6.86-5.879h-3.315v3.246z" fill="#212a41"/><path d="m14 22.537c-.276 0-.5-.224-.5-.5v-3.037c0-2.334.93-4.512 2.62-6.133.199-.19.516-.184.707.015s.185.516-.015.707c-1.491 1.43-2.312 3.351-2.312 5.411v3.037c0 .276-.224.5-.5.5z" fill="#fefefe"/><path d="m44 47v-21.957l8.622-13.522c2.068 1.832 3.378 4.499 3.378 7.479v2.035l-8 4.007v21.958z" fill="#e0e0e0"/><path d="m54 22.537c-.276 0-.5-.224-.5-.5v-3.037c0-2.06-.821-3.981-2.312-5.411-.199-.191-.206-.508-.015-.707.19-.199.507-.205.707-.015 1.69 1.621 2.62 3.799 2.62 6.133v3.037c0 .276-.224.5-.5.5z" fill="#c2c2c2"/><path d="m24 47.5h-4c-.276 0-.5-.224-.5-.5v-21.648l-7.724-3.869c-.169-.085-.276-.258-.276-.447v-2.036c0-2.994 1.292-5.856 3.546-7.853.109-.097.256-.143.401-.121.145.02.273.103.352.226l8.622 13.522c.051.081.079.174.079.269v21.957c0 .276-.224.5-.5.5zm-3.5-1h3v-21.311l-8.219-12.89c-1.774 1.779-2.781 4.189-2.781 6.701v1.727l7.724 3.869c.169.085.276.258.276.447z" fill="#212a41"/><path d="m48 47.5h-4c-.276 0-.5-.224-.5-.5v-21.957c0-.095.027-.188.079-.269l8.622-13.522c.079-.123.207-.206.352-.226.144-.021.292.024.401.121 2.254 1.997 3.546 4.859 3.546 7.853v2.036c0 .189-.107.362-.276.447l-7.724 3.869v21.648c0 .276-.224.5-.5.5zm-3.5-1h3v-21.457c0-.189.107-.362.276-.447l7.724-3.869v-1.727c0-2.512-1.007-4.922-2.781-6.701l-8.219 12.89z" fill="#212a41"/><path d="m12 19c0-2.98 1.31-5.647 3.378-7.479h-4c-2.068 1.832-3.378 4.499-3.378 7.479v2.035h4z" fill="#c2c2c2"/><path d="m12 21.536h-4c-.276 0-.5-.224-.5-.5v-2.036c0-2.994 1.292-5.856 3.546-7.853.091-.081.209-.126.332-.126h4c.208 0 .394.128.467.323.074.194.02.414-.136.551-2.039 1.808-3.209 4.397-3.209 7.105v2.036c0 .276-.224.5-.5.5zm-3.5-1h3v-1.536c0-2.581.96-5.063 2.669-6.979h-2.599c-1.953 1.801-3.07 4.333-3.07 6.979z" fill="#212a41"/><path d="m34 59.5c-.276 0-.5-.224-.5-.5v-48c0-.276.224-.5.5-.5s.5.224.5.5v48c0 .276-.224.5-.5.5z" fill="#212a41"/><circle cx="32.5" cy="8" fill="#212a41" r="1"/></svg>