<svg id="Icon_Set" enable-background="new 0 0 64 64" height="512" viewBox="0 0 64 64" width="512" xmlns="http://www.w3.org/2000/svg"><path d="m4 52v-40c0-2.209 1.791-4 4-4h44c2.209 0 4 1.791 4 4v40c0 2.209-1.791 4-4 4h-44c-2.209 0-4-1.791-4-4z" fill="#99a2b9"/><path d="m52 56.5h-44c-2.481 0-4.5-2.019-4.5-4.5v-40c0-2.481 2.019-4.5 4.5-4.5h44c2.481 0 4.5 2.019 4.5 4.5v40c0 2.481-2.019 4.5-4.5 4.5zm-44-48c-1.93 0-3.5 1.57-3.5 3.5v40c0 1.93 1.57 3.5 3.5 3.5h44c1.93 0 3.5-1.57 3.5-3.5v-40c0-1.93-1.57-3.5-3.5-3.5z" fill="#212a41"/><path d="m8 52v-40c0-2.209 1.791-4 4-4h44c2.209 0 4 1.791 4 4v40c0 2.209-1.791 4-4 4h-44c-2.209 0-4-1.791-4-4z" fill="#b7c0d7"/><path d="m56 56.5h-44c-2.481 0-4.5-2.019-4.5-4.5v-40c0-2.481 2.019-4.5 4.5-4.5h44c2.481 0 4.5 2.019 4.5 4.5v40c0 2.481-2.019 4.5-4.5 4.5zm-44-48c-1.93 0-3.5 1.57-3.5 3.5v40c0 1.93 1.57 3.5 3.5 3.5h44c1.93 0 3.5-1.57 3.5-3.5v-40c0-1.93-1.57-3.5-3.5-3.5z" fill="#212a41"/><path d="m12 12h44v40h-44z" fill="#0079a8"/><path d="m56 52.5h-44c-.276 0-.5-.224-.5-.5v-40c0-.276.224-.5.5-.5h44c.276 0 .5.224.5.5v40c0 .276-.224.5-.5.5zm-43.5-1h43v-39h-43z" fill="#212a41"/><path d="m54 50.5c-.276 0-.5-.224-.5-.5v-36c0-.276.224-.5.5-.5s.5.224.5.5v36c0 .276-.224.5-.5.5z" fill="#005b8a"/><path d="m14 50.5c-.276 0-.5-.224-.5-.5v-36c0-.276.224-.5.5-.5s.5.224.5.5v36c0 .276-.224.5-.5.5z" fill="#1e97c6"/><path d="m25.387 44.366h-4.172c-1.93 0-3.5-1.57-3.5-3.5v-1.333c0-.752.249-1.499.7-2.101l5.243-6.99c.406-.544.962-.956 1.604-1.189l10.109-3.676c.387-.14.789-.211 1.196-.211h9.647c3.032 0 5.5 2.467 5.5 5.5v4c0 3.033-2.468 5.5-5.5 5.5h-3.171c-.934 0-1.812-.363-2.475-1.023l-2.829-2.83c-.094-.093-.222-.146-.354-.146h-2.343c-.134 0-.26.053-.355.148l-6.827 6.827c-.66.66-1.539 1.024-2.473 1.024zm11.18-16c-.058 0-.116.01-.173.031l-10.107 3.676c-.092.033-.17.091-.228.168l-5.244 6.992c-.065.086-.101.193-.101.3v1.333c0 .276.225.5.5.5h4.172c.132 0 .261-.053.354-.146l6.828-6.829c.663-.662 1.542-1.025 2.476-1.025h2.343c.935 0 1.813.364 2.475 1.025l2.828 2.829c.094.094.221.146.354.146h3.171c1.379 0 2.5-1.122 2.5-2.5v-4c0-1.378-1.121-2.5-2.5-2.5z" fill="#e0e0e0"/><path d="m25.387 44.866h-4.172c-2.206 0-4-1.794-4-4v-1.333c0-.859.284-1.712.8-2.4l5.243-6.99c.465-.622 1.099-1.092 1.833-1.359l10.109-3.677c.441-.16.901-.241 1.367-.241h9.647c3.309 0 6 2.691 6 6v4c0 3.309-2.691 6-6 6h-3.171c-1.067 0-2.071-.416-2.828-1.169l-2.829-2.831h-2.343l-6.829 6.829c-.754.755-1.759 1.171-2.827 1.171zm11.18-19c-.35 0-.694.061-1.026.181l-10.108 3.676c-.551.201-1.025.553-1.374 1.019l-5.243 6.99c-.388.517-.601 1.156-.601 1.801v1.333c0 1.654 1.346 3 3 3h4.172c.802 0 1.555-.312 2.121-.878l6.827-6.827c.191-.19.442-.294.709-.294h2.343c.263 0 .52.106.706.292l2.83 2.831c.567.565 1.32.877 2.121.877h3.171c2.757 0 5-2.243 5-5v-4c0-2.757-2.243-5-5-5h-9.648zm-11.18 16h-4.172c-.552 0-1-.449-1-1v-1.333c0-.216.071-.43.202-.602l5.242-6.99c.117-.155.275-.272.458-.338l10.106-3.675c.111-.041.228-.061.344-.061h9.647c1.654 0 3 1.346 3 3v4c0 1.654-1.346 3-3 3h-3.171c-.268 0-.52-.104-.708-.292l-2.828-2.829c-.566-.567-1.32-.879-2.121-.879h-2.343c-.801 0-1.554.312-2.122.879l-6.828 6.828c-.185.185-.443.292-.706.292zm11.181-13c-.001 0-.002 0-.004.001l-10.106 3.675-5.242 6.99-.001 1.333h4.172l6.828-6.828c.758-.756 1.762-1.172 2.829-1.172h2.343c1.068 0 2.072.416 2.828 1.172l2.828 2.829h3.172c1.103 0 2-.897 2-2v-4c0-1.103-.897-2-2-2z" fill="#212a41"/><path d="m40.715 29.866c-.276 0-.5-.224-.5-.5v-5c0-.276.224-.5.5-.5s.5.224.5.5v5c0 .276-.224.5-.5.5z" fill="#212a41"/><circle cx="21.715" cy="26.866" fill="#f9ac2f" r="1.5"/><path d="m21.715 28.866c-1.103 0-2-.897-2-2s.897-2 2-2 2 .897 2 2-.898 2-2 2zm0-3c-.552 0-1 .449-1 1s.448 1 1 1 1-.449 1-1-.448-1-1-1z" fill="#212a41"/><circle cx="35.715" cy="40.866" fill="#d32e5e" r="1.5"/><path d="m35.715 42.866c-1.103 0-2-.897-2-2s.897-2 2-2 2 .897 2 2-.898 2-2 2zm0-3c-.552 0-1 .449-1 1s.448 1 1 1 1-.449 1-1-.448-1-1-1z" fill="#212a41"/><path d="m28 16h12v4h-12z" fill="#bed38e"/><g fill="#212a41"><path d="m40 20.5h-12c-.276 0-.5-.224-.5-.5v-4c0-.276.224-.5.5-.5h12c.276 0 .5.224.5.5v4c0 .276-.224.5-.5.5zm-11.5-1h11v-3h-11z"/><path d="m49.715 45.841h-8c-.276 0-.5-.224-.5-.5s.224-.5.5-.5h8c.276 0 .5.224.5.5s-.224.5-.5.5z"/><path d="m49.715 48.841h-8c-.276 0-.5-.224-.5-.5s.224-.5.5-.5h8c.276 0 .5.224.5.5s-.224.5-.5.5z"/></g></svg>