<svg id="Icon_Set" enable-background="new 0 0 64 64" height="512" viewBox="0 0 64 64" width="512" xmlns="http://www.w3.org/2000/svg"><path d="m18 60h-4c-2.209 0-4-1.791-4-4v-18h12v18c0 2.209-1.791 4-4 4z" fill="#db8e11"/><path d="m18 60.5h-4c-2.481 0-4.5-2.019-4.5-4.5v-18c0-.276.224-.5.5-.5h12c.276 0 .5.224.5.5v18c0 2.481-2.019 4.5-4.5 4.5zm-7.5-22v17.5c0 1.93 1.57 3.5 3.5 3.5h4c1.93 0 3.5-1.57 3.5-3.5v-17.5z" fill="#212a41"/><path d="m18.617 4h-4.234c-.504 0-.93.376-.992.876l-.853 6.824c-.024.196.01.395.098.571l.759 1.518c.069.139.106.292.106.447v20.764h6v-20.764c0-.155.036-.308.106-.447l.759-1.518c.088-.177.122-.375.098-.571l-.853-6.824c-.064-.5-.489-.876-.994-.876z" fill="#c2c2c2"/><path d="m19.5 35.5h-6c-.276 0-.5-.224-.5-.5v-20.764c0-.077-.018-.154-.053-.223l-.759-1.518c-.133-.266-.183-.562-.146-.857l.853-6.824c.093-.749.733-1.314 1.488-1.314h4.234c.755 0 1.395.565 1.488 1.314l.853 6.824c.037.295-.014.591-.146.857l-.759 1.518c-.035.069-.053.146-.053.223v20.764c0 .276-.224.5-.5.5zm-5.5-1h5v-20.264c0-.231.055-.463.158-.67l.759-1.518c.044-.088.061-.187.049-.286l-.853-6.824c-.031-.25-.244-.438-.496-.438h-4.234c-.251 0-.465.188-.496.438l-.853 6.824c-.012.099.004.197.049.286l.759 1.518c.103.206.158.438.158.67z" fill="#212a41"/><path d="m23 38h-14c-.552 0-1-.448-1-1v-1c0-.552.448-1 1-1h14c.552 0 1 .448 1 1v1c0 .552-.448 1-1 1z" fill="#db8e11"/><path d="m23 38.5h-14c-.827 0-1.5-.673-1.5-1.5v-1c0-.827.673-1.5 1.5-1.5h14c.827 0 1.5.673 1.5 1.5v1c0 .827-.673 1.5-1.5 1.5zm-14-3c-.276 0-.5.224-.5.5v1c0 .276.224.5.5.5h14c.276 0 .5-.224.5-.5v-1c0-.276-.224-.5-.5-.5z" fill="#212a41"/><path d="m40 20h8v24h-8z" fill="#c2c2c2"/><path d="m48 44.5h-8c-.276 0-.5-.224-.5-.5v-24c0-.276.224-.5.5-.5h8c.276 0 .5.224.5.5v24c0 .276-.224.5-.5.5zm-7.5-1h7v-23h-7z" fill="#212a41"/><path d="m22 60h-4c-2.209 0-4-1.791-4-4v-18h12v18c0 2.209-1.791 4-4 4z" fill="#f9ac2f"/><path d="m22 60.5h-4c-2.481 0-4.5-2.019-4.5-4.5v-18c0-.276.224-.5.5-.5h12c.276 0 .5.224.5.5v18c0 2.481-2.019 4.5-4.5 4.5zm-7.5-22v17.5c0 1.93 1.57 3.5 3.5 3.5h4c1.93 0 3.5-1.57 3.5-3.5v-17.5z" fill="#212a41"/><path d="m21.617 4h-4.234c-.504 0-.93.376-.992.876l-.853 6.824c-.024.196.01.395.098.571l.759 1.518c.069.139.106.292.106.447v20.764h6v-20.764c0-.155.036-.308.106-.447l.759-1.518c.088-.177.122-.375.098-.571l-.853-6.824c-.064-.5-.489-.876-.994-.876z" fill="#e0e0e0"/><path d="m22.5 35.5h-6c-.276 0-.5-.224-.5-.5v-20.764c0-.077-.018-.154-.053-.223l-.759-1.518c-.133-.266-.183-.562-.146-.857l.853-6.824c.093-.749.733-1.314 1.488-1.314h4.234c.755 0 1.395.565 1.488 1.314l.853 6.824c.037.295-.014.591-.146.857l-.759 1.518c-.035.069-.053.146-.053.223v20.764c0 .276-.224.5-.5.5zm-5.5-1h5v-20.264c0-.231.055-.463.158-.67l.759-1.518c.044-.088.061-.187.049-.286l-.853-6.824c-.031-.25-.244-.438-.496-.438h-4.234c-.251 0-.465.188-.496.438l-.853 6.824c-.012.099.004.197.049.286l.759 1.518c.103.206.158.438.158.67z" fill="#212a41"/><path d="m18.5 33.5c-.276 0-.5-.224-.5-.5v-18.764c0-.386-.091-.772-.264-1.118l-.624-1.247c-.044-.088-.061-.188-.049-.286l.706-5.647c.035-.274.286-.466.558-.434.274.034.468.284.434.558l-.687 5.497.556 1.112c.242.483.37 1.024.37 1.565v18.764c0 .276-.224.5-.5.5z" fill="#fefefe"/><path d="m27 38h-14c-.552 0-1-.448-1-1v-1c0-.552.448-1 1-1h14c.552 0 1 .448 1 1v1c0 .552-.448 1-1 1z" fill="#f9ac2f"/><path d="m27 38.5h-14c-.827 0-1.5-.673-1.5-1.5v-1c0-.827.673-1.5 1.5-1.5h14c.827 0 1.5.673 1.5 1.5v1c0 .827-.673 1.5-1.5 1.5zm-14-3c-.276 0-.5.224-.5.5v1c0 .276.224.5.5.5h14c.276 0 .5-.224.5-.5v-1c0-.276-.224-.5-.5-.5z" fill="#212a41"/><path d="m43 20h8v24h-8z" fill="#e0e0e0"/><path d="m51 44.5h-8c-.276 0-.5-.224-.5-.5v-24c0-.276.224-.5.5-.5h8c.276 0 .5.224.5.5v24c0 .276-.224.5-.5.5zm-7.5-1h7v-23h-7z" fill="#212a41"/><path d="m51 4v8l-4 3-4-3v-8h-1l-3.562 4.452c-.283.355-.438.795-.438 1.25v4.47c0 .53.211 1.039.586 1.414l4.414 4.414h8l4.414-4.414c.375-.375.586-.884.586-1.414v-4.47c0-.454-.155-.895-.438-1.249l-3.562-4.453z" fill="#e0e0e0"/><path d="m51 20.5h-8c-.133 0-.26-.053-.354-.146l-4.414-4.414c-.473-.472-.732-1.1-.732-1.768v-4.47c0-.566.194-1.121.549-1.562l3.561-4.452c.094-.119.238-.188.39-.188h1c.276 0 .5.224.5.5v7.75l3.5 2.625 3.5-2.625v-7.75c0-.276.224-.5.5-.5h1c.152 0 .296.069.391.188l3.562 4.452c.353.441.547.995.547 1.562v4.47c0 .668-.26 1.296-.732 1.768l-4.414 4.414c-.094.093-.221.146-.354.146zm-7.793-1h7.586l4.268-4.268c.283-.284.439-.66.439-1.061v-4.47c0-.34-.117-.672-.328-.937l-3.412-4.264h-.26v7.5c0 .157-.074.306-.2.4l-4 3c-.178.134-.422.134-.6 0l-4-3c-.126-.094-.2-.243-.2-.4v-7.5h-.26l-3.411 4.265c-.212.264-.329.597-.329.937v4.47c0 .401.156.777.439 1.061zm7.793-7.5h.01z" fill="#212a41"/><path d="m47 37.5c-.276 0-.5-.224-.5-.5v-10c0-.276.224-.5.5-.5s.5.224.5.5v10c0 .276-.224.5-.5.5z" fill="#212a41"/><path d="m47 15 4-3v-8h-3v8l-2.5 1.875z" fill="#c2c2c2"/><path d="m47 15.5c-.105 0-.211-.033-.3-.1l-1.5-1.125c-.126-.094-.2-.243-.2-.4s.074-.306.2-.4l2.3-1.725v-7.75c0-.276.224-.5.5-.5h3c.276 0 .5.224.5.5v8c0 .157-.074.306-.2.4l-4 3c-.089.067-.195.1-.3.1zm-.667-1.625.667.5 3.5-2.625v-7.25h-2v7.5c0 .157-.074.306-.2.4z" fill="#212a41"/><path d="m43 20-4.414-4.414c-.375-.375-.586-.884-.586-1.414v-4.47c0-.454.155-.895.438-1.249l3.562-4.453h-3l-3.562 4.452c-.283.355-.438.795-.438 1.25v4.47c0 .53.211 1.039.586 1.414l4.414 4.414z" fill="#c2c2c2"/><path d="m43 20.5h-3c-.133 0-.26-.053-.354-.146l-4.414-4.414c-.473-.473-.732-1.101-.732-1.768v-4.47c0-.566.194-1.121.549-1.562l3.561-4.452c.094-.119.238-.188.39-.188h3c.192 0 .367.11.45.283.084.173.061.379-.06.529l-3.562 4.452c-.211.265-.328.598-.328.938v4.47c0 .4.156.777.439 1.061l4.414 4.414c.143.143.186.358.108.545s-.259.308-.461.308zm-2.793-1h1.586l-3.561-3.561c-.473-.473-.732-1.101-.732-1.768v-4.47c0-.566.194-1.121.549-1.562l2.911-3.639h-1.72l-3.411 4.265c-.212.264-.329.597-.329.937v4.47c0 .4.156.777.439 1.061z" fill="#212a41"/><path d="m51 60v-8l-4-3-4 3v8h-1l-3.562-4.452c-.283-.355-.438-.795-.438-1.25v-4.47c0-.53.211-1.039.586-1.414l4.414-4.414h8l4.414 4.414c.375.375.586.884.586 1.414v4.47c0 .454-.155.895-.438 1.249l-3.562 4.453z" fill="#e0e0e0"/><path d="m52 60.5h-1c-.276 0-.5-.224-.5-.5v-7.75l-3.5-2.625-3.5 2.625v7.75c0 .276-.224.5-.5.5h-1c-.152 0-.296-.069-.391-.188l-3.562-4.452c-.354-.441-.548-.996-.548-1.562v-4.47c0-.668.26-1.296.732-1.768l4.414-4.414c.095-.093.222-.146.355-.146h8c.133 0 .26.053.354.146l4.414 4.414c.473.472.732 1.1.732 1.768v4.47c0 .566-.194 1.121-.549 1.562l-3.561 4.452c-.094.119-.238.188-.39.188zm-.5-1h.26l3.411-4.265c.212-.265.329-.597.329-.937v-4.47c0-.401-.156-.777-.439-1.061l-4.268-4.267h-7.586l-4.268 4.268c-.283.284-.439.66-.439 1.061v4.47c0 .34.117.672.328.937l3.412 4.264h.26v-7.5c0-.157.074-.306.2-.4l4-3c.178-.134.422-.134.6 0l4 3c.126.094.2.243.2.4z" fill="#212a41"/><path d="m45 42.5c-.276 0-.5-.224-.5-.5v-20c0-.276.224-.5.5-.5s.5.224.5.5v20c0 .276-.224.5-.5.5z" fill="#fefefe"/><path d="m43.828 18.5c-.128 0-.256-.049-.354-.146l-3.828-3.829c-.094-.094-.146-.221-.146-.354v-4.47c0-.276.224-.5.5-.5s.5.224.5.5v4.263l3.682 3.682c.195.195.195.512 0 .707-.098.098-.226.147-.354.147z" fill="#fefefe"/><path d="m50.172 18.5c-.128 0-.256-.049-.354-.146-.195-.195-.195-.512 0-.707l3.682-3.682v-4.263c0-.276.224-.5.5-.5s.5.224.5.5v4.47c0 .133-.053.26-.146.354l-3.828 3.829c-.098.096-.226.145-.354.145z" fill="#c2c2c2"/><path d="m40 54.5c-.276 0-.5-.224-.5-.5v-4.47c0-.133.053-.26.146-.354l3.828-3.829c.195-.195.512-.195.707 0s.195.512 0 .707l-3.681 3.683v4.263c0 .276-.224.5-.5.5z" fill="#fefefe"/><path d="m54 54.5c-.276 0-.5-.224-.5-.5v-4.263l-3.682-3.682c-.195-.195-.195-.512 0-.707s.512-.195.707 0l3.828 3.829c.094.094.146.221.146.354v4.469c.001.276-.223.5-.499.5z" fill="#c2c2c2"/><path d="m47 49 4 3v8h-3v-8l-2.5-1.875z" fill="#c2c2c2"/><path d="m51 60.5h-3c-.276 0-.5-.224-.5-.5v-7.75l-2.3-1.725c-.126-.094-.2-.243-.2-.4s.074-.306.2-.4l1.5-1.125c.178-.134.422-.134.6 0l4 3c.126.094.2.243.2.4v8c0 .276-.224.5-.5.5zm-2.5-1h2v-7.25l-3.5-2.625-.667.5 1.967 1.475c.126.094.2.243.2.4z" fill="#212a41"/><path d="m43 44-4.414 4.414c-.375.375-.586.884-.586 1.414v4.47c0 .454.155.895.438 1.249l3.562 4.453h-3l-3.562-4.452c-.283-.355-.438-.795-.438-1.25v-4.47c0-.53.211-1.039.586-1.414l4.414-4.414z" fill="#c2c2c2"/><path d="m42 60.5h-3c-.152 0-.296-.069-.391-.188l-3.562-4.452c-.354-.441-.548-.996-.548-1.562v-4.47c0-.668.26-1.296.732-1.768l4.414-4.414c.095-.093.222-.146.355-.146h3c.202 0 .385.122.462.309s.034.402-.108.545l-4.414 4.414c-.283.284-.439.66-.439 1.061v4.47c0 .34.117.672.328.937l3.562 4.452c.12.15.144.356.06.529s-.259.283-.451.283zm-2.76-1h1.72l-2.912-3.64c-.354-.441-.548-.996-.548-1.562v-4.47c0-.668.26-1.296.732-1.768l3.561-3.561h-1.586l-4.268 4.268c-.283.284-.439.66-.439 1.061v4.47c0 .34.117.672.328.937z" fill="#212a41"/><path d="m20 56.5c-1.103 0-2-.897-2-2v-11c0-1.103.897-2 2-2s2 .897 2 2v11c0 1.103-.897 2-2 2zm0-14c-.551 0-1 .449-1 1v11c0 .551.449 1 1 1s1-.449 1-1v-11c0-.551-.449-1-1-1z" fill="#212a41"/><path d="m16 56.5c-.276 0-.5-.224-.5-.5v-16c0-.276.224-.5.5-.5s.5.224.5.5v16c0 .276-.224.5-.5.5z" fill="#ffca4d"/><path d="m24 56.5c-.276 0-.5-.224-.5-.5v-16c0-.276.224-.5.5-.5s.5.224.5.5v16c0 .276-.224.5-.5.5z" fill="#db8e11"/></svg>