<svg id="Icon_Set" enable-background="new 0 0 64 64" height="512" viewBox="0 0 64 64" width="512" xmlns="http://www.w3.org/2000/svg"><path d="m27 52h30v8h-30z" fill="#e0e0e0"/><path d="m57 60.5h-30c-.276 0-.5-.224-.5-.5v-8c0-.276.224-.5.5-.5h30c.276 0 .5.224.5.5v8c0 .276-.224.5-.5.5zm-29.5-1h29v-7h-29z" fill="#212a41"/><path d="m20.998 8h-10l-1-3h10z" fill="#6c696f"/><path d="m20.998 8.5h-10c-.215 0-.406-.138-.474-.342l-1-3c-.051-.152-.025-.32.068-.45.095-.131.245-.208.406-.208h10c.215 0 .406.138.474.342l1 3c.051.152.025.32-.068.45-.094.131-.245.208-.406.208zm-9.64-1h8.946l-.667-2h-8.946z" fill="#212a41"/><path d="m48.331 14h-3.333v8h3.333c1.473 0 2.667-1.791 2.667-4s-1.194-4-2.667-4z" fill="#6c696f"/><path d="m48.331 22.5h-3.333c-.276 0-.5-.224-.5-.5v-8c0-.276.224-.5.5-.5h3.333c1.775 0 3.167 1.977 3.167 4.5s-1.392 4.5-3.167 4.5zm-2.833-1h2.833c1.174 0 2.167-1.603 2.167-3.5s-.992-3.5-2.167-3.5h-2.833z" fill="#212a41"/><ellipse cx="44.998" cy="18" fill="#4e4b51" rx="3" ry="4"/><path d="m44.998 22.5c-1.93 0-3.5-2.019-3.5-4.5s1.57-4.5 3.5-4.5 3.5 2.019 3.5 4.5-1.57 4.5-3.5 4.5zm0-8c-1.378 0-2.5 1.57-2.5 3.5s1.122 3.5 2.5 3.5 2.5-1.57 2.5-3.5-1.122-3.5-2.5-3.5z" fill="#212a41"/><path d="m34.331 14h-3.333v8h3.333c1.473 0 2.667-1.791 2.667-4s-1.194-4-2.667-4z" fill="#6c696f"/><path d="m34.331 22.5h-3.333c-.276 0-.5-.224-.5-.5v-8c0-.276.224-.5.5-.5h3.333c1.775 0 3.167 1.977 3.167 4.5s-1.392 4.5-3.167 4.5zm-2.833-1h2.833c1.174 0 2.167-1.603 2.167-3.5s-.992-3.5-2.167-3.5h-2.833z" fill="#212a41"/><path d="m20.331 14h-3.333v8h3.333c1.473 0 2.667-1.791 2.667-4s-1.194-4-2.667-4z" fill="#6c696f"/><path d="m20.331 22.5h-3.333c-.276 0-.5-.224-.5-.5v-8c0-.276.224-.5.5-.5h3.333c1.775 0 3.167 1.977 3.167 4.5s-1.392 4.5-3.167 4.5zm-2.833-1h2.833c1.174 0 2.167-1.603 2.167-3.5s-.992-3.5-2.167-3.5h-2.833z" fill="#212a41"/><path d="m15.998 10h15.097l-3-6h-7.027c-.669 0-1.293.334-1.664.891z" fill="#c2c2c2"/><path d="m31.095 10.5h-15.097c-.185 0-.354-.102-.441-.264-.087-.163-.078-.36.025-.514l3.406-5.109c.465-.697 1.242-1.113 2.08-1.113h7.027c.189 0 .362.107.447.276l3 6c.078.155.069.339-.022.486s-.251.238-.425.238zm-14.163-1h13.354l-2.5-5h-6.718c-.502 0-.969.25-1.248.668z" fill="#212a41"/><path d="m40.196 11.838-9.101-1.838h-18.097c-1.105 0-2 .895-2 2v5c0 1.105.895 2 2 2h27c.552 0 1-.448 1-1v-5.182c0-.476-.335-.886-.802-.98z" fill="#b51040"/><path d="m39.998 19.5h-27c-1.378 0-2.5-1.121-2.5-2.5v-5c0-1.379 1.122-2.5 2.5-2.5h18.097l9.2 1.848c.697.142 1.203.76 1.203 1.471v5.181c0 .827-.673 1.5-1.5 1.5zm-9.002-9.01-17.998.01c-.827 0-1.5.673-1.5 1.5v5c0 .827.673 1.5 1.5 1.5h27c.276 0 .5-.225.5-.5v-5.182c0-.236-.169-.443-.401-.49z" fill="#212a41"/><path d="m38.998 17.5c-.276 0-.5-.224-.5-.5v-3.363c0-.276.224-.5.5-.5s.5.224.5.5v3.363c0 .276-.224.5-.5.5z" fill="#970022"/><path d="m44.095 10h-13l-3-6h10.93c.669 0 1.293.334 1.664.891z" fill="#e0e0e0"/><path d="m44.095 10.5h-13c-.189 0-.362-.107-.447-.276l-3-6c-.078-.155-.069-.339.022-.486s.252-.238.425-.238h10.93c.838 0 1.615.416 2.08 1.113l3.406 5.109c.102.153.112.351.025.514-.087.162-.256.264-.441.264zm-12.691-1h11.757l-2.888-4.332c-.279-.418-.746-.668-1.248-.668h-10.121z" fill="#212a41"/><path d="m31.095 10 9.101 1.838c.467.094.802.504.802.98v5.182c0 .552-.448 1-1 1h-1 13c.552 0 1-.448 1-1v-5.198c0-.469-.326-.875-.783-.976l-8.217-1.826z" fill="#d32e5e"/><path d="m51.998 19.5h-13c-.276 0-.5-.224-.5-.5s.224-.5.5-.5h1c.276 0 .5-.225.5-.5v-5.182c0-.237-.169-.443-.402-.49l-9.1-1.838c-.251-.051-.424-.284-.398-.54s.241-.45.498-.45h12.903c.037 0 .073.004.108.012l8.217 1.826c.692.153 1.175.756 1.175 1.464v5.198c-.001.827-.674 1.5-1.501 1.5zm-10.585-1h10.585c.276 0 .5-.225.5-.5v-5.198c0-.235-.161-.437-.392-.487l-8.163-1.815h-7.847l4.198.848c.697.142 1.203.76 1.203 1.471v5.181c.001.175-.029.344-.084.5z" fill="#212a41"/><path d="m40.998 13h4v3h-4z" fill="#e0e0e0"/><path d="m44.998 16.5h-4c-.276 0-.5-.224-.5-.5v-3c0-.276.224-.5.5-.5h4c.276 0 .5.224.5.5v3c0 .276-.224.5-.5.5zm-3.5-1h3v-2h-3z" fill="#212a41"/><path d="m48.998 13h4v3h-4z" fill="#e0e0e0"/><path d="m52.998 16.5h-4c-.276 0-.5-.224-.5-.5v-3c0-.276.224-.5.5-.5h4c.276 0 .5.224.5.5v3c0 .276-.224.5-.5.5zm-3.5-1h3v-2h-3z" fill="#212a41"/><path d="m44.998 13h4v3h-4z" fill="#6c696f"/><path d="m48.998 16.5h-4c-.276 0-.5-.224-.5-.5v-3c0-.276.224-.5.5-.5h4c.276 0 .5.224.5.5v3c0 .276-.224.5-.5.5zm-3.5-1h3v-2h-3z" fill="#212a41"/><ellipse cx="16.998" cy="18" fill="#4e4b51" rx="3" ry="4"/><path d="m16.998 22.5c-1.93 0-3.5-2.019-3.5-4.5s1.57-4.5 3.5-4.5 3.5 2.019 3.5 4.5-1.57 4.5-3.5 4.5zm0-8c-1.378 0-2.5 1.57-2.5 3.5s1.122 3.5 2.5 3.5 2.5-1.57 2.5-3.5-1.122-3.5-2.5-3.5z" fill="#212a41"/><ellipse cx="30.998" cy="18" fill="#4e4b51" rx="3" ry="4"/><path d="m30.998 22.5c-1.93 0-3.5-2.019-3.5-4.5s1.57-4.5 3.5-4.5 3.5 2.019 3.5 4.5-1.57 4.5-3.5 4.5zm0-8c-1.378 0-2.5 1.57-2.5 3.5s1.122 3.5 2.5 3.5 2.5-1.57 2.5-3.5-1.122-3.5-2.5-3.5z" fill="#212a41"/><path d="m12.998 10.5c-.276 0-.5-.224-.5-.5v-2c0-.276.224-.5.5-.5s.5.224.5.5v2c0 .276-.224.5-.5.5z" fill="#212a41"/><path d="m12.998 17.5c-.276 0-.5-.224-.5-.5v-5c0-.276.224-.5.5-.5s.5.224.5.5v5c0 .276-.224.5-.5.5z" fill="#d32e5e"/><path d="m15.5 25h3v7h-3z" fill="#e0e0e0"/><path d="m18.5 32.5h-3c-.276 0-.5-.224-.5-.5v-7c0-.276.224-.5.5-.5h3c.276 0 .5.224.5.5v7c0 .276-.224.5-.5.5zm-2.5-1h2v-6h-2z" fill="#212a41"/><path d="m14.5 32h5v20h-5z" fill="#b7c0d7"/><path d="m19.5 52.5h-5c-.276 0-.5-.224-.5-.5v-20c0-.276.224-.5.5-.5h5c.276 0 .5.224.5.5v20c0 .276-.224.5-.5.5zm-4.5-1h4v-19h-4z" fill="#212a41"/><path d="m13 22h8v3h-8z" fill="#e0e0e0"/><path d="m21 25.5h-8c-.276 0-.5-.224-.5-.5v-3c0-.276.224-.5.5-.5h8c.276 0 .5.224.5.5v3c0 .276-.224.5-.5.5zm-7.5-1h7v-2h-7z" fill="#212a41"/><path d="m7 52h30v8h-30z" fill="#c2c2c2"/><path d="m37 60.5h-30c-.276 0-.5-.224-.5-.5v-8c0-.276.224-.5.5-.5h30c.276 0 .5.224.5.5v8c0 .276-.224.5-.5.5zm-29.5-1h29v-7h-29z" fill="#212a41"/><path d="m30.5 25h3v7h-3z" fill="#e0e0e0"/><path d="m33.5 32.5h-3c-.276 0-.5-.224-.5-.5v-7c0-.276.224-.5.5-.5h3c.276 0 .5.224.5.5v7c0 .276-.224.5-.5.5zm-2.5-1h2v-6h-2z" fill="#212a41"/><path d="m29.5 32h5v20h-5z" fill="#b7c0d7"/><path d="m34.5 52.5h-5c-.276 0-.5-.224-.5-.5v-20c0-.276.224-.5.5-.5h5c.276 0 .5.224.5.5v20c0 .276-.224.5-.5.5zm-4.5-1h4v-19h-4z" fill="#212a41"/><path d="m28 22h8v3h-8z" fill="#e0e0e0"/><path d="m36 25.5h-8c-.276 0-.5-.224-.5-.5v-3c0-.276.224-.5.5-.5h8c.276 0 .5.224.5.5v3c0 .276-.224.5-.5.5zm-7.5-1h7v-2h-7z" fill="#212a41"/><path d="m45.5 25h3v7h-3z" fill="#e0e0e0"/><path d="m48.5 32.5h-3c-.276 0-.5-.224-.5-.5v-7c0-.276.224-.5.5-.5h3c.276 0 .5.224.5.5v7c0 .276-.224.5-.5.5zm-2.5-1h2v-6h-2z" fill="#212a41"/><path d="m44.5 32h5v20h-5z" fill="#b7c0d7"/><path d="m49.5 52.5h-5c-.276 0-.5-.224-.5-.5v-20c0-.276.224-.5.5-.5h5c.276 0 .5.224.5.5v20c0 .276-.224.5-.5.5zm-4.5-1h4v-19h-4z" fill="#212a41"/><path d="m43 22h8v3h-8z" fill="#e0e0e0"/><path d="m51 25.5h-8c-.276 0-.5-.224-.5-.5v-3c0-.276.224-.5.5-.5h8c.276 0 .5.224.5.5v3c0 .276-.224.5-.5.5zm-7.5-1h7v-2h-7z" fill="#212a41"/><path d="m49.5 36h3v8h-3z" fill="#b7c0d7"/><path d="m52.5 44.5h-3c-.276 0-.5-.224-.5-.5v-8c0-.276.224-.5.5-.5h3c.276 0 .5.224.5.5v8c0 .276-.224.5-.5.5zm-2.5-1h2v-7h-2z" fill="#212a41"/><path d="m34.5 36h3v8h-3z" fill="#b7c0d7"/><g fill="#212a41"><path d="m37.5 44.5h-3c-.276 0-.5-.224-.5-.5v-8c0-.276.224-.5.5-.5h3c.276 0 .5.224.5.5v8c0 .276-.224.5-.5.5zm-2.5-1h2v-7h-2z"/><path d="m55 52.5c-.276 0-.5-.224-.5-.5v-10c0-.827-.673-1.5-1.5-1.5h-.5c-.276 0-.5-.224-.5-.5s.224-.5.5-.5h.5c1.378 0 2.5 1.121 2.5 2.5v10c0 .276-.224.5-.5.5z"/><path d="m40 52.5c-.276 0-.5-.224-.5-.5v-10c0-.827-.673-1.5-1.5-1.5h-.5c-.276 0-.5-.224-.5-.5s.224-.5.5-.5h.5c1.378 0 2.5 1.121 2.5 2.5v10c0 .276-.224.5-.5.5z"/></g><path d="m19.5 36h3v8h-3z" fill="#b7c0d7"/><path d="m22.5 44.5h-3c-.276 0-.5-.224-.5-.5v-8c0-.276.224-.5.5-.5h3c.276 0 .5.224.5.5v8c0 .276-.224.5-.5.5zm-2.5-1h2v-7h-2z" fill="#212a41"/><path d="m25 52.5c-.276 0-.5-.224-.5-.5v-10c0-.827-.673-1.5-1.5-1.5h-.5c-.276 0-.5-.224-.5-.5s.224-.5.5-.5h.5c1.378 0 2.5 1.121 2.5 2.5v10c0 .276-.224.5-.5.5z" fill="#212a41"/><path d="m16.998 50.5c-.276 0-.5-.224-.5-.5v-16c0-.276.224-.5.5-.5s.5.224.5.5v16c0 .276-.224.5-.5.5z" fill="#d5def5"/><path d="m31.998 50.5c-.276 0-.5-.224-.5-.5v-16c0-.276.224-.5.5-.5s.5.224.5.5v16c0 .276-.224.5-.5.5z" fill="#d5def5"/><path d="m46.998 50.5c-.276 0-.5-.224-.5-.5v-16c0-.276.224-.5.5-.5s.5.224.5.5v16c0 .276-.224.5-.5.5z" fill="#d5def5"/><path d="m19.5 36.5h-5c-.276 0-.5-.224-.5-.5s.224-.5.5-.5h5c.276 0 .5.224.5.5s-.224.5-.5.5z" fill="#212a41"/><path d="m34.5 36.5h-5c-.276 0-.5-.224-.5-.5s.224-.5.5-.5h5c.276 0 .5.224.5.5s-.224.5-.5.5z" fill="#212a41"/><path d="m49.5 36.5h-5c-.276 0-.5-.224-.5-.5s.224-.5.5-.5h5c.276 0 .5.224.5.5s-.224.5-.5.5z" fill="#212a41"/></svg>