<svg id="Icon_Set" enable-background="new 0 0 64 64" height="512" viewBox="0 0 64 64" width="512" xmlns="http://www.w3.org/2000/svg"><path d="m4 50h46v10h-46z" fill="#4e4b51"/><path d="m50 60.5h-46c-.276 0-.5-.224-.5-.5v-10c0-.276.224-.5.5-.5h46c.276 0 .5.224.5.5v10c0 .276-.224.5-.5.5zm-45.5-1h45v-9h-45z" fill="#212a41"/><path d="m50 29h-4c-.552 0-1-.448-1-1v-2c0-.552.448-1 1-1h4c.552 0 1 .448 1 1v2c0 .552-.448 1-1 1z" fill="#f9ac2f"/><path d="m50 29.5h-4c-.827 0-1.5-.673-1.5-1.5v-2c0-.827.673-1.5 1.5-1.5h4c.827 0 1.5.673 1.5 1.5v2c0 .827-.673 1.5-1.5 1.5zm-4-4c-.275 0-.5.224-.5.5v2c0 .276.225.5.5.5h4c.275 0 .5-.224.5-.5v-2c0-.276-.225-.5-.5-.5z" fill="#212a41"/><path d="m52 34h-5v16h5c2.209 0 4-3.582 4-8s-1.791-8-4-8z" fill="#6c696f"/><path d="m52 50.5h-5c-.276 0-.5-.224-.5-.5v-16c0-.276.224-.5.5-.5h5c2.523 0 4.5 3.733 4.5 8.5s-1.977 8.5-4.5 8.5zm-4.5-1h4.5c1.897 0 3.5-3.435 3.5-7.5s-1.603-7.5-3.5-7.5h-4.5z" fill="#212a41"/><ellipse cx="47" cy="42" fill="#4e4b51" rx="4" ry="8"/><path d="m47 50.5c-2.523 0-4.5-3.733-4.5-8.5s1.977-8.5 4.5-8.5 4.5 3.733 4.5 8.5-1.977 8.5-4.5 8.5zm0-16c-1.897 0-3.5 3.435-3.5 7.5s1.603 7.5 3.5 7.5 3.5-3.435 3.5-7.5-1.603-7.5-3.5-7.5z" fill="#212a41"/><ellipse cx="47" cy="42" fill="#848483" rx="2" ry="6"/><path d="m47 48.5c-1.642 0-2.5-3.27-2.5-6.5s.858-6.5 2.5-6.5 2.5 3.27 2.5 6.5-.858 6.5-2.5 6.5zm0-12c-.509 0-1.5 1.941-1.5 5.5s.991 5.5 1.5 5.5 1.5-1.941 1.5-5.5-.991-5.5-1.5-5.5z" fill="#212a41"/><path d="m18 34h-5v16h5c2.209 0 4-3.582 4-8s-1.791-8-4-8z" fill="#6c696f"/><path d="m18 50.5h-5c-.276 0-.5-.224-.5-.5v-16c0-.276.224-.5.5-.5h5c2.523 0 4.5 3.733 4.5 8.5s-1.977 8.5-4.5 8.5zm-4.5-1h4.5c1.897 0 3.5-3.435 3.5-7.5s-1.603-7.5-3.5-7.5h-4.5z" fill="#212a41"/><path d="m13 27 10.999 3.666c.626.209 1.109.713 1.291 1.348l1.71 5.986h32l-1.71-5.986c-.181-.635-.664-1.139-1.291-1.348l-10.999-3.666z" fill="#f9ac2f"/><path d="m59 38.5h-32c-.223 0-.419-.148-.481-.363l-1.71-5.986c-.136-.476-.498-.854-.968-1.01l-11-3.667c-.232-.077-.375-.312-.335-.554s.249-.42.494-.42h32c.054 0 .107.009.158.026l10.999 3.667c.783.26 1.386.89 1.613 1.684l1.71 5.986c.043.151.013.313-.081.438s-.242.199-.399.199zm-31.623-1h30.96l-1.527-5.349c-.137-.477-.499-.854-.969-1.01l-10.922-3.641h-28.838l8.076 2.692c.783.26 1.386.89 1.613 1.684z" fill="#212a41"/><path d="m4 17h27.552c.936 0 1.842.328 2.561.927l10.887 9.073h-32z" fill="#6c696f"/><path d="m45 27.5h-32c-.142 0-.277-.06-.372-.166l-9-10c-.132-.147-.166-.357-.085-.538.081-.18.26-.296.457-.296h27.552c1.051 0 2.073.371 2.881 1.043l10.888 9.073c.161.135.222.356.149.555-.072.197-.259.329-.47.329zm-31.777-1h30.396l-9.827-8.188c-.628-.523-1.423-.812-2.24-.812h-26.429z" fill="#212a41"/><path d="m13.891 25.5c-.137 0-.273-.056-.372-.166l-5.4-6c-.185-.205-.168-.521.037-.706s.521-.169.706.037l5.4 6c.185.205.168.521-.037.706-.096.087-.215.129-.334.129z" fill="#8a878d"/><path d="m39.476 25.5c-.113 0-.227-.038-.32-.116l-6.644-5.536c-.212-.177-.241-.492-.064-.705.176-.212.491-.241.705-.064l6.644 5.536c.212.177.24.492.063.705-.099.119-.242.18-.384.18z" fill="#4e4b51"/><path d="m4 38h31v9h-31z" fill="#db8e11"/><path d="m35 47.5h-31c-.276 0-.5-.224-.5-.5v-9c0-.276.224-.5.5-.5h31c.276 0 .5.224.5.5v9c0 .276-.224.5-.5.5zm-30.5-1h30v-8h-30z" fill="#212a41"/><path d="m4 27v11h23l-1.71-5.986c-.181-.635-.664-1.139-1.291-1.348l-10.999-3.666z" fill="#db8e11"/><path d="m27 38.5h-23c-.276 0-.5-.224-.5-.5v-11c0-.276.224-.5.5-.5h9c.054 0 .107.009.158.026l10.999 3.667c.783.26 1.386.89 1.613 1.684l1.71 5.986c.043.151.013.313-.082.438-.093.125-.241.199-.398.199zm-22.5-1h21.837l-1.528-5.349c-.136-.476-.498-.854-.968-1.01l-10.922-3.641h-8.419z" fill="#212a41"/><path d="m24.348 36.5c-.217 0-.417-.143-.48-.363l-.981-3.437c-.076-.266.078-.542.344-.618.263-.071.542.078.618.344l.981 3.437c.076.266-.078.542-.344.618-.046.013-.092.019-.138.019z" fill="#bd7000"/><ellipse cx="13" cy="42" fill="#4e4b51" rx="4" ry="8"/><path d="m13 50.5c-2.523 0-4.5-3.733-4.5-8.5s1.977-8.5 4.5-8.5 4.5 3.733 4.5 8.5-1.977 8.5-4.5 8.5zm0-16c-1.897 0-3.5 3.435-3.5 7.5s1.603 7.5 3.5 7.5 3.5-3.435 3.5-7.5-1.603-7.5-3.5-7.5z" fill="#212a41"/><ellipse cx="13" cy="42" fill="#848483" rx="2" ry="6"/><path d="m13 48.5c-1.641 0-2.5-3.27-2.5-6.5s.859-6.5 2.5-6.5 2.5 3.27 2.5 6.5-.859 6.5-2.5 6.5zm0-12c-.509 0-1.5 1.941-1.5 5.5s.991 5.5 1.5 5.5 1.5-1.941 1.5-5.5-.991-5.5-1.5-5.5z" fill="#212a41"/><path d="m57.228 32.138c-.01-.049-.034-.091-.047-.138h-31.897c.001.005.005.009.006.014l.853 2.986h31.95z" fill="#e0e0e0"/><path d="m58.093 35.5h-31.95c-.223 0-.419-.148-.481-.363l-.853-2.986c-.045-.151-.019-.319.076-.446.094-.127.241-.206.399-.206h31.897c.227 0 .425.152.483.371.02.048.035.092.047.138l.86 2.847c.046.151.018.315-.077.442-.094.128-.243.203-.401.203zm-31.573-1h30.899l-.604-2h-30.868z" fill="#212a41"/><path d="m49 38h-12l-2-6h16z" fill="#6c696f"/><path d="m49 38.5h-12c-.215 0-.406-.138-.475-.342l-2-6c-.051-.152-.025-.32.069-.451.094-.13.245-.207.406-.207h16c.161 0 .312.077.405.208.095.13.12.298.069.451l-2 6c-.068.203-.259.341-.474.341zm-11.64-1h11.28l1.667-5h-14.614z" fill="#212a41"/><path d="m59 38h-32c-.552 0-1 .448-1 1v7c0 .552.448 1 1 1h9l2-2h10l2 2h9c.552 0 1-.448 1-1v-7c0-.552-.448-1-1-1z" fill="#f9ac2f"/><path d="m59 47.5h-9c-.133 0-.26-.053-.354-.146l-1.853-1.854h-9.586l-1.854 1.854c-.093.093-.22.146-.353.146h-9c-.827 0-1.5-.673-1.5-1.5v-7c0-.827.673-1.5 1.5-1.5h32c.827 0 1.5.673 1.5 1.5v7c0 .827-.673 1.5-1.5 1.5zm-8.793-1h8.793c.275 0 .5-.224.5-.5v-7c0-.276-.225-.5-.5-.5h-32c-.276 0-.5.224-.5.5v7c0 .276.224.5.5.5h8.793l1.854-1.854c.093-.093.22-.146.353-.146h10c.133 0 .26.053.354.146z" fill="#212a41"/><path d="m4 17 9.266 10h-9.266z" fill="#4e4b51"/><path d="m13.266 27.5h-9.266c-.276 0-.5-.224-.5-.5v-10c0-.206.126-.391.317-.465.192-.076.409-.025.549.125l9.266 10c.135.146.171.358.091.54-.078.182-.258.3-.457.3zm-8.766-1h7.621l-7.621-8.225z" fill="#212a41"/><path d="m35 44h-6v-3h7z" fill="#6c696f"/><path d="m35 44.5h-6c-.276 0-.5-.224-.5-.5v-3c0-.276.224-.5.5-.5h7c.161 0 .312.077.405.208.095.13.12.298.069.451l-1 3c-.068.203-.259.341-.474.341zm-5.5-1h5.14l.667-2h-5.807z" fill="#212a41"/><path d="m57 44h-6l-1-3h7z" fill="#6c696f"/><path d="m57 44.5h-6c-.215 0-.406-.138-.475-.342l-1-3c-.051-.152-.025-.32.069-.451.094-.13.245-.207.406-.207h7c.276 0 .5.224.5.5v3c0 .276-.224.5-.5.5zm-5.64-1h5.14v-2h-5.807z" fill="#212a41"/><path d="m14 50h46v10h-46z" fill="#6c696f"/><path d="m60 60.5h-46c-.276 0-.5-.224-.5-.5v-10c0-.276.224-.5.5-.5h46c.276 0 .5.224.5.5v10c0 .276-.224.5-.5.5zm-45.5-1h45v-9h-45z" fill="#212a41"/><path d="m43 9c0 1.105.895 2 2 2h8c1.105 0 2-.895 2-2 0-1.105-.895-2-2-2h-1.042c0-1.657-1.343-3-3-3s-3 1.343-3 3h-.958c-1.105 0-2 .895-2 2z" fill="#99a2b9"/><path d="m53 11.5h-8c-1.379 0-2.5-1.122-2.5-2.5s1.121-2.5 2.5-2.5h.493c.244-1.694 1.705-3 3.465-3s3.221 1.306 3.465 3h.577c1.379 0 2.5 1.122 2.5 2.5s-1.121 2.5-2.5 2.5zm-8-4c-.827 0-1.5.673-1.5 1.5s.673 1.5 1.5 1.5h8c.827 0 1.5-.673 1.5-1.5s-.673-1.5-1.5-1.5h-1.042c-.276 0-.5-.224-.5-.5 0-1.378-1.121-2.5-2.5-2.5s-2.5 1.122-2.5 2.5c0 .276-.224.5-.5.5z" fill="#212a41"/><path d="m56.958 7c0-1.657-1.343-3-3-3s-3 1.343-3 3h-.958c-1.105 0-2 .895-2 2 0 1.105.895 2 2 2h8c1.105 0 2-.895 2-2 0-1.105-.895-2-2-2z" fill="#b7c0d7"/><path d="m58 11.5h-8c-1.379 0-2.5-1.122-2.5-2.5s1.121-2.5 2.5-2.5h.493c.244-1.694 1.705-3 3.465-3s3.221 1.306 3.465 3h.577c1.379 0 2.5 1.122 2.5 2.5s-1.121 2.5-2.5 2.5zm-8-4c-.827 0-1.5.673-1.5 1.5s.673 1.5 1.5 1.5h8c.827 0 1.5-.673 1.5-1.5s-.673-1.5-1.5-1.5h-1.042c-.276 0-.5-.224-.5-.5 0-1.378-1.121-2.5-2.5-2.5s-2.5 1.122-2.5 2.5c0 .276-.224.5-.5.5zm7.458-.5h.01z" fill="#212a41"/><path d="m28 45.5c-.276 0-.5-.224-.5-.5v-5c0-.276.224-.5.5-.5s.5.224.5.5v5c0 .276-.224.5-.5.5z" fill="#ffca4d"/><path d="m58 45.5c-.276 0-.5-.224-.5-.5v-5c0-.276.224-.5.5-.5s.5.224.5.5v5c0 .276-.224.5-.5.5z" fill="#db8e11"/><path d="m6 36.5c-.276 0-.5-.224-.5-.5v-7c0-.276.224-.5.5-.5s.5.224.5.5v7c0 .276-.224.5-.5.5z" fill="#f9ac2f"/><path d="m6 45.5c-.276 0-.5-.224-.5-.5v-5c0-.276.224-.5.5-.5s.5.224.5.5v5c0 .276-.224.5-.5.5z" fill="#f9ac2f"/><path d="m24 45.5c-.276 0-.5-.224-.5-.5v-5c0-.276.224-.5.5-.5s.5.224.5.5v5c0 .276-.224.5-.5.5z" fill="#bd7000"/><path d="m9 29h-4c-.552 0-1-.448-1-1v-2c0-.552.448-1 1-1h4c.552 0 1 .448 1 1v2c0 .552-.448 1-1 1z" fill="#f9ac2f"/><path d="m9 29.5h-4c-.827 0-1.5-.673-1.5-1.5v-2c0-.827.673-1.5 1.5-1.5h4c.827 0 1.5.673 1.5 1.5v2c0 .827-.673 1.5-1.5 1.5zm-4-4c-.276 0-.5.224-.5.5v2c0 .276.224.5.5.5h4c.276 0 .5-.224.5-.5v-2c0-.276-.224-.5-.5-.5z" fill="#212a41"/><path d="m58 58.5c-.276 0-.5-.224-.5-.5v-6c0-.276.224-.5.5-.5s.5.224.5.5v6c0 .276-.224.5-.5.5z" fill="#4e4b51"/><path d="m16 58.5c-.276 0-.5-.224-.5-.5v-6c0-.276.224-.5.5-.5s.5.224.5.5v6c0 .276-.224.5-.5.5z" fill="#8a878d"/><path d="m6 58.5c-.276 0-.5-.224-.5-.5v-6c0-.276.224-.5.5-.5s.5.224.5.5v6c0 .276-.224.5-.5.5z" fill="#6c696f"/></svg>