<svg id="Icon_Set" enable-background="new 0 0 64 64" height="512" viewBox="0 0 64 64" width="512" xmlns="http://www.w3.org/2000/svg"><path d="m40 14h-18c-.552 0-1-.448-1-1v-4c0-.552.448-1 1-1h18c.552 0 1 .448 1 1v4c0 .552-.448 1-1 1z" fill="#4e4b51"/><path d="m40 14.5h-18c-.827 0-1.5-.673-1.5-1.5v-4c0-.827.673-1.5 1.5-1.5h18c.827 0 1.5.673 1.5 1.5v4c0 .827-.673 1.5-1.5 1.5zm-18-6c-.276 0-.5.224-.5.5v4c0 .276.224.5.5.5h18c.276 0 .5-.224.5-.5v-4c0-.276-.224-.5-.5-.5z" fill="#212a41"/><path d="m60 56.5h-8c-.276 0-.5-.224-.5-.5v-48c0-.276.224-.5.5-.5h8c.276 0 .5.224.5.5v48c0 .276-.224.5-.5.5zm-7.5-1h7v-47h-7z" fill="#212a41"/><path d="m52 56.5c-.128 0-.256-.049-.354-.146-.195-.195-.195-.512 0-.707l7.647-7.647-7.646-7.646c-.195-.195-.195-.512 0-.707l7.646-7.647-7.646-7.646c-.195-.195-.195-.512 0-.707l7.646-7.647-7.646-7.646c-.195-.195-.195-.512 0-.707s.512-.195.707 0l8 8c.195.195.195.512 0 .707l-7.647 7.646 7.646 7.646c.195.195.195.512 0 .707l-7.646 7.647 7.646 7.646c.195.195.195.512 0 .707l-8 8c-.097.098-.225.147-.353.147z" fill="#212a41"/><path d="m60 56.5c-.128 0-.256-.049-.354-.146l-8-8c-.195-.195-.195-.512 0-.707l7.647-7.647-7.646-7.646c-.195-.195-.195-.512 0-.707l7.646-7.647-7.646-7.646c-.195-.195-.195-.512 0-.707l8-8c.195-.195.512-.195.707 0s.195.512 0 .707l-7.647 7.646 7.646 7.646c.195.195.195.512 0 .707l-7.646 7.647 7.646 7.646c.195.195.195.512 0 .707l-7.646 7.647 7.646 7.646c.195.195.195.512 0 .707-.097.098-.225.147-.353.147z" fill="#212a41"/><path d="m12 14h40v12h-40z" fill="#c2c2c2"/><path d="m52 26.5h-40c-.276 0-.5-.224-.5-.5v-12c0-.276.224-.5.5-.5h40c.276 0 .5.224.5.5v12c0 .276-.224.5-.5.5zm-39.5-1h39v-11h-39z" fill="#212a41"/><path d="m12 56.5h-8c-.276 0-.5-.224-.5-.5v-48c0-.276.224-.5.5-.5h8c.276 0 .5.224.5.5v48c0 .276-.224.5-.5.5zm-7.5-1h7v-47h-7z" fill="#212a41"/><path d="m15 14h40v12h-40z" fill="#e0e0e0"/><g fill="#212a41"><path d="m55 26.5h-40c-.276 0-.5-.224-.5-.5v-12c0-.276.224-.5.5-.5h40c.276 0 .5.224.5.5v12c0 .276-.224.5-.5.5zm-39.5-1h39v-11h-39z"/><path d="m4 56.5c-.128 0-.256-.049-.354-.146-.195-.195-.195-.512 0-.707l7.647-7.647-7.646-7.646c-.195-.195-.195-.512 0-.707l7.646-7.647-7.646-7.646c-.195-.195-.195-.512 0-.707l7.646-7.647-7.647-7.646c-.195-.195-.195-.512 0-.707s.512-.195.707 0l8 8c.195.195.195.512 0 .707l-7.646 7.646 7.646 7.646c.195.195.195.512 0 .707l-7.646 7.647 7.646 7.646c.195.195.195.512 0 .707l-8 8c-.097.098-.225.147-.353.147z"/><path d="m12 56.5c-.128 0-.256-.049-.354-.146l-8-8c-.195-.195-.195-.512 0-.707l7.647-7.647-7.646-7.646c-.195-.195-.195-.512 0-.707l7.646-7.647-7.646-7.646c-.195-.195-.195-.512 0-.707l8-8c.195-.195.512-.195.707 0s.195.512 0 .707l-7.647 7.646 7.646 7.646c.195.195.195.512 0 .707l-7.646 7.647 7.646 7.646c.195.195.195.512 0 .707l-7.646 7.647 7.646 7.646c.195.195.195.512 0 .707-.097.098-.225.147-.353.147z"/><path d="m24 23.479h-3c-.276 0-.5-.224-.5-.5s.224-.5.5-.5h3c.276 0 .5-.224.5-.5v-1c0-.276-.224-.5-.5-.5h-2c-.827 0-1.5-.673-1.5-1.5v-1c0-.827.673-1.5 1.5-1.5h3c.276 0 .5.224.5.5s-.224.5-.5.5h-3c-.276 0-.5.224-.5.5v1c0 .276.224.5.5.5h2c.827 0 1.5.673 1.5 1.5v1c0 .828-.673 1.5-1.5 1.5z"/><path d="m31 17.479h-4c-.276 0-.5-.224-.5-.5s.224-.5.5-.5h4c.276 0 .5.224.5.5s-.224.5-.5.5z"/><path d="m29 23.479c-.276 0-.5-.224-.5-.5v-6c0-.276.224-.5.5-.5s.5.224.5.5v6c0 .277-.224.5-.5.5z"/><path d="m49 17.479h-4c-.276 0-.5-.224-.5-.5s.224-.5.5-.5h4c.276 0 .5.224.5.5s-.224.5-.5.5z"/><path d="m47 23.479c-.276 0-.5-.224-.5-.5v-6c0-.276.224-.5.5-.5s.5.224.5.5v6c0 .277-.224.5-.5.5z"/><path d="m43 23.479c-.162 0-.32-.078-.417-.223l-2-3c-.102-.153-.112-.351-.025-.513s.256-.264.441-.264h1c.276 0 .5-.224.5-.5v-1c0-.276-.224-.5-.5-.5h-2.5v5.5c0 .276-.224.5-.5.5s-.5-.224-.5-.5v-6c0-.276.224-.5.5-.5h3c.827 0 1.5.673 1.5 1.5v1c0 .827-.673 1.5-1.5 1.5h-.066l1.482 2.223c.153.23.091.54-.139.693-.084.057-.18.084-.276.084z"/><path d="m36 23.479c-.209 0-.404-.132-.474-.342l-1.526-4.576-1.526 4.577c-.087.262-.368.404-.632.316-.262-.087-.403-.37-.316-.632l2-6c.136-.408.812-.408.948 0l2 6c.087.262-.054.545-.316.632-.053.017-.106.025-.158.025z"/></g><path d="m44 14h-18c-.552 0-1-.448-1-1v-4c0-.552.448-1 1-1h18c.552 0 1 .448 1 1v4c0 .552-.448 1-1 1z" fill="#6c696f"/><path d="m44 14.5h-18c-.827 0-1.5-.673-1.5-1.5v-4c0-.827.673-1.5 1.5-1.5h18c.827 0 1.5.673 1.5 1.5v4c0 .827-.673 1.5-1.5 1.5zm-18-6c-.276 0-.5.224-.5.5v4c0 .276.224.5.5.5h18c.276 0 .5-.224.5-.5v-4c0-.276-.224-.5-.5-.5z" fill="#212a41"/><circle cx="30" cy="11.031" fill="#d32e5e" r="2"/><path d="m30 13.531c-1.378 0-2.5-1.122-2.5-2.5s1.122-2.5 2.5-2.5 2.5 1.122 2.5 2.5-1.122 2.5-2.5 2.5zm0-4c-.827 0-1.5.673-1.5 1.5s.673 1.5 1.5 1.5 1.5-.673 1.5-1.5-.673-1.5-1.5-1.5z" fill="#212a41"/><circle cx="35" cy="11.031" fill="#f9ac2f" r="2"/><path d="m35 13.531c-1.378 0-2.5-1.122-2.5-2.5s1.122-2.5 2.5-2.5 2.5 1.122 2.5 2.5-1.122 2.5-2.5 2.5zm0-4c-.827 0-1.5.673-1.5 1.5s.673 1.5 1.5 1.5 1.5-.673 1.5-1.5-.673-1.5-1.5-1.5z" fill="#212a41"/><circle cx="40" cy="11.031" fill="#bed38e" r="2"/><path d="m40 13.531c-1.378 0-2.5-1.122-2.5-2.5s1.122-2.5 2.5-2.5 2.5 1.122 2.5 2.5-1.122 2.5-2.5 2.5zm0-4c-.827 0-1.5.673-1.5 1.5s.673 1.5 1.5 1.5 1.5-.673 1.5-1.5-.673-1.5-1.5-1.5z" fill="#212a41"/><path d="m17 24.5c-.276 0-.5-.224-.5-.5v-8c0-.276.224-.5.5-.5s.5.224.5.5v8c0 .276-.224.5-.5.5z" fill="#fefefe"/><path d="m17 24.5c-.276 0-.5-.224-.5-.5v-8c0-.276.224-.5.5-.5s.5.224.5.5v8c0 .276-.224.5-.5.5z" fill="#fefefe"/><path d="m53 24.5c-.276 0-.5-.224-.5-.5v-8c0-.276.224-.5.5-.5s.5.224.5.5v8c0 .276-.224.5-.5.5z" fill="#c2c2c2"/></svg>