<svg id="Icon_Set" enable-background="new 0 0 64 64" height="512" viewBox="0 0 64 64" width="512" xmlns="http://www.w3.org/2000/svg"><path d="m30 12c-13.255 0-24 10.745-24 24s10.745 24 24 24 24-10.745 24-24-10.745-24-24-24z" fill="#99a2b9"/><path d="m30 60.5c-13.509 0-24.5-10.99-24.5-24.5s10.991-24.5 24.5-24.5c13.51 0 24.5 10.99 24.5 24.5s-10.99 24.5-24.5 24.5zm0-48c-12.958 0-23.5 10.542-23.5 23.5s10.542 23.5 23.5 23.5 23.5-10.542 23.5-23.5-10.542-23.5-23.5-23.5z" fill="#212a41"/><path d="m34 12c-13.255 0-24 10.745-24 24s10.745 24 24 24 24-10.745 24-24-10.745-24-24-24z" fill="#b7c0d7"/><path d="m34 60.5c-13.509 0-24.5-10.99-24.5-24.5s10.991-24.5 24.5-24.5c13.51 0 24.5 10.99 24.5 24.5s-10.99 24.5-24.5 24.5zm0-48c-12.958 0-23.5 10.542-23.5 23.5s10.542 23.5 23.5 23.5 23.5-10.542 23.5-23.5-10.542-23.5-23.5-23.5z" fill="#212a41"/><path d="m34 15c-11.598 0-21 9.402-21 21s9.402 21 21 21 21-9.402 21-21-9.402-21-21-21z" fill="#e0e0e0"/><path d="m34 57.5c-11.855 0-21.5-9.645-21.5-21.5s9.645-21.5 21.5-21.5 21.5 9.645 21.5 21.5-9.645 21.5-21.5 21.5zm0-42c-11.304 0-20.5 9.196-20.5 20.5s9.196 20.5 20.5 20.5 20.5-9.196 20.5-20.5-9.196-20.5-20.5-20.5z" fill="#212a41"/><path d="m15 36.5c-.276 0-.5-.224-.5-.5 0-10.752 8.748-19.5 19.5-19.5.276 0 .5.224.5.5s-.224.5-.5.5c-10.201 0-18.5 8.299-18.5 18.5 0 .276-.224.5-.5.5z" fill="#fefefe"/><path d="m34 55.5c-.276 0-.5-.224-.5-.5s.224-.5.5-.5c10.201 0 18.5-8.299 18.5-18.5 0-.276.224-.5.5-.5s.5.224.5.5c0 10.752-8.748 19.5-19.5 19.5z" fill="#c2c2c2"/><path d="m36 9h-12c-.552 0-1-.448-1-1v-3c0-.552.448-1 1-1h12c.552 0 1 .448 1 1v3c0 .552-.448 1-1 1z" fill="#99a2b9"/><path d="m36 9.5h-12c-.827 0-1.5-.673-1.5-1.5v-3c0-.827.673-1.5 1.5-1.5h12c.827 0 1.5.673 1.5 1.5v3c0 .827-.673 1.5-1.5 1.5zm-12-5c-.276 0-.5.225-.5.5v3c0 .275.224.5.5.5h12c.275 0 .5-.225.5-.5v-3c0-.275-.225-.5-.5-.5z" fill="#212a41"/><path d="m26.5 9h8v3h-8z" fill="#99a2b9"/><g fill="#212a41"><path d="m34.5 12.5h-8c-.276 0-.5-.224-.5-.5v-3c0-.276.224-.5.5-.5h8c.276 0 .5.224.5.5v3c0 .276-.224.5-.5.5zm-7.5-1h7v-2h-7z"/><path d="m34 57.5c-.276 0-.5-.224-.5-.5v-4c0-.276.224-.5.5-.5s.5.224.5.5v4c0 .276-.224.5-.5.5z"/><path d="m34 19.5c-.276 0-.5-.224-.5-.5v-4c0-.276.224-.5.5-.5s.5.224.5.5v4c0 .276-.224.5-.5.5z"/><path d="m17 36.5h-4c-.276 0-.5-.224-.5-.5s.224-.5.5-.5h4c.276 0 .5.224.5.5s-.224.5-.5.5z"/><path d="m55 36.5h-4c-.276 0-.5-.224-.5-.5s.224-.5.5-.5h4c.276 0 .5.224.5.5s-.224.5-.5.5z"/><path d="m21.979 24.479c-.128 0-.256-.049-.354-.146l-2.828-2.829c-.195-.195-.195-.512 0-.707s.512-.195.707 0l2.828 2.829c.195.195.195.512 0 .707-.097.098-.225.146-.353.146z"/><path d="m48.85 51.35c-.128 0-.256-.049-.354-.146l-2.829-2.829c-.195-.195-.195-.512 0-.707s.512-.195.707 0l2.829 2.829c.195.195.195.512 0 .707-.098.097-.225.146-.353.146z"/><path d="m46.021 24.479c-.128 0-.256-.049-.354-.146-.195-.195-.195-.512 0-.707l2.829-2.829c.195-.195.512-.195.707 0s.195.512 0 .707l-2.829 2.829c-.098.098-.226.146-.353.146z"/><path d="m19.151 51.35c-.128 0-.256-.049-.354-.146-.195-.195-.195-.512 0-.707l2.828-2.829c.195-.195.512-.195.707 0s.195.512 0 .707l-2.828 2.829c-.097.097-.225.146-.353.146z"/></g><path d="m34.5 36h-1c-.552 0-1-.448-1-1v-12c0-.552.448-1 1-1h1c.552 0 1 .448 1 1v12c0 .552-.448 1-1 1z" fill="#f9ac2f"/><path d="m34.5 36.5h-1c-.827 0-1.5-.673-1.5-1.5v-12c0-.827.673-1.5 1.5-1.5h1c.827 0 1.5.673 1.5 1.5v12c0 .827-.673 1.5-1.5 1.5zm-1-14c-.275 0-.5.225-.5.5v12c0 .275.225.5.5.5h1c.275 0 .5-.225.5-.5v-12c0-.275-.225-.5-.5-.5z" fill="#212a41"/><path d="m34 33c-1.657 0-3 1.343-3 3s1.343 3 3 3 3-1.343 3-3-1.343-3-3-3z" fill="#0079a8"/><path d="m34 39.5c-1.93 0-3.5-1.57-3.5-3.5s1.57-3.5 3.5-3.5 3.5 1.57 3.5 3.5-1.57 3.5-3.5 3.5zm0-6c-1.378 0-2.5 1.121-2.5 2.5s1.122 2.5 2.5 2.5c1.379 0 2.5-1.121 2.5-2.5s-1.121-2.5-2.5-2.5z" fill="#212a41"/><path d="m40 9h-12c-.552 0-1-.448-1-1v-3c0-.552.448-1 1-1h12c.552 0 1 .448 1 1v3c0 .552-.448 1-1 1z" fill="#b7c0d7"/><path d="m40 9.5h-12c-.827 0-1.5-.673-1.5-1.5v-3c0-.827.673-1.5 1.5-1.5h12c.827 0 1.5.673 1.5 1.5v3c0 .827-.673 1.5-1.5 1.5zm-12-5c-.276 0-.5.225-.5.5v3c0 .275.224.5.5.5h12c.275 0 .5-.225.5-.5v-3c0-.275-.225-.5-.5-.5z" fill="#212a41"/><path d="m29.5 9h8v3h-8z" fill="#b7c0d7"/><path d="m37.5 12.5h-8c-.276 0-.5-.224-.5-.5v-3c0-.276.224-.5.5-.5h8c.276 0 .5.224.5.5v3c0 .276-.224.5-.5.5zm-7.5-1h7v-2h-7z" fill="#212a41"/></svg>