<svg id="Icon_Set" enable-background="new 0 0 64 64" height="512" viewBox="0 0 64 64" width="512" xmlns="http://www.w3.org/2000/svg"><circle cx="30.5" cy="56" fill="#c2c2c2" r="4"/><path d="m30.5 60.5c-2.481 0-4.5-2.019-4.5-4.5s2.019-4.5 4.5-4.5 4.5 2.019 4.5 4.5-2.019 4.5-4.5 4.5zm0-8c-1.93 0-3.5 1.57-3.5 3.5s1.57 3.5 3.5 3.5 3.5-1.57 3.5-3.5-1.57-3.5-3.5-3.5z" fill="#212a41"/><circle cx="33.5" cy="56" fill="#e0e0e0" r="4"/><path d="m33.5 60.5c-2.481 0-4.5-2.019-4.5-4.5s2.019-4.5 4.5-4.5 4.5 2.019 4.5 4.5-2.019 4.5-4.5 4.5zm0-8c-1.93 0-3.5 1.57-3.5 3.5s1.57 3.5 3.5 3.5 3.5-1.57 3.5-3.5-1.57-3.5-3.5-3.5z" fill="#212a41"/><circle cx="33.5" cy="56" fill="#c2c2c2" r="1.5"/><path d="m33.5 58c-1.103 0-2-.897-2-2s.897-2 2-2 2 .897 2 2-.897 2-2 2zm0-3c-.552 0-1 .449-1 1s.448 1 1 1 1-.449 1-1-.448-1-1-1z" fill="#212a41"/><circle cx="30.5" cy="8" fill="#c2c2c2" r="4"/><path d="m30.5 12.5c-2.481 0-4.5-2.019-4.5-4.5s2.019-4.5 4.5-4.5 4.5 2.019 4.5 4.5-2.019 4.5-4.5 4.5zm0-8c-1.93 0-3.5 1.57-3.5 3.5s1.57 3.5 3.5 3.5 3.5-1.57 3.5-3.5-1.57-3.5-3.5-3.5z" fill="#212a41"/><circle cx="33.5" cy="8" fill="#e0e0e0" r="4"/><path d="m33.5 12.5c-2.481 0-4.5-2.019-4.5-4.5s2.019-4.5 4.5-4.5 4.5 2.019 4.5 4.5-2.019 4.5-4.5 4.5zm0-8c-1.93 0-3.5 1.57-3.5 3.5s1.57 3.5 3.5 3.5 3.5-1.57 3.5-3.5-1.57-3.5-3.5-3.5z" fill="#212a41"/><circle cx="33.5" cy="8" fill="#c2c2c2" r="1.5"/><path d="m33.5 10c-1.103 0-2-.897-2-2s.897-2 2-2 2 .897 2 2-.897 2-2 2zm0-3c-.552 0-1 .449-1 1s.448 1 1 1 1-.449 1-1-.448-1-1-1z" fill="#212a41"/><path d="m25.913 42h8.007v10h-8.007z" fill="#c2c2c2"/><path d="m33.92 52.5h-8.008c-.276 0-.5-.224-.5-.5v-10c0-.276.224-.5.5-.5h8.008c.276 0 .5.224.5.5v10c0 .276-.224.5-.5.5zm-7.508-1h7.008v-9h-7.008z" fill="#212a41"/><path d="m34 42h-10c-1.105 0-2-.895-2-2v-26c0-1.105.895-2 2-2h10c1.105 0 2 .895 2 2v26c0 1.105-.896 2-2 2z" fill="#4e4b51"/><path d="m34 42.5h-10c-1.379 0-2.5-1.122-2.5-2.5v-26c0-1.378 1.121-2.5 2.5-2.5h10c1.379 0 2.5 1.122 2.5 2.5v26c0 1.378-1.121 2.5-2.5 2.5zm-10-30c-.827 0-1.5.673-1.5 1.5v26c0 .827.673 1.5 1.5 1.5h10c.827 0 1.5-.673 1.5-1.5v-26c0-.827-.673-1.5-1.5-1.5z" fill="#212a41"/><path d="m29.913 42h8.007v10h-8.007z" fill="#e0e0e0"/><path d="m37.92 52.5h-8.008c-.276 0-.5-.224-.5-.5v-10c0-.276.224-.5.5-.5h8.008c.276 0 .5.224.5.5v10c0 .276-.224.5-.5.5zm-7.508-1h7.008v-9h-7.008z" fill="#212a41"/><path d="m40 42h-10c-1.105 0-2-.895-2-2v-26c0-1.105.895-2 2-2h10c1.105 0 2 .895 2 2v26c0 1.105-.896 2-2 2z" fill="#6c696f"/><path d="m40 42.5h-10c-1.379 0-2.5-1.122-2.5-2.5v-26c0-1.378 1.121-2.5 2.5-2.5h10c1.379 0 2.5 1.122 2.5 2.5v26c0 1.378-1.121 2.5-2.5 2.5zm-10-30c-.827 0-1.5.673-1.5 1.5v26c0 .827.673 1.5 1.5 1.5h10c.827 0 1.5-.673 1.5-1.5v-26c0-.827-.673-1.5-1.5-1.5z" fill="#212a41"/><path d="m44.15 32.542-2.15.516v3.085l2.85-.684c.806-.193 1.303-1.003 1.109-1.809-.194-.805-1.003-1.303-1.809-1.108z" fill="#f9ac2f"/><path d="m42 36.643c-.111 0-.221-.037-.31-.107-.12-.095-.19-.239-.19-.393v-3.085c0-.231.158-.432.384-.486l2.15-.516c.519-.125 1.055-.04 1.509.238.457.279.777.72.902 1.24s.039 1.057-.24 1.512-.72.774-1.239.899l-2.849.684c-.039.009-.078.014-.117.014zm.5-3.191v2.057l2.232-.536c.537-.128.869-.669.74-1.206-.062-.26-.223-.481-.451-.621s-.499-.18-.754-.119c0 0 0 0-.001 0zm1.65-.91h.01z" fill="#212a41"/><path d="m30 40.5c-.276 0-.5-.224-.5-.5v-26c0-.276.224-.5.5-.5s.5.224.5.5v26c0 .276-.224.5-.5.5z" fill="#8a878d"/><path d="m24 40.5c-.276 0-.5-.224-.5-.5v-26c0-.276.224-.5.5-.5s.5.224.5.5v26c0 .276-.224.5-.5.5z" fill="#6c696f"/><path d="m40 40.5c-.276 0-.5-.224-.5-.5v-26c0-.276.224-.5.5-.5s.5.224.5.5v26c0 .276-.224.5-.5.5z" fill="#4e4b51"/><path d="m18.952 24.695c.605.477 1.383.647 2.131.468l.917-.22v-3.085l-1 .24v-.915l23.85-5.724c.806-.193 1.303-1.003 1.109-1.809-.193-.805-1.003-1.306-1.809-1.108l-24.234 5.816c-1.128.27-1.916 1.27-1.916 2.431v1.943c0 .77.347 1.486.952 1.963z" fill="#f9ac2f"/><path d="m20.494 25.732c-.665 0-1.314-.222-1.852-.645-.727-.572-1.143-1.431-1.143-2.356v-1.943c0-1.393.945-2.593 2.3-2.917l24.234-5.816c.514-.125 1.05-.042 1.506.235.458.279.779.721.905 1.243.257 1.072-.406 2.154-1.479 2.412l-22.752 5.46c.034.016.065.036.096.06.12.095.19.239.19.393v3.085c0 .231-.158.432-.383.486l-.917.22c-.233.056-.47.083-.705.083zm-1.232-1.43c.484.38 1.104.517 1.705.374l.533-.128v-2.057l-.383.092c-.151.035-.308.001-.427-.094-.12-.095-.19-.239-.19-.393v-.915c0-.231.158-.432.384-.486l23.85-5.724c.26-.062.479-.222.619-.45s.183-.496.12-.756c-.062-.262-.224-.483-.453-.623-.227-.137-.491-.18-.75-.117l-24.237 5.816c-.903.219-1.533 1.019-1.533 1.948v1.943c0 .616.277 1.189.762 1.57z" fill="#212a41"/><path d="m45.047 17.305c-.604-.477-1.38-.647-2.131-.468l-.916.22v3.085l1-.24v.915l-23.083 5.54c-1.129.271-1.917 1.271-1.917 2.432v1.943c0 .771.347 1.486.952 1.963s1.383.646 2.131.468l.917-.22v-3.085l-1 .24v-.915l23.084-5.54c1.128-.271 1.916-1.271 1.916-2.432v-1.943c0-.77-.347-1.486-.953-1.963z" fill="#f9ac2f"/><path d="m20.494 33.732c-.666 0-1.314-.222-1.852-.645-.727-.572-1.143-1.431-1.143-2.356v-1.943c0-1.393.945-2.593 2.3-2.917l21.986-5.276c-.034-.016-.065-.036-.096-.06-.12-.095-.19-.239-.19-.393v-3.085c0-.231.158-.432.383-.486l.917-.22c.899-.214 1.833-.01 2.558.562.727.572 1.143 1.431 1.143 2.356v1.943c0 1.393-.945 2.592-2.299 2.917l-21.987 5.276c.034.016.065.036.096.06.12.095.19.239.19.393v3.085c0 .231-.158.432-.383.486l-.917.22c-.234.056-.471.083-.706.083zm22.506-14.33c.111 0 .221.037.31.107.12.095.19.239.19.393v.915c0 .231-.158.432-.384.486l-23.084 5.54c-.902.217-1.532 1.017-1.532 1.946v1.943c0 .617.277 1.189.762 1.571.483.381 1.108.514 1.705.374l.533-.128v-2.057l-.383.092c-.151.035-.308.001-.427-.094-.12-.095-.19-.239-.19-.393v-.915c0-.231.158-.432.384-.486l23.084-5.54c.902-.217 1.532-1.017 1.532-1.945v-1.943c0-.617-.277-1.189-.762-1.571-.483-.381-1.106-.517-1.705-.374l-.533.129v2.057l.383-.092c.039-.01.078-.015.117-.015z" fill="#212a41"/><path d="m45.047 25.305c-.604-.477-1.38-.646-2.131-.468l-.916.22v3.085l1-.24v.915l-23.083 5.54c-1.129.271-1.917 1.271-1.917 2.432v1.943c0 .771.347 1.486.952 1.963.447.353.988.538 1.543.538.195 0 .393-.023.588-.07l.917-.22v-3.085l-1 .24v-.915l23.084-5.54c1.128-.271 1.916-1.271 1.916-2.432v-1.943c0-.77-.347-1.486-.953-1.963z" fill="#f9ac2f"/><path d="m20.495 41.732c-.677 0-1.317-.223-1.853-.645-.727-.572-1.143-1.431-1.143-2.356v-1.943c0-1.393.945-2.593 2.3-2.917l21.986-5.276c-.034-.016-.065-.036-.096-.06-.12-.095-.19-.239-.19-.393v-3.085c0-.231.158-.432.383-.486l.917-.22c.902-.213 1.834-.008 2.558.562.727.572 1.143 1.431 1.143 2.356v1.943c0 1.393-.945 2.592-2.299 2.917l-21.987 5.276c.034.016.065.036.096.06.12.095.19.239.19.393v3.085c0 .231-.158.432-.383.486l-.917.22c-.231.055-.469.083-.705.083zm22.505-14.33c.111 0 .221.037.31.107.12.095.19.239.19.393v.915c0 .231-.158.432-.384.486l-23.084 5.54c-.902.217-1.532 1.017-1.532 1.946v1.943c0 .617.277 1.189.762 1.571.483.38 1.107.516 1.705.374l.533-.128v-2.057l-.383.092c-.151.034-.308.001-.427-.094-.12-.095-.19-.239-.19-.393v-.915c0-.231.158-.432.384-.486l23.084-5.54c.902-.217 1.532-1.017 1.532-1.945v-1.943c0-.617-.277-1.189-.762-1.571-.483-.38-1.105-.517-1.706-.374l-.532.129v2.057l.383-.092c.039-.01.078-.015.117-.015z" fill="#212a41"/><path d="m31.92 50.5c-.276 0-.5-.224-.5-.5v-6c0-.276.224-.5.5-.5s.5.224.5.5v6c0 .276-.224.5-.5.5z" fill="#fefefe"/><path d="m35.92 50.5c-.276 0-.5-.224-.5-.5v-6c0-.276.224-.5.5-.5s.5.224.5.5v6c0 .276-.224.5-.5.5z" fill="#c2c2c2"/></svg>