<svg id="Icon_Set" enable-background="new 0 0 64 64" height="512" viewBox="0 0 64 64" width="512" xmlns="http://www.w3.org/2000/svg"><path d="m4 56v-32c0-2.209 1.791-4 4-4h44c2.209 0 4 1.791 4 4v32c0 2.209-1.791 4-4 4h-44c-2.209 0-4-1.791-4-4z" fill="#99a2b9"/><path d="m52 60.5h-44c-2.481 0-4.5-2.019-4.5-4.5v-32c0-2.481 2.019-4.5 4.5-4.5h44c2.481 0 4.5 2.019 4.5 4.5v32c0 2.481-2.019 4.5-4.5 4.5zm-44-40c-1.93 0-3.5 1.57-3.5 3.5v32c0 1.93 1.57 3.5 3.5 3.5h44c1.93 0 3.5-1.57 3.5-3.5v-32c0-1.93-1.57-3.5-3.5-3.5z" fill="#212a41"/><path d="m8 56v-32c0-2.209 1.791-4 4-4h44c2.209 0 4 1.791 4 4v32c0 2.209-1.791 4-4 4h-44c-2.209 0-4-1.791-4-4z" fill="#b7c0d7"/><path d="m56 60.5h-44c-2.481 0-4.5-2.019-4.5-4.5v-32c0-2.481 2.019-4.5 4.5-4.5h44c2.481 0 4.5 2.019 4.5 4.5v32c0 2.481-2.019 4.5-4.5 4.5zm-44-40c-1.93 0-3.5 1.57-3.5 3.5v32c0 1.93 1.57 3.5 3.5 3.5h44c1.93 0 3.5-1.57 3.5-3.5v-32c0-1.93-1.57-3.5-3.5-3.5z" fill="#212a41"/><path d="m12 24h44v32h-44z" fill="#0079a8"/><path d="m56 56.5h-44c-.276 0-.5-.224-.5-.5v-32c0-.276.224-.5.5-.5h44c.276 0 .5.224.5.5v32c0 .276-.224.5-.5.5zm-43.5-1h43v-31h-43z" fill="#212a41"/><path d="m54 54.5c-.276 0-.5-.224-.5-.5v-28c0-.276.224-.5.5-.5s.5.224.5.5v28c0 .276-.224.5-.5.5z" fill="#005b8a"/><path d="m14 54.5c-.276 0-.5-.224-.5-.5v-28c0-.276.224-.5.5-.5s.5.224.5.5v28c0 .276-.224.5-.5.5z" fill="#1e97c6"/><path d="m41.715 33.5h9v3h-9z" fill="#bed38e"/><g fill="#212a41"><path d="m50.715 37h-9c-.276 0-.5-.224-.5-.5v-3c0-.276.224-.5.5-.5h9c.276 0 .5.224.5.5v3c0 .276-.224.5-.5.5zm-8.5-1h8v-2h-8z"/><path d="m50.715 40.5h-9c-.276 0-.5-.224-.5-.5s.224-.5.5-.5h9c.276 0 .5.224.5.5s-.224.5-.5.5z"/><path d="m50.715 43.5h-9c-.276 0-.5-.224-.5-.5s.224-.5.5-.5h9c.276 0 .5.224.5.5s-.224.5-.5.5z"/><path d="m45.715 46.5h-4c-.276 0-.5-.224-.5-.5s.224-.5.5-.5h4c.276 0 .5.224.5.5s-.224.5-.5.5z"/><path d="m39.227 49.5h-22c-.276 0-.5-.224-.5-.5v-18c0-.276.224-.5.5-.5s.5.224.5.5v17.5h21.5c.276 0 .5.224.5.5s-.224.5-.5.5z"/><path d="m17.226 49.5c-.099 0-.199-.029-.286-.091-.227-.158-.281-.47-.123-.696l7-10c.151-.214.442-.274.667-.142l4.591 2.755 5.735-8.604c.154-.23.466-.29.693-.139.229.153.292.464.139.693l-6 9c-.148.222-.444.287-.673.151l-4.6-2.76-6.733 9.618c-.097.141-.252.215-.41.215z"/></g><circle cx="35.227" cy="33" fill="#d32e5e" r="1.5"/><path d="m35.227 35c-1.103 0-2-.897-2-2s.897-2 2-2 2 .897 2 2-.898 2-2 2zm0-3c-.552 0-1 .448-1 1s.448 1 1 1 1-.448 1-1-.449-1-1-1z" fill="#212a41"/><circle cx="24.227" cy="39" fill="#f9ac2f" r="1.5"/><path d="m24.227 41c-1.103 0-2-.897-2-2s.897-2 2-2 2 .897 2 2-.897 2-2 2zm0-3c-.551 0-1 .448-1 1s.449 1 1 1 1-.448 1-1-.449-1-1-1z" fill="#212a41"/><path d="m20.047 5.417h12v8h-12z" fill="#e0e0e0" transform="matrix(.966 -.259 .259 .966 -1.55 7.062)"/><path d="m21.287 15.333c-.221 0-.423-.147-.482-.37l-2.071-7.728c-.034-.129-.017-.265.05-.38s.176-.198.304-.233l11.591-3.105c.267-.064.542.088.612.354l2.071 7.728c.071.267-.087.54-.354.612l-11.591 3.105c-.044.011-.087.017-.13.017zm-1.458-7.874 1.812 6.762 10.625-2.847-1.812-6.762z" fill="#212a41"/><path d="m34.948 19.955c-.221 0-.423-.147-.483-.371l-2.07-7.727c-.071-.268.087-.541.354-.613.266-.065.541.087.613.354l2.07 7.728c.071.267-.087.54-.354.612-.044.011-.087.017-.13.017z" fill="#212a41"/><path d="m19.632 6.261h6v4h-6z" fill="#6c696f" transform="matrix(.966 -.259 .259 .966 -1.367 6.139)"/><path d="m20.251 11.47c-.221 0-.422-.147-.482-.37l-1.036-3.864c-.034-.129-.017-.265.05-.38s.176-.198.304-.233l5.796-1.553c.127-.032.264-.018.379.051.115.066.199.175.233.304l1.035 3.864c.071.267-.087.54-.354.612l-5.795 1.553c-.043.01-.087.016-.13.016zm-.422-4.011.777 2.898 4.83-1.294-.776-2.898z" fill="#212a41"/><path d="m26.463 8.572h6v4h-6z" fill="#6c696f" transform="matrix(.966 -.259 .259 .966 -1.732 7.986)"/><path d="m27.082 13.78c-.221 0-.423-.147-.482-.37l-1.035-3.863c-.071-.268.087-.541.354-.613l5.795-1.554c.127-.033.264-.017.379.051.115.065.199.175.233.304l1.036 3.864c.071.267-.087.54-.354.612l-5.796 1.553c-.044.01-.087.016-.13.016zm-.422-4.009.776 2.897 4.83-1.294-.776-2.898z" fill="#212a41"/><path d="m34.118 5.417h12v8h-12z" fill="#e0e0e0" transform="matrix(-.966 -.259 .259 -.966 76.432 28.896)"/><path d="m44.878 15.333c-.043 0-.087-.006-.13-.017l-11.591-3.105c-.266-.072-.424-.346-.353-.612l2.07-7.728c.035-.129.118-.237.233-.304.113-.066.25-.083.38-.051l11.591 3.105c.267.072.425.346.354.613l-2.07 7.728c-.035.128-.118.236-.233.303-.077.046-.164.068-.251.068zm-10.979-3.959 10.625 2.847 1.812-6.762-10.625-2.847z" fill="#212a41"/><path d="m31.217 19.955c-.043 0-.086-.006-.13-.017-.267-.072-.425-.346-.354-.613l2.071-7.728c.072-.266.344-.418.613-.354.267.072.425.346.354.613l-2.071 7.728c-.06.224-.262.371-.483.371z" fill="#212a41"/><path d="m40.533 6.261h6v4h-6z" fill="#6c696f" transform="matrix(-.966 -.259 .259 -.966 83.445 27.508)"/><path d="m45.913 11.47c-.043 0-.087-.006-.13-.017l-5.795-1.553c-.267-.072-.425-.346-.354-.612l1.035-3.864c.035-.129.118-.237.233-.304.113-.066.25-.083.38-.051l5.795 1.553c.267.072.425.346.354.612l-1.035 3.864c-.035.129-.118.237-.233.304-.076.045-.163.068-.25.068zm-5.183-2.407 4.829 1.294.776-2.898-4.829-1.294z" fill="#212a41"/><path d="m33.702 8.572h6v4h-6z" fill="#6c696f" transform="matrix(-.966 -.259 .259 -.966 69.418 30.283)"/><path d="m39.083 13.78c-.043 0-.086-.006-.129-.017l-5.796-1.553c-.267-.072-.425-.346-.354-.612l1.035-3.864c.035-.129.118-.238.233-.304.115-.067.25-.084.38-.051l5.796 1.554c.267.072.425.346.354.613l-1.035 3.863c-.061.224-.263.371-.484.371zm-5.184-2.406 4.83 1.294.776-2.897-4.83-1.295z" fill="#212a41"/></svg>