<svg id="Icon_Set" enable-background="new 0 0 64 64" height="512" viewBox="0 0 64 64" width="512" xmlns="http://www.w3.org/2000/svg"><path d="m4 53h38v6h-38z" fill="#4e4b51" transform="matrix(-1 0 0 -1 46 112)"/><path d="m42 59.5h-38c-.276 0-.5-.224-.5-.5v-6c0-.276.224-.5.5-.5h38c.276 0 .5.224.5.5v6c0 .276-.224.5-.5.5zm-37.5-1h37v-5h-37z" fill="#212a41"/><path d="m22 53h38v6h-38z" fill="#6c696f" transform="matrix(-1 0 0 -1 82 112)"/><path d="m60 59.5h-38c-.276 0-.5-.224-.5-.5v-6c0-.276.224-.5.5-.5h38c.276 0 .5.224.5.5v6c0 .276-.224.5-.5.5zm-37.5-1h37v-5h-37z" fill="#212a41"/><path d="m31 45h-3v8h3c.828 0 1.5-1.791 1.5-4s-.672-4-1.5-4z" fill="#6c696f"/><path d="m31 53.5h-3c-.276 0-.5-.224-.5-.5v-8c0-.276.224-.5.5-.5h3c1.313 0 2 2.264 2 4.5s-.687 4.5-2 4.5zm-2.5-1h2.5c.29 0 1-1.227 1-3.5s-.71-3.5-1-3.5h-2.5z" fill="#212a41"/><path d="m56.5 45h-3v8h3c.828 0 1.5-1.791 1.5-4s-.672-4-1.5-4z" fill="#6c696f"/><path d="m56.5 53.5h-3c-.276 0-.5-.224-.5-.5v-8c0-.276.224-.5.5-.5h3c1.313 0 2 2.264 2 4.5s-.687 4.5-2 4.5zm-2.5-1h2.5c.29 0 1-1.227 1-3.5s-.71-3.5-1-3.5h-2.5z" fill="#212a41"/><ellipse cx="53.5" cy="49" fill="#4e4b51" rx="1.5" ry="4"/><path d="m53.5 53.5c-1.313 0-2-2.264-2-4.5s.687-4.5 2-4.5 2 2.264 2 4.5-.687 4.5-2 4.5zm0-8c-.29 0-1 1.227-1 3.5s.71 3.5 1 3.5 1-1.227 1-3.5-.71-3.5-1-3.5z" fill="#212a41"/><path d="m42 45h-3v8h3c.828 0 1.5-1.791 1.5-4s-.672-4-1.5-4z" fill="#6c696f"/><path d="m42 53.5h-3c-.276 0-.5-.224-.5-.5v-8c0-.276.224-.5.5-.5h3c1.313 0 2 2.264 2 4.5s-.687 4.5-2 4.5zm-2.5-1h2.5c.29 0 1-1.227 1-3.5s-.71-3.5-1-3.5h-2.5z" fill="#212a41"/><path d="m34 39h-8l-1-3h9z" fill="#6c696f"/><path d="m34 39.5h-8c-.215 0-.406-.138-.474-.342l-1-3c-.051-.152-.025-.32.068-.45.094-.131.245-.208.406-.208h9c.276 0 .5.224.5.5v3c0 .276-.224.5-.5.5zm-7.64-1h7.14v-2h-7.806z" fill="#212a41"/><path d="m27 41h11.097l-3-6h-3.027c-.669 0-1.293.334-1.664.891z" fill="#c2c2c2"/><path d="m38.097 41.5h-11.097c-.185 0-.354-.102-.441-.264-.087-.163-.078-.36.025-.514l3.406-5.109c.465-.697 1.242-1.113 2.08-1.113h3.027c.189 0 .362.107.447.276l3 6c.078.155.069.339-.022.486s-.251.238-.425.238zm-10.163-1h9.354l-2.5-5h-2.718c-.502 0-.969.25-1.248.668z" fill="#212a41"/><path d="m44 43-5.903-2h-11.097c-1.105 0-2 .895-2 2v5c0 1.105.895 2 2 2h16c.552 0 1-.448 1-1z" fill="#b51040"/><path d="m43 50.5h-16c-1.378 0-2.5-1.121-2.5-2.5v-5c0-1.379 1.122-2.5 2.5-2.5h11.097c.055 0 .109.009.161.026l5.903 2c.202.07.339.26.339.474v6c0 .827-.673 1.5-1.5 1.5zm-16-9c-.827 0-1.5.673-1.5 1.5v5c0 .827.673 1.5 1.5 1.5h16c.276 0 .5-.225.5-.5v-5.642l-5.485-1.858z" fill="#212a41"/><path d="m42 48.5c-.276 0-.5-.224-.5-.5v-3.363c0-.276.224-.5.5-.5s.5.224.5.5v3.363c0 .276-.224.5-.5.5z" fill="#970022"/><path d="m53.097 41h-15l-3-6h12.93c.669 0 1.293.334 1.664.891z" fill="#e0e0e0"/><path d="m53.097 41.5h-15c-.189 0-.362-.107-.447-.276l-3-6c-.078-.155-.069-.339.022-.486s.252-.237.425-.237h12.93c.838 0 1.615.416 2.08 1.113l3.406 5.109c.102.153.112.351.025.514-.087.161-.256.263-.441.263zm-14.691-1h13.757l-2.888-4.332c-.279-.418-.746-.668-1.248-.668h-12.121z" fill="#212a41"/><path d="m38.097 41 5.224 1.77c.406.137.679.518.679.947v5.283c0 .552-.448 1-1 1h-1 18v-6.246c0-.446-.296-.839-.725-.962l-6.275-1.792z" fill="#d32e5e"/><path d="m60 50.5h-18c-.276 0-.5-.224-.5-.5s.224-.5.5-.5h1c.276 0 .5-.225.5-.5v-5.283c0-.215-.137-.405-.34-.474l-5.224-1.77c-.231-.078-.373-.313-.333-.555s.249-.419.493-.419h14.904c.046 0 .093.007.137.02l6.275 1.793c.64.182 1.088.774 1.088 1.441v6.247c0 .276-.224.5-.5.5zm-15.585-1h15.085v-5.746c0-.222-.149-.419-.362-.48l-6.208-1.774h-11.799l2.35.796c.609.207 1.019.777 1.019 1.421v5.283c0 .175-.03.344-.085.5z" fill="#212a41"/><path d="m44 44h5v3h-5z" fill="#e0e0e0"/><path d="m49 47.5h-5c-.276 0-.5-.224-.5-.5v-3c0-.276.224-.5.5-.5h5c.276 0 .5.224.5.5v3c0 .276-.224.5-.5.5zm-4.5-1h4v-2h-4z" fill="#212a41"/><path d="m55 44h5v3h-5z" fill="#e0e0e0"/><path d="m60 47.5h-5c-.276 0-.5-.224-.5-.5v-3c0-.276.224-.5.5-.5h5c.276 0 .5.224.5.5v3c0 .276-.224.5-.5.5zm-4.5-1h4v-2h-4z" fill="#212a41"/><path d="m49 44h6v3h-6z" fill="#6c696f"/><path d="m55 47.5h-6c-.276 0-.5-.224-.5-.5v-3c0-.276.224-.5.5-.5h6c.276 0 .5.224.5.5v3c0 .276-.224.5-.5.5zm-5.5-1h5v-2h-5z" fill="#212a41"/><path d="m27 41.5c-.276 0-.5-.224-.5-.5v-2c0-.276.224-.5.5-.5s.5.224.5.5v2c0 .276-.224.5-.5.5z" fill="#212a41"/><ellipse cx="39" cy="49" fill="#4e4b51" rx="1.5" ry="4"/><path d="m39 53.5c-1.313 0-2-2.264-2-4.5s.687-4.5 2-4.5 2 2.264 2 4.5-.687 4.5-2 4.5zm0-8c-.29 0-1 1.227-1 3.5s.71 3.5 1 3.5 1-1.227 1-3.5-.71-3.5-1-3.5z" fill="#212a41"/><ellipse cx="28" cy="49" fill="#4e4b51" rx="1.5" ry="4"/><path d="m28 53.5c-1.313 0-2-2.264-2-4.5s.687-4.5 2-4.5 2 2.264 2 4.5-.687 4.5-2 4.5zm0-8c-.29 0-1 1.227-1 3.5s.71 3.5 1 3.5 1-1.227 1-3.5-.71-3.5-1-3.5z" fill="#212a41"/><path d="m10 45h-3v8h3c.828 0 1.5-1.791 1.5-4s-.672-4-1.5-4z" fill="#6c696f"/><path d="m10 53.5h-3c-.276 0-.5-.224-.5-.5v-8c0-.276.224-.5.5-.5h3c1.313 0 2 2.264 2 4.5s-.687 4.5-2 4.5zm-2.5-1h2.5c.29 0 1-1.227 1-3.5s-.71-3.5-1-3.5h-2.5z" fill="#212a41"/><path d="m35.5 45h-3v8h3c.828 0 1.5-1.791 1.5-4s-.672-4-1.5-4z" fill="#6c696f"/><path d="m35.5 53.5h-3c-.276 0-.5-.224-.5-.5v-8c0-.276.224-.5.5-.5h3c1.313 0 2 2.264 2 4.5s-.687 4.5-2 4.5zm-2.5-1h2.5c.29 0 1-1.227 1-3.5s-.71-3.5-1-3.5h-2.5z" fill="#212a41"/><ellipse cx="32.5" cy="49" fill="#4e4b51" rx="1.5" ry="4"/><path d="m32.5 53.5c-1.313 0-2-2.264-2-4.5s.687-4.5 2-4.5 2 2.264 2 4.5-.687 4.5-2 4.5zm0-8c-.29 0-1 1.227-1 3.5s.71 3.5 1 3.5 1-1.227 1-3.5-.71-3.5-1-3.5z" fill="#212a41"/><path d="m21 45h-3v8h3c.828 0 1.5-1.791 1.5-4s-.672-4-1.5-4z" fill="#6c696f"/><path d="m21 53.5h-3c-.276 0-.5-.224-.5-.5v-8c0-.276.224-.5.5-.5h3c1.313 0 2 2.264 2 4.5s-.687 4.5-2 4.5zm-2.5-1h2.5c.29 0 1-1.227 1-3.5s-.71-3.5-1-3.5h-2.5z" fill="#212a41"/><path d="m13 39h-8l-1-3h9z" fill="#6c696f"/><path d="m13 39.5h-8c-.215 0-.406-.138-.474-.342l-1-3c-.051-.152-.025-.32.068-.45.094-.131.245-.208.406-.208h9c.276 0 .5.224.5.5v3c0 .276-.224.5-.5.5zm-7.64-1h7.14v-2h-7.806z" fill="#212a41"/><path d="m6 41h11.097l-3-6h-3.027c-.669 0-1.293.334-1.664.891z" fill="#c2c2c2"/><path d="m17.097 41.5h-11.097c-.185 0-.354-.102-.441-.264-.087-.163-.078-.36.025-.514l3.406-5.109c.465-.697 1.242-1.113 2.08-1.113h3.027c.189 0 .362.107.447.276l3 6c.078.155.069.339-.022.486s-.251.238-.425.238zm-10.163-1h9.354l-2.5-5h-2.718c-.502 0-.969.25-1.248.668z" fill="#212a41"/><path d="m23 43-5.903-2h-11.097c-1.105 0-2 .895-2 2v5c0 1.105.895 2 2 2h16c.552 0 1-.448 1-1z" fill="#db8e11"/><path d="m22 50.5h-16c-1.378 0-2.5-1.121-2.5-2.5v-5c0-1.379 1.122-2.5 2.5-2.5h11.097c.055 0 .109.009.161.026l5.903 2c.202.07.339.26.339.474v6c0 .827-.673 1.5-1.5 1.5zm-16-9c-.827 0-1.5.673-1.5 1.5v5c0 .827.673 1.5 1.5 1.5h16c.276 0 .5-.225.5-.5v-5.642l-5.485-1.858z" fill="#212a41"/><path d="m21 48.5c-.276 0-.5-.224-.5-.5v-3.363c0-.276.224-.5.5-.5s.5.224.5.5v3.363c0 .276-.224.5-.5.5z" fill="#bd7000"/><path d="m32.097 41h-15l-3-6h12.93c.669 0 1.293.334 1.664.891z" fill="#e0e0e0"/><path d="m32.097 41.5h-15c-.189 0-.362-.107-.447-.276l-3-6c-.078-.155-.069-.339.022-.486s.252-.237.425-.237h12.93c.838 0 1.615.416 2.08 1.113l3.406 5.109c.102.153.112.351.025.514-.087.161-.256.263-.441.263zm-14.691-1h13.757l-2.888-4.332c-.279-.418-.746-.668-1.248-.668h-12.121z" fill="#212a41"/><path d="m17.097 41 5.224 1.77c.406.137.679.518.679.947v5.283c0 .552-.448 1-1 1h-1 18v-6.246c0-.446-.296-.839-.725-.962l-6.275-1.792z" fill="#f9ac2f"/><path d="m39 50.5h-18c-.276 0-.5-.224-.5-.5s.224-.5.5-.5h1c.276 0 .5-.225.5-.5v-5.283c0-.215-.137-.405-.34-.474l-5.224-1.77c-.231-.078-.373-.313-.333-.555s.249-.419.493-.419h14.904c.046 0 .093.007.137.02l6.275 1.793c.64.182 1.088.774 1.088 1.441v6.247c0 .276-.224.5-.5.5zm-15.585-1h15.085v-5.746c0-.222-.149-.419-.362-.48l-6.208-1.774h-11.799l2.35.796c.609.207 1.019.777 1.019 1.421v5.283c0 .175-.03.344-.085.5z" fill="#212a41"/><path d="m23 44h5v3h-5z" fill="#e0e0e0"/><path d="m28 47.5h-5c-.276 0-.5-.224-.5-.5v-3c0-.276.224-.5.5-.5h5c.276 0 .5.224.5.5v3c0 .276-.224.5-.5.5zm-4.5-1h4v-2h-4z" fill="#212a41"/><path d="m34 44h5v3h-5z" fill="#e0e0e0"/><path d="m39 47.5h-5c-.276 0-.5-.224-.5-.5v-3c0-.276.224-.5.5-.5h5c.276 0 .5.224.5.5v3c0 .276-.224.5-.5.5zm-4.5-1h4v-2h-4z" fill="#212a41"/><path d="m28 44h6v3h-6z" fill="#6c696f"/><path d="m34 47.5h-6c-.276 0-.5-.224-.5-.5v-3c0-.276.224-.5.5-.5h6c.276 0 .5.224.5.5v3c0 .276-.224.5-.5.5zm-5.5-1h5v-2h-5z" fill="#212a41"/><path d="m6 41.5c-.276 0-.5-.224-.5-.5v-2c0-.276.224-.5.5-.5s.5.224.5.5v2c0 .276-.224.5-.5.5z" fill="#212a41"/><ellipse cx="18" cy="49" fill="#4e4b51" rx="1.5" ry="4"/><path d="m18 53.5c-1.313 0-2-2.264-2-4.5s.687-4.5 2-4.5 2 2.264 2 4.5-.687 4.5-2 4.5zm0-8c-.29 0-1 1.227-1 3.5s.71 3.5 1 3.5 1-1.227 1-3.5-.71-3.5-1-3.5z" fill="#212a41"/><ellipse cx="7" cy="49" fill="#4e4b51" rx="1.5" ry="4"/><path d="m7 53.5c-1.313 0-2-2.264-2-4.5s.687-4.5 2-4.5 2 2.264 2 4.5-.687 4.5-2 4.5zm0-8c-.29 0-1 1.227-1 3.5s.71 3.5 1 3.5 1-1.227 1-3.5-.71-3.5-1-3.5z" fill="#212a41"/><circle cx="30.5" cy="18" fill="#c2c2c2" r="11"/><path d="m30.5 29.5c-6.341 0-11.5-5.159-11.5-11.5s5.159-11.5 11.5-11.5 11.5 5.159 11.5 11.5-5.159 11.5-11.5 11.5zm0-22c-5.79 0-10.5 4.71-10.5 10.5s4.71 10.5 10.5 10.5 10.5-4.71 10.5-10.5-4.71-10.5-10.5-10.5z" fill="#212a41"/><circle cx="33.5" cy="18" fill="#e0e0e0" r="11"/><g fill="#212a41"><path d="m33.5 29.5c-6.341 0-11.5-5.159-11.5-11.5s5.159-11.5 11.5-11.5 11.5 5.159 11.5 11.5-5.159 11.5-11.5 11.5zm0-22c-5.79 0-10.5 4.71-10.5 10.5s4.71 10.5 10.5 10.5 10.5-4.71 10.5-10.5-4.71-10.5-10.5-10.5z"/><path d="m32.395 7.5c-.276 0-.5-.224-.5-.5v-2c0-.276.224-.5.5-.5s.5.224.5.5v2c0 .276-.224.5-.5.5z"/><path d="m34.395 5.5h-4c-.276 0-.5-.224-.5-.5s.224-.5.5-.5h4c.276 0 .5.224.5.5s-.224.5-.5.5z"/></g><path d="m25.5 18c0 1.891.66 3.626 1.757 4.995l6.243-4.995v-8c-4.418 0-8 3.582-8 8z" fill="#b7c0d7"/><path d="m27.257 23.495c-.147 0-.292-.064-.391-.188-1.22-1.524-1.866-3.359-1.866-5.307 0-4.687 3.813-8.5 8.5-8.5.276 0 .5.224.5.5v8c0 .152-.069.296-.188.391l-6.244 4.995c-.091.073-.202.109-.311.109zm5.743-12.978c-3.903.258-7 3.516-7 7.483 0 1.552.464 3.021 1.347 4.282l5.653-4.522z" fill="#212a41"/><path d="m33.5 26.5c-4.687 0-8.5-3.813-8.5-8.5s3.813-8.5 8.5-8.5 8.5 3.813 8.5 8.5-3.813 8.5-8.5 8.5zm0-16c-4.136 0-7.5 3.364-7.5 7.5s3.364 7.5 7.5 7.5 7.5-3.364 7.5-7.5-3.364-7.5-7.5-7.5z" fill="#212a41"/></svg>