<svg id="Icon_Set" enable-background="new 0 0 64 64" height="512" viewBox="0 0 64 64" width="512" xmlns="http://www.w3.org/2000/svg"><path d="m5 55v-46c0-2.209 1.791-4 4-4h42c2.209 0 4 1.791 4 4v46c0 2.209-1.791 4-4 4h-42c-2.209 0-4-1.791-4-4z" fill="#99a2b9"/><path d="m51 59.5h-42c-2.481 0-4.5-2.019-4.5-4.5v-46c0-2.481 2.019-4.5 4.5-4.5h42c2.481 0 4.5 2.019 4.5 4.5v46c0 2.481-2.019 4.5-4.5 4.5zm-42-54c-1.93 0-3.5 1.57-3.5 3.5v46c0 1.93 1.57 3.5 3.5 3.5h42c1.93 0 3.5-1.57 3.5-3.5v-46c0-1.93-1.57-3.5-3.5-3.5z" fill="#212a41"/><path d="m9 55v-46c0-2.209 1.791-4 4-4h42c2.209 0 4 1.791 4 4v46c0 2.209-1.791 4-4 4h-42c-2.209 0-4-1.791-4-4z" fill="#b7c0d7"/><path d="m55 59.5h-42c-2.481 0-4.5-2.019-4.5-4.5v-46c0-2.481 2.019-4.5 4.5-4.5h42c2.481 0 4.5 2.019 4.5 4.5v46c0 2.481-2.019 4.5-4.5 4.5zm-42-54c-1.93 0-3.5 1.57-3.5 3.5v46c0 1.93 1.57 3.5 3.5 3.5h42c1.93 0 3.5-1.57 3.5-3.5v-46c0-1.93-1.57-3.5-3.5-3.5z" fill="#212a41"/><path d="m13 9h42v46h-42z" fill="#0079a8"/><path d="m55 55.5h-42c-.276 0-.5-.224-.5-.5v-46c0-.276.224-.5.5-.5h42c.276 0 .5.224.5.5v46c0 .276-.224.5-.5.5zm-41.5-1h41v-45h-41z" fill="#212a41"/><path d="m53 53.5c-.276 0-.5-.224-.5-.5v-42c0-.276.224-.5.5-.5s.5.224.5.5v42c0 .276-.224.5-.5.5z" fill="#005b8a"/><path d="m15 53.5c-.276 0-.5-.224-.5-.5v-42c0-.276.224-.5.5-.5s.5.224.5.5v42c0 .276-.224.5-.5.5z" fill="#1e97c6"/><path d="m24 28h-4c-.552 0-1-.448-1-1v-10c0-.552.448-1 1-1h4c.552 0 1 .448 1 1v10c0 .552-.448 1-1 1z" fill="#6c696f"/><path d="m24 28.5h-4c-.827 0-1.5-.673-1.5-1.5v-10c0-.827.673-1.5 1.5-1.5h4c.827 0 1.5.673 1.5 1.5v10c0 .827-.673 1.5-1.5 1.5zm-4-12c-.276 0-.5.224-.5.5v10c0 .276.224.5.5.5h4c.276 0 .5-.224.5-.5v-10c0-.276-.224-.5-.5-.5z" fill="#212a41"/><path d="m48 28h-4c-.552 0-1-.448-1-1v-10c0-.552.448-1 1-1h4c.552 0 1 .448 1 1v10c0 .552-.448 1-1 1z" fill="#6c696f"/><path d="m48 28.5h-4c-.827 0-1.5-.673-1.5-1.5v-10c0-.827.673-1.5 1.5-1.5h4c.827 0 1.5.673 1.5 1.5v10c0 .827-.673 1.5-1.5 1.5zm-4-12c-.275 0-.5.224-.5.5v10c0 .276.225.5.5.5h4c.275 0 .5-.224.5-.5v-10c0-.276-.225-.5-.5-.5z" fill="#212a41"/><path d="m25 20.5h18v3h-18z" fill="#e0e0e0"/><path d="m43 24h-18c-.276 0-.5-.224-.5-.5v-3c0-.276.224-.5.5-.5h18c.276 0 .5.224.5.5v3c0 .276-.224.5-.5.5zm-17.5-1h17v-2h-17z" fill="#212a41"/><path d="m24 48h-4c-.552 0-1-.448-1-1v-10c0-.552.448-1 1-1h4c.552 0 1 .448 1 1v10c0 .552-.448 1-1 1z" fill="#6c696f"/><path d="m24 48.5h-4c-.827 0-1.5-.673-1.5-1.5v-10c0-.827.673-1.5 1.5-1.5h4c.827 0 1.5.673 1.5 1.5v10c0 .827-.673 1.5-1.5 1.5zm-4-12c-.276 0-.5.224-.5.5v10c0 .276.224.5.5.5h4c.276 0 .5-.224.5-.5v-10c0-.276-.224-.5-.5-.5z" fill="#212a41"/><path d="m48 48h-4c-.552 0-1-.448-1-1v-10c0-.552.448-1 1-1h4c.552 0 1 .448 1 1v10c0 .552-.448 1-1 1z" fill="#6c696f"/><path d="m48 48.5h-4c-.827 0-1.5-.673-1.5-1.5v-10c0-.827.673-1.5 1.5-1.5h4c.827 0 1.5.673 1.5 1.5v10c0 .827-.673 1.5-1.5 1.5zm-4-12c-.275 0-.5.224-.5.5v10c0 .276.225.5.5.5h4c.275 0 .5-.224.5-.5v-10c0-.276-.225-.5-.5-.5z" fill="#212a41"/><path d="m25 40.5h18v3h-18z" fill="#e0e0e0"/><path d="m43 44h-18c-.276 0-.5-.224-.5-.5v-3c0-.276.224-.5.5-.5h18c.276 0 .5.224.5.5v3c0 .276-.224.5-.5.5zm-17.5-1h17v-2h-17z" fill="#212a41"/><path d="m32.5 20.5h3v21.5h-3z" fill="#e0e0e0"/><path d="m35.5 42.5h-3c-.276 0-.5-.224-.5-.5v-21.5c0-.276.224-.5.5-.5h3c.276 0 .5.224.5.5v21.5c0 .276-.224.5-.5.5zm-2.5-1h2v-20.5h-2z" fill="#212a41"/><circle cx="34" cy="42" fill="#e0e0e0" r="3"/><g fill="#212a41"><path d="m34 45.5c-1.93 0-3.5-1.57-3.5-3.5s1.57-3.5 3.5-3.5 3.5 1.57 3.5 3.5-1.57 3.5-3.5 3.5zm0-6c-1.378 0-2.5 1.122-2.5 2.5s1.122 2.5 2.5 2.5c1.379 0 2.5-1.122 2.5-2.5s-1.121-2.5-2.5-2.5z"/><path d="m22 18.5c-.276 0-.5-.224-.5-.5v-4c0-.276.224-.5.5-.5s.5.224.5.5v4c0 .276-.224.5-.5.5z"/><path d="m46 18.5c-.276 0-.5-.224-.5-.5v-4c0-.276.224-.5.5-.5s.5.224.5.5v4c0 .276-.224.5-.5.5z"/><path d="m22 26.5c-.276 0-.5-.224-.5-.5v-4c0-.276.224-.5.5-.5s.5.224.5.5v4c0 .276-.224.5-.5.5z"/><path d="m46 26.5c-.276 0-.5-.224-.5-.5v-4c0-.276.224-.5.5-.5s.5.224.5.5v4c0 .276-.224.5-.5.5z"/><path d="m22 34.5c-.276 0-.5-.224-.5-.5v-4c0-.276.224-.5.5-.5s.5.224.5.5v4c0 .276-.224.5-.5.5z"/><path d="m46 34.5c-.276 0-.5-.224-.5-.5v-4c0-.276.224-.5.5-.5s.5.224.5.5v4c0 .276-.224.5-.5.5z"/><path d="m22 42.5c-.276 0-.5-.224-.5-.5v-4c0-.276.224-.5.5-.5s.5.224.5.5v4c0 .276-.224.5-.5.5z"/><path d="m46 42.5c-.276 0-.5-.224-.5-.5v-4c0-.276.224-.5.5-.5s.5.224.5.5v4c0 .276-.224.5-.5.5z"/><path d="m22 50.5c-.276 0-.5-.224-.5-.5v-4c0-.276.224-.5.5-.5s.5.224.5.5v4c0 .276-.224.5-.5.5z"/><path d="m46 50.5c-.276 0-.5-.224-.5-.5v-4c0-.276.224-.5.5-.5s.5.224.5.5v4c0 .276-.224.5-.5.5z"/></g></svg>