<svg id="Icon_Set" enable-background="new 0 0 64 64" height="512" viewBox="0 0 64 64" width="512" xmlns="http://www.w3.org/2000/svg"><path d="m50 30h-4c-.552 0-1-.448-1-1v-2c0-.552.448-1 1-1h4c.552 0 1 .448 1 1v2c0 .552-.448 1-1 1z" fill="#d32e5e"/><path d="m50 30.5h-4c-.827 0-1.5-.673-1.5-1.5v-2c0-.827.673-1.5 1.5-1.5h4c.827 0 1.5.673 1.5 1.5v2c0 .827-.673 1.5-1.5 1.5zm-4-4c-.275 0-.5.224-.5.5v2c0 .276.225.5.5.5h4c.275 0 .5-.224.5-.5v-2c0-.276-.225-.5-.5-.5z" fill="#212a41"/><path d="m4 50h46v10h-46z" fill="#4e4b51"/><path d="m50 60.5h-46c-.276 0-.5-.224-.5-.5v-10c0-.276.224-.5.5-.5h46c.276 0 .5.224.5.5v10c0 .276-.224.5-.5.5zm-45.5-1h45v-9h-45z" fill="#212a41"/><path d="m52 34h-5v16h5c2.209 0 4-3.582 4-8s-1.791-8-4-8z" fill="#6c696f"/><path d="m52 50.5h-5c-.276 0-.5-.224-.5-.5v-16c0-.276.224-.5.5-.5h5c2.523 0 4.5 3.733 4.5 8.5s-1.977 8.5-4.5 8.5zm-4.5-1h4.5c1.897 0 3.5-3.435 3.5-7.5s-1.603-7.5-3.5-7.5h-4.5z" fill="#212a41"/><ellipse cx="47" cy="42" fill="#4e4b51" rx="4" ry="8"/><path d="m47 50.5c-2.523 0-4.5-3.733-4.5-8.5s1.977-8.5 4.5-8.5 4.5 3.733 4.5 8.5-1.977 8.5-4.5 8.5zm0-16c-1.897 0-3.5 3.435-3.5 7.5s1.603 7.5 3.5 7.5 3.5-3.435 3.5-7.5-1.603-7.5-3.5-7.5z" fill="#212a41"/><ellipse cx="47" cy="42" fill="#b51040" rx="1.5" ry="4"/><path d="m47 46.5c-1.313 0-2-2.264-2-4.5s.687-4.5 2-4.5 2 2.264 2 4.5-.687 4.5-2 4.5zm0-8c-.29 0-1 1.227-1 3.5s.71 3.5 1 3.5 1-1.227 1-3.5-.71-3.5-1-3.5z" fill="#212a41"/><path d="m18 34h-5v16h5c2.209 0 4-3.582 4-8s-1.791-8-4-8z" fill="#6c696f"/><path d="m18 50.5h-5c-.276 0-.5-.224-.5-.5v-16c0-.276.224-.5.5-.5h5c2.523 0 4.5 3.733 4.5 8.5s-1.977 8.5-4.5 8.5zm-4.5-1h4.5c1.897 0 3.5-3.435 3.5-7.5s-1.603-7.5-3.5-7.5h-4.5z" fill="#212a41"/><path d="m13 28 11.051 3.684c.597.199 1.066.668 1.265 1.265l1.684 5.051h32l-1.684-5.051c-.199-.597-.668-1.066-1.265-1.265l-11.051-3.684z" fill="#d32e5e"/><path d="m59 38.5h-32c-.215 0-.406-.138-.474-.342l-1.684-5.051c-.149-.446-.503-.8-.949-.949l-11.051-3.684c-.232-.077-.375-.312-.335-.554s.249-.42.494-.42h32c.054 0 .107.009.158.026l11.052 3.684c.742.248 1.333.839 1.581 1.581l1.684 5.051c.051.152.025.32-.069.451-.095.13-.246.207-.407.207zm-31.64-1h30.946l-1.465-4.393c-.148-.446-.503-.8-.948-.949l-10.974-3.658h-28.838l8.128 2.709c.743.248 1.333.838 1.581 1.581z" fill="#212a41"/><path d="m4 18h27.552c.936 0 1.842.328 2.561.927l10.887 9.073h-32z" fill="#e0e0e0"/><path d="m45 28.5h-32c-.142 0-.277-.06-.372-.166l-9-10c-.132-.147-.166-.357-.085-.538.081-.18.26-.296.457-.296h27.552c1.051 0 2.073.371 2.881 1.043l10.888 9.073c.161.135.222.356.149.555-.072.197-.259.329-.47.329zm-31.777-1h30.396l-9.827-8.188c-.628-.523-1.423-.812-2.24-.812h-26.429z" fill="#212a41"/><path d="m13.891 26.5c-.137 0-.273-.056-.372-.166l-5.4-6c-.185-.205-.168-.521.037-.706s.521-.169.706.037l5.4 6c.185.205.168.521-.037.706-.096.087-.215.129-.334.129z" fill="#fefefe"/><path d="m39.476 26.5c-.113 0-.227-.038-.32-.116l-6.644-5.536c-.212-.177-.241-.492-.064-.705.176-.212.491-.241.705-.064l6.644 5.536c.212.177.24.492.063.705-.099.119-.242.18-.384.18z" fill="#c2c2c2"/><path d="m4 38h31v9h-31z" fill="#db8e11"/><path d="m35 47.5h-31c-.276 0-.5-.224-.5-.5v-9c0-.276.224-.5.5-.5h31c.276 0 .5.224.5.5v9c0 .276-.224.5-.5.5zm-30.5-1h30v-8h-30z" fill="#212a41"/><path d="m4 28v10h23l-1.684-5.051c-.199-.597-.668-1.066-1.265-1.265l-11.051-3.684z" fill="#b51040"/><path d="m27 38.5h-23c-.276 0-.5-.224-.5-.5v-10c0-.276.224-.5.5-.5h9c.054 0 .107.009.158.026l11.051 3.684c.743.248 1.333.838 1.581 1.581l1.684 5.051c.051.152.025.32-.068.451-.094.13-.245.207-.406.207zm-22.5-1h21.806l-1.464-4.393c-.149-.446-.503-.8-.949-.949l-10.974-3.658h-8.419z" fill="#212a41"/><path d="m24.349 36.5c-.198 0-.385-.118-.464-.313l-.981-2.437c-.103-.256.021-.548.277-.651.255-.102.547.021.651.277l.981 2.437c.103.256-.021.548-.277.651-.062.024-.125.036-.187.036z" fill="#970022"/><ellipse cx="13" cy="42" fill="#4e4b51" rx="4" ry="8"/><path d="m13 50.5c-2.523 0-4.5-3.733-4.5-8.5s1.977-8.5 4.5-8.5 4.5 3.733 4.5 8.5-1.977 8.5-4.5 8.5zm0-16c-1.897 0-3.5 3.435-3.5 7.5s1.603 7.5 3.5 7.5 3.5-3.435 3.5-7.5-1.603-7.5-3.5-7.5z" fill="#212a41"/><ellipse cx="13" cy="42" fill="#b51040" rx="1.5" ry="4"/><path d="m13 46.5c-1.313 0-2-2.264-2-4.5s.687-4.5 2-4.5 2 2.264 2 4.5-.687 4.5-2 4.5zm0-8c-.29 0-1 1.227-1 3.5s.71 3.5 1 3.5 1-1.227 1-3.5-.71-3.5-1-3.5z" fill="#212a41"/><path d="m35 34s-7.703-.002-9.334-.002l1.334 4.002h10z" fill="#e0e0e0"/><path d="m37 38.5h-10c-.215 0-.406-.138-.474-.342l-1.334-4.002c-.051-.152-.025-.32.068-.451.094-.13.245-.208.406-.208l9.334.003c.189 0 .362.107.447.276l2 4c.077.155.069.339-.021.486-.092.148-.253.238-.426.238zm-9.64-1h8.831l-1.5-3-8.332-.002z" fill="#212a41"/><path d="m51 34-2 4h10l-1.334-4.002c-.91 0-6.666.002-6.666.002z" fill="#e0e0e0"/><path d="m59 38.5h-10c-.173 0-.334-.09-.426-.237-.091-.147-.099-.332-.021-.486l2-4c.085-.17.258-.277.447-.277l6.666-.002c.215 0 .406.138.475.342l1.334 4.002c.051.152.025.32-.069.451-.094.13-.245.207-.406.207zm-9.191-1h8.498l-1.001-3.002-5.997.002z" fill="#212a41"/><path d="m59 38h-32c-.552 0-1 .448-1 1v7c0 .552.448 1 1 1h32c.552 0 1-.448 1-1v-7c0-.552-.448-1-1-1z" fill="#f9ac2f"/><path d="m59 47.5h-32c-.827 0-1.5-.673-1.5-1.5v-7c0-.827.673-1.5 1.5-1.5h32c.827 0 1.5.673 1.5 1.5v7c0 .827-.673 1.5-1.5 1.5zm-32-9c-.276 0-.5.224-.5.5v7c0 .276.224.5.5.5h32c.275 0 .5-.224.5-.5v-7c0-.276-.225-.5-.5-.5z" fill="#212a41"/><path d="m4 18 9 10h-9z" fill="#c2c2c2"/><path d="m13 28.5h-9c-.276 0-.5-.224-.5-.5v-10c0-.207.127-.393.321-.467s.413-.021.551.132l9 10c.132.147.166.357.085.538s-.26.297-.457.297zm-8.5-1h7.377l-7.377-8.197z" fill="#212a41"/><path d="m14 50h46v10h-46z" fill="#6c696f"/><path d="m60 60.5h-46c-.276 0-.5-.224-.5-.5v-10c0-.276.224-.5.5-.5h46c.276 0 .5.224.5.5v10c0 .276-.224.5-.5.5zm-45.5-1h45v-9h-45z" fill="#212a41"/><path d="m43 9c0 1.105.895 2 2 2h8c1.105 0 2-.895 2-2 0-1.105-.895-2-2-2h-1.042c0-1.657-1.343-3-3-3s-3 1.343-3 3h-.958c-1.105 0-2 .895-2 2z" fill="#99a2b9"/><path d="m53 11.5h-8c-1.379 0-2.5-1.122-2.5-2.5s1.121-2.5 2.5-2.5h.493c.244-1.694 1.705-3 3.465-3s3.221 1.306 3.465 3h.577c1.379 0 2.5 1.122 2.5 2.5s-1.121 2.5-2.5 2.5zm-8-4c-.827 0-1.5.673-1.5 1.5s.673 1.5 1.5 1.5h8c.827 0 1.5-.673 1.5-1.5s-.673-1.5-1.5-1.5h-1.042c-.276 0-.5-.224-.5-.5 0-1.378-1.121-2.5-2.5-2.5s-2.5 1.122-2.5 2.5c0 .276-.224.5-.5.5z" fill="#212a41"/><path d="m56.958 7c0-1.657-1.343-3-3-3s-3 1.343-3 3h-.958c-1.105 0-2 .895-2 2 0 1.105.895 2 2 2h8c1.105 0 2-.895 2-2 0-1.105-.895-2-2-2z" fill="#b7c0d7"/><path d="m58 11.5h-8c-1.379 0-2.5-1.122-2.5-2.5s1.121-2.5 2.5-2.5h.493c.244-1.694 1.705-3 3.465-3s3.221 1.306 3.465 3h.577c1.379 0 2.5 1.122 2.5 2.5s-1.121 2.5-2.5 2.5zm-8-4c-.827 0-1.5.673-1.5 1.5s.673 1.5 1.5 1.5h8c.827 0 1.5-.673 1.5-1.5s-.673-1.5-1.5-1.5h-1.042c-.276 0-.5-.224-.5-.5 0-1.378-1.121-2.5-2.5-2.5s-2.5 1.122-2.5 2.5c0 .276-.224.5-.5.5zm7.458-.5h.01z" fill="#212a41"/><path d="m28 45.5c-.276 0-.5-.224-.5-.5v-5c0-.276.224-.5.5-.5s.5.224.5.5v5c0 .276-.224.5-.5.5z" fill="#ffca4d"/><path d="m58 45.5c-.276 0-.5-.224-.5-.5v-5c0-.276.224-.5.5-.5s.5.224.5.5v5c0 .276-.224.5-.5.5z" fill="#db8e11"/><path d="m6 36.5c-.276 0-.5-.224-.5-.5v-4c0-.276.224-.5.5-.5s.5.224.5.5v4c0 .276-.224.5-.5.5z" fill="#d32e5e"/><path d="m6 45.5c-.276 0-.5-.224-.5-.5v-5c0-.276.224-.5.5-.5s.5.224.5.5v5c0 .276-.224.5-.5.5z" fill="#f9ac2f"/><path d="m24 45.5c-.276 0-.5-.224-.5-.5v-5c0-.276.224-.5.5-.5s.5.224.5.5v5c0 .276-.224.5-.5.5z" fill="#bd7000"/><path d="m58 58.5c-.276 0-.5-.224-.5-.5v-6c0-.276.224-.5.5-.5s.5.224.5.5v6c0 .276-.224.5-.5.5z" fill="#4e4b51"/><path d="m16 58.5c-.276 0-.5-.224-.5-.5v-6c0-.276.224-.5.5-.5s.5.224.5.5v6c0 .276-.224.5-.5.5z" fill="#8a878d"/><path d="m6 58.5c-.276 0-.5-.224-.5-.5v-6c0-.276.224-.5.5-.5s.5.224.5.5v6c0 .276-.224.5-.5.5z" fill="#6c696f"/><path d="m49 38h-12l-2-4h16z" fill="#6c696f"/><path d="m49 38.5h-12c-.189 0-.362-.107-.447-.276l-2-4c-.077-.155-.069-.339.021-.486.092-.148.253-.238.426-.238h16c.173 0 .334.09.426.237.091.147.099.332.021.486l-2 4c-.085.17-.258.277-.447.277zm-11.691-1h11.383l1.5-3h-14.383z" fill="#212a41"/><path d="m52.339 44h-18l2-6h14z" fill="#6c696f"/><path d="m52.339 44.5h-18c-.161 0-.312-.077-.405-.208-.095-.13-.12-.298-.069-.451l2-6c.068-.204.26-.342.475-.342h14c.215 0 .406.138.475.342l2 6c.051.152.025.32-.069.451-.096.131-.246.208-.407.208zm-17.307-1h16.613l-1.667-5h-13.279z" fill="#212a41"/><path d="m36.6 21-2.487-2.073c-.719-.599-1.625-.927-2.561-.927h-27.552l2.7 3z" fill="#b7c0d7"/><path d="m36.6 21.5h-29.9c-.142 0-.277-.06-.372-.166l-2.7-3c-.132-.147-.166-.357-.085-.538.081-.18.26-.296.457-.296h27.552c1.051 0 2.073.371 2.881 1.043l2.487 2.073c.161.135.222.356.149.555-.071.197-.258.329-.469.329zm-29.677-1h28.296l-1.427-1.188c-.628-.523-1.423-.812-2.24-.812h-26.429z" fill="#212a41"/><path d="m9 30h-4c-.552 0-1-.448-1-1v-2c0-.552.448-1 1-1h4c.552 0 1 .448 1 1v2c0 .552-.448 1-1 1z" fill="#d32e5e"/><path d="m9 30.5h-4c-.827 0-1.5-.673-1.5-1.5v-2c0-.827.673-1.5 1.5-1.5h4c.827 0 1.5.673 1.5 1.5v2c0 .827-.673 1.5-1.5 1.5zm-4-4c-.276 0-.5.224-.5.5v2c0 .276.224.5.5.5h4c.276 0 .5-.224.5-.5v-2c0-.276-.224-.5-.5-.5z" fill="#212a41"/></svg>