<svg id="Icon_Set" enable-background="new 0 0 64 64" height="512" viewBox="0 0 64 64" width="512" xmlns="http://www.w3.org/2000/svg"><path d="m53 22h2c.552 0 1-.448 1-1v-14c0-.552-.448-1-1-1h-2c-.552 0-1 .448-1 1v14c0 .552.448 1 1 1z" fill="#b7c0d7"/><path d="m55 22.5h-2c-.827 0-1.5-.673-1.5-1.5v-14c0-.827.673-1.5 1.5-1.5h2c.827 0 1.5.673 1.5 1.5v14c0 .827-.673 1.5-1.5 1.5zm-2-16c-.275 0-.5.224-.5.5v14c0 .276.225.5.5.5h2c.275 0 .5-.224.5-.5v-14c0-.276-.225-.5-.5-.5z" fill="#212a41"/><path d="m52 8h-24c-13.255 0-24 10.745-24 24s10.745 24 24 24 24-10.745 24-24c0-4.373-1.175-8.469-3.219-12h3.219zm-15.167 25.762c-.672 3.543-3.528 6.4-7.071 7.071-6.341 1.202-11.796-4.254-10.594-10.594.672-3.543 3.528-6.4 7.071-7.071 6.34-1.203 11.796 4.253 10.594 10.594z" fill="#99a2b9"/><path d="m28 56.5c-13.51 0-24.5-10.991-24.5-24.5s10.99-24.5 24.5-24.5h24c.276 0 .5.224.5.5v12c0 .276-.224.5-.5.5h-2.369c1.88 3.53 2.869 7.488 2.869 11.5 0 13.509-10.99 24.5-24.5 24.5zm0-48c-12.958 0-23.5 10.542-23.5 23.5s10.542 23.5 23.5 23.5 23.5-10.542 23.5-23.5c0-4.124-1.09-8.187-3.151-11.75-.09-.155-.09-.346-.001-.5.09-.155.255-.25.434-.25h2.718v-11zm-.019 33.002c-2.514 0-4.884-.97-6.698-2.784-2.261-2.26-3.211-5.385-2.607-8.573.712-3.755 3.714-6.757 7.47-7.469 3.189-.604 6.312.346 8.571 2.606 2.261 2.26 3.211 5.385 2.607 8.573-.712 3.755-3.714 6.757-7.47 7.469-.628.119-1.255.178-1.873.178zm.033-18.003c-.555 0-1.117.053-1.683.16-3.354.636-6.036 3.318-6.673 6.673-.541 2.857.309 5.656 2.332 7.679s4.818 2.872 7.679 2.331c3.354-.636 6.036-3.318 6.673-6.673.541-2.857-.309-5.656-2.332-7.679-1.623-1.624-3.745-2.491-5.996-2.491zm8.819 10.263h.01z" fill="#212a41"/><path d="m56 8h-22c-13.255 0-24 10.745-24 24s10.745 24 24 24 24-10.745 24-24c0-4.373-1.175-8.469-3.219-12h1.219zm-13.167 25.762c-.672 3.543-3.528 6.4-7.071 7.071-6.341 1.202-11.796-4.254-10.594-10.594.672-3.543 3.528-6.4 7.071-7.071 6.34-1.203 11.796 4.253 10.594 10.594z" fill="#b7c0d7"/><path d="m34 56.5c-13.51 0-24.5-10.991-24.5-24.5s10.99-24.5 24.5-24.5h22c.276 0 .5.224.5.5v12c0 .276-.224.5-.5.5h-.369c1.88 3.53 2.869 7.488 2.869 11.5 0 13.509-10.99 24.5-24.5 24.5zm0-48c-12.958 0-23.5 10.542-23.5 23.5s10.542 23.5 23.5 23.5 23.5-10.542 23.5-23.5c0-4.124-1.09-8.187-3.151-11.75-.09-.155-.09-.346-.001-.5.09-.155.255-.25.434-.25h.718v-11zm-.019 33.002c-2.514 0-4.884-.97-6.698-2.784-2.261-2.26-3.211-5.385-2.607-8.573.712-3.755 3.714-6.757 7.47-7.469 3.19-.604 6.312.346 8.571 2.606 2.261 2.26 3.211 5.385 2.607 8.573-.712 3.755-3.714 6.757-7.47 7.469-.628.119-1.255.178-1.873.178zm.033-18.003c-.555 0-1.117.053-1.683.16-3.354.636-6.036 3.318-6.673 6.673-.541 2.857.309 5.656 2.332 7.679s4.819 2.872 7.679 2.331c3.354-.636 6.036-3.318 6.673-6.673.541-2.857-.309-5.656-2.332-7.679-1.623-1.624-3.745-2.491-5.996-2.491zm8.819 10.263h.01z" fill="#212a41"/><path d="m12 32.5c-.276 0-.5-.224-.5-.5 0-12.407 10.094-22.5 22.5-22.5.276 0 .5.224.5.5s-.224.5-.5.5c-11.855 0-21.5 9.645-21.5 21.5 0 .276-.224.5-.5.5z" fill="#d5def5"/><path d="m34 54.5c-.276 0-.5-.224-.5-.5s.224-.5.5-.5c11.855 0 21.5-9.645 21.5-21.5 0-.276.224-.5.5-.5s.5.224.5.5c0 12.407-10.094 22.5-22.5 22.5z" fill="#99a2b9"/><path d="m56 20.5h-22c-.276 0-.5-.224-.5-.5s.224-.5.5-.5h21.5v-11h-21.5c-.276 0-.5-.224-.5-.5s.224-.5.5-.5h22c.276 0 .5.224.5.5v12c0 .276-.224.5-.5.5z" fill="#212a41"/><path d="m34 44.5c-6.893 0-12.5-5.607-12.5-12.5s5.607-12.5 12.5-12.5 12.5 5.607 12.5 12.5-5.607 12.5-12.5 12.5zm0-24c-6.341 0-11.5 5.159-11.5 11.5s5.159 11.5 11.5 11.5 11.5-5.159 11.5-11.5-5.159-11.5-11.5-11.5z" fill="#212a41"/><path d="m57 22h2c.552 0 1-.448 1-1v-14c0-.552-.448-1-1-1h-2c-.552 0-1 .448-1 1v14c0 .552.448 1 1 1z" fill="#b7c0d7"/><path d="m59 22.5h-2c-.827 0-1.5-.673-1.5-1.5v-14c0-.827.673-1.5 1.5-1.5h2c.827 0 1.5.673 1.5 1.5v14c0 .827-.673 1.5-1.5 1.5zm-2-16c-.275 0-.5.224-.5.5v14c0 .276.225.5.5.5h2c.275 0 .5-.224.5-.5v-14c0-.276-.225-.5-.5-.5z" fill="#212a41"/><path d="m32.5 23.134v5.245l-3.716-3.716c-.82.584-1.537 1.301-2.121 2.121l3.716 3.716h-5.245c-.167 1.035-.161 2.043 0 3h5.245l-3.704 3.704c.584.821 1.3 1.537 2.121 2.121l3.704-3.704v5.245c.957.161 1.965.166 3 0v-5.245l3.716 3.716c.82-.584 1.537-1.301 2.121-2.121l-3.716-3.716h5.245c.167-1.035.161-2.043 0-3h-5.245l3.704-3.704c-.584-.821-1.3-1.537-2.121-2.121l-3.704 3.704v-5.245c-.957-.161-1.965-.167-3 0z" fill="#e0e0e0"/><path d="m33.981 41.489c-.528 0-1.051-.043-1.564-.129-.24-.041-.417-.25-.417-.494v-4.038l-2.851 2.851c-.173.172-.444.195-.644.054-.866-.616-1.619-1.37-2.238-2.239-.142-.199-.119-.471.054-.644l2.851-2.85h-4.038c-.244 0-.452-.176-.493-.417-.173-1.025-.173-2.089-.001-3.162.039-.243.249-.421.494-.421h4.038l-2.863-2.863c-.173-.173-.195-.445-.054-.644.618-.867 1.371-1.62 2.238-2.238.196-.142.47-.119.644.054l2.863 2.863v-4.038c0-.246.178-.455.42-.494 1.072-.173 2.136-.173 3.163 0 .24.041.417.25.417.494v4.038l2.851-2.851c.173-.173.444-.196.644-.054.866.616 1.619 1.37 2.238 2.239.142.199.119.471-.054.644l-2.851 2.85h4.038c.244 0 .452.176.493.417.173 1.025.173 2.089.001 3.162-.039.243-.249.421-.494.421h-4.038l2.863 2.863c.173.172.195.445.054.644-.616.866-1.369 1.619-2.238 2.239-.198.14-.472.119-.644-.054l-2.863-2.864v4.038c0 .246-.178.455-.42.494-.536.086-1.07.129-1.599.129zm-.981-1.056c.654.076 1.324.075 2-.002v-4.809c0-.202.122-.385.309-.462.187-.078.402-.035.545.108l3.41 3.41c.526-.416 1-.889 1.414-1.414l-3.41-3.41c-.143-.143-.186-.358-.108-.545.076-.187.259-.309.461-.309h4.81c.077-.677.078-1.347.002-2h-4.812c-.202 0-.385-.122-.462-.309s-.034-.402.108-.545l3.397-3.397c-.415-.527-.889-1-1.414-1.415l-3.397 3.397c-.144.143-.359.187-.545.108-.186-.075-.308-.258-.308-.46v-4.812c-.655-.076-1.323-.075-2 .002v4.809c0 .202-.122.385-.309.462-.186.079-.401.036-.545-.108l-3.41-3.41c-.525.415-.999.889-1.414 1.415l3.41 3.41c.143.143.186.358.108.545-.076.186-.259.308-.461.308h-4.81c-.077.677-.078 1.347-.002 2h4.812c.202 0 .385.122.462.309s.034.402-.108.545l-3.397 3.397c.415.527.889 1 1.414 1.415l3.397-3.397c.144-.143.359-.187.545-.108.186.075.308.258.308.46z" fill="#212a41"/><path d="m52 36h-4c-.552 0-1-.448-1-1v-6c0-.552.448-1 1-1h4c.552 0 1 .448 1 1v6c0 .552-.448 1-1 1z" fill="#e0e0e0"/><path d="m52 36.5h-4c-.827 0-1.5-.673-1.5-1.5v-6c0-.827.673-1.5 1.5-1.5h4c.827 0 1.5.673 1.5 1.5v6c0 .827-.673 1.5-1.5 1.5zm-4-8c-.275 0-.5.224-.5.5v6c0 .276.225.5.5.5h4c.275 0 .5-.224.5-.5v-6c0-.276-.225-.5-.5-.5z" fill="#212a41"/><circle cx="50" cy="32" fill="#e0e0e0" r="2"/><path d="m50 34.5c-1.379 0-2.5-1.122-2.5-2.5s1.121-2.5 2.5-2.5 2.5 1.122 2.5 2.5-1.121 2.5-2.5 2.5zm0-4c-.827 0-1.5.673-1.5 1.5s.673 1.5 1.5 1.5 1.5-.673 1.5-1.5-.673-1.5-1.5-1.5z" fill="#212a41"/><path d="m40 53h-12c-.552 0-1 .448-1 1v2c0 .552.448 1 1 1h12c.552 0 1-.448 1-1v-2c0-.552-.448-1-1-1z" fill="#b7c0d7"/><path d="m40 57.5h-12c-.827 0-1.5-.673-1.5-1.5v-2c0-.827.673-1.5 1.5-1.5h12c.827 0 1.5.673 1.5 1.5v2c0 .827-.673 1.5-1.5 1.5zm-12-4c-.275 0-.5.224-.5.5v2c0 .276.225.5.5.5h12c.275 0 .5-.224.5-.5v-2c0-.276-.225-.5-.5-.5z" fill="#212a41"/><path d="m37 52h-6c-.552 0-1 .448-1 1v4c0 .552.448 1 1 1h6c.552 0 1-.448 1-1v-4c0-.552-.448-1-1-1z" fill="#b7c0d7"/><path d="m37 58.5h-6c-.827 0-1.5-.673-1.5-1.5v-4c0-.827.673-1.5 1.5-1.5h6c.827 0 1.5.673 1.5 1.5v4c0 .827-.673 1.5-1.5 1.5zm-6-6c-.275 0-.5.224-.5.5v4c0 .276.225.5.5.5h6c.275 0 .5-.224.5-.5v-4c0-.276-.225-.5-.5-.5z" fill="#212a41"/></svg>